<svg xmlns="http://www.w3.org/2000/svg" width="22" height="22" viewBox="0 0 22 22">
    <defs>
        <filter id="ai7yf3qz9a">
            <feColorMatrix in="SourceGraphic" values="0 0 0 0 1.000000 0 0 0 0 1.000000 0 0 0 0 1.000000 0 0 0 1.000000 0"/>
        </filter>
    </defs>
    <g fill="none" fill-rule="evenodd">
        <g>
            <g transform="translate(-495 -169) translate(495 169)">
                <circle cx="11" cy="11" r="11" fill="#FF4081"/>
                <g filter="url(#ai7yf3qz9a)">
                    <g>
                        <path fill="#000" fill-rule="nonzero" d="M4.24 0H.802C.36 0 0 .36 0 .802v2.063c0 .442.36.802.802.802H4.24c.442 0 .802-.36.802-.802V.802C5.042.36 4.682 0 4.24 0zM4.24 4.583H.802c-.442 0-.802.36-.802.802v4.813c0 .442.36.802.802.802H4.24c.442 0 .802-.36.802-.802V5.385c0-.442-.36-.802-.802-.802zM10.198 7.333H6.76c-.442 0-.802.36-.802.802v2.063c0 .442.36.802.802.802h3.438c.442 0 .802-.36.802-.802V8.135c0-.442-.36-.802-.802-.802zM10.198 0H6.76c-.442 0-.802.36-.802.802v4.813c0 .442.36.802.802.802h3.438c.442 0 .802-.36.802-.802V.802C11 .36 10.64 0 10.198 0z" transform="translate(5 6)"/>
                    </g>
                </g>
            </g>
        </g>
    </g>
</svg>
