<svg xmlns="http://www.w3.org/2000/svg" width="22" height="22" viewBox="0 0 22 22">
    <defs>
        <filter id="69rziq7iea">
            <feColorMatrix in="SourceGraphic" values="0 0 0 0 1.000000 0 0 0 0 1.000000 0 0 0 0 1.000000 0 0 0 1.000000 0"/>
        </filter>
    </defs>
    <g fill="none" fill-rule="evenodd">
        <g>
            <g transform="translate(-133 -169) translate(133 169)">
                <circle cx="11" cy="11" r="11" fill="#009688"/>
                <g filter="url(#69rziq7iea)">
                    <g fill="#000" fill-rule="nonzero">
                        <path d="M7 2.017c-.242 0-.438-.196-.438-.438V.438C6.563.196 6.758 0 7 0s.438.196.438.438v1.141c0 .242-.196.438-.438.438zM10.833 3.604c-.112 0-.224-.042-.31-.128-.17-.17-.17-.448 0-.619l.808-.807c.171-.171.448-.171.62 0 .17.17.17.448 0 .619l-.808.807c-.086.085-.198.128-.31.128zM13.563 7.438H12.42c-.242 0-.438-.196-.438-.438s.196-.438.438-.438h1.142c.241 0 .437.196.437.438s-.196.438-.438.438zM11.64 12.078c-.112 0-.224-.043-.309-.128l-.807-.808c-.171-.17-.171-.448 0-.619.17-.17.448-.17.619 0l.807.808c.171.17.171.448 0 .619-.086.085-.198.128-.31.128zM2.36 12.078c-.112 0-.224-.043-.31-.128-.17-.171-.17-.448 0-.62l.808-.807c.17-.17.448-.17.619 0 .17.171.17.448 0 .62l-.808.807c-.085.085-.197.128-.31.128zM1.58 7.438H.436C.197 7.438 0 7.242 0 7s.196-.438.438-.438h1.141c.242 0 .438.196.438.438s-.196.438-.438.438zM3.167 3.604c-.112 0-.224-.042-.31-.128L2.05 2.67c-.17-.171-.17-.448 0-.62.171-.17.448-.17.62 0l.807.808c.17.171.17.448 0 .62-.087.084-.198.127-.31.127zM8.75 12.25v.73c0 .56-.46 1.02-1.02 1.02H6.27c-.49 0-1.02-.373-1.02-1.19v-.56h3.5zM9.572 3.827c-.956-.776-2.216-1.08-3.447-.817-1.546.32-2.8 1.58-3.12 3.127-.327 1.586.268 3.161 1.54 4.124.343.257.583.653.664 1.114v.006c.012-.006.03-.006.041-.006h3.5c.012 0 .018 0 .03.006v-.006c.08-.443.343-.852.746-1.167.986-.781 1.557-1.948 1.557-3.208 0-1.237-.548-2.392-1.51-3.173zm-.384 3.465c-.24 0-.438-.199-.438-.438 0-.886-.717-1.604-1.604-1.604-.24 0-.438-.198-.438-.438 0-.239.199-.437.438-.437 1.365 0 2.479 1.114 2.479 2.48 0 .238-.198.437-.438.437z" transform="translate(4 4)"/>
                        <path d="M5.21 11.375h.04c-.012 0-.03 0-.04.006v-.006zM8.78 11.375v.006c-.012-.006-.018-.006-.03-.006h.03z" transform="translate(4 4)"/>
                    </g>
                </g>
            </g>
        </g>
    </g>
</svg>
