<svg xmlns="http://www.w3.org/2000/svg" width="22" height="22" viewBox="0 0 22 22">
    <defs>
        <filter id="7jiyxm4h6a">
            <feColorMatrix in="SourceGraphic" values="0 0 0 0 1.000000 0 0 0 0 1.000000 0 0 0 0 1.000000 0 0 0 1.000000 0"/>
        </filter>
    </defs>
    <g fill="none" fill-rule="evenodd">
        <g>
            <g transform="translate(-252 -169) translate(252 169)">
                <circle cx="11" cy="11" r="11" fill="#0288D1"/>
                <g filter="url(#7jiyxm4h6a)">
                    <g fill="#000" fill-rule="nonzero">
                        <path d="M6.14 3.424c-.44 0-.799-.358-.799-.799V0H1.255C.563 0 0 .563 0 1.255v9.177c0 .692.563 1.255 1.255 1.255h6.392c.692 0 1.255-.563 1.255-1.255V3.424H6.14zM1.872 8.218h1.66c.189 0 .342.153.342.342 0 .189-.153.342-.342.342h-1.66c-.19 0-.343-.153-.343-.342 0-.19.154-.342.343-.342zm-.343-1.484c0-.19.154-.343.343-.343h5.022c.189 0 .342.154.342.343 0 .189-.153.342-.342.342H1.872c-.19 0-.343-.153-.343-.342zm5.365-2.169c.189 0 .342.154.342.343 0 .189-.153.342-.342.342H1.872c-.19 0-.343-.153-.343-.342 0-.19.154-.343.343-.343h5.022z" transform="translate(7 5)"/>
                        <path d="M6.026 2.625c0 .063.051.114.114.114h2.61c-.063-.115-.143-.222-.24-.313L6.309.343c-.086-.08-.18-.148-.283-.201v2.483z" transform="translate(7 5)"/>
                    </g>
                </g>
            </g>
        </g>
    </g>
</svg>
