<svg xmlns="http://www.w3.org/2000/svg" width="22" height="22" viewBox="0 0 22 22">
    <g fill="none" fill-rule="evenodd">
        <g>
            <g transform="translate(-35 -227) translate(35 227)">
                <circle cx="11" cy="11" r="11" fill="#6D4DE4" opacity=".4"/>
                <g fill="#FFF" fill-rule="nonzero">
                    <path d="M13.795 7.533l-2.257-6.17-.001-.003h-.001C11.239.546 10.47 0 9.625 0S8.011.546 7.713 1.36c-.086.237-.13.485-.13.738v2.698H6.417V2.098C6.417.941 5.5 0 4.375 0 3.53 0 2.761.546 2.463 1.36v.004L.204 7.53C.069 7.904 0 8.294 0 8.693c0 1.819 1.44 3.298 3.208 3.298 1.769 0 3.209-1.48 3.209-3.298v-.3h1.166v.3c0 1.819 1.44 3.298 3.209 3.298C12.56 11.99 14 10.51 14 8.693c0-.4-.069-.79-.205-1.16zM3.208 10.792c-1.126 0-2.041-.942-2.041-2.099 0-.254.043-.503.13-.738.297-.813 1.065-1.36 1.911-1.36 1.126 0 2.042.941 2.042 2.098s-.916 2.099-2.042 2.099zm7.584 0c-1.126 0-2.042-.942-2.042-2.099 0-1.157.916-2.098 2.042-2.098.845 0 1.614.547 1.911 1.36.087.235.13.484.13.738 0 1.157-.915 2.099-2.041 2.099z" transform="translate(4 5)"/>
                </g>
            </g>
        </g>
    </g>
</svg>
