<svg xmlns="http://www.w3.org/2000/svg" width="22" height="22" viewBox="0 0 22 22">
    <g fill="none" fill-rule="evenodd">
        <g>
            <g transform="translate(-360 -227) translate(360 227)">
                <circle cx="11" cy="11" r="11" fill="#1979FF" opacity=".4"/>
                <path fill="#FFF" d="M15.23 16.234c0 .297-.26.538-.581.538H6.582c-.322 0-.582-.241-.582-.538v-.539h9.23v.539zm-.581-1.616H6.582c-.322 0-.582-.242-.582-.539v-.538h9.23v.538c0 .297-.26.539-.581.539zm0-8.618c.32 0 .581.24.581.539v5.386c0 .297-.26.538-.581.538H6.582c-.322 0-.582-.241-.582-.538V6.539C6 6.24 6.26 6 6.582 6h8.067z"/>
            </g>
        </g>
    </g>
</svg>
