<svg xmlns="http://www.w3.org/2000/svg" viewBox="0 0 18 20"><title>new-psa</title><g id="Layer_2" data-name="Layer 2"><g id="Layer_1-2" data-name="Layer 1"><path d="M17,16H16V15a1,1,0,0,0-2,0v1H13a1,1,0,0,0,0,2h1v1a1,1,0,0,0,2,0V18h1a1,1,0,0,0,0-2m-7,2H3a1,1,0,0,1-1-1V3A1,1,0,0,1,3,2H8V5a3,3,0,0,0,3,3h3v3a1,1,0,0,0,2,0V6.94a1.33,1.33,0,0,0-.06-.27V6.58a1.08,1.08,0,0,0-.19-.28l-6-6A1.09,1.09,0,0,0,9.47.11h-.1A1.14,1.14,0,0,0,9.06,0H3A3,3,0,0,0,0,3V17a3,3,0,0,0,3,3h7a1,1,0,0,0,0-2M10,3.41,12.59,6H11a1,1,0,0,1-1-1ZM5,6A1,1,0,0,0,5,8H6A1,1,0,0,0,6,6Zm5,8H5a1,1,0,0,0,0,2h5a1,1,0,0,0,0-2m1-4H5a1,1,0,0,0,0,2h6a1,1,0,0,0,0-2" fill="#1565c0"/></g></g></svg>