<svg xmlns="http://www.w3.org/2000/svg" viewBox="0 0 19.13 12.76"><title>Visualiser</title><g id="Layer_2" data-name="Layer 2"><g id="Layer_1-2" data-name="Layer 1"><path d="M9.57,7.44a2.13,2.13,0,0,0,0-4.25h-.1a1.58,1.58,0,0,1-2,2s0,.06,0,.09A2.13,2.13,0,0,0,9.57,7.44M19,5.89A10.66,10.66,0,0,0,9.57,0,10.66,10.66,0,0,0,.12,5.89a1.08,1.08,0,0,0,0,1,10.65,10.65,0,0,0,9.45,5.89A10.66,10.66,0,0,0,19,6.86a1.08,1.08,0,0,0,0-1M9.57,1.06A4.25,4.25,0,1,1,5.31,5.32,4.25,4.25,0,0,1,9.57,1.06m0,10.63a9.58,9.58,0,0,1-8.5-5.31,9.78,9.78,0,0,1,4.31-4.3,5.31,5.31,0,1,0,9.51,3.23,5.26,5.26,0,0,0-1.12-3.23,9.78,9.78,0,0,1,4.31,4.3,9.58,9.58,0,0,1-8.5,5.31" fill="#5f6369"/></g></g></svg>