<svg xmlns="http://www.w3.org/2000/svg" xmlns:xlink="http://www.w3.org/1999/xlink" width="15.936" height="11.951" viewBox="0 0 15.936 11.951"><defs><style>.cls-1{fill:none;}.cls-2{opacity:0.54;}.cls-3{clip-path:url(#clip-path);}</style><clipPath id="clip-path" transform="translate(0 -0.0001)"><rect class="cls-1" x="0.0004" width="15.936" height="11.952"/></clipPath></defs><title>block details</title><g id="Layer_2" data-name="Layer 2"><g id="Layer_1-2" data-name="Layer 1"><g class="cls-2"><g class="cls-3"><path d="M15.563,10.9561a.3743.3743,0,0,1,.373.373v.249a.3743.3743,0,0,1-.373.373H.373A.3743.3743,0,0,1,0,11.5781V.3731A.3743.3743,0,0,1,.373,0H.622a.3745.3745,0,0,1,.374.373v10.583ZM11.579,3.05,8.964,4.7311,6.272,2.1a.3736.3736,0,0,0-.557.032L1.992,6.9711V9.96H14.94l-2.81-6.745a.3759.3759,0,0,0-.551-.165M2.988,7.32,6.06,3.2341l2.78,2.779,2.67-1.78,1.92,4.731H2.988Z" transform="translate(0 -0.0001)"/></g></g></g></g></svg>