<svg xmlns="http://www.w3.org/2000/svg" xmlns:xlink="http://www.w3.org/1999/xlink" width="10.721" height="14.297" viewBox="0 0 10.721 14.297"><defs><style>.cls-1{fill:none;}.cls-2{opacity:0.54;}.cls-3{clip-path:url(#clip-path);}</style><clipPath id="clip-path" transform="translate(-0.0002 -0.0006)"><rect class="cls-1" width="10.721" height="14.298"/></clipPath></defs><title>docs</title><g id="Layer_2" data-name="Layer 2"><g id="Layer_1-2" data-name="Layer 1"><g class="cls-2"><g class="cls-3"><path d="M10.3282,2.7366,7.9852.3946a1.3351,1.3351,0,0,0-.946-.394H1.34A1.3446,1.3446,0,0,0,0,1.3436v11.614a1.3407,1.3407,0,0,0,1.34,1.34h8.041a1.34,1.34,0,0,0,1.34-1.34V3.6856a1.347,1.347,0,0,0-.393-.949m-.631.634a.4437.4437,0,0,1,.117.206H7.1472V.9106a.4469.4469,0,0,1,.207.117Zm-.316,10.034H1.34a.4479.4479,0,0,1-.446-.447V1.3436A.4479.4479,0,0,1,1.34.8966h4.914v2.904a.6688.6688,0,0,0,.67.67h2.904v8.487a.4481.4481,0,0,1-.447.447m-1.34-6.812v.223a.3363.3363,0,0,1-.335.335h-4.69a.3363.3363,0,0,1-.335-.335v-.223a.3365.3365,0,0,1,.335-.336h4.69a.3365.3365,0,0,1,.335.336m0,1.786v.224a.3363.3363,0,0,1-.335.335h-4.69a.3363.3363,0,0,1-.335-.335v-.224a.3363.3363,0,0,1,.335-.335h4.69a.3363.3363,0,0,1,.335.335m0,1.787v.224a.3363.3363,0,0,1-.335.335h-4.69a.3363.3363,0,0,1-.335-.335v-.224a.3363.3363,0,0,1,.335-.335h4.69a.3363.3363,0,0,1,.335.335" transform="translate(-0.0002 -0.0006)"/></g></g></g></g></svg>