<svg xmlns="http://www.w3.org/2000/svg" xmlns:xlink="http://www.w3.org/1999/xlink" width="12.789" height="12.789" viewBox="0 0 12.789 12.789"><defs><style>.cls-1{fill:none;}.cls-2{opacity:0.54;}.cls-3{clip-path:url(#clip-path);}</style><clipPath id="clip-path" transform="translate(0 0)"><rect class="cls-1" x="0.0002" width="12.789" height="12.789"/></clipPath></defs><title>fiscal</title><g id="Layer_2" data-name="Layer 2"><g id="Layer_1-2" data-name="Layer 1"><g class="cls-2"><g class="cls-3"><path d="M6.395,2.558a.6393.6393,0,0,0-.64.64V9.592a.6395.6395,0,0,0,1.279,0V3.198a.6391.6391,0,0,0-.639-.64M3.197,6.395a.6389.6389,0,0,0-.639.639V9.592a.64.64,0,0,0,1.279,0V7.034a.6391.6391,0,0,0-.64-.639M9.592,5.116a.64.64,0,0,0-.64.639V9.592a.6395.6395,0,0,0,1.279,0V5.755a.6389.6389,0,0,0-.639-.639M10.871,0H1.919A1.9188,1.9188,0,0,0,0,1.919v8.952a1.9186,1.9186,0,0,0,1.919,1.918h8.952a1.9184,1.9184,0,0,0,1.918-1.918V1.919A1.9186,1.9186,0,0,0,10.871,0m.639,10.871a.6389.6389,0,0,1-.639.639H1.919a.6391.6391,0,0,1-.64-.639V1.919a.6393.6393,0,0,1,.64-.64h8.952a.6391.6391,0,0,1,.639.64Z" transform="translate(0 0)"/></g></g></g></g></svg>