<svg xmlns="http://www.w3.org/2000/svg" viewBox="0 0 11.55 15.4"><title>masterContract</title><g id="Layer_2" data-name="Layer 2"><g id="Layer_1-2" data-name="Layer 1"><path d="M5.91,10.93,5.5,9.67a.72.72,0,0,0-1.37,0l-.55,1.64a.33.33,0,0,1-.32.23H2.89a.48.48,0,1,0,0,1h.37a1.3,1.3,0,0,0,1.23-.89l.32-1,.51,1.52a.48.48,0,0,0,.42.33h0a.48.48,0,0,0,.43-.27l.23-.46a.33.33,0,0,1,.3-.19.33.33,0,0,1,.31.2,1.29,1.29,0,0,0,1.16.72h.46a.48.48,0,1,0,0-1H8.2a.34.34,0,0,1-.31-.2,1.35,1.35,0,0,0-2-.42m-3.75-8H5.53a.24.24,0,0,0,.24-.24V2.16a.24.24,0,0,0-.24-.24H2.17a.24.24,0,0,0-.24.24v.48a.24.24,0,0,0,.24.24M5.77,4.57V4.09a.24.24,0,0,0-.24-.24H2.17a.24.24,0,0,0-.24.24v.48a.24.24,0,0,0,.24.24H5.53a.24.24,0,0,0,.24-.24m5.35-1.62L8.6.42a1.44,1.44,0,0,0-1-.42H1.44A1.45,1.45,0,0,0,0,1.45V14A1.44,1.44,0,0,0,1.44,15.4H10.1A1.44,1.44,0,0,0,11.55,14V4a1.45,1.45,0,0,0-.42-1M7.7,1a.47.47,0,0,1,.22.13l2.52,2.52a.48.48,0,0,1,.13.22H7.7Zm2.89,13a.48.48,0,0,1-.48.48H1.44A.48.48,0,0,1,1,14V1.45A.48.48,0,0,1,1.44,1H6.74V4.09a.72.72,0,0,0,.72.72h3.13Z" fill="#5f6369"/></g></g></svg>