<svg xmlns="http://www.w3.org/2000/svg" viewBox="0 0 19.93 11.96"><title>obligations</title><g id="Layer_2" data-name="Layer 2"><g id="Layer_1-2" data-name="Layer 1"><path d="M.5,8a.5.5,0,1,0-.5-.5A.5.5,0,0,0,.5,8ZM19.68,2H16.14L14.55.45A1.48,1.48,0,0,0,13.49,0H10.35a1.48,1.48,0,0,0-.88.31A1.5,1.5,0,0,0,8.56,0H6.39A1.5,1.5,0,0,0,5.34.44L3.78,2H.25A.25.25,0,0,0,0,2.25v.5A.25.25,0,0,0,.25,3H2V9H.25A.25.25,0,0,0,0,9.22v.5A.25.25,0,0,0,.25,10H2A1,1,0,0,0,3,9H4l2.54,2.43a2.5,2.5,0,0,0,3.14,0l.22.19a1.66,1.66,0,0,0,2.33-.24l.68-.84a1.5,1.5,0,0,0,1.87-.37l.3-.37a1.49,1.49,0,0,0,.33-.8h1.51a1,1,0,0,0,1,1h1.74a.25.25,0,0,0,.25-.25v-.5A.25.25,0,0,0,19.68,9H17.94V3h1.74a.25.25,0,0,0,.25-.25v-.5A.25.25,0,0,0,19.68,2ZM14.33,9.14l-.3.36a.5.5,0,0,1-.7.07l-.55-.45-1.29,1.59a.66.66,0,0,1-.91.11l-1-.81-.32.4a1.5,1.5,0,0,1-2.07.25L4.42,8H3V3h1.2L6,1.14A.5.5,0,0,1,6.39,1H8.55l0,.09L6.75,2.77A2.14,2.14,0,0,0,9.64,5.92l.71-.65,3.91,3.17A.5.5,0,0,1,14.33,9.14ZM16.94,8H15.16a1.6,1.6,0,0,0-.27-.3L11.09,4.59,12,3.78A.5.5,0,1,0,11.3,3L9,5.18a1.18,1.18,0,0,1-1.61-.07,1.14,1.14,0,0,1,.07-1.61L10,1.13A.5.5,0,0,1,10.34,1h3.14a.49.49,0,0,1,.35.15L15.73,3h1.21Zm2.49-1a.5.5,0,1,0,.5.5A.5.5,0,0,0,19.43,7Z" fill="#5f6369"/></g></g></svg>