<svg xmlns="http://www.w3.org/2000/svg" viewBox="0 0 22.03 15.42"><title>parties</title><g id="Layer_2" data-name="Layer 2"><g id="Layer_1-2" data-name="Layer 1"><path d="M18.73,6.61A2.75,2.75,0,1,0,16,3.86,2.75,2.75,0,0,0,18.73,6.61Zm0-4.41a1.65,1.65,0,1,1-1.65,1.65A1.65,1.65,0,0,1,18.73,2.2ZM11,7.71A3.86,3.86,0,1,0,7.16,3.86,3.85,3.85,0,0,0,11,7.71ZM11,1.1A2.75,2.75,0,1,1,8.26,3.86,2.76,2.76,0,0,1,11,1.1Zm8.4,6.61H18a2.49,2.49,0,0,0-1.41.44,4.69,4.69,0,0,1,.87.77A1.38,1.38,0,0,1,18,8.81h1.38a1.59,1.59,0,0,1,1.51,1.65.55.55,0,0,0,1.1,0A2.69,2.69,0,0,0,19.42,7.71ZM3.3,6.61A2.75,2.75,0,1,0,.55,3.86,2.75,2.75,0,0,0,3.3,6.61Zm0-4.41A1.65,1.65,0,1,1,1.65,3.86,1.65,1.65,0,0,1,3.3,2.2ZM13.77,8.4c-1.15,0-1.44.41-2.76.41S9.41,8.4,8.26,8.4A3.79,3.79,0,0,0,5.08,10a3.94,3.94,0,0,0-.67,2.21v1.54a1.65,1.65,0,0,0,1.65,1.65H16a1.65,1.65,0,0,0,1.65-1.65V12.23A3.94,3.94,0,0,0,17,10,3.79,3.79,0,0,0,13.77,8.4Zm2.75,5.37a.55.55,0,0,1-.55.55H6.06a.55.55,0,0,1-.55-.55V12.23A2.86,2.86,0,0,1,6,10.63,2.7,2.7,0,0,1,8.26,9.5c.94,0,1.28.41,2.76.41s1.82-.41,2.76-.41A2.7,2.7,0,0,1,16,10.63a2.86,2.86,0,0,1,.49,1.6v1.54ZM5.41,8.15A2.51,2.51,0,0,0,4,7.71H2.62A2.69,2.69,0,0,0,0,10.47a.55.55,0,0,0,1.1,0A1.59,1.59,0,0,1,2.62,8.81H4a1.38,1.38,0,0,1,.54.11A4.78,4.78,0,0,1,5.41,8.15Z" fill="#5f6369"/></g></g></svg>