<svg xmlns="http://www.w3.org/2000/svg" viewBox="0 0 17.51 17.51"><title>polygon</title><g id="Layer_2" data-name="Layer 2"><g id="Layer_1-2" data-name="Layer 1"><path d="M15,12.51a2.49,2.49,0,0,0-.7.11L13,10.51A2.49,2.49,0,0,0,13,7L14.3,4.89A2.44,2.44,0,0,0,15,5a2.5,2.5,0,1,0-2.41-3.13H4.91a2.5,2.5,0,1,0-3,3v7.68a2.5,2.5,0,1,0,3,3h7.68A2.5,2.5,0,1,0,15,12.51Zm-11.88.09V4.91A2.49,2.49,0,0,0,4.91,3.13h7.68a2.5,2.5,0,0,0,.63,1.13L12,6.36a2.47,2.47,0,0,0-.7-.11,2.5,2.5,0,1,0,0,5,2.44,2.44,0,0,0,.7-.11l1.27,2.11a2.5,2.5,0,0,0-.63,1.13H4.91A2.49,2.49,0,0,0,3.13,12.59ZM11.25,10A1.25,1.25,0,1,1,12.5,8.75,1.25,1.25,0,0,1,11.25,10ZM15,1.25A1.25,1.25,0,1,1,13.76,2.5,1.25,1.25,0,0,1,15,1.25ZM1.25,2.5A1.25,1.25,0,1,1,2.5,3.75,1.25,1.25,0,0,1,1.25,2.5ZM2.5,16.26A1.25,1.25,0,1,1,3.75,15,1.25,1.25,0,0,1,2.5,16.26Zm12.5,0A1.25,1.25,0,1,1,16.26,15,1.25,1.25,0,0,1,15,16.26Z" fill="#5f6369"/></g></g></svg>