<svg xmlns="http://www.w3.org/2000/svg" xmlns:xlink="http://www.w3.org/1999/xlink" width="15.699" height="15.699" viewBox="0 0 15.699 15.699"><defs><style>.cls-1,.cls-4{fill:none;}.cls-2{opacity:0.54;}.cls-3{clip-path:url(#clip-path);}.cls-4{stroke:#000;stroke-linecap:round;stroke-linejoin:round;stroke-width:1.5px;}</style><clipPath id="clip-path"><rect class="cls-1" x="0.0001" y="0.0004" width="15.698" height="15.6985"/></clipPath></defs><title>settings</title><g id="Layer_2" data-name="Layer 2"><g id="Layer_1-2" data-name="Layer 1"><g class="cls-2"><g class="cls-3"><circle class="cls-4" cx="7.8494" cy="7.8496" r="1.9365"/><path class="cls-4" d="M12.625,9.786a1.0642,1.0642,0,0,0,.213,1.174l.039.039a1.2916,1.2916,0,0,1,.001,1.826l-.001.001a1.2925,1.2925,0,0,1-1.826.001l-.001-.001-.038-.039a1.0734,1.0734,0,0,0-1.82.761v.11a1.291,1.291,0,0,1-2.582,0V13.6a1.0645,1.0645,0,0,0-.697-.975,1.0661,1.0661,0,0,0-1.174.213l-.039.039a1.29,1.29,0,0,1-1.825.001l-.001-.001a1.29,1.29,0,0,1-.001-1.825l.001-.001.038-.039a1.0734,1.0734,0,0,0-.762-1.82H2.041a1.2905,1.2905,0,1,1,0-2.581h.058a1.0656,1.0656,0,0,0,.974-.698A1.0625,1.0625,0,0,0,2.86,4.739L2.822,4.7a1.29,1.29,0,0,1-.001-1.825l.001-.001a1.29,1.29,0,0,1,1.825-.001l.001.001.039.038a1.0625,1.0625,0,0,0,1.174.213h.052a1.0646,1.0646,0,0,0,.646-.974v-.11a1.29,1.29,0,1,1,2.581,0v.058a1.0737,1.0737,0,0,0,1.82.762l.039-.039a1.29,1.29,0,0,1,1.825-.001l.001.001a1.29,1.29,0,0,1,.001,1.825l-.001.001-.038.039a1.0641,1.0641,0,0,0-.213,1.175v.051a1.0641,1.0641,0,0,0,.974.646h.11a1.29,1.29,0,1,1,0,2.581H13.6A1.0659,1.0659,0,0,0,12.625,9.786Z"/></g></g></g></g></svg>