<svg xmlns="http://www.w3.org/2000/svg" xmlns:xlink="http://www.w3.org/1999/xlink" viewBox="0 0 17.55 15.6"><defs><clipPath id="clip-path" transform="translate(0 0)"><rect width="17.55" height="15.6" fill="none"/></clipPath></defs><title>contact</title><g id="Layer_2" data-name="Layer 2"><g id="Layer_1-2" data-name="Layer 1"><g opacity="0.54"><g clip-path="url(#clip-path)"><path d="M17.06,4.88a.48.48,0,0,0-.18,0L11.7,6.82l-.31-.11a6.41,6.41,0,0,0,1.29-3A3.82,3.82,0,0,0,8.77,0a3.83,3.83,0,0,0-3.9,3.75A3.28,3.28,0,0,0,5.19,5L.61,6.58a1,1,0,0,0-.61.9v7.63a.49.49,0,0,0,.49.49.48.48,0,0,0,.18,0l5.18-1.91,5.24,1.85a2,2,0,0,0,1.22,0l4.63-1.61a1,1,0,0,0,.61-.9V5.36a.49.49,0,0,0-.49-.49M5.36,12.79,1,14.41l0-6.91L5.36,6ZM8.77,1A2.85,2.85,0,0,1,11.7,3.75c0,.82-1.16,2.71-2.92,4.78C7,6.46,5.85,4.57,5.85,3.75A2.85,2.85,0,0,1,8.77,1m2.44,13.53L6.34,12.79V7A29.78,29.78,0,0,0,8.4,9.58a.5.5,0,0,0,.75,0c.39-.44,1-1.19,1.65-2l.41.14Zm1,0V7.68l4.39-1.62,0,6.91ZM9.5,3.9a.73.73,0,1,0-.73.73A.73.73,0,0,0,9.5,3.9" transform="translate(0 0)"/></g></g></g></g></svg>