<?xml version="1.0" encoding="UTF-8"?>
<svg width="23px" height="22px" viewBox="0 0 23 22" version="1.1" xmlns="http://www.w3.org/2000/svg" xmlns:xlink="http://www.w3.org/1999/xlink">
    <!-- Generator: Sketch 63.1 (92452) - https://sketch.com -->
    <title>activities_enable</title>
    <desc>Created with Sketch.</desc>
    <g id="task+member-1-copy" stroke="none" stroke-width="1" fill="none" fill-rule="evenodd">
        <g id="activities_enable" transform="translate(0.500000, 0.000000)">
            <circle id="Oval-Copy" fill="#5F27CD" cx="11" cy="11" r="11"></circle>
            <path d="M11.6988405,9.6996135 L4.4,9.6996135 C4.1790861,9.6996135 4,9.8786996 4,10.0996135 L4,10.6494203 C4,10.8703342 4.1790861,11.0494203 4.4,11.0494203 L11.6988405,11.0494203 C11.9197544,11.0494203 12.0988405,10.8703342 12.0988405,10.6494203 L12.0988405,10.0996135 C12.0988405,9.8786996 11.9197544,9.6996135 11.6988405,9.6996135 Z M11.6988405,7 L4.4,7 C4.1790861,7 4,7.1790861 4,7.4 L4,7.94980675 C4,8.17072065 4.1790861,8.34980675 4.4,8.34980675 L11.6988405,8.34980675 C11.9197544,8.34980675 12.0988405,8.17072065 12.0988405,7.94980675 L12.0988405,7.4 C12.0988405,7.1790861 11.9197544,7 11.6988405,7 Z M4.4,13.7490338 L8.999227,13.7490338 C9.2201409,13.7490338 9.399227,13.5699477 9.399227,13.3490338 L9.399227,12.799227 C9.399227,12.5783131 9.2201409,12.399227 8.999227,12.399227 L4.4,12.399227 C4.1790861,12.399227 4,12.5783131 4,12.799227 L4,13.3490338 C4,13.5699477 4.1790861,13.7490338 4.4,13.7490338 Z M17.5141692,11.065522 L17.8194175,11.3707702 C18.014504,11.5661094 18.0145605,11.8825945 17.8195438,12.0780033 L13.8054488,16.0949676 C13.6102138,16.2902021 13.2936853,16.2903466 13.0982721,16.0952902 L10.7653317,13.7649391 C10.569765,13.5699818 10.5695892,13.2533993 10.7647429,13.0580288 C10.7648083,13.0579633 10.7648738,13.0578979 10.7651355,13.0580287 L11.0703837,12.7527804 C11.2658254,12.5579277 11.5821809,12.557796 11.7777848,12.7524859 L13.4520218,14.4239371 L13.4520218,14.4239371 L16.8072232,11.0656827 C17.0022358,10.8701711 17.3188182,10.8700271 17.5141691,11.0652005 C17.5142228,11.065254 17.5142764,11.0653076 17.5141692,11.065522 Z" id="Shape" fill="#FFFFFF" fill-rule="nonzero"></path>
        </g>
    </g>
</svg>