<?xml version="1.0" encoding="UTF-8"?>
<svg width="25px" height="25px" viewBox="0 0 25 25" version="1.1" xmlns="http://www.w3.org/2000/svg" xmlns:xlink="http://www.w3.org/1999/xlink">
    <!-- Generator: Sketch 63.1 (92452) - https://sketch.com -->
    <title>commercil</title>
    <desc>Created with Sketch.</desc>
    <g id="Page-2" stroke="none" stroke-width="1" fill="none" fill-rule="evenodd">
        <g id="commercil" transform="translate(0.416667, 0.588824)">
            <rect id="commercial" fill="#D4F7D6" x="-4.92050845e-13" y="-3.73034936e-14" width="23.7325556" height="23.7325556" rx="4"></rect>
            <path d="M10.1971784,18.5255529 C10.1971784,18.9502939 10.5414277,19.2946684 10.966294,19.2946684 L11.9917814,19.2946684 C12.4165224,19.2946684 12.7608969,18.9502939 12.7608969,18.5255529 L12.7608969,16.9873217 L10.1971784,16.9873217 L10.1971784,18.5255529 Z" id="Path" fill="#A5A5A5" fill-rule="nonzero"></path>
            <path d="M8.98905111,14.2074147 C8.76485091,14.0629551 8.55341925,13.8992177 8.3573849,13.7183303 C8.19001715,14.3618887 7.5574747,14.7699806 6.90214918,14.6573172 C6.24669849,14.5446538 5.78678142,13.9489147 5.84373901,13.2863287 C5.90069663,12.6237427 6.45562652,12.1152551 7.12071621,12.1162566 C7.15989804,12.1162566 7.19757768,12.1243934 7.23500698,12.1277733 C6.99202956,11.5565698 6.86672282,10.9423038 6.86684799,10.3216536 L6.54049964,10.3216536 L6.36336771,11.1642507 C6.34571712,11.2482476 6.28725732,11.3178485 6.20764184,11.3496446 C6.12790119,11.381566 6.03764528,11.3714262 5.96704288,11.3227306 L5.25864038,10.8343973 L4.48952482,11.6035129 L4.97660631,12.3117902 C5.02530193,12.3825178 5.03544163,12.4727737 5.00352033,12.5523892 C4.97172422,12.6321298 4.90212327,12.6905896 4.8182516,12.708115 L3.97678112,12.8853721 L3.97678112,13.9108595 L4.81925306,14.0879915 C4.90312472,14.105642 4.97272568,14.1641018 5.00464698,14.2437173 C5.03644309,14.3233328 5.02630339,14.4137139 4.97760776,14.4843163 L4.48952482,15.1927188 L5.25864038,15.9618343 L5.96704288,15.4746277 C6.03764528,15.4259321 6.12802636,15.4156672 6.20776704,15.4475885 C6.28750769,15.4793846 6.3459675,15.5491107 6.36361809,15.6331076 L6.54049964,16.474578 L7.56598704,16.474578 L7.74286859,15.6318557 C7.76051918,15.5477337 7.81897898,15.4781328 7.89871964,15.4463366 C7.97846032,15.4144154 8.06884139,15.4245551 8.1394438,15.4733758 L8.8478463,15.9618343 L9.6526386,15.157042 C9.56826623,14.7640971 9.32904425,14.4217255 8.98905111,14.2074147 Z" id="Path" fill="#8C9FBB" fill-rule="nonzero"></path>
            <path d="M16.0937317,10.3216536 C16.0934806,8.10906938 14.5228275,6.2079369 12.350051,5.79033118 C10.1772746,5.37272547 8.0137615,6.55594169 7.19332152,8.61079711 C6.37288151,10.6656526 7.1262242,13.0136832 8.98905111,14.2074147 C9.41592024,14.4720485 9.67817564,14.9363469 9.68443473,15.4385754 L9.68443473,16.474578 C9.68443473,16.8993191 10.028684,17.2436936 10.4535503,17.2436936 L12.5045251,17.2436936 C12.9292662,17.2436936 13.2736407,16.8993191 13.2736407,16.474578 L13.2736407,15.4598563 C13.2801501,14.9457356 13.5476631,14.4702959 13.9837957,14.1979009 C15.2999547,13.3481684 16.0946073,11.8883009 16.0937317,10.3216536 L16.0937317,10.3216536 Z" id="Path" fill="#FFB41F" fill-rule="nonzero"></path>
            <path d="M17.6814089,7.60946976 L18.487453,7.00496795 L17.5644893,5.77430794 L16.7584451,6.37880976 C16.5925796,6.50311505 16.368129,6.51525765 16.1897453,6.40960441 C16.0113615,6.30395117 15.9142206,6.10128223 15.9433879,5.89610963 L16.0857194,4.89903842 L14.5628856,4.68147287 L14.4205542,5.67841888 C14.3913869,5.88384182 14.2412942,6.05133478 14.0403778,6.10278438 C13.8394613,6.15435922 13.6272786,6.07975097 13.5028481,5.91376023 L12.8984715,5.1077161 L11.6679367,6.03067979 L12.2721881,6.83672392 C12.3964934,7.0027147 12.408636,7.22704007 12.3029828,7.40542379 C12.1973295,7.58380752 11.9946605,7.68094842 11.789488,7.65178112 L10.7924168,7.50944968 L10.574726,9.03228345 L11.5720476,9.17461489 C11.7773453,9.20390739 11.9448383,9.3540001 11.9962879,9.55491651 C12.0477375,9.75583292 11.9731293,9.96801568 11.8071386,10.0924461 L11.0013448,10.696948 L11.9243085,11.9274828 L12.7301023,11.3232313 C12.8959678,11.1988009 13.1205436,11.1865331 13.2990525,11.2921863 C13.4774362,11.3978395 13.5747023,11.6006337 13.5454098,11.8059315 L13.4018266,12.8027523 L14.9246603,13.020443 L15.0682436,12.0231215 C15.0975361,11.8178237 15.2476288,11.650456 15.4485452,11.5990063 C15.6494616,11.5474315 15.8616444,11.6221649 15.9859497,11.7880305 L16.5905767,12.5938243 L17.8211115,11.6708605 L17.2163593,10.8650668 C17.0919288,10.6992012 17.0796611,10.4746255 17.1853143,10.2961166 C17.2909675,10.1177328 17.4937617,10.0204667 17.6990595,10.0498844 L18.6961306,10.1923411 L18.9138214,8.66950725 L17.9167502,8.52705064 C17.7115776,8.49763297 17.5442099,8.34766546 17.492635,8.14674902 C17.4411854,7.94595782 17.5156684,7.73390023 17.6814089,7.60946976 L17.6814089,7.60946976 Z M14.7443989,10.6453731 C13.7532112,10.6453731 12.9497959,9.84195784 12.9497959,8.85077016 C12.9497959,7.8597077 13.7532112,7.0561672 14.7443989,7.0561672 C15.7355866,7.0561672 16.5390019,7.8597077 16.5390019,8.85077016 C16.5390019,9.84195784 15.7355866,10.6453731 14.7443989,10.6453731 Z" id="Shape" fill="#1C73EB" fill-rule="nonzero"></path>
            <polygon id="Path" fill="#FFFFFF" fill-rule="nonzero" points="10.1971784 17.7564373 12.7608969 17.7564373 12.7608969 18.269181 10.1971784 18.269181"></polygon>
            <polygon id="Path" fill="#FFCD68" fill-rule="nonzero" points="11.2226658 15.7054625 11.7354095 15.7054625 11.7354095 16.474578 11.2226658 16.474578"></polygon>
            <path d="M11.7354101,15.1927188 L11.2226658,15.1927188 C11.2224155,14.5148606 10.8044342,13.9072293 10.1715162,13.6646274 C8.90981119,13.1712868 8.03328983,12.0096019 7.90535428,10.6608957 C7.7774187,9.31218944 8.41972534,8.00642049 9.56613812,7.28462359 L9.8381577,7.71837771 C8.85523202,8.33689983 8.30430792,9.45627343 8.413967,10.6125756 C8.52350085,11.7687525 9.27484064,12.7646971 10.3565346,13.1875604 C11.1874898,13.5053964 11.7360354,14.3030534 11.7354101,15.1927188 L11.7354101,15.1927188 Z" id="Path" fill="#FFCD68" fill-rule="nonzero"></path>
            <path d="M16.6064747,13.9108595 L17.888334,13.9108595 C18.0299143,13.9108595 18.1447058,14.0255258 18.1447058,14.1672314 C18.1447058,14.3088117 18.0299143,14.4236032 17.888334,14.4236032 L16.6064747,14.4236032 C16.4648944,14.4236032 16.3501029,14.3088117 16.3501029,14.1672314 C16.3501029,14.0255258 16.4648944,13.9108595 16.6064747,13.9108595 Z" id="Path" fill="#FFAA00" fill-rule="nonzero"></path>
            <path d="M16.093731,15.4492158 C16.1843625,15.340433 16.3459719,15.3256616 16.4547547,15.4162931 L17.5991645,16.3698011 C17.7079473,16.4604325 17.7227188,16.6220419 17.6320873,16.7308247 C17.5413307,16.8396075 17.3797213,16.8543789 17.2709385,16.7637475 L16.1265286,15.8102395 C16.0177458,15.719608 16.0030996,15.5579986 16.093731,15.4492158 L16.093731,15.4492158 Z" id="Path" fill="#FFAA00" fill-rule="nonzero"></path>
            <path d="M15.0682436,15.9618343 C15.209824,15.9618343 15.3246155,16.0765007 15.3246155,16.2182062 L15.3246155,17.5000655 C15.3246155,17.6416458 15.209824,17.7564373 15.0682436,17.7564373 C14.9266633,17.7564373 14.8118718,17.6416458 14.8118718,17.5000655 L14.8118718,16.2182062 C14.8118718,16.0765007 14.9266633,15.9618343 15.0682436,15.9618343 Z" id="Path" fill="#FFAA00" fill-rule="nonzero"></path>
            <path d="M4.23089972,8.72859295 L5.78440296,8.34053012 C5.92185231,8.30623036 6.06092904,8.38972647 6.09522881,8.52705064 C6.12952854,8.66437482 6.04603243,8.80345155 5.90858308,8.83775128 L4.35507983,9.22581417 C4.21763046,9.26011391 4.07855373,9.17661779 4.04425399,9.03929362 C4.00995423,8.90196945 4.09345034,8.76289272 4.23089972,8.72859295 Z" id="Path" fill="#FFAA00" fill-rule="nonzero"></path>
            <path d="M4.55687249,5.9634573 C4.6391168,5.84829026 4.79922401,5.82175177 4.91439105,5.90399608 L6.29163868,6.887798 C6.40693089,6.97004228 6.43359456,7.13014952 6.35135028,7.24531656 C6.269106,7.3604836 6.10899876,7.3871473 5.99383172,7.30477781 L4.61658412,6.32097586 C4.50129191,6.23873158 4.47462821,6.07862434 4.55687249,5.9634573 Z" id="Path" fill="#FFAA00" fill-rule="nonzero"></path>
            <path d="M6.85295283,4.42485067 C6.99015183,4.38979983 7.12972929,4.47254484 7.16478012,4.60974384 L7.56210641,6.16387298 C7.59715725,6.30107198 7.51441224,6.44077464 7.37721324,6.47582548 C7.24001424,6.51087632 7.10043678,6.42800611 7.06538594,6.29093228 L6.66805966,4.73680311 C6.63300882,4.59960411 6.71575383,4.45990151 6.85295283,4.42485067 Z" id="Path" fill="#FFAA00" fill-rule="nonzero"></path>
        </g>
    </g>
</svg>