<?xml version="1.0" encoding="UTF-8"?>
<svg width="22px" height="22px" viewBox="0 0 22 22" version="1.1" xmlns="http://www.w3.org/2000/svg" xmlns:xlink="http://www.w3.org/1999/xlink">
    <!-- Generator: Sketch 63.1 (92452) - https://sketch.com -->
    <title>member</title>
    <desc>Created with Sketch.</desc>
    <g id="Page-2" stroke="none" stroke-width="1" fill="none" fill-rule="evenodd">
        <g id="member">
            <circle id="Oval-Copy" fill="#1979FF" cx="11" cy="11" r="11"></circle>
            <path d="M15.9,10.2 C16.866875,10.2 17.65,9.416875 17.65,8.45 C17.65,7.483125 16.866875,6.7 15.9,6.7 C14.933125,6.7 14.15,7.483125 14.15,8.45 C14.15,9.416875 14.933125,10.2 15.9,10.2 Z M15.9,7.4 C16.4796875,7.4 16.95,7.8703125 16.95,8.45 C16.95,9.0296875 16.4796875,9.5 15.9,9.5 C15.3203125,9.5 14.85,9.0296875 14.85,8.45 C14.85,7.8703125 15.3203125,7.4 15.9,7.4 Z M11,10.9 C12.3540625,10.9 13.45,9.8040625 13.45,8.45 C13.45,7.0959375 12.3540625,6 11,6 C9.6459375,6 8.55,7.0959375 8.55,8.45 C8.55,9.8040625 9.6459375,10.9 11,10.9 Z M11,6.7 C11.9646875,6.7 12.75,7.4853125 12.75,8.45 C12.75,9.4146875 11.9646875,10.2 11,10.2 C10.0353125,10.2 9.25,9.4146875 9.25,8.45 C9.25,7.4853125 10.0353125,6.7 11,6.7 Z M16.3375,10.9 L15.4625,10.9 C15.13,10.9 14.8215625,11.005 14.5634375,11.1821875 C14.7690625,11.3221875 14.955,11.48625 15.1190625,11.6721875 C15.22625,11.62625 15.3421875,11.6 15.4625,11.6 L16.3375,11.6 C16.866875,11.6 17.3,12.0703125 17.3,12.65 C17.3,12.8425 17.4575,13 17.65,13 C17.8425,13 18,12.8425 18,12.65 C18,11.6853125 17.2540625,10.9 16.3375,10.9 L16.3375,10.9 Z M6.1,10.2 C7.066875,10.2 7.85,9.416875 7.85,8.45 C7.85,7.483125 7.066875,6.7 6.1,6.7 C5.133125,6.7 4.35,7.483125 4.35,8.45 C4.35,9.416875 5.133125,10.2 6.1,10.2 Z M6.1,7.4 C6.6796875,7.4 7.15,7.8703125 7.15,8.45 C7.15,9.0296875 6.6796875,9.5 6.1,9.5 C5.5203125,9.5 5.05,9.0296875 5.05,8.45 C5.05,7.8703125 5.5203125,7.4 6.1,7.4 Z M12.7521875,11.3375 C12.0215625,11.3375 11.84,11.6 11,11.6 C10.16,11.6 9.9784375,11.3375 9.2478125,11.3375 C8.45375,11.3375 7.6815625,11.691875 7.22875,12.3634375 C6.9575,12.7659375 6.8,13.249375 6.8,13.77 L6.8,14.75 C6.8,15.3296875 7.2703125,15.8 7.85,15.8 L14.15,15.8 C14.7296875,15.8 15.2,15.3296875 15.2,14.75 L15.2,13.77 C15.2,13.249375 15.0425,12.7659375 14.77125,12.3634375 C14.3184375,11.691875 13.54625,11.3375 12.7521875,11.3375 L12.7521875,11.3375 Z M14.5,14.75 C14.5,14.9425 14.3425,15.1 14.15,15.1 L7.85,15.1 C7.6575,15.1 7.5,14.9425 7.5,14.75 L7.5,13.77 C7.5,13.406875 7.6071875,13.0546875 7.8084375,12.755 C8.1103125,12.3065625 8.6484375,12.0375 9.245625,12.0375 C9.845,12.0375 10.059375,12.3 11,12.3 C11.940625,12.3 12.155,12.0375 12.7521875,12.0375 C13.349375,12.0375 13.8875,12.3065625 14.189375,12.755 C14.390625,13.0546875 14.4978125,13.406875 14.4978125,13.77 L14.4978125,14.75 L14.5,14.75 Z M7.4365625,11.1821875 C7.17625,11.005 6.8678125,10.9 6.5375,10.9 L5.6625,10.9 C4.7459375,10.9 4,11.6853125 4,12.65 C4,12.8425 4.1575,13 4.35,13 C4.5425,13 4.7,12.8425 4.7,12.65 C4.7,12.0703125 5.133125,11.6 5.6625,11.6 L6.5375,11.6 C6.6578125,11.6 6.77375,11.62625 6.8809375,11.6721875 C7.045,11.48625 7.233125,11.3221875 7.4365625,11.1821875 L7.4365625,11.1821875 Z" id="Shape" stroke="#FFFFFF" stroke-width="0.3" fill="#FFFFFF" fill-rule="nonzero"></path>
        </g>
    </g>
</svg>