<?xml version="1.0" encoding="UTF-8"?>
<svg width="23px" height="22px" viewBox="0 0 23 22" version="1.1" xmlns="http://www.w3.org/2000/svg" xmlns:xlink="http://www.w3.org/1999/xlink">
    <!-- Generator: Sketch 63.1 (92452) - https://sketch.com -->
    <title>Group 2</title>
    <desc>Created with Sketch.</desc>
    <g id="task+member-1-copy" stroke="none" stroke-width="1" fill="none" fill-rule="evenodd">
        <g id="Group-2" transform="translate(0.500000, 0.000000)">
            <circle id="Oval-Copy" fill="#3F51B5" cx="11" cy="11" r="11"></circle>
            <path d="M9.48807854,5 L11.7321178,5 C12.3517921,5 12.8541374,5.5023453 12.8541374,6.12201964 L12.8541374,7.24403927 L15.0981767,7.24403927 C15.7178511,7.24403927 16.2201964,7.74638457 16.2201964,8.36605891 L16.2201964,11.1879383 C15.9396914,10.7391304 15.5469846,10.3520337 15.0981767,10.0490884 L15.0981767,8.36605891 L6.12201964,8.36605891 L6.12201964,14.5371669 L9.76858345,14.5371669 C9.94249649,14.9579243 10.1949509,15.3338008 10.5035063,15.6591865 L6.12201964,15.6591865 C5.5023453,15.6591865 5,15.1568412 5,14.5371669 L5,8.36605891 C5,7.74333801 5.49929874,7.24403927 6.12201964,7.24403927 L8.36605891,7.24403927 L8.36605891,6.12201964 C8.36605891,5.49929874 8.86535764,5 9.48807854,5 M11.7321178,7.24403927 L11.7321178,6.12201964 L9.48807854,6.12201964 L9.48807854,7.24403927 L11.7321178,7.24403927 M15.2720898,14.4810659 L17,16.2201964 L16.2201964,17 L14.4698457,15.2776999 C14.0827489,15.5189341 13.6227209,15.6591865 13.1346424,15.6591865 C11.7321178,15.6591865 10.6100982,14.5371669 10.6100982,13.1346424 C10.6100982,11.7321178 11.7321178,10.6100982 13.1346424,10.6100982 C14.5371669,10.6100982 15.6591865,11.7321178 15.6591865,13.1346424 C15.6591865,13.628331 15.5189341,14.0939691 15.2720898,14.4810659 M13.1346424,14.5371669 C13.9092353,14.5371669 14.5371669,13.9092353 14.5371669,13.1346424 C14.5371669,12.3600494 13.9092353,11.7321178 13.1346424,11.7321178 C12.3600494,11.7321178 11.7321178,12.3600494 11.7321178,13.1346424 C11.7321178,13.9092353 12.3600494,14.5371669 13.1346424,14.5371669 Z" id="Shape" fill="#FFFFFF" fill-rule="nonzero"></path>
        </g>
    </g>
</svg>