<?xml version="1.0" encoding="UTF-8"?>
<svg width="22px" height="22px" viewBox="0 0 22 22" version="1.1" xmlns="http://www.w3.org/2000/svg" xmlns:xlink="http://www.w3.org/1999/xlink">
    <!-- Generator: Sketch 63.1 (92452) - https://sketch.com -->
    <title>sprint_icon</title>
    <desc>Created with Sketch.</desc>
    <g id="task+member-1-copy" stroke="none" stroke-width="1" fill="none" fill-rule="evenodd">
        <g id="sprint_icon">
            <circle id="Oval-Copy" fill="#FFA940" cx="11" cy="11" r="11"></circle>
            <g id="dash-board" transform="translate(3.000000, 3.000000)" fill="#FFFFFF" fill-rule="nonzero">
                <path d="M14.009375,1.75 L1.990625,1.75 C1.8578125,1.75 1.75,1.8578125 1.75,1.990625 L1.75,14.009375 C1.75,14.1421875 1.8578125,14.25 1.990625,14.25 L14.009375,14.25 C14.1421875,14.25 14.25,14.1421875 14.25,14.009375 L14.25,1.990625 C14.25,1.8578125 14.1421875,1.75 14.009375,1.75 Z M13,12.875 C13,12.94375 12.94375,13 12.875,13 L3.125,13 C3.05625,13 3,12.94375 3,12.875 L3,3.125 C3,3.05625 3.05625,3 3.125,3 L12.875,3 C12.94375,3 13,3.05625 13,3.125 L13,12.875 Z M8.528125,5.5 L7.4703125,5.5 C7.4171875,5.5 7.3734375,5.5390625 7.3734375,5.5875 L7.3734375,11.6625 C7.3734375,11.7109375 7.4171875,11.75 7.4703125,11.75 L8.528125,11.75 C8.58125,11.75 8.625,11.7109375 8.625,11.6625 L8.625,5.5875 C8.625,5.5390625 8.58125,5.5 8.528125,5.5 Z M5.403125,4.25 L4.3453125,4.25 C4.2921875,4.25 4.2484375,4.296875 4.2484375,4.3546875 L4.2484375,11.6453125 C4.2484375,11.703125 4.2921875,11.75 4.3453125,11.75 L5.403125,11.75 C5.45625,11.75 5.5,11.703125 5.5,11.6453125 L5.5,4.3546875 C5.5,4.296875 5.45625,4.25 5.403125,4.25 Z M11.653125,6.75 L10.5953125,6.75 C10.5421875,6.75 10.4984375,6.78125 10.4984375,6.8203125 L10.4984375,11.6796875 C10.4984375,11.71875 10.5421875,11.75 10.5953125,11.75 L11.653125,11.75 C11.70625,11.75 11.75,11.71875 11.75,11.6796875 L11.75,6.8203125 C11.75,6.78125 11.70625,6.75 11.653125,6.75 Z" id="Shape"></path>
            </g>
            <rect id="Rectangle" fill="#000000" fill-rule="nonzero" opacity="0" x="3" y="3" width="16" height="16"></rect>
        </g>
    </g>
</svg>