<?xml version="1.0" encoding="UTF-8"?>
<svg width="22px" height="22px" viewBox="0 0 22 22" version="1.1" xmlns="http://www.w3.org/2000/svg" xmlns:xlink="http://www.w3.org/1999/xlink">
    <!-- Generator: Sketch 63.1 (92452) - https://sketch.com -->
    <title>sprints_disable</title>
    <desc>Created with Sketch.</desc>
    <g id="task+member-1-copy" stroke="none" stroke-width="1" fill="none" fill-rule="evenodd">
        <g id="sprints_disable" fill="#FF7875">
            <circle id="Oval-Copy" opacity="0.13" cx="11" cy="11" r="11"></circle>
            <g id="Group" transform="translate(5.000000, 5.000000)" fill-rule="nonzero">
                <path d="M0.00359042553,0.00718085106 L0.85412234,0.00718085106 C2.33656915,0.0167553191 3.36263298,0.126861702 3.96901596,0.354255319 C4.80917553,0.669414894 5.62380319,1.19840426 6.41050532,1.9356383 L6.64667553,2.16303191 L6.86449468,2.38882979 L7.0775266,2.62021277 L7.30651596,2.88191489 L7.56981383,3.19468085 L10.2331117,3.08138298 L11.968484,6.83138298 L10.1030585,7.23271277 C10.5698138,7.87819149 10.9272606,8.90425532 11.2136968,10.3364362 L11.2695479,10.6284574 L11.4171543,11.4183511 L10.6224734,11.2970745 L10.3264628,11.2492021 C8.97007979,11.0234043 7.97353723,10.7154255 7.32327128,10.299734 L7.18922872,10.2087766 L6.9849734,11.2619681 L6.84454787,11.9744681 L3.08257979,10.2303191 L3.19587766,7.56702128 L2.77779255,7.21117021 C2.5400266,7.0037234 2.36768617,6.84414894 2.16821809,6.64867021 C1.26662234,5.74308511 0.652260638,4.8606383 0.322739362,3.98776596 C0.145611702,3.51941489 0.0458776596,2.75505319 0.0131648936,1.66835106 L0.00598404255,1.41223404 L0.00039893617,0.864893617 L0.00359042553,0.00718085106 L0.85412234,0.00718085106 L0.00359042553,0.00718085106 Z M1.14454787,1.15212766 L1.15412234,1.6212766 C1.18364362,2.59069149 1.26582447,3.25292553 1.39109043,3.58404255 C1.63523936,4.23271277 2.09640957,4.91888298 2.78098404,5.64095745 L2.9724734,5.83882979 L3.21821809,6.07340426 L3.39135638,6.23058511 L3.70651596,6.50345745 L4.36077128,7.05159574 L4.25545213,9.51542553 L6.00598404,10.3276596 L6.27965426,8.93776596 C6.6418883,7.83909574 7.39667553,6.98776596 8.37406915,6.52260638 L8.5599734,6.44042553 L8.78976064,6.35265957 L10.3336436,6.01755319 L9.51742021,4.25425532 L7.05199468,4.3587766 L6.73523936,3.97579787 C6.56110523,3.76463851 6.38288003,3.55688645 6.20066489,3.35265957 L6.02034574,3.15718085 L5.83683511,2.96808511 C5.0900266,2.22446809 4.33045213,1.70904255 3.56848404,1.42420213 C3.18231383,1.27898936 2.44348404,1.18643617 1.37832447,1.15771277 L1.14534574,1.15292553 L1.14454787,1.15212766 Z M9.06422872,7.75851064 L8.8599734,7.55585106 C8.31166458,7.81733124 7.86109032,8.24694206 7.57380319,8.78218085 L7.49321809,8.94574468 L7.69827128,9.15 L7.77007979,9.2162234 C8.08444149,9.48031915 8.67406915,9.72367021 9.5293883,9.92632979 L9.74800532,9.97739362 L9.9793883,10.025266 L9.92433511,9.80026596 C9.68736702,8.84680851 9.41609043,8.18856383 9.13045213,7.83510638 L9.06422872,7.75930851 L8.8599734,7.55585106 L9.06422872,7.75930851 L9.06422872,7.75851064 Z M3.04986702,2.49893617 C3.21582447,2.49893617 3.35944149,2.55718085 3.4775266,2.67287234 C3.59265666,2.78058013 3.65722155,2.93171409 3.65545213,3.0893617 C3.65794717,3.24738443 3.59328075,3.39904604 3.4775266,3.50664894 C3.36448945,3.62026872 3.21011919,3.68305364 3.04986702,3.68058511 C2.88978582,3.68339309 2.73553466,3.62053934 2.62300532,3.50664894 C2.50737444,3.39889355 2.44249329,3.24740766 2.44428191,3.0893617 C2.44221908,2.93149282 2.50716459,2.78014659 2.62300532,2.67287234 C2.73584906,2.55945324 2.88989035,2.49668501 3.04986702,2.49893617 L3.04986702,2.49893617 Z" id="Shape"></path>
            </g>
        </g>
    </g>
</svg>