<?xml version="1.0" encoding="UTF-8"?>
<svg width="23px" height="22px" viewBox="0 0 23 22" version="1.1" xmlns="http://www.w3.org/2000/svg" xmlns:xlink="http://www.w3.org/1999/xlink">
    <!-- Generator: Sketch 63.1 (92452) - https://sketch.com -->
    <title>summary_disabled</title>
    <desc>Created with Sketch.</desc>
    <g id="Page-1-Copy-3" stroke="none" stroke-width="1" fill="none" fill-rule="evenodd">
        <g id="summary_disabled" transform="translate(0.550000, 0.000000)">
            <circle id="Oval-Copy" fill="#E2E5F4" cx="11" cy="11" r="11"></circle>
            <path d="M16.0333987,8.37923203 C16.0111317,8.3248102 15.9781909,8.27539901 15.9365196,8.2339134 L12.4136438,4.71103758 C12.3316222,4.62968374 12.220916,4.58381976 12.1053922,4.58333333 L5.94035948,4.58333333 C5.69715565,4.58333333 5.5,4.78048899 5.5,5.02369281 L5.5,16.9133987 C5.5,17.1566025 5.69715565,17.3537582 5.94035948,17.3537582 L15.628268,17.3537582 C15.8714718,17.3537582 16.0686275,17.1566025 16.0686275,16.9133987 L16.0686275,8.54656863 C16.0679317,8.48902366 16.0559631,8.43217306 16.0333987,8.37923203 Z M12.5457516,6.08495915 L14.5670016,8.10620915 L12.5457516,8.10620915 L12.5457516,6.08495915 Z M15.1879085,16.4730392 L6.38071895,16.4730392 L6.38071895,5.46405229 L11.6650327,5.46405229 L11.6650327,8.54656863 C11.6650327,8.78977245 11.8621883,8.9869281 12.1053922,8.9869281 L15.1879085,8.9869281 L15.1879085,16.4730392 Z" id="Shape" fill="#3F51B5"></path>
            <path d="M7.70179739,8.9869281 L9.90359477,8.9869281 C10.1467986,8.9869281 10.3439542,8.78977245 10.3439542,8.54656863 C10.3439542,8.3033648 10.1467986,8.10620915 9.90359477,8.10620915 L7.70179739,8.10620915 C7.45859356,8.10620915 7.26143791,8.3033648 7.26143791,8.54656863 C7.26143791,8.78977245 7.45859356,8.9869281 7.70179739,8.9869281 Z" id="Path" fill="#3F51B5"></path>
            <path d="M7.26143791,11.629085 C7.26143791,11.8722888 7.45859356,12.0694444 7.70179739,12.0694444 L13.8668301,12.0694444 C14.1100339,12.0694444 14.3071895,11.8722888 14.3071895,11.629085 C14.3071895,11.3858811 14.1100339,11.1887255 13.8668301,11.1887255 L7.70179739,11.1887255 C7.45859356,11.1887255 7.26143791,11.3858811 7.26143791,11.629085 Z" id="Path" fill="#3F51B5"></path>
            <path d="M13.8668301,12.9501634 L7.70179739,12.9501634 C7.45859356,12.9501634 7.26143791,13.1473191 7.26143791,13.3905229 C7.26143791,13.6337267 7.45859356,13.8308824 7.70179739,13.8308824 L13.8668301,13.8308824 C14.1100339,13.8308824 14.3071895,13.6337267 14.3071895,13.3905229 C14.3071895,13.1473191 14.1100339,12.9501634 13.8668301,12.9501634 Z" id="Path" fill="#3F51B5"></path>
            <path d="M9.90359477,14.7116013 L7.70179739,14.7116013 C7.45859356,14.7116013 7.26143791,14.908757 7.26143791,15.1519608 C7.26143791,15.3951646 7.45859356,15.5923203 7.70179739,15.5923203 L9.90359477,15.5923203 C10.1467986,15.5923203 10.3439542,15.3951646 10.3439542,15.1519608 C10.3439542,14.908757 10.1467986,14.7116013 9.90359477,14.7116013 Z" id="Path" fill="#3F51B5"></path>
        </g>
    </g>
</svg>