<?xml version="1.0" encoding="UTF-8"?>
<svg width="22px" height="22px" viewBox="0 0 22 22" version="1.1" xmlns="http://www.w3.org/2000/svg" xmlns:xlink="http://www.w3.org/1999/xlink">
    <!-- Generator: Sketch 63.1 (92452) - https://sketch.com -->
    <title>task_disable</title>
    <desc>Created with Sketch.</desc>
    <g id="task+member-1-copy" stroke="none" stroke-width="1" fill="none" fill-rule="evenodd">
        <g id="task_disable" fill="#F368E0">
            <circle id="Oval-Copy" opacity="0.13" cx="11" cy="11" r="11"></circle>
            <path d="M16.6250026,10.6883918 L9.87505031,10.6883918 C9.66794499,10.6883918 9.50005296,10.8562838 9.50005296,11.0633892 L9.50005296,11.4383865 C9.50005296,11.6454918 9.66794499,11.8133839 9.87505031,11.8133839 L16.6250026,11.8133839 C16.832108,11.8133839 17,11.6454918 17,11.4383865 L17,11.0633892 C17,10.8562838 16.832108,10.6883918 16.6250026,10.6883918 Z M16.6250026,14.4383653 L9.87505031,14.4383653 C9.66794499,14.4383653 9.50005296,14.6062574 9.50005296,14.8133627 L9.50005296,15.18836 C9.50005296,15.3954653 9.66794499,15.5633574 9.87505031,15.5633574 L16.6250026,15.5633574 C16.832108,15.5633574 17,15.3954653 17,15.18836 L17,14.8133627 C17,14.6062574 16.832108,14.4383653 16.6250026,14.4383653 Z M16.6250026,6.93841828 L9.87505031,6.93841828 C9.66794499,6.93841828 9.50005296,7.10631032 9.50005296,7.31341564 L9.50005296,7.68841299 C9.50005296,7.89551831 9.66794499,8.06341034 9.87505031,8.06341034 L16.6250026,8.06341034 C16.832108,8.06341034 17,7.89551831 17,7.68841299 L17,7.31341564 C17,7.10631032 16.832108,6.93841828 16.6250026,6.93841828 Z M6.50710534,13.8758693 C5.89070345,13.8758693 5.37508209,14.379772 5.37508209,15.0008614 C5.37508209,15.6219507 5.89070345,16.1258534 6.50710534,16.1258534 C7.1284213,16.1258534 7.6320974,15.6221773 7.6320974,15.0008614 C7.6320974,14.3795454 7.1284213,13.8758693 6.50710534,13.8758693 Z M8.27099914,9.83269472 C8.16060858,9.72355685 7.98295501,9.72355685 7.87256445,9.83269472 L6.38054374,11.316278 L5.84898499,10.8020629 C5.79621296,10.7491073 5.72452847,10.7193417 5.64976765,10.7193417 C5.57500682,10.7193417 5.50332233,10.7491073 5.4505503,10.8020629 L5.08281853,11.1672165 C5.02984263,11.2194532 5.00001815,11.2907465 5.00001815,11.3651448 C5.00001815,11.4395432 5.02984263,11.5108365 5.08281853,11.5630731 L6.19538879,12.6690809 C6.31110671,12.7780767 6.49169922,12.7780767 6.60741713,12.6690809 L6.97538329,12.3036929 L8.66685572,10.6222985 C8.71949316,10.5704558 8.7493264,10.4997909 8.74977109,10.4259115 C8.75020592,10.352032 8.72121601,10.2810169 8.66919945,10.2285513 L8.27099914,9.83269472 Z M8.27099914,6.0827212 C8.21822711,6.02976562 8.14654262,6 8.07178179,6 C7.99702097,6 7.92533648,6.02976562 7.87256445,6.0827212 L6.38077811,7.56302325 L5.84898499,7.04576128 C5.73869916,6.93636882 5.56083613,6.93636882 5.4505503,7.04576128 L5.08281853,7.41325868 C5.0298174,7.46576816 5,7.53728202 5,7.61189009 C5,7.68649816 5.0298174,7.75801202 5.08281853,7.8105215 L6.19773253,8.91863868 C6.31337379,9.02828213 6.49458835,9.02828213 6.61022961,8.91863868 L6.97561766,8.553485 L8.66709009,6.86599692 C8.77738937,6.75646277 8.77843688,6.5783864 8.66943382,6.46756223 L8.27099914,6.0827212 Z" id="Shape" stroke="#F368E0" stroke-width="0.2" fill-rule="nonzero"></path>
        </g>
    </g>
</svg>