<?xml version="1.0" encoding="UTF-8"?>
<svg width="23px" height="22px" viewBox="0 0 23 22" version="1.1" xmlns="http://www.w3.org/2000/svg" xmlns:xlink="http://www.w3.org/1999/xlink">
    <!-- Generator: Sketch 63.1 (92452) - https://sketch.com -->
    <title>workspace_enable</title>
    <desc>Created with Sketch.</desc>
    <g id="task+member-1-copy" stroke="none" stroke-width="1" fill="none" fill-rule="evenodd">
        <g id="workspace_enable" transform="translate(0.500000, 0.000000)">
            <circle id="Oval-Copy" fill="#FF7F04" cx="11" cy="11" r="11"></circle>
            <path d="M14.5639499,13.5479127 L6.86613656,13.5479127 C6.51185449,13.5479127 6.22465212,13.7956132 6.22465212,14.1011672 C6.22465212,14.4067213 6.51185449,14.6544218 6.86613656,14.6544218 L14.5639499,14.6544218 C14.918232,14.6544218 15.2054343,14.4067213 15.2054343,14.1011672 C15.2054343,13.7956132 14.918232,13.5479127 14.5639499,13.5479127 Z" id="Path" fill="#FFFFFF" fill-rule="nonzero"></path>
            <path d="M14.5639499,15.8544218 L6.86613656,15.8544218 C6.51185449,15.8544218 6.22465212,16.1021222 6.22465212,16.4076763 C6.22465212,16.7132303 6.51185449,16.9609308 6.86613656,16.9609308 L14.5639499,16.9609308 C14.918232,16.9609308 15.2054343,16.7132303 15.2054343,16.4076763 C15.2054343,16.1021222 14.918232,15.8544218 14.5639499,15.8544218 Z" id="Path-Copy" fill="#FFFFFF" fill-rule="nonzero"></path>
            <path d="M15.57283,5 C16.0462797,5 16.4300865,5.37958914 16.4300865,5.84783608 L16.4300865,5.84783608 L16.4300865,11.5000766 C16.4300865,11.9683236 16.0462797,12.3479127 15.57283,12.3479127 L15.57283,12.3479127 L5.85725648,12.3479127 C5.3838068,12.3479127 5,11.9683236 5,11.5000766 L5,11.5000766 L5,5.84783608 C5,5.37958914 5.3838068,5 5.85725648,5 L5.85725648,5 Z M15.2870778,6.13044811 L6.14300865,6.13044811 L6.14300865,11.2174646 L15.2870778,11.2174646 L15.2870778,6.13044811 Z" id="Combined-Shape" fill="#FFFFFF" fill-rule="nonzero"></path>
        </g>
    </g>
</svg>