<svg xmlns="http://www.w3.org/2000/svg" xmlns:xlink="http://www.w3.org/1999/xlink" viewBox="0 0 30.5 27.07"><defs><clipPath id="clip-path"><rect width="30.5" height="27.07" fill="none"/></clipPath></defs><title>uploadImage</title><g id="Layer_2" data-name="Layer 2"><g id="Layer_1-2" data-name="Layer 1"><g opacity="0.25"><g clip-path="url(#clip-path)"><path d="M11.56,6.81A2.06,2.06,0,1,1,9.5,8.87a2.06,2.06,0,0,1,2.06-2.06"/><circle cx="11.56" cy="8.87" r="2.06" fill="none" stroke="#000" stroke-miterlimit="10" stroke-width="0.5"/><path d="M28.47,16.45a6.34,6.34,0,0,0-3.55-1.69V4.29a4.12,4.12,0,0,0-1.17-2.86A4,4,0,0,0,20.89.25H4.29A4.12,4.12,0,0,0,1.42,1.42,4,4,0,0,0,.25,4.29V21.38a4.12,4.12,0,0,0,1.17,2.86,4,4,0,0,0,2.86,1.17H20.35a6.06,6.06,0,0,0,8.13-9M1.77,4.29a2.4,2.4,0,0,1,.74-1.75A2.51,2.51,0,0,1,4.29,1.8h16.6a2.54,2.54,0,0,1,2.52,2.52v8.93L19.17,9a.77.77,0,0,0-1.09,0L11.7,15.42,7.38,11.07a.77.77,0,0,0-1.09,0L1.77,15.65ZM4.26,24V23.9a2.51,2.51,0,0,1-1.78-.74,2.61,2.61,0,0,1-.72-1.77V17.83l5.07-5.1,4.32,4.32a.8.8,0,0,0,1.09,0l6.38-6.41,4.18,4.21-.26.09a2.59,2.59,0,0,0-.37.12c-.11,0-.23.09-.34.11a.88.88,0,0,0-.23.12,2.53,2.53,0,0,0-.29.14l-.43.26-.23.14-.14.09a3.47,3.47,0,0,0-.69.6,6.06,6.06,0,0,0-1.77,4.29,6.28,6.28,0,0,0,.14,1.26c0,.11.06.2.09.32.09.29.17.57.29.86v0a5.18,5.18,0,0,0,.37.69Zm23.1,0A4.53,4.53,0,0,1,21,24c-.11-.11-.23-.26-.34-.37s-.17-.2-.26-.29a2.69,2.69,0,0,1-.29-.49L20,22.55a2.41,2.41,0,0,1-.14-.49c0-.12-.09-.26-.11-.37a4.75,4.75,0,0,1-.09-.92,4.59,4.59,0,0,1,1.32-3.21,4.42,4.42,0,0,1,3.21-1.32,4.59,4.59,0,0,1,3.21,1.32,4.47,4.47,0,0,1,1.32,3.21A4.58,4.58,0,0,1,27.36,24"/><path d="M28.47,16.45a6.34,6.34,0,0,0-3.55-1.69V4.29a4.12,4.12,0,0,0-1.17-2.86A4,4,0,0,0,20.89.25H4.29A4.12,4.12,0,0,0,1.42,1.42,4,4,0,0,0,.25,4.29V21.38a4.12,4.12,0,0,0,1.17,2.86,4,4,0,0,0,2.86,1.17H20.35a6.06,6.06,0,0,0,8.13-9ZM1.77,4.29a2.4,2.4,0,0,1,.74-1.75A2.51,2.51,0,0,1,4.29,1.8h16.6a2.54,2.54,0,0,1,2.52,2.52v8.93L19.17,9a.77.77,0,0,0-1.09,0L11.7,15.42,7.38,11.07a.77.77,0,0,0-1.09,0L1.77,15.65ZM4.26,24V23.9a2.51,2.51,0,0,1-1.78-.74,2.61,2.61,0,0,1-.72-1.77V17.83l5.07-5.1,4.32,4.32a.8.8,0,0,0,1.09,0l6.38-6.41,4.18,4.21-.26.09a2.59,2.59,0,0,0-.37.12c-.11,0-.23.09-.34.11a.88.88,0,0,0-.23.12,2.53,2.53,0,0,0-.29.14l-.43.26-.23.14-.14.09a3.47,3.47,0,0,0-.69.6,6.06,6.06,0,0,0-1.77,4.29,6.28,6.28,0,0,0,.14,1.26c0,.11.06.2.09.32.09.29.17.57.29.86v0a5.18,5.18,0,0,0,.37.69Zm23.1,0A4.53,4.53,0,0,1,21,24c-.11-.11-.23-.26-.34-.37s-.17-.2-.26-.29a2.69,2.69,0,0,1-.29-.49L20,22.55a2.41,2.41,0,0,1-.14-.49c0-.12-.09-.26-.11-.37a4.75,4.75,0,0,1-.09-.92,4.59,4.59,0,0,1,1.32-3.21,4.42,4.42,0,0,1,3.21-1.32,4.59,4.59,0,0,1,3.21,1.32,4.47,4.47,0,0,1,1.32,3.21A4.58,4.58,0,0,1,27.36,24Z" fill="none" stroke="#000" stroke-miterlimit="10" stroke-width="0.5"/><path d="M24.7,17.68a1,1,0,0,0-.26-.17.85.85,0,0,0-.26-.06h-.06a.86.86,0,0,0-.26.06.67.67,0,0,0-.26.17l-1.78,1.77a.77.77,0,0,0,1.09,1.09l.46-.46v3.15a.77.77,0,0,0,1.55,0V20.09l.46.46a.77.77,0,0,0,1.09-1.09Z"/></g></g></g></g></svg>