<svg id="Layer_1" data-name="Layer 1" xmlns="http://www.w3.org/2000/svg" viewBox="0 0 24.44 24.44"><defs><style>.cls-1{fill:#f4cc18;}.cls-2{fill:#72abdd;}.cls-3{fill:#e74f42;}.cls-4{fill:none;stroke:#e5e5e5;stroke-linecap:round;stroke-miterlimit:10;stroke-width:2px;}</style></defs><title>apps</title><path class="cls-1" d="M9.8,10.86H1.06A1.05,1.05,0,0,1,0,9.8V1.06A1.05,1.05,0,0,1,1.06,0H9.8a1.05,1.05,0,0,1,1.06,1.06V9.8A1.05,1.05,0,0,1,9.8,10.86Z"/><path class="cls-2" d="M23.38,10.86H14.64A1.05,1.05,0,0,1,13.58,9.8V1.06A1.05,1.05,0,0,1,14.64,0h8.74a1.05,1.05,0,0,1,1.06,1.06V9.8A1.05,1.05,0,0,1,23.38,10.86Z"/><path class="cls-3" d="M9.8,24.44H1.06A1.05,1.05,0,0,1,0,23.38V14.64a1.05,1.05,0,0,1,1.06-1.06H9.8a1.05,1.05,0,0,1,1.06,1.06v8.74A1.05,1.05,0,0,1,9.8,24.44Z"/><line class="cls-4" x1="22.85" y1="15.17" x2="15.17" y2="22.85"/><line class="cls-4" x1="15.17" y1="15.17" x2="22.85" y2="22.85"/></svg>