<svg id="Layer_1" data-name="Layer 1" xmlns="http://www.w3.org/2000/svg" viewBox="0 0 120.69 141.06"><defs><style>.cls-1{fill:#cad1db;}.cls-2{fill:#32a0ff;}.cls-3{fill:#008df6;}.cls-4{fill:#ffcabb;}.cls-5{fill:#ffc737;}.cls-6{fill:#ffb100;}.cls-7{fill:#ff5e65;}.cls-8{fill:#ff414c;}.cls-9{fill:#ffbaa6;}</style></defs><title>collaborations</title><path class="cls-1" d="M60.35,46.17A2.13,2.13,0,0,1,58.22,44V37.56a2.13,2.13,0,1,1,4.25,0V44A2.12,2.12,0,0,1,60.35,46.17Z"/><path class="cls-1" d="M60.35,105.63a2.13,2.13,0,0,1-2.13-2.13V97a2.13,2.13,0,1,1,4.25,0v6.48A2.12,2.12,0,0,1,60.35,105.63Z"/><path class="cls-1" d="M36.34,59.13l-5.61-3.24a2.13,2.13,0,0,1,2.13-3.69l5.61,3.24a2.13,2.13,0,0,1-2.13,3.69Z"/><path class="cls-1" d="M87.84,88.86l-5.62-3.24a2.13,2.13,0,1,1,2.13-3.69L90,85.17a2.13,2.13,0,0,1-2.13,3.69Z"/><path class="cls-1" d="M30,88.08a2.13,2.13,0,0,1,.78-2.91l5.61-3.24a2.13,2.13,0,0,1,2.13,3.69l-5.61,3.24A2.13,2.13,0,0,1,30,88.08Z"/><path class="cls-1" d="M81.44,58.35a2.13,2.13,0,0,1,.78-2.91l5.62-3.24A2.13,2.13,0,0,1,90,55.89l-5.62,3.24A2.13,2.13,0,0,1,81.44,58.35Z"/><circle class="cls-2" cx="60.35" cy="70.53" r="26.49"/><path class="cls-3" d="M42.39,70.53A26.48,26.48,0,0,1,64.61,44.39,26.05,26.05,0,0,0,60.35,44a26.49,26.49,0,0,0,0,53,26.05,26.05,0,0,0,4.26-.35A26.48,26.48,0,0,1,42.39,70.53Z"/><circle class="cls-4" cx="60.35" cy="59.35" r="7.87"/><path class="cls-5" d="M64.8,67.22H55.89a8.45,8.45,0,0,0-8.42,8.43v9.76a1.43,1.43,0,0,0,1.43,1.43H71.79a1.44,1.44,0,0,0,1.44-1.43V75.65A8.46,8.46,0,0,0,64.8,67.22Z"/><path class="cls-6" d="M53.14,85.41V75.65a8.46,8.46,0,0,1,8.43-8.43H55.89a8.45,8.45,0,0,0-8.42,8.43v9.76a1.44,1.44,0,0,0,1.43,1.44h5.68A1.45,1.45,0,0,1,53.14,85.41Z"/><path class="cls-6" d="M56.07,86.85V75.34a2.13,2.13,0,1,0-4.25,0V86.85Z"/><path class="cls-6" d="M68.87,75.34a2.13,2.13,0,1,0-4.25,0V86.85h4.25V75.34Z"/><circle class="cls-4" cx="107.81" cy="85.61" r="7.87"/><path class="cls-7" d="M112.26,93.47h-8.9a8.46,8.46,0,0,0-8.43,8.43v6.6a1.43,1.43,0,0,0,1.44,1.43h22.89a1.43,1.43,0,0,0,1.43-1.43v-6.6A8.46,8.46,0,0,0,112.26,93.47Z"/><path class="cls-8" d="M100.61,108.5v-6.6A8.46,8.46,0,0,1,109,93.47h-5.68a8.46,8.46,0,0,0-8.43,8.43v6.6a1.43,1.43,0,0,0,1.44,1.43H102A1.43,1.43,0,0,1,100.61,108.5Z"/><path class="cls-8" d="M116.34,101.6a2.13,2.13,0,0,0-4.26,0v8.33h4.26V101.6Z"/><path class="cls-8" d="M103.54,109.93V101.6a2.13,2.13,0,0,0-4.26,0v8.33Z"/><circle class="cls-4" cx="12.88" cy="85.61" r="7.87"/><path class="cls-7" d="M17.33,93.47H8.43A8.46,8.46,0,0,0,0,101.9v6.6a1.43,1.43,0,0,0,1.44,1.43H24.32a1.43,1.43,0,0,0,1.44-1.43v-6.6A8.46,8.46,0,0,0,17.33,93.47Z"/><path class="cls-8" d="M5.68,108.5v-6.6a8.46,8.46,0,0,1,8.43-8.43H8.43A8.46,8.46,0,0,0,0,101.9v6.6a1.43,1.43,0,0,0,1.44,1.43H7.11A1.43,1.43,0,0,1,5.68,108.5Z"/><path class="cls-8" d="M21.41,101.6a2.13,2.13,0,1,0-4.26,0v8.33h4.26Z"/><path class="cls-8" d="M8.61,109.93V101.6a2.13,2.13,0,0,0-4.26,0v8.33Z"/><circle class="cls-4" cx="107.81" cy="36.08" r="7.87"/><path class="cls-7" d="M112.26,43.94h-8.9a8.46,8.46,0,0,0-8.43,8.43V59a1.43,1.43,0,0,0,1.44,1.43h22.89A1.43,1.43,0,0,0,120.69,59v-6.6A8.46,8.46,0,0,0,112.26,43.94Z"/><path class="cls-8" d="M100.61,59v-6.6A8.46,8.46,0,0,1,109,43.94h-5.68a8.46,8.46,0,0,0-8.43,8.43V59a1.43,1.43,0,0,0,1.44,1.43H102A1.43,1.43,0,0,1,100.61,59Z"/><path class="cls-8" d="M116.34,52.07a2.13,2.13,0,0,0-4.26,0V60.4h4.26V52.07Z"/><path class="cls-8" d="M103.54,60.4V52.07a2.13,2.13,0,0,0-4.26,0V60.4Z"/><circle class="cls-4" cx="12.88" cy="36.08" r="7.87"/><path class="cls-7" d="M17.33,43.94H8.43A8.46,8.46,0,0,0,0,52.37V59A1.43,1.43,0,0,0,1.44,60.4H24.32A1.43,1.43,0,0,0,25.76,59v-6.6A8.46,8.46,0,0,0,17.33,43.94Z"/><path class="cls-8" d="M5.68,59v-6.6a8.46,8.46,0,0,1,8.43-8.43H8.43A8.46,8.46,0,0,0,0,52.37V59A1.43,1.43,0,0,0,1.44,60.4H7.11A1.43,1.43,0,0,1,5.68,59Z"/><path class="cls-8" d="M21.41,52.07a2.13,2.13,0,1,0-4.26,0V60.4h4.26Z"/><path class="cls-8" d="M8.61,60.4V52.07a2.13,2.13,0,1,0-4.26,0V60.4Z"/><circle class="cls-4" cx="60.35" cy="7.87" r="7.87"/><path class="cls-7" d="M64.8,15.73H55.89a8.45,8.45,0,0,0-8.42,8.43v6.6a1.43,1.43,0,0,0,1.43,1.43H71.79a1.44,1.44,0,0,0,1.44-1.43v-6.6A8.46,8.46,0,0,0,64.8,15.73Z"/><path class="cls-8" d="M53.14,30.76v-6.6a8.46,8.46,0,0,1,8.43-8.43H55.89a8.45,8.45,0,0,0-8.42,8.43v6.6a1.43,1.43,0,0,0,1.43,1.43h5.68A1.44,1.44,0,0,1,53.14,30.76Z"/><path class="cls-8" d="M68.87,23.86a2.13,2.13,0,1,0-4.25,0v8.33h4.25V23.86Z"/><path class="cls-8" d="M56.07,32.19V23.86a2.13,2.13,0,1,0-4.25,0v8.33Z"/><circle class="cls-4" cx="60.35" cy="116.74" r="7.87"/><path class="cls-9" d="M61,59.35a7.85,7.85,0,0,1,3.6-6.61,7.87,7.87,0,1,0,0,13.22A7.85,7.85,0,0,1,61,59.35Z"/><path class="cls-9" d="M108.47,85.61A7.86,7.86,0,0,1,112.08,79a7.86,7.86,0,1,0,0,13.22A7.86,7.86,0,0,1,108.47,85.61Z"/><path class="cls-9" d="M13.54,85.61A7.88,7.88,0,0,1,17.14,79a7.86,7.86,0,1,0,0,13.22A7.88,7.88,0,0,1,13.54,85.61Z"/><path class="cls-9" d="M108.47,36.08a7.85,7.85,0,0,1,3.61-6.61,7.86,7.86,0,1,0,0,13.22A7.87,7.87,0,0,1,108.47,36.08Z"/><path class="cls-9" d="M13.54,36.08a7.86,7.86,0,0,1,3.6-6.61,7.75,7.75,0,0,0-4.26-1.26,7.87,7.87,0,1,0,4.26,14.48A7.89,7.89,0,0,1,13.54,36.08Z"/><path class="cls-9" d="M61,7.87a7.84,7.84,0,0,1,3.6-6.61A7.78,7.78,0,0,0,60.35,0a7.87,7.87,0,1,0,0,15.73,7.78,7.78,0,0,0,4.26-1.26A7.83,7.83,0,0,1,61,7.87Z"/><path class="cls-9" d="M61,116.74a7.84,7.84,0,0,1,3.6-6.61,7.78,7.78,0,0,0-4.26-1.26,7.87,7.87,0,1,0,0,15.73,7.78,7.78,0,0,0,4.26-1.26A7.83,7.83,0,0,1,61,116.74Z"/><path class="cls-7" d="M64.8,124.6H55.89A8.45,8.45,0,0,0,47.47,133v6.6a1.43,1.43,0,0,0,1.43,1.43H71.79a1.44,1.44,0,0,0,1.44-1.43V133A8.46,8.46,0,0,0,64.8,124.6Z"/><path class="cls-8" d="M53.14,139.63V133a8.46,8.46,0,0,1,8.43-8.43H55.89A8.45,8.45,0,0,0,47.47,133v6.6a1.43,1.43,0,0,0,1.43,1.43h5.68A1.44,1.44,0,0,1,53.14,139.63Z"/><path class="cls-8" d="M68.87,132.73a2.13,2.13,0,1,0-4.25,0v8.33h4.25v-8.33Z"/><path class="cls-8" d="M56.07,141.06v-8.33a2.13,2.13,0,1,0-4.25,0v8.33Z"/></svg>