<svg id="Layer_1" data-name="Layer 1" xmlns="http://www.w3.org/2000/svg" viewBox="0 0 104.31 85.98"><defs><style>.cls-1{fill:#ffc961;}.cls-1,.cls-2,.cls-3,.cls-4,.cls-5,.cls-6,.cls-7{fill-rule:evenodd;}.cls-2{fill:#e7e7e7;}.cls-3{fill:#cbcbcb;}.cls-4{fill:#ff8f46;}.cls-5{fill:#0fb9ea;}.cls-6{fill:gray;}.cls-7{fill:#525252;}</style></defs><title>inventory</title><path class="cls-1" d="M30.06,5.58V39.25L50.5,43.77l21.29-4.52V5.58a4.15,4.15,0,0,0-4.13-4.14H34.2A4.15,4.15,0,0,0,30.06,5.58Z"/><path class="cls-2" d="M44.68,10.59h12a2,2,0,0,0,2-2V1.44H42.71V8.62A2,2,0,0,0,44.68,10.59Z"/><path class="cls-3" d="M42.71,8.62a2,2,0,0,0,2,2h3.69a2,2,0,0,1-2-2V1.44h-3.7Z"/><path class="cls-4" d="M10.52,43.39V77.06L31,81.58l21.28-4.52,3.67-18L52.24,43.39c-.51-2.22-1.85-4.14-4.13-4.14H14.65A4.15,4.15,0,0,0,10.52,43.39Z"/><path class="cls-2" d="M25.13,48.4h12a2,2,0,0,0,2-2V39.25H23.17v7.19A2,2,0,0,0,25.13,48.4Z"/><path class="cls-3" d="M23.17,46.44a2,2,0,0,0,2,2h3.7a2,2,0,0,1-2-2V39.25H23.17Z"/><path class="cls-5" d="M52.25,43.39V77.06c4.37-.12,12.15,4.54,20.43,4.52,6.74,0,13.55-4.64,21.29-4.62V43.39a4.15,4.15,0,0,0-4.13-4.14H56.38A4.14,4.14,0,0,0,52.25,43.39Z"/><path class="cls-2" d="M66.86,48.4h12a2,2,0,0,0,2-2V39.25H64.9v7.19A2,2,0,0,0,66.86,48.4Z"/><path class="cls-3" d="M64.9,46.44a2,2,0,0,0,2,2h3.69a2,2,0,0,1-2-2V39.25H64.9Z"/><path class="cls-6" d="M5.19,77a3.67,3.67,0,0,0,0,7.33H99.11a3.63,3.63,0,0,0,2.16-.71A3.67,3.67,0,0,0,99.11,77Z"/><path class="cls-7" d="M5.19,77a3.67,3.67,0,0,0,0,7.33H12a3.67,3.67,0,0,1-1.07-7.17h0A3.57,3.57,0,0,1,12,77Z"/><path d="M99.11,75.57h-3.6V43.49a5.68,5.68,0,0,0-5.67-5.68H73.33V26.11a1.54,1.54,0,0,0-1.54-1.54h0a1.54,1.54,0,0,0-1.54,1.54v11.7H56.38a5.65,5.65,0,0,0-4.14,1.8,5.62,5.62,0,0,0-4.13-1.8H31.6V5.68a2.61,2.61,0,0,1,2.6-2.6h7V8.73a3.51,3.51,0,0,0,3.51,3.51h12a3.51,3.51,0,0,0,3.5-3.51V3.08h7.49a2.6,2.6,0,0,1,2.59,2.6V18.87a1.54,1.54,0,1,0,3.08,0V5.68A5.69,5.69,0,0,0,67.66,0H34.2a5.69,5.69,0,0,0-5.68,5.68V37.81H14.65A5.68,5.68,0,0,0,9,43.49V75.57H5.19A5.21,5.21,0,0,0,5.19,86H99.11a5.21,5.21,0,0,0,0-10.41Zm-42-66.84a.42.42,0,0,1-.42.42h-12a.43.43,0,0,1-.43-.42V3.08H57.09ZM66.44,40.9H79.27v5.64a.43.43,0,0,1-.42.42h-12a.42.42,0,0,1-.42-.42Zm-10.06,0h7v5.64a3.5,3.5,0,0,0,3.5,3.5h12a3.51,3.51,0,0,0,3.51-3.5V40.9h7.49a2.59,2.59,0,0,1,2.59,2.59V75.57H53.78V43.49A2.6,2.6,0,0,1,56.38,40.9Zm-31.67,0H37.54v5.64a.42.42,0,0,1-.42.42h-12a.42.42,0,0,1-.42-.42Zm74.4,42H5.19a2.12,2.12,0,0,1,0-4.23H26.88a1.55,1.55,0,0,0,0-3.09H12.06V43.49a2.59,2.59,0,0,1,2.59-2.59h7v5.64a3.5,3.5,0,0,0,3.5,3.5h12a3.5,3.5,0,0,0,3.5-3.5V40.9h7.49a2.6,2.6,0,0,1,2.6,2.59V75.57H33.93a1.55,1.55,0,0,0,0,3.09H99.11a2.12,2.12,0,1,1,0,4.23Z"/></svg>