<svg id="Layer_1" data-name="Layer 1" xmlns="http://www.w3.org/2000/svg" viewBox="0 0 112.98 105.42"><defs><style>.cls-1{fill:#c5bbaf;}.cls-2{fill:#928a80;}.cls-3{fill:#ffe27b;}</style></defs><title>jobs</title><path class="cls-1" d="M113,45.36V24.14c0-.13,0-.24,0-.36V23h-.08a8.36,8.36,0,0,0-8.25-7.18H8.37A8.34,8.34,0,0,0,.12,23H0V53.06H0v6c0,.12,0,.23,0,.35V97.05c0,.13,0,.24,0,.36v.83H.12a8.34,8.34,0,0,0,8.25,7.18h96.24a8.36,8.36,0,0,0,8.25-7.18H113V51.72h0v-6c0-.12,0-.23,0-.35Zm0,0"/><path class="cls-2" d="M113,45.36V24.14c0-.13,0-.24,0-.36V23h-.08a8.36,8.36,0,0,0-8.25-7.18H8.37A8.34,8.34,0,0,0,.12,23H0V53.06H0v6c0,.12,0,.23,0,.35V69.51c0,.12,0,.23,0,.35v.83H.12a8.34,8.34,0,0,0,8.25,7.18h96.24a8.35,8.35,0,0,0,8.25-7.18H113v-19h0v-6c0-.12,0-.23,0-.35Zm0,0"/><path class="cls-3" d="M63.12,76.72a6.63,6.63,0,1,1-6.63-6.64,6.63,6.63,0,0,1,6.63,6.64Zm0,0"/><path class="cls-3" d="M23.33,84.88a2,2,0,1,1-4.08,0V70.59a2,2,0,1,1,4.08,0Zm70.4,0a2,2,0,0,1-4.08,0V70.59a2,2,0,1,1,4.08,0Zm0,0"/><path class="cls-2" d="M77.27,10.88V3.08c0-.05,0-.09,0-.13V2.64h0a3.06,3.06,0,0,0-3-2.64H38.79a3.08,3.08,0,0,0-3,2.64h0V13.72h0v2.21s0,.08,0,.13v3.71s0,.08,0,.13v.3h0a3.08,3.08,0,0,0,3,2.64h2.09v-.95a.66.66,0,0,1,0-.14V19.5h0V8.21h0c.16-1.52,1.11-2.69,2.28-2.69h26.6c1.16,0,2.12,1.17,2.28,2.69h0v.31c0,.05,0,.09,0,.14v8c0,.05,0,.09,0,.14V19h0v3.84h2.09a3.06,3.06,0,0,0,3-2.64h0v-7h0V11s0-.08,0-.13Zm0,0"/></svg>