<svg id="Layer_1" data-name="Layer 1" xmlns="http://www.w3.org/2000/svg" viewBox="0 0 78.15 68.92"><defs><style>.cls-1{fill:#f06553;}.cls-2{fill:#fa6f58;}.cls-3{fill:#ff856c;}.cls-4{fill:#f13c00;}.cls-5{fill:#e22b00;}</style></defs><title>notifications</title><path class="cls-1" d="M19.28,50.69c.26.93.71,2.45,1,3.37l4.24,13.19a2.56,2.56,0,0,0,2.29,1.67h5a1.52,1.52,0,0,0,1.54-1.74L31.13,49a2,2,0,0,0-2-1.74H20.09A1.27,1.27,0,0,0,18.8,49Zm0,0"/><path class="cls-2" d="M19.75,52.38H38A19.75,19.75,0,0,0,57.74,32.63H0A19.75,19.75,0,0,0,19.75,52.38Zm0,0"/><path class="cls-3" d="M38,12.88H19.75A19.75,19.75,0,0,0,0,32.63H57.74A19.75,19.75,0,0,0,38,12.88Zm0,0"/><path class="cls-3" d="M72.92,28.54H61.22a5.24,5.24,0,0,0-5.11,4.09H78a5.22,5.22,0,0,0-5.1-4.09Zm0,0"/><path class="cls-2" d="M56.11,32.63A6.32,6.32,0,0,0,56,33.77,5.24,5.24,0,0,0,61.22,39h11.7a5.23,5.23,0,0,0,5.23-5.23A5.38,5.38,0,0,0,78,32.63Zm0,0"/><path class="cls-4" d="M69.78,4.1c0-2.91-2.22-4.66-4.86-3.94L40.51,6.83c-1.6.44-2.86,2.53-2.86,4.68V32.63H69.78Zm0,0"/><path class="cls-5" d="M37.65,32.63V53.75c0,2.16,1.26,4.25,2.86,4.68L64.93,65.1c2.63.72,4.85-1,4.85-3.94V32.63Zm0,0"/></svg>