<svg id="Layer_1" data-name="Layer 1" xmlns="http://www.w3.org/2000/svg" viewBox="0 0 25.54 25.53"><defs><style>.cls-1{fill:#484a82;}.cls-2{fill:#efefef;}.cls-3{fill:#ff578a;}.cls-4{fill:#94c5e8;}.cls-5{fill:#4097d5;}.cls-6{fill:#ff317c;}</style></defs><title>OKRS</title><circle class="cls-1" cx="12.74" cy="12.78" r="12.74"/><circle class="cls-2" cx="12.74" cy="12.78" r="10.86"/><path class="cls-3" d="M12.74,21.05A8.27,8.27,0,1,1,21,12.78,8.28,8.28,0,0,1,12.74,21.05Z"/><path class="cls-2" d="M12.74,18.44a5.66,5.66,0,1,1,5.66-5.66A5.66,5.66,0,0,1,12.74,18.44Z"/><path class="cls-3" d="M12.74,15.84a3.06,3.06,0,1,1,3.06-3.06A3.06,3.06,0,0,1,12.74,15.84Z"/><path class="cls-4" d="M23.23,3.31l-10,10a.69.69,0,0,1-1,0h0a.69.69,0,0,1,0-1l10-10Z"/><path class="cls-5" d="M23.23,3.31l-10,10a.69.69,0,0,1-1,0h0l10.5-10.5Z"/><polygon class="cls-3" points="17.48 3.85 21.33 0 22.23 2.31 18.38 6.16 17.48 3.85"/><polygon class="cls-6" points="18.35 2.99 18.93 2.41 19.82 4.72 19.25 5.3 18.35 2.99"/><polygon class="cls-6" points="19.76 1.57 20.34 0.99 21.24 3.31 20.66 3.88 19.76 1.57"/><polygon class="cls-6" points="23.23 3.31 19.38 7.16 21.69 8.06 25.54 4.21 23.23 3.31"/><polygon class="cls-3" points="22.23 4.3 21.66 4.88 23.97 5.78 24.55 5.2 22.23 4.3"/><polygon class="cls-3" points="20.82 5.71 20.24 6.29 22.55 7.19 23.13 6.61 20.82 5.71"/></svg>