<svg id="Layer_1" data-name="Layer 1" xmlns="http://www.w3.org/2000/svg" viewBox="0 0 24.11 24.53"><defs><style>.cls-1{fill:#ff4461;}.cls-2{fill:#efeadc;}.cls-3{fill:#d5cfb8;}.cls-4{fill:#314960;}.cls-5{fill:#816d5b;}.cls-6{fill:#00bc96;}.cls-7{fill:#fff;}</style></defs><title>planner</title><polygon class="cls-1" points="19.45 1.69 19.45 3.38 16.49 3.38 16.49 1.69 6.34 1.69 6.34 3.38 3.38 3.38 3.38 1.69 0 1.69 0 6.34 22.84 6.34 22.84 1.69 19.45 1.69"/><polygon class="cls-2" points="3.38 6.34 0 6.34 0 24.53 22.84 24.53 22.84 6.34 19.45 6.34 16.49 6.34 6.34 6.34 3.38 6.34"/><path class="cls-3" d="M15.65,9.3H3.38V21.57H19.45V9.3Zm-3.81.85h3v3h-3Zm3,6.77h-3V14h3ZM8,14h3v3H8Zm0-3.81h3v3H8Zm-3.81,0h3v3h-3Zm0,3.81h3v3h-3Zm3,6.76h-3v-3h3Zm3.81,0H8v-3h3Zm3.8,0h-3v-3h3Zm3.81,0h-3v-3h3Zm0-3.8h-3V14h3Zm-3-3.81v-3h3v3Z"/><rect class="cls-4" x="3.38" width="2.96" height="3.38"/><rect class="cls-4" x="16.49" width="2.96" height="3.38"/><rect class="cls-5" x="8.04" y="13.96" width="2.96" height="2.96"/><circle class="cls-6" cx="19.03" cy="19.03" r="5.07"/><path class="cls-7" d="M21.81,16.57a.43.43,0,0,0-.59.1l-2.37,3.4L17.18,18.7a.42.42,0,0,0-.53.66l2,1.66a.44.44,0,0,0,.27.09H19a.45.45,0,0,0,.29-.18l2.62-3.77A.42.42,0,0,0,21.81,16.57Z"/></svg>