<svg id="Layer_1" data-name="Layer 1" xmlns="http://www.w3.org/2000/svg" viewBox="0 0 19.78 27"><defs><style>.cls-1{fill:#fbe369;}.cls-2{fill:#6996df;}.cls-3{fill:#6187c8;}.cls-4{fill:#ededec;}.cls-5{fill:#dededc;}.cls-6{fill:#fff;}.cls-7{fill:#47505a;}.cls-8{fill:#404650;}.cls-9{fill:#f98698;}.cls-10{fill:#6dbbe9;}.cls-11{fill:#65acd7;}.cls-12{fill:#e37686;}</style></defs><title>starter kit</title><path class="cls-1" d="M9.89,27c1.5,0,3.4-1.77,3.92-4.72.44-2.57.54-4.19-3.92-4.19S5.53,19.71,6,22.28C6.49,25.23,8.39,27,9.89,27Z"/><path class="cls-2" d="M6.41,16.51c-3.75,0-7.08,3-6.29,7.26A.82.82,0,0,0,1.66,24a5.11,5.11,0,0,1,5.05-2.91Z"/><path class="cls-2" d="M13.37,16.51c3.75,0,7.08,3,6.3,7.26a.82.82,0,0,1-1.55.21,5.11,5.11,0,0,0-5.05-2.91Z"/><path class="cls-3" d="M13.37,16.51l-.3,4.56a5.92,5.92,0,0,1,3.27.85,2.26,2.26,0,0,0,.58-1.2c.13-1,.23-2,.29-3A6.78,6.78,0,0,0,13.37,16.51Z"/><path class="cls-3" d="M6.41,16.51a6.81,6.81,0,0,0-3.84,1.18q.09,1.48.3,3a2.18,2.18,0,0,0,.57,1.2,5.92,5.92,0,0,1,3.27-.85Z"/><path class="cls-4" d="M15.84,20.58c1-7.67-.12-14.86-3.79-19.52a2.76,2.76,0,0,0-4.32,0C4.06,5.72,2.9,12.91,3.94,20.58A1.07,1.07,0,0,0,5,21.51h9.78A1.07,1.07,0,0,0,15.84,20.58Z"/><path class="cls-5" d="M8.45.42a2.91,2.91,0,0,0-.72.64C4.06,5.72,2.9,12.91,3.94,20.58A1.07,1.07,0,0,0,5,21.51h7C7.8,15.54,6,7.43,8.45.42Z"/><path class="cls-6" d="M12.71,9.48A2.82,2.82,0,1,1,9.89,6.66,2.82,2.82,0,0,1,12.71,9.48Z"/><path class="cls-4" d="M9.89,6.66A2.82,2.82,0,0,0,7.08,9.28a2.34,2.34,0,1,1,3,3,2.82,2.82,0,0,0-.2-5.63Z"/><path class="cls-7" d="M9.89,13a3.52,3.52,0,1,1,3.52-3.52A3.53,3.53,0,0,1,9.89,13Zm0-5.63A2.11,2.11,0,1,0,12,9.48,2.1,2.1,0,0,0,9.89,7.37Z"/><path class="cls-8" d="M7.35,7.05a3.48,3.48,0,0,0-1,2.43A3.52,3.52,0,0,0,8,12.42,23.77,23.77,0,0,1,7.35,7.05Z"/><path class="cls-9" d="M14.05,4.35A17,17,0,0,0,12,1,2.72,2.72,0,0,0,7.76,1a17,17,0,0,0-2,3.32,16.49,16.49,0,0,0,4.16.42A16.49,16.49,0,0,0,14.05,4.35Z"/><path class="cls-10" d="M3.7,18.39q.09,1.08.24,2.19A1.07,1.07,0,0,0,5,21.51h9.78a1.07,1.07,0,0,0,1.06-.93q.15-1.11.24-2.19Z"/><path class="cls-11" d="M10.12,18.39H3.7q.09,1.08.24,2.19A1.07,1.07,0,0,0,5,21.51h7A25.82,25.82,0,0,1,10.12,18.39Z"/><path class="cls-10" d="M6.17,18.39H7v3.12H6.17Z"/><path class="cls-11" d="M12.82,18.39h.79v3.12h-.79Z"/><path class="cls-2" d="M10.06,17H9.72a.76.76,0,0,0-.77.77v5.88a.77.77,0,0,0,.77.77h.34a.77.77,0,0,0,.77-.77V17.79A.76.76,0,0,0,10.06,17Z"/><path class="cls-9" d="M7.69,15.92a1.18,1.18,0,0,0-1.29-1,1.18,1.18,0,0,0-1.29,1,1.18,1.18,0,0,0,1.29,1A1.18,1.18,0,0,0,7.69,15.92Z"/><path class="cls-9" d="M14.67,15.92a1.18,1.18,0,0,0-1.29-1,1.18,1.18,0,0,0-1.29,1,1.18,1.18,0,0,0,1.29,1A1.18,1.18,0,0,0,14.67,15.92Z"/><path class="cls-7" d="M7.15,15.29a.4.4,0,0,1-.4-.4v-.45a.4.4,0,0,1,.4-.4.39.39,0,0,1,.39.4v.45A.39.39,0,0,1,7.15,15.29Z"/><path class="cls-7" d="M12.63,15.29a.39.39,0,0,1-.39-.4v-.45a.39.39,0,0,1,.39-.4.4.4,0,0,1,.4.4v.45A.4.4,0,0,1,12.63,15.29Z"/><path class="cls-7" d="M9.89,15.64a1.35,1.35,0,0,1-1-.47.38.38,0,0,1,0-.55.4.4,0,0,1,.56,0,.53.53,0,0,0,.42.2.57.57,0,0,0,.43-.2.38.38,0,0,1,.55,0,.38.38,0,0,1,0,.55A1.35,1.35,0,0,1,9.89,15.64Z"/><path class="cls-12" d="M8.45.41A2.68,2.68,0,0,0,7.76,1a17,17,0,0,0-2,3.32,12.89,12.89,0,0,0,1.76.31A19.51,19.51,0,0,1,8.45.41Z"/><path class="cls-3" d="M9.49,17.05a.77.77,0,0,0-.54.74v5.88a.77.77,0,0,0,.77.77h.34a.77.77,0,0,0,.66-.37C9.58,22.32,9.49,18.51,9.49,17.05Z"/></svg>