<svg id="Layer_1" data-name="Layer 1" xmlns="http://www.w3.org/2000/svg" viewBox="0 0 127.81 127.81"><defs><style>.cls-1{fill:#f1cc89;}.cls-2{fill:#eee;}.cls-3{fill:#f7654a;}.cls-4{fill:#00caf3;}.cls-5{fill:#fff;}.cls-6{fill:#6f959e;}</style></defs><title>task manager</title><path class="cls-1" d="M8,4H95.86a8,8,0,0,1,8,8V119.82a8,8,0,0,1-8,8H8a8,8,0,0,1-8-8V12A8,8,0,0,1,8,4Z"/><path class="cls-2" d="M8,93.52V12H95.86V119.82H34.29Z"/><path class="cls-3" d="M34.29,93.52v26.3L8,93.52Z"/><path class="cls-3" d="M32,16V0H71.89V16a8,8,0,0,1-8,8h-24A8,8,0,0,1,32,16Z"/><path class="cls-4" d="M127.81,91.86A35.95,35.95,0,1,1,91.86,55.92,35.94,35.94,0,0,1,127.81,91.86Z"/><path class="cls-5" d="M83.63,107.25l-7.74-7.74a4,4,0,0,1,5.65-5.65l2.58,2.59,18.09-15.08a4,4,0,0,1,5.12,6.14Z"/><path class="cls-6" d="M43.94,32h32a4,4,0,0,1,0,8H43.94a4,4,0,1,1,0-8Z"/><path class="cls-6" d="M24,32h8v8H24Z"/><path class="cls-6" d="M24,47.93h8v8H24Z"/><path class="cls-6" d="M24,63.91h8v8H24Z"/><path class="cls-6" d="M24,79.88h8v8H24Z"/><path class="cls-6" d="M43.94,47.93h24a4,4,0,0,1,0,8h-24a4,4,0,1,1,0-8Z"/><path class="cls-6" d="M43.94,63.91h8a4,4,0,1,1,0,8h-8a4,4,0,1,1,0-8Z"/></svg>