<?xml version="1.0" encoding="UTF-8"?>
<svg width="23px" height="23px" viewBox="0 0 23 23" version="1.1" xmlns="http://www.w3.org/2000/svg" xmlns:xlink="http://www.w3.org/1999/xlink">
    <!-- Generator: Sketch 63.1 (92452) - https://sketch.com -->
    <title>actual_performance</title>
    <desc>Created with Sketch.</desc>
    <g id="Page-1" stroke="none" stroke-width="1" fill="none" fill-rule="evenodd">
        <g id="actual_performance" transform="translate(0.333333, 0.500000)">
            <circle id="Oval-Copy" fill="#6236FF" cx="11" cy="11" r="11"></circle>
            <g id="Group-10" transform="translate(6.000000, 5.000000)" fill="#FFFFFF">
                <path d="M0.461538462,0.00887049507 L0.461538462,11.0857936 L9.69230769,11.0857936 L9.69230769,2.14637885 L7.53169837,0.00887049507 L0.461538462,0.00887049507 Z M1.11729007,0.657419969 L7.06739316,0.657419969 L7.06739316,2.60495554 L9.03592005,2.60495554 L9.03592005,10.436615 L1.11729007,10.436615 L1.11729007,0.657419969 Z M7.7237808,1.11599666 L8.57225087,1.95577702 L7.7237808,1.95577702 L7.7237808,1.11599666 Z" id="Fill-1"></path>
                <polygon id="Fill-3" points="7.28767589 5.68136118 6.73824858 5.68136118 6.73824858 8.56819276 6.18935366 8.56819276 6.18935366 6.218779 5.63992635 6.218779 5.63992635 8.56819276 5.07239776 8.56819276 5.07239776 7.56167293 4.52297044 7.56167293 4.52297044 8.56819276 3.95544185 8.56819276 3.95544185 6.91234728 3.40601454 6.91234728 3.40601454 8.56819276 2.85658723 8.56819276 2.85658723 5.54733203 2.30769231 5.54733203 2.30769231 9.23963973 7.84615385 9.23963973 7.84615385 8.56819276 7.28767589 8.56819276"></polygon>
                <g id="Group-9" transform="translate(1.384615, 0.931947)">
                    <path d="M1.63458462,0.709046154 L1.62473846,1.92689231 L2.84258462,1.92689231 C2.71150769,2.29612308 2.35827692,2.56196923 1.94473846,2.56196923 C1.4192,2.56196923 0.992123077,2.13427692 0.992123077,1.60935385 C0.992123077,1.19212308 1.26166154,0.837661538 1.63458462,0.709046154 M2.84258462,1.29181538 L2.26473846,1.29181538 L2.26966154,0.713969231 C2.53612308,0.8112 2.74781538,1.02412308 2.84258462,1.29181538 M1.94473846,3.19643077 C2.81981538,3.19643077 3.53181538,2.48443077 3.53181538,1.60935385 C3.53181538,0.733661538 2.81981538,0.0216615385 1.94473846,0.0216615385 C1.06966154,0.0216615385 0.357046154,0.733661538 0.357046154,1.60935385 C0.357046154,2.48443077 1.06966154,3.19643077 1.94473846,3.19643077" id="Fill-4"></path>
                </g>
            </g>
        </g>
    </g>
</svg>