<svg xmlns="http://www.w3.org/2000/svg" viewBox="0 0 16.29 16.29"><title>annualComparison</title><g id="Layer_2" data-name="Layer 2"><g id="Layer_1-2" data-name="Layer 1"><path d="M8.91.13a.38.38,0,0,0-.38.38V7.38a.38.38,0,0,0,.38.38h6.88a.38.38,0,0,0,.38-.38A7.27,7.27,0,0,0,8.91.13M9.29,7V.9A6.5,6.5,0,0,1,15.39,7Z" fill="#606368"/><path d="M8.91.13a.38.38,0,0,0-.38.38V7.38a.38.38,0,0,0,.38.38h6.88a.38.38,0,0,0,.38-.38A7.27,7.27,0,0,0,8.91.13ZM9.29,7V.9A6.5,6.5,0,0,1,15.39,7Z" fill="none" stroke="#606368" stroke-miterlimit="10" stroke-width="0.25"/><path d="M10.44,2a.38.38,0,0,0-.38.38V5.85a.38.38,0,0,0,.38.38h3.44a.38.38,0,0,0,.38-.38A3.82,3.82,0,0,0,10.44,2m.38,3.44V2.82a3.06,3.06,0,0,1,2.65,2.65Z" fill="#606368"/><path d="M10.44,2a.38.38,0,0,0-.38.38V5.85a.38.38,0,0,0,.38.38h3.44a.38.38,0,0,0,.38-.38A3.82,3.82,0,0,0,10.44,2Zm.38,3.44V2.82a3.06,3.06,0,0,1,2.65,2.65Z" fill="none" stroke="#606368" stroke-miterlimit="10" stroke-width="0.25"/><path d="M14.26,8.53H7.76V2a.38.38,0,0,0-.38-.38,7.26,7.26,0,1,0,7.26,7.26.38.38,0,0,0-.38-.38M7.38,15.4A6.49,6.49,0,0,1,7,2.43V8.91a.38.38,0,0,0,.38.38h6.48A6.5,6.5,0,0,1,7.38,15.4" fill="#606368"/><path d="M14.26,8.53H7.76V2a.38.38,0,0,0-.38-.38,7.26,7.26,0,1,0,7.26,7.26A.38.38,0,0,0,14.26,8.53ZM7.38,15.4A6.49,6.49,0,0,1,7,2.43V8.91a.38.38,0,0,0,.38.38h6.48A6.5,6.5,0,0,1,7.38,15.4Z" fill="none" stroke="#606368" stroke-miterlimit="10" stroke-width="0.25"/></g></g></svg>