<?xml version="1.0" encoding="UTF-8"?>
<svg width="23px" height="23px" viewBox="0 0 23 23" version="1.1" xmlns="http://www.w3.org/2000/svg" xmlns:xlink="http://www.w3.org/1999/xlink">
    <!-- Generator: Sketch 63.1 (92452) - https://sketch.com -->
    <title>annual_plan</title>
    <desc>Created with Sketch.</desc>
    <g id="Page-1" stroke="none" stroke-width="1" fill="none" fill-rule="evenodd">
        <g id="annual_plan" transform="translate(0.166667, 0.500000)">
            <circle id="Oval-Copy" fill="#F7B500" cx="11" cy="11" r="11"></circle>
            <g id="Fill-6" transform="translate(4.000000, 5.000000)" fill="#FFFFFF">
                <path d="M8.727,3.27225 L10.9095,3.27225 L10.9095,1.09125 L8.727,1.09125 L8.727,3.27225 Z M8.75625,5.57625 C8.80275,5.6685 8.8965,5.727 9,5.727 L9.546,5.727 L9.546,7.65525 C8.577,7.77675 7.806,8.535 7.66275,9.49725 L6.70875,8.78175 C6.627,8.7195 6.516,8.70975 6.42375,8.7555 C6.3315,8.802 6.273,8.8965 6.273,9 L6.273,9.5445 L4.34475,9.5445 C4.22175,8.559 3.438,7.77675 2.451,7.6545 C2.45175,7.6485 2.45475,7.6425 2.45475,7.6365 L2.45475,7.6335 L3.2805,6.86025 C3.3555,6.7905 3.38475,6.68325 3.3555,6.5835 C3.3255,6.4845 3.243,6.411 3.141,6.393 L2.63475,6.30375 C3.225,4.09125 5.24025,2.454 7.6365,2.454 L7.6365,3.81825 C7.6365,4.119 7.88025,4.3635 8.1825,4.3635 L9.477,4.3635 L8.78175,5.29125 C8.7195,5.37375 8.70975,5.484 8.75625,5.57625 L8.75625,5.57625 Z M10.9095,9.81825 C10.9095,10.419 10.41975,10.90875 9.81825,10.90875 C9.2175,10.90875 8.72775,10.419 8.72775,9.81825 C8.72775,9.21675 9.2175,8.72775 9.81825,8.72775 C10.41975,8.72775 10.9095,9.21675 10.9095,9.81825 L10.9095,9.81825 Z M2.18175,10.9095 C1.58025,10.9095 1.09125,10.41975 1.09125,9.819 C1.09125,9.2175 1.58025,8.72775 2.18175,8.72775 C2.78325,8.72775 3.27225,9.2175 3.27225,9.819 C3.27225,10.41975 2.78325,10.9095 2.18175,10.9095 L2.18175,10.9095 Z M12,3.81825 L12,0.54525 C12,0.24375 11.7555,0 11.45475,0 L8.18175,0 C7.88025,0 7.6365,0.2445 7.6365,0.54525 L7.6365,1.9095 C4.97175,1.9095 2.733,3.74025 2.09625,6.2085 L1.52925,6.10875 C1.42725,6.0915 1.3245,6.13275 1.263,6.21525 C1.2015,6.29775 1.19175,6.4095 1.239,6.501 L1.82925,7.668 C0.7935,7.83675 0,8.73525 0,9.81825 C0,11.02125 0.97875,12 2.18175,12 C3.2925,12 4.20975,11.16525 4.34475,10.09125 L6.27225,10.09125 L6.27225,10.6365 C6.27225,10.73925 6.3315,10.83375 6.42375,10.881 C6.516,10.926 6.627,10.917 6.7095,10.85475 L7.66275,10.1385 C7.81875,11.19 8.724,12 9.8175,12 C11.02125,12 12,11.02125 12,9.81825 C12,8.7075 11.16525,7.79025 10.0905,7.65525 L10.0905,5.72775 L10.6365,5.72775 C10.73925,5.72775 10.83375,5.6685 10.88025,5.57625 C10.92675,5.484 10.91625,5.37375 10.854,5.29125 L10.15875,4.3635 L11.454,4.3635 C11.7555,4.3635 12,4.119 12,3.81825 L12,3.81825 Z" id="Fill-1"></path>
            </g>
        </g>
    </g>
</svg>