<?xml version="1.0" encoding="UTF-8"?>
<svg width="22px" height="22px" viewBox="0 0 22 22" version="1.1" xmlns="http://www.w3.org/2000/svg" xmlns:xlink="http://www.w3.org/1999/xlink">
    <!-- Generator: Sketch 63.1 (92452) - https://sketch.com -->
    <title>function_business_process</title>
    <desc>Created with Sketch.</desc>
    <g id="Page-1" stroke="none" stroke-width="1" fill="none" fill-rule="evenodd">
        <g id="function_business_process">
            <circle id="Oval-Copy" fill="#32C5FF" cx="11" cy="11" r="11"></circle>
            <g id="function" transform="translate(5.000000, 5.000000)" fill="#FFFFFF" fill-rule="nonzero">
                <path d="M1.20541145,9.12440311 C1.55028209,9.46975598 2.12994257,9.12582359 1.99361966,8.65685985 L2.86933105,8.65685985 L2.86933105,9.55158123 C2.40116989,9.4151269 2.05751087,9.99547951 2.40244062,10.3408916 L3.00781124,10.9471087 C3.1924515,11.1320071 3.49184178,11.1320367 3.67651159,10.9471087 L4.28188221,10.3408916 C4.62669376,9.99559788 4.28335981,9.41503812 3.81499178,9.55158123 L3.81499178,8.65685985 L10.0063803,8.65685985 C9.87011654,9.12564603 10.4496884,9.46984476 10.7945886,9.12440311 L11.3999592,8.51818603 C11.584629,8.333258 11.584629,8.03347869 11.3999592,7.84855067 L10.7945886,7.24233358 C10.4498066,6.89701031 9.87005743,7.24085392 10.0063803,7.70987685 L3.81499178,7.70987685 L3.81499178,1.54309394 C4.2847192,1.67999217 4.6249502,1.09733128 4.28188221,0.753783602 L3.67651159,0.147566514 C3.49184178,-0.0373615111 3.19248105,-0.0373615111 3.00781124,0.147566514 L2.40244062,0.753783602 C2.05762907,1.09907728 2.40096302,1.67963705 2.86933105,1.54309394 L2.86933105,7.70987685 L1.99361966,7.70987685 C2.13003122,7.24058758 1.55010478,6.89715828 1.20541145,7.24233358 L0.600040819,7.84855067 C0.415371009,8.03347869 0.415371009,8.333258 0.600040819,8.51818603 L1.20541145,9.12440311 Z" id="Path"></path>
                <path d="M4.17940571,7.09061509 C4.26272757,7.32605019 4.52439548,7.45000788 4.76354785,7.36839301 C7.62895921,6.39016961 9.46789121,4.31897743 10.5831134,1.54857934 C10.6763019,1.31708835 10.5607986,1.05519956 10.3250881,0.963668068 C10.0893489,0.872080237 9.82274766,0.985586042 9.7295878,1.2171052 C8.62994009,3.94868199 6.90697031,5.68223032 4.46221242,6.51686 C4.22283059,6.59858756 4.09619858,6.85546171 4.17940571,7.09061509 Z" id="Path"></path>
            </g>
        </g>
    </g>
</svg>