<?xml version="1.0" encoding="UTF-8"?>
<svg width="22px" height="23px" viewBox="0 0 22 23" version="1.1" xmlns="http://www.w3.org/2000/svg" xmlns:xlink="http://www.w3.org/1999/xlink">
    <!-- Generator: Sketch 63.1 (92452) - https://sketch.com -->
    <title>busniess_submission</title>
    <desc>Created with Sketch.</desc>
    <g id="Page-1" stroke="none" stroke-width="1" fill="none" fill-rule="evenodd">
        <g id="busniess_submission" transform="translate(0.000000, 0.500000)">
            <circle id="Oval-Copy" fill="#44D7B6" cx="11" cy="11" r="11"></circle>
            <g id="upload-(1)-2" transform="translate(6.000000, 5.000000)" fill="#FFFFFF" fill-rule="nonzero" stroke="#FFFFFF" stroke-width="0.25">
                <g id="upload-(1)" transform="translate(0.000000, 0.180230)">
                    <path d="M1.95073892,2.78755556 L3.72413793,2.78755556 C3.82202956,2.78755556 3.90147783,2.709504 3.90147783,2.61333333 C3.90147783,2.51716267 3.82202956,2.43911111 3.72413793,2.43911111 L1.95073892,2.43911111 C1.85284729,2.43911111 1.77339901,2.51716267 1.77339901,2.61333333 C1.77339901,2.709504 1.85284729,2.78755556 1.95073892,2.78755556 Z" id="Path"></path>
                    <path d="M6.56157635,4.60088889 C6.56157635,4.50471822 6.48212808,4.42666667 6.38423645,4.42666667 L1.95073892,4.42666667 C1.85284729,4.42666667 1.77339901,4.50471822 1.77339901,4.60088889 C1.77339901,4.69705956 1.85284729,4.77511111 1.95073892,4.77511111 L6.38423645,4.77511111 C6.48212808,4.77511111 6.56157635,4.69705956 6.56157635,4.60088889 Z" id="Path"></path>
                    <path d="M1.95073892,6.41422222 C1.85284729,6.41422222 1.77339901,6.49227378 1.77339901,6.58844444 C1.77339901,6.68461511 1.85284729,6.76266667 1.95073892,6.76266667 L4.43349754,6.76266667 C4.53138916,6.76266667 4.61083744,6.68461511 4.61083744,6.58844444 C4.61083744,6.49227378 4.53138916,6.41422222 4.43349754,6.41422222 L1.95073892,6.41422222 Z" id="Path"></path>
                    <path d="M0.354679803,0.348444444 L5.49753695,0.348444444 L5.49753695,2.78755556 L7.98029557,2.78755556 L7.98029557,5.74933333 L8.33497537,5.74933333 L8.33497537,2.54120533 L5.74829557,0 L0,0 L0,10.4533333 L5.49753695,10.4533333 L5.49753695,10.1048889 L0.354679803,10.1048889 L0.354679803,0.348444444 Z M5.85221675,0.594794667 L7.72953695,2.43911111 L5.85221675,2.43911111 L5.85221675,0.594794667 Z" id="Shape"></path>
                    <g id="Shape-2" transform="translate(6.428571, 6.227458)">
                        <path d="M0.399014778,0.755457877 L0.399014778,4.75545788 L4.68472906,4.75545788 L4.68472906,0.755457877 L0.399014778,0.755457877 Z M4.32758621,4.42212454 L2.72044335,4.42212454 L2.72044335,2.32445788 L3.48705049,3.03995788 L3.73955049,2.80429121 L2.54187192,1.68645788 L1.34419335,2.80429121 L1.59669335,3.03995788 L2.36330049,2.32445788 L2.36330049,4.42212454 L0.756157635,4.42212454 L0.756157635,1.08879121 L4.32758621,1.08879121 L4.32758621,4.42212454 Z" id="Shape"></path>
                    </g>
                </g>
            </g>
        </g>
    </g>
</svg>