<?xml version="1.0" encoding="UTF-8"?>
<svg width="15px" height="15px" viewBox="0 0 15 15" version="1.1" xmlns="http://www.w3.org/2000/svg" xmlns:xlink="http://www.w3.org/1999/xlink">
    <!-- Generator: Sketch 63.1 (92452) - https://sketch.com -->
    <title>close_out</title>
    <desc>Created with Sketch.</desc>
    <g id="Page-1" stroke="none" stroke-width="1" fill="none" fill-rule="evenodd">
        <g id="close_out" transform="translate(0.333333, 0.500000)" fill="#1979FF" fill-rule="nonzero">
            <g id="password">
                <path d="M12.25,14 C11.2851667,14 10.5,13.2148333 10.5,12.25 C10.5,11.2851667 11.2851667,10.5 12.25,10.5 C13.2148333,10.5 14,11.2851667 14,12.25 C14,13.2148333 13.2148333,14 12.25,14 Z M12.25,11.375 C11.7675833,11.375 11.375,11.7675833 11.375,12.25 C11.375,12.7324167 11.7675833,13.125 12.25,13.125 C12.7324167,13.125 13.125,12.7324167 13.125,12.25 C13.125,11.7675833 12.7324167,11.375 12.25,11.375 Z" id="Shape"></path>
                <path d="M6.74545455,14 C6.49956364,14 6.3,13.7648 6.3,13.475 L6.3,12.775 C6.3,12.2927 6.6332,11.9 7.04242424,11.9 L10.7545455,11.9 C11.0004364,11.9 11.2,12.1352 11.2,12.425 C11.2,12.7148 11.0004364,12.95 10.7545455,12.95 L7.19090909,12.95 L7.19090909,13.475 C7.19090909,13.7648 6.99134545,14 6.74545455,14 Z" id="Path"></path>
                <path d="M8.05,14 C7.8568,14 7.7,13.7648 7.7,13.475 L7.7,12.425 C7.7,12.1352 7.8568,11.9 8.05,11.9 C8.2432,11.9 8.4,12.1352 8.4,12.425 L8.4,13.475 C8.4,13.7648 8.2432,14 8.05,14 Z" id="Path"></path>
                <path d="M4.6921875,11.9 L1.2796875,11.9 C0.57386875,11.9 0,11.3017692 0,10.5673077 L0,5.53269231 C0,4.79823077 0.57386875,4.2 1.2796875,4.2 L7.8203125,4.2 C8.52613125,4.2 9.1,4.79823077 9.1,5.53269231 L9.1,10.2711538 C9.1,10.5163692 8.9089,10.7153846 8.6734375,10.7153846 C8.437975,10.7153846 8.246875,10.5163692 8.246875,10.2711538 L8.246875,5.53269231 C8.246875,5.28806923 8.055775,5.08846154 7.8203125,5.08846154 L1.2796875,5.08846154 C1.044225,5.08846154 0.853125,5.28806923 0.853125,5.53269231 L0.853125,10.5673077 C0.853125,10.8119308 1.044225,11.0115385 1.2796875,11.0115385 L4.6921875,11.0115385 C4.92765,11.0115385 5.11875,11.2105538 5.11875,11.4557692 C5.11875,11.7009846 4.92765,11.9 4.6921875,11.9 Z" id="Path"></path>
                <path d="M7.28,4.9 C7.04816,4.9 6.86,4.70630588 6.86,4.46764706 L6.86,2.88235294 C6.86,1.76976471 5.9808,0.864705882 4.9,0.864705882 C3.8192,0.864705882 2.94,1.76976471 2.94,2.88235294 L2.94,4.46764706 C2.94,4.70630588 2.75184,4.9 2.52,4.9 C2.28816,4.9 2.1,4.70630588 2.1,4.46764706 L2.1,2.88235294 C2.1,1.29302353 3.35608,0 4.9,0 C6.44392,0 7.7,1.29302353 7.7,2.88235294 L7.7,4.46764706 C7.7,4.70630588 7.51184,4.9 7.28,4.9 Z" id="Path"></path>
            </g>
        </g>
    </g>
</svg>