<?xml version="1.0" encoding="UTF-8"?>
<svg width="13px" height="15px" viewBox="0 0 13 15" version="1.1" xmlns="http://www.w3.org/2000/svg" xmlns:xlink="http://www.w3.org/1999/xlink">
    <!-- Generator: Sketch 63.1 (92452) - https://sketch.com -->
    <title>file_approved</title>
    <desc>Created with Sketch.</desc>
    <g id="Page-1" stroke="none" stroke-width="1" fill="none" fill-rule="evenodd">
        <g id="file_approved" transform="translate(0.019006, 0.500000)" fill="#2D85FF" fill-rule="nonzero">
            <path d="M5.87890625,13.453125 C5.87890625,13.755188 5.63409424,14 5.33203125,14 L2.1875,14 C0.981277473,14 0,13.0187225 0,11.8125 L0,2.1875 C0,0.981277473 0.981277473,0 2.1875,0 L8.91107178,0 C10.1171875,0 11.0985718,0.981277473 11.0985718,2.1875 L11.0985718,7.984375 C11.0985718,8.28643799 10.853653,8.53125 10.5516968,8.53125 C10.2496338,8.53125 10.0048218,8.28643799 10.0048218,7.984375 L10.0048218,2.1875 C10.0048218,1.58444213 9.51412962,1.09375 8.91107178,1.09375 L2.1875,1.09375 C1.58444213,1.09375 1.09375,1.58444213 1.09375,2.1875 L1.09375,11.8125 C1.09375,12.4155579 1.58444213,12.90625 2.1875,12.90625 L5.33203125,12.90625 C5.63409424,12.90625 5.87890625,13.151062 5.87890625,13.453125 Z M12.3222046,8.90690612 C12.0766449,8.73109437 11.7350617,8.78770446 11.5592499,9.03315736 L8.86364746,12.7984772 C8.79005433,12.8838196 8.69776917,12.9021911 8.64842223,12.9055023 C8.59736634,12.9088135 8.49867249,12.9024048 8.41397096,12.8217621 L6.66888428,11.1461029 C6.45109557,10.9369659 6.10491943,10.9439087 5.89567565,11.1618042 C5.6864319,11.3796997 5.69348145,11.7258758 5.91137695,11.9350128 L7.65817259,13.612381 C7.91986084,13.8613587 8.2690277,14 8.62834167,14 C8.65921022,14 8.69018555,13.9989319 8.72116088,13.9969025 C9.1125183,13.9708405 9.47792054,13.7805023 9.72369385,13.4745941 C9.72999573,13.4667969 9.73619079,13.4586792 9.74206543,13.4504547 L12.4485626,9.66986084 C12.6243744,9.42430114 12.5678711,9.0827179 12.3222046,8.90690612 L12.3222046,8.90690612 Z M8.36419678,3.28125 L2.73138428,3.28125 C2.42932129,3.28125 2.18450928,3.52606201 2.18450928,3.828125 C2.18450928,4.13018799 2.42932129,4.375 2.73138428,4.375 L8.36419678,4.375 C8.66615296,4.375 8.91107178,4.13018799 8.91107178,3.828125 C8.91107178,3.52606201 8.66615296,3.28125 8.36419678,3.28125 Z M8.91107178,6.015625 C8.91107178,5.71356201 8.66615296,5.46875 8.36419678,5.46875 L2.73138428,5.46875 C2.42932129,5.46875 2.18450928,5.71356201 2.18450928,6.015625 C2.18450928,6.31768799 2.42932129,6.5625 2.73138428,6.5625 L8.36419678,6.5625 C8.66615296,6.5625 8.91107178,6.31768799 8.91107178,6.015625 Z M2.73138428,7.65625 C2.42932129,7.65625 2.18450928,7.90106201 2.18450928,8.203125 C2.18450928,8.50518799 2.42932129,8.75 2.73138428,8.75 L6.15234375,8.75 C6.45440674,8.75 6.69921875,8.50518799 6.69921875,8.203125 C6.69921875,7.90106201 6.45440674,7.65625 6.15234375,7.65625 L2.73138428,7.65625 Z" id="Shape"></path>
        </g>
    </g>
</svg>