<?xml version="1.0" encoding="UTF-8"?>
<svg width="15px" height="15px" viewBox="0 0 15 15" version="1.1" xmlns="http://www.w3.org/2000/svg" xmlns:xlink="http://www.w3.org/1999/xlink">
    <!-- Generator: Sketch 63.1 (92452) - https://sketch.com -->
    <title>new</title>
    <desc>Created with Sketch.</desc>
    <g id="Page-1" stroke="none" stroke-width="1" fill="none" fill-rule="evenodd">
        <g id="new" transform="translate(0.333333, 0.500000)" fill="#1979FF" fill-rule="nonzero">
            <path d="M7,0 C3.13996484,0 0,3.13996484 0,7 C0,10.8600352 3.13996484,14 7,14 C10.8600352,14 14,10.8594883 14,7 C14,3.14051172 10.8600352,0 7,0 Z M7,12.9155742 C3.73857422,12.9155742 1.08442578,10.2619727 1.08442578,7 C1.08442578,3.73802734 3.73857422,1.08442578 7,1.08442578 C10.2614258,1.08442578 12.9155742,3.73802734 12.9155742,7 C12.9155742,10.2619727 10.2619727,12.9155742 7,12.9155742 Z" id="Shape"></path>
            <path d="M9.5,6.5 L7.5,6.5 L7.5,4.5 C7.5,4.2240078 7.2765049,4 7,4 C6.7234951,4 6.5,4.2240078 6.5,4.5 L6.5,6.5 L4.5,6.5 C4.2235035,6.5 4,6.72399939 4,7 C4,7.27600061 4.2235035,7.5 4.5,7.5 L6.5,7.5 L6.5,9.5 C6.5,9.7759922 6.7234951,10 7,10 C7.2765049,10 7.5,9.7759922 7.5,9.5 L7.5,7.5 L9.5,7.5 C9.7764965,7.5 10,7.27600061 10,7 C10,6.72399939 9.7764965,6.5 9.5,6.5 Z" id="Path"></path>
        </g>
    </g>
</svg>