<?xml version="1.0" encoding="UTF-8"?>
<svg width="13px" height="14px" viewBox="0 0 13 14" version="1.1" xmlns="http://www.w3.org/2000/svg" xmlns:xlink="http://www.w3.org/1999/xlink">
    <!-- Generator: Sketch 63.1 (92452) - https://sketch.com -->
    <title>ongoing</title>
    <desc>Created with Sketch.</desc>
    <g id="Page-1" stroke="none" stroke-width="1" fill="none" fill-rule="evenodd">
        <path d="M6.33320027,13.5 C9.64162952,13.5 12.3333333,10.8423241 12.3333333,7.57570422 C12.3333333,6.2267652 11.8618411,4.90666399 11.0056106,3.85858403 C10.7837358,3.58695691 10.3808352,3.54438995 10.1059366,3.76353096 C9.83070543,3.98267196 9.78772759,4.38048909 10.0096024,4.65198483 C10.6926574,5.48808396 11.0536447,6.49904921 11.0536447,7.57570422 C11.0536447,10.1455529 8.93608764,12.2362606 6.33339986,12.2362606 C3.73077861,12.2362606 1.61328809,10.1455529 1.61328809,7.57570422 C1.61328809,5.17356144 3.46339787,3.1903222 5.83043931,2.94155512 L5.639301,3.8779625 C5.61182445,4.01269218 5.66571308,4.15083772 5.77761515,4.23242439 C5.88945069,4.31407675 6.0390748,4.32452142 6.16142195,4.25909443 L8.35655201,3.08620395 C8.45009203,3.03614836 8.51628856,2.94779564 8.53744484,2.84479412 C8.558335,2.74179259 8.53205597,2.63498106 8.46539374,2.55306594 L6.901559,0.632231961 C6.81433925,0.525091978 6.67249906,0.4775326 6.53717872,0.510114715 C6.40205797,0.542631142 6.2981394,0.649442675 6.27066285,0.784106662 L6.09249773,1.65653223 C2.89530526,1.78180258 0.333333333,4.38863462 0.333333333,7.57563853 C0.333333333,10.8423898 3.02490409,13.5 6.33320027,13.5 Z" id="ongoing" fill="#1979FF" fill-rule="nonzero"></path>
    </g>
</svg>