<?xml version="1.0" encoding="UTF-8"?>
<svg width="23px" height="22px" viewBox="0 0 23 22" version="1.1" xmlns="http://www.w3.org/2000/svg" xmlns:xlink="http://www.w3.org/1999/xlink">
    <!-- Generator: Sketch 63.1 (92452) - https://sketch.com -->
    <title>report</title>
    <desc>Created with Sketch.</desc>
    <g id="Page-1" stroke="none" stroke-width="1" fill="none" fill-rule="evenodd">
        <g id="Artboard-Copy-79" transform="translate(-700.000000, -64.000000)">
            <g id="report" transform="translate(700.500000, 64.000000)">
                <circle id="Oval-Copy-4" fill="#F45636" cx="11" cy="11" r="11"></circle>
                <g id="1380350" transform="translate(5.600000, 5.000000)" fill="#F9F9F9" fill-rule="nonzero" stroke="#F9F9F9" stroke-width="0.2">
                    <path d="M8.52583626,4.04376571 L8.52583626,0.191676946 L0.351682427,0.191676946 L0.351682427,10.2381211 C0.351682427,10.9525349 0.932835908,11.5336883 1.64724971,11.5336883 L9.17898493,11.5336883 C9.90606713,11.5336883 10.4976045,10.9422202 10.4976045,10.2152072 L10.4976045,4.04376571 L8.52583626,4.04376571 Z M1.64724971,10.8683559 C1.29973447,10.8683559 1.01708412,10.5856363 1.01708412,10.2381211 L1.01708412,0.857009418 L7.86050379,0.857009418 L7.86050379,10.2152072 C7.86050379,10.235352 7.86112682,10.2554276 7.86202677,10.275434 C7.86223444,10.2801413 7.86251136,10.2849872 7.86271903,10.2897638 C7.87407212,10.4924579 7.93312201,10.6921753 8.03398452,10.8683559 L1.64724971,10.8683559 Z M9.83220283,10.2152072 C9.83220283,10.5753216 9.53923779,10.8683559 9.17905416,10.8683559 C8.81887053,10.8683559 8.52583626,10.5753216 8.52583626,10.2152072 L8.52583626,4.70909818 L9.83220283,4.70909818 L9.83220283,10.2152072 Z" id="Shape"></path>
                    <path d="M1.66545619,4.74952625 L7.22099268,4.74952625 L7.22099268,1.6137204 L1.66545619,1.6137204 L1.66545619,4.74952625 Z M2.33078865,2.27912208 L6.55566021,2.27912208 L6.55566021,4.08426302 L2.33078865,4.08426302 L2.33078865,2.27912208 Z" id="Shape"></path>
                    <polygon id="Path" points="1.68207047 5.86268264 7.19330223 5.86268264 7.19330223 6.5280151 1.68207047 6.5280151"></polygon>
                    <polygon id="Path" points="1.68207047 7.5280151 7.19330223 7.5280151 7.19330223 8.19341678 1.68207047 8.19341678"></polygon>
                    <polygon id="Path" points="1.68207047 9.19341678 7.19330223 9.19341678 7.19330223 9.85868001 1.68207047 9.85868001"></polygon>
                </g>
            </g>
        </g>
    </g>
</svg>