<?xml version="1.0" encoding="UTF-8"?>
<svg width="24px" height="24px" viewBox="0 0 24 24" version="1.1" xmlns="http://www.w3.org/2000/svg" xmlns:xlink="http://www.w3.org/1999/xlink">
    <!-- Generator: Sketch 63.1 (92452) - https://sketch.com -->
    <title>tendering</title>
    <desc>Created with Sketch.</desc>
    <g id="Page-1" stroke="none" stroke-width="1" fill="none" fill-rule="evenodd">
        <g id="tendering">
            <g id="Group-26">
                <g id="Group-28">
                    <rect id="Rectangle" fill="#457FF9" x="0" y="0" width="23.88" height="23.88" rx="4"></rect>
                    <g id="law-2" transform="translate(5.000000, 4.000000)" fill-rule="nonzero">
                        <g id="law">
                            <path d="M12.369673,13.6847617 L4.12322432,13.6847617 L4.12322432,14.1916047 C4.12322432,14.7514128 3.6616809,15.2052907 3.09241824,15.2052907 C2.52315558,15.2052907 2.06161216,14.7514128 2.06161216,14.1916047 L2.06161216,1.01368605 C2.06161216,0.453877929 1.60006874,0 1.03080608,0 L10.5657623,0 C11.5620364,0 12.369673,0.79422302 12.369673,1.77395059 L12.369673,13.6847617 Z" id="Path" fill="#EBF9FF"></path>
                            <path d="M2.06161216,1.01368605 L2.06161216,11.384708 C3.07721385,12.1933761 4.3224276,12.6710756 5.66943344,12.6710756 C9.08526709,12.6710756 11.8542699,9.60771638 11.8542699,5.82869478 C11.8542699,3.36417058 10.6760586,1.20451245 8.90899925,0 L1.03080608,0 C1.60006874,0 2.06161216,0.453877929 2.06161216,1.01368605 Z" id="Path" fill="#EBF9FF"></path>
                            <path d="M12.369673,13.6847617 L4.12322432,13.6847617 L4.12322432,14.1916047 C4.12322432,14.7514128 3.6616809,15.2052907 3.09241824,15.2052907 L12.369673,15.2052907 C12.9389356,15.2052907 13.400479,14.7514128 13.400479,14.1916047 L13.400479,13.6847617 L12.369673,13.6847617 Z" id="Path" fill="#4CCCFF"></path>
                            <path d="M2.06161216,3.04105815 L0,3.04105815 L0,1.01368605 C0,0.453877929 0.461543423,0 1.03080608,0 C1.60006874,0 2.06161216,0.453877929 2.06161216,1.01368605 L2.06161216,3.04105815 Z" id="Path" fill="#4CCCFF"></path>
                            <ellipse id="Oval" fill="#FA6400" cx="5.1540304" cy="10.6437035" rx="2.06161216" ry="2.0273721"></ellipse>
                            <ellipse id="Oval" fill="#F7B500" cx="5.1540304" cy="10.6437035" rx="1.03080608" ry="1.01368605"></ellipse>
                            <polygon id="Path" fill="#FA6400" transform="translate(11.336365, 8.616585) rotate(-45.000000) translate(-11.336365, -8.616585) " points="10.0640898 7.7025932 12.5935112 7.72377389 12.6086409 9.53057649 10.0792195 9.50939579"></polygon>
                            <g id="Group" transform="translate(8.729639, 5.497297)" fill="#F7B500">
                                <polygon id="Path" transform="translate(4.829262, 5.305048) rotate(-45.000000) translate(-4.829262, -5.305048) " points="4.35896362 3.08792544 5.26249268 3.09549136 5.2995605 7.52217048 4.39603145 7.51460457"></polygon>
                                <polygon id="Path" transform="translate(1.318401, 4.385962) rotate(-45.000000) translate(-1.318401, -4.385962) " points="0.765718745 3.11671235 1.84990251 3.12579101 1.87108321 5.65521243 0.786899444 5.64613377"></polygon>
                                <polygon id="Path" transform="translate(3.895416, 1.852254) rotate(-45.000000) translate(-3.895416, -1.852254) " points="3.34273395 0.583004068 4.42691771 0.592082733 4.44809841 3.12150415 3.36391465 3.11242549"></polygon>
                            </g>
                            <polygon id="Path" fill="#1979FF" points="3.09241824 4.1054285 10.9991694 4.1054285 10.9991694 4.61227152 3.09241824 4.61227152"></polygon>
                            <polygon id="Path" fill="#1979FF" points="3.09241824 1.26710756 10.9991694 1.26710756 10.9991694 1.77395059 3.09241824 1.77395059"></polygon>
                            <polygon id="Path" fill="#1979FF" points="3.09241824 2.68626803 10.9991694 2.68626803 10.9991694 3.19311106 3.09241824 3.19311106"></polygon>
                            <polygon id="Path" fill="#1979FF" points="3.09241824 5.52458897 9.78274617 5.52458897 9.78274617 6.03143199 3.09241824 6.03143199"></polygon>
                            <path d="M11.0811654,12.9244971 L10.0503593,12.9244971 C9.68287692,12.9244971 9.35971921,12.734431 9.17726653,12.4493318 C8.86287068,12.7511568 8.43843628,12.9244971 7.98874712,12.9244971 L7.98874712,12.4176541 C8.38638057,12.4176541 8.75566685,12.2232798 8.97625935,11.8978866 L9.06284706,11.7701621 C9.12572623,11.6771564 9.24375353,11.6355953 9.35198816,11.6682867 C9.46073821,11.7004712 9.53495624,11.7993056 9.53495624,11.9108111 C9.53495624,12.190335 9.76611451,12.4176541 10.0503593,12.4176541 L11.0811654,12.4176541 L11.0811654,12.9244971 Z" id="Path" fill="#1979FF"></path>
                        </g>
                    </g>
                </g>
            </g>
        </g>
    </g>
</svg>