<?xml version="1.0" encoding="UTF-8"?>
<svg width="23px" height="23px" viewBox="0 0 23 23" version="1.1" xmlns="http://www.w3.org/2000/svg" xmlns:xlink="http://www.w3.org/1999/xlink">
    <!-- Generator: Sketch 63.1 (92452) - https://sketch.com -->
    <title>vendor_development</title>
    <desc>Created with Sketch.</desc>
    <g id="Page-1" stroke="none" stroke-width="1" fill="none" fill-rule="evenodd">
        <g id="vendor_development" transform="translate(0.500000, 0.500000)">
            <circle id="Oval-Copy" fill="#6236FF" cx="11" cy="11" r="11"></circle>
            <g id="graphic" transform="translate(5.000000, 5.000000)" fill="#FFFFFF" fill-rule="nonzero" stroke="#FFFFFF" stroke-width="0.25">
                <path d="M11.7382469,11.53125 L11.1966914,11.53125 L11.1966914,4.06725 C11.1966914,3.71983594 10.8989136,3.43720312 10.5329383,3.43720312 L9.32246914,3.43720312 C8.95646914,3.43720312 8.65871605,3.71985937 8.65871605,4.06725 L8.65871605,11.53125 L7.28360494,11.53125 L7.28360494,7.44902344 C7.28360494,7.10160938 6.98585185,6.81897656 6.61985185,6.81897656 L5.40938272,6.81897656 C5.04338272,6.81897656 4.74562963,7.10163281 4.74562963,7.44902344 L4.74562963,11.53125 L3.37051852,11.53125 L3.37051852,9.41709375 C3.37051852,9.06967969 3.07274074,8.78704688 2.70676543,8.78704688 L1.4962716,8.78704688 C1.1302716,8.78704688 0.832518519,9.06970313 0.832518519,9.41709375 L0.832518519,11.53125 L0.261753086,11.53125 C0.125382716,11.53125 0.0148395062,11.6361797 0.0148395062,11.765625 C0.0148395062,11.8950703 0.125382716,12 0.261753086,12 L11.7382469,12 C11.8746173,12 11.9851605,11.8950703 11.9851605,11.765625 C11.9851605,11.6361797 11.8746173,11.53125 11.7382469,11.53125 Z M2.87664198,11.53125 L1.32632099,11.53125 L1.32632099,9.41709375 C1.32632099,9.32814844 1.40254321,9.25579687 1.49624691,9.25579687 L2.70671605,9.25579687 C2.80041975,9.25579687 2.87664198,9.32814844 2.87664198,9.41709375 L2.87664198,11.53125 Z M6.78975309,11.53125 L5.2394321,11.53125 L5.2394321,7.44902344 C5.2394321,7.36007812 5.31565432,7.28772656 5.40935802,7.28772656 L6.61982716,7.28772656 C6.71350617,7.28772656 6.78975309,7.36007812 6.78975309,7.44902344 L6.78975309,11.53125 Z M10.7028642,11.53125 L9.15254321,11.53125 L9.15254321,4.06725 C9.15254321,3.97830469 9.22876543,3.90595312 9.32246914,3.90595312 L10.5329383,3.90595312 C10.626642,3.90595312 10.7028642,3.97830469 10.7028642,4.06725 L10.7028642,11.53125 Z" id="Shape"></path>
                <path d="M11.1960988,0.24646875 C11.1995556,0.182507812 11.1758519,0.11746875 11.1243951,0.068625 C11.0729383,0.01978125 11.0044198,-0.0027421875 10.937037,0.0005625 C10.9330617,0.0003984375 10.9291358,0 10.9250864,0 L9.43125926,0 C9.29488889,0 9.18434568,0.104929687 9.18434568,0.234375 C9.18434568,0.363820312 9.29488889,0.46875 9.43125926,0.46875 L10.3536543,0.46875 L7.91274074,2.78573437 L6.99224691,1.91198437 C6.94595062,1.86803906 6.8831358,1.84333594 6.81765432,1.84333594 C6.75217284,1.84333594 6.68935802,1.86803906 6.64306173,1.91198437 L2.20432099,6.12534375 C2.10790123,6.21686719 2.10790123,6.36527344 2.20432099,6.45682031 C2.25254321,6.50254687 2.3157284,6.52542187 2.37891358,6.52542187 C2.44209877,6.52542187 2.50530864,6.50254687 2.55350617,6.45677344 L6.81765432,2.40914062 L7.73814815,3.28289062 C7.8345679,3.37441406 7.99091358,3.37441406 8.08735802,3.28289062 L10.7028642,0.800226562 L10.7028642,1.59264844 C10.7028642,1.72209375 10.8134074,1.82702344 10.9497778,1.82702344 C11.0861481,1.82702344 11.1966914,1.72209375 11.1966914,1.59264844 L11.1966914,0.2578125 C11.1966914,0.253992187 11.1962716,0.250265625 11.1960988,0.24646875 Z" id="Path"></path>
            </g>
        </g>
    </g>
</svg>