<svg xmlns="http://www.w3.org/2000/svg" xmlns:xlink="http://www.w3.org/1999/xlink" viewBox="0 0 45.6 46.91"><defs><clipPath id="clip-path" transform="translate(0 0)"><rect width="45.6" height="46.91" fill="none"/></clipPath></defs><title>dataCardIcon2</title><g id="Layer_2" data-name="Layer 2"><g id="Layer_1-2" data-name="Layer 1"><g opacity="0.6"><g clip-path="url(#clip-path)"><ellipse cx="19.58" cy="7.29" rx="18.57" ry="6.29" fill="none" stroke="#fff" stroke-linecap="round" stroke-linejoin="round" stroke-width="2"/><path d="M38.15,18.06c0,3.47-8.31,6.29-18.57,6.29S1,21.53,1,18.06" transform="translate(0 0)" fill="none" stroke="#fff" stroke-linecap="round" stroke-linejoin="round" stroke-width="2"/><path d="M23.5,35c-1.26.09-2.57.14-3.92.14C9.32,35.13,1,32.31,1,28.84" transform="translate(0 0)" fill="none" stroke="#fff" stroke-linecap="round" stroke-linejoin="round" stroke-width="2"/><path d="M38.15,24.81V7.29c0,3.47-8.31,6.29-18.57,6.29S1,10.76,1,7.29V39.61c0,3.47,8.32,6.29,18.58,6.29a47.82,47.82,0,0,0,10.29-1.05" transform="translate(0 0)" fill="none" stroke="#fff" stroke-linecap="round" stroke-linejoin="round" stroke-width="2"/><path d="M30,45A14.63,14.63,0,1,1,44.6,30.37,14.64,14.64,0,0,1,30,45" transform="translate(0 0)" fill="#098"/><path d="M30,16.74A13.63,13.63,0,1,1,16.34,30.37,13.64,13.64,0,0,1,30,16.74m0-2A15.63,15.63,0,1,0,45.6,30.37,15.63,15.63,0,0,0,30,14.74" transform="translate(0 0)" fill="#fff"/><path d="M30,23.18a7.19,7.19,0,1,1-7.19,7.19" transform="translate(0 0)" fill="none" stroke="#fff" stroke-linecap="round" stroke-linejoin="round" stroke-width="2"/><polyline points="26.12 30.75 22.16 28.02 19.43 31.98" fill="none" stroke="#fff" stroke-linecap="round" stroke-linejoin="round" stroke-width="2"/></g></g></g></g></svg>