<svg xmlns="http://www.w3.org/2000/svg" xmlns:xlink="http://www.w3.org/1999/xlink" viewBox="0 0 46.63 47.03"><defs><clipPath id="clip-path" transform="translate(0 0)"><rect width="46.63" height="47.03" fill="none"/></clipPath></defs><title>dataCardIcon1</title><g id="Layer_2" data-name="Layer 2"><g id="Layer_1-2" data-name="Layer 1"><g opacity="0.6"><g clip-path="url(#clip-path)"><ellipse cx="19.59" cy="7.29" rx="18.59" ry="6.29" fill="none" stroke="#fff" stroke-linecap="round" stroke-linejoin="round" stroke-width="2"/><path d="M38.17,18.07c0,3.48-8.32,6.29-18.58,6.29S1,21.55,1,18.07" transform="translate(0 0)" fill="none" stroke="#fff" stroke-linecap="round" stroke-linejoin="round" stroke-width="2"/><path d="M23.51,35c-1.26.09-2.58.14-3.92.14C9.32,35.15,1,32.33,1,28.86" transform="translate(0 0)" fill="none" stroke="#fff" stroke-linecap="round" stroke-linejoin="round" stroke-width="2"/><path d="M38.17,24.83V7.29c0,3.48-8.32,6.29-18.58,6.29S1,10.77,1,7.29V39.64c0,3.48,8.33,6.3,18.59,6.3a47.82,47.82,0,0,0,10.29-1.05" transform="translate(0 0)" fill="none" stroke="#fff" stroke-linecap="round" stroke-linejoin="round" stroke-width="2"/><path d="M45.63,30.39A15.64,15.64,0,1,1,30,14.76,15.65,15.65,0,0,1,45.63,30.39" transform="translate(0 0)" fill="#3c4fbc"/><path d="M45.63,30.39A15.64,15.64,0,1,1,30,14.76,15.65,15.65,0,0,1,45.63,30.39Z" transform="translate(0 0)" fill="none" stroke="#fff" stroke-miterlimit="10" stroke-width="2"/><line x1="37.06" y1="26.03" x2="25.42" y2="26.03" fill="none" stroke="#fff" stroke-linecap="round" stroke-linejoin="round" stroke-width="2"/><polyline points="26.09 22.6 22.92 26.21 26.18 29.46" fill="none" stroke="#fff" stroke-linecap="round" stroke-linejoin="round" stroke-width="2"/><line x1="22.92" y1="34.76" x2="34.56" y2="34.76" fill="none" stroke="#fff" stroke-linecap="round" stroke-linejoin="round" stroke-width="2"/><polyline points="33.89 38.19 37.06 34.58 33.8 31.32" fill="none" stroke="#fff" stroke-linecap="round" stroke-linejoin="round" stroke-width="2"/></g></g></g></g></svg>