<svg xmlns="http://www.w3.org/2000/svg" viewBox="0 0 12.45 12.55"><title>transferIcon</title><g id="Layer_2" data-name="Layer 2"><g id="Layer_1-2" data-name="Layer 1"><ellipse cx="5.27" cy="2.11" rx="4.77" ry="1.61" fill="none" stroke="#5f6369" stroke-linecap="round" stroke-linejoin="round"/><path d="M10,4.88c0,.89-2.13,1.61-4.77,1.61S.5,5.77.5,4.88" fill="none" stroke="#5f6369" stroke-linecap="round" stroke-linejoin="round"/><path d="M6.27,9.22c-.32,0-.66,0-1,0C2.64,9.26.5,8.54.5,7.64" fill="none" stroke="#5f6369" stroke-linecap="round" stroke-linejoin="round"/><path d="M10,6.61V2.11C10,3,7.9,3.73,5.27,3.73S.5,3,.5,2.11v8.3C.5,11.3,2.64,12,5.27,12a12.33,12.33,0,0,0,2.64-.27" fill="none" stroke="#5f6369" stroke-linecap="round" stroke-linejoin="round"/><path d="M11.95,8a4,4,0,1,1-4-4,4,4,0,0,1,4,4" fill="#fff"/><circle cx="7.93" cy="8.04" r="4.01" fill="none" stroke="#5f6369" stroke-linecap="round" stroke-linejoin="round"/><line x1="9.75" y1="6.92" x2="6.76" y2="6.92" fill="none" stroke="#5f6369" stroke-linecap="round" stroke-linejoin="round" stroke-width="0.75"/><polyline points="6.93 6.04 6.12 6.96 6.96 7.8" fill="none" stroke="#5f6369" stroke-linecap="round" stroke-linejoin="round" stroke-width="0.75"/><line x1="6.12" y1="9.16" x2="9.11" y2="9.16" fill="none" stroke="#5f6369" stroke-linecap="round" stroke-linejoin="round" stroke-width="0.75"/><polyline points="8.94 10.04 9.75 9.11 8.91 8.28" fill="none" stroke="#5f6369" stroke-linecap="round" stroke-linejoin="round" stroke-width="0.75"/></g></g></svg>