<?xml version="1.0" encoding="UTF-8"?>
<svg width="16px" height="16px" viewBox="0 0 16 16" version="1.1" xmlns="http://www.w3.org/2000/svg" xmlns:xlink="http://www.w3.org/1999/xlink">
    <title>analytic_enable</title>
    <g id="Page-1" stroke="none" stroke-width="1" fill="none" fill-rule="evenodd">
        <path d="M8.03708616,3.20363896 C7.6228726,3.20363896 7.28708616,3.5394254 7.28708616,3.95363896 L7.28708616,11.453639 C7.28708616,11.8678525 7.6228726,12.203639 8.03708616,12.203639 C8.45129972,12.203639 8.78708616,11.8678525 8.78708616,11.453639 L8.78708616,3.95363896 C8.78708616,3.5394254 8.45129972,3.20363896 8.03708616,3.20363896 Z M4.28708616,7.70363896 C3.8728726,7.70363896 3.53708616,8.0394254 3.53708616,8.45363896 L3.53708616,11.453639 C3.53708616,11.8678525 3.8728726,12.203639 4.28708616,12.203639 C4.70129972,12.203639 5.03708616,11.8678525 5.03708616,11.453639 L5.03708616,8.45363896 C5.03708616,8.0394254 4.70129972,7.70363896 4.28708616,7.70363896 Z M11.7870862,6.20363896 C11.3728726,6.20363896 11.0370862,6.5394254 11.0370862,6.95363896 L11.0370862,11.453639 C11.0370862,11.8678525 11.3728726,12.203639 11.7870862,12.203639 C12.2012997,12.203639 12.5370862,11.8678525 12.5370862,11.453639 L12.5370862,6.95363896 C12.5370862,6.5394254 12.2012997,6.20363896 11.7870862,6.20363896 Z M13.2870862,0.20363896 L2.78708616,0.20363896 C1.54444547,0.20363896 0.537086159,1.21099827 0.537086159,2.45363896 L0.537086159,12.953639 C0.537086159,14.1962796 1.54444547,15.203639 2.78708616,15.203639 L13.2870862,15.203639 C14.5297268,15.203639 15.5370862,14.1962796 15.5370862,12.953639 L15.5370862,2.45363896 C15.5370862,1.21099827 14.5297268,0.20363896 13.2870862,0.20363896 Z M14.0370862,12.953639 C14.0370862,13.3678525 13.7012997,13.703639 13.2870862,13.703639 L2.78708616,13.703639 C2.3728726,13.703639 2.03708616,13.3678525 2.03708616,12.953639 L2.03708616,2.45363896 C2.03708616,2.0394254 2.3728726,1.70363896 2.78708616,1.70363896 L13.2870862,1.70363896 C13.7012997,1.70363896 14.0370862,2.0394254 14.0370862,2.45363896 L14.0370862,12.953639 Z" id="analytic_enable" fill="#7583A0" fill-rule="nonzero"></path>
    </g>
</svg>