<?xml version="1.0" encoding="UTF-8"?>
<svg width="15px" height="19px" viewBox="0 0 15 19" version="1.1" xmlns="http://www.w3.org/2000/svg" xmlns:xlink="http://www.w3.org/1999/xlink">
    <title>list_view_enable </title>
    <g id="Page-1" stroke="none" stroke-width="1" fill="none" fill-rule="evenodd">
        <g id="list_view_enable-" transform="translate(0.179417, 0.666553)" fill="#7583A0" fill-rule="nonzero">
            <path d="M12.5244212,2.49093603 L11.3102925,1.27534101 C10.6241452,0.585702089 9.6906321,0.199202315 8.71780518,0.201965994 L4.06731108,0.201965994 C2.0437243,0.204404816 0.40388755,1.84424157 0.401463606,3.86782834 L0.401463606,14.1322013 C0.40388755,16.155788 2.0437243,17.7956248 4.06731108,17.7980487 L9.93266703,17.7980487 C11.9562538,17.7956248 13.5960906,16.155788 13.5985255,14.1322013 L13.5985255,5.08269019 C13.6009031,4.1100113 13.2141482,3.17678343 12.5244212,2.49093603 L12.5244212,2.49093603 Z M11.4877195,3.5276377 C11.5917162,3.63124909 11.6848259,3.74524092 11.7655908,3.86782834 L9.93266703,3.86782834 L9.93266703,2.03490461 C10.0550567,2.11652088 10.1692336,2.20982669 10.2735908,2.31350901 L11.4877195,3.5276377 Z M12.1321755,14.1322013 C12.1321755,15.3469562 11.147422,16.3317097 9.93266703,16.3317097 L4.06731108,16.3317097 C2.85255608,16.3317097 1.86780259,15.3469562 1.86780259,14.1322013 L1.86780259,3.86782834 C1.86780259,2.65307335 2.85255608,1.66831986 4.06731108,1.66831986 L8.46632804,1.66831986 L8.46632804,3.86782834 C8.46632804,4.677665 9.12283037,5.33416733 9.93266703,5.33416733 L12.1321755,5.33416733 L12.1321755,14.1322013 Z M9.93266703,6.80050632 C10.3375854,6.80050632 10.6658365,7.12875748 10.6658365,7.53367581 C10.6658365,7.93859414 10.3375854,8.26684531 9.93266703,8.26684531 L4.06731108,8.26684531 C3.66239275,8.26684531 3.33414158,7.93859414 3.33414158,7.53367581 C3.33414158,7.12875748 3.66239275,6.80050632 4.06731108,6.80050632 L9.93266703,6.80050632 Z M10.6658365,10.4663538 C10.6658365,10.8712721 10.3375854,11.1995233 9.93266703,11.1995233 L4.06731108,11.1995233 C3.66239275,11.1995233 3.33414158,10.8712721 3.33414158,10.4663538 C3.33414158,10.0614355 3.66239275,9.73318429 4.06731108,9.73318429 L9.93266703,9.73318429 C10.3375854,9.73318429 10.6658365,10.0614355 10.6658365,10.4663538 Z M10.525068,12.9686613 C10.7623354,13.2950718 10.6912291,13.7518559 10.3659702,13.9906995 C9.62313006,14.5200197 8.7433209,14.823727 7.83213643,14.8653708 C7.29976688,14.8628027 6.78357196,14.6821345 6.36579744,14.3521521 C6.12531785,14.187189 6.03367166,14.1322013 5.85257879,14.1322013 C5.36240094,14.2080512 4.89991076,14.4084972 4.50941228,14.7143378 C4.18745526,14.9438499 3.74150112,14.8767285 3.50136633,14.5626148 C3.26123155,14.2485011 3.31342447,13.8005543 3.61934452,13.5500647 C4.26539842,13.0485292 5.04116544,12.7417833 5.85551147,12.6658623 C6.34389995,12.6736624 6.81605323,12.8424727 7.19867798,13.1460883 C7.37308868,13.3029597 7.59764403,13.3926259 7.83213643,13.3990318 C8.43163085,13.3541206 9.00811998,13.1492986 9.50156336,12.8058976 C9.82919071,12.5684129 10.2872721,12.6412597 10.525068,12.9686613 L10.525068,12.9686613 Z" id="Shape"></path>
        </g>
    </g>
</svg>