<?xml version="1.0" encoding="UTF-8"?>
<svg width="77px" height="75px" viewBox="0 0 77 75" version="1.1" xmlns="http://www.w3.org/2000/svg" xmlns:xlink="http://www.w3.org/1999/xlink">
    <!-- Generator: Sketch 63.1 (92452) - https://sketch.com -->
    <title>create_proposal</title>
    <desc>Created with Sketch.</desc>
    <g id="Page-1" stroke="none" stroke-width="1" fill="none" fill-rule="evenodd" opacity="0.7">
        <g id="create_proposal" fill-rule="nonzero">
            <g id="create-(1)" transform="translate(0.890244, 0.000000)">
                <g id="Group" transform="translate(5.855294, 0.000000)">
                    <polygon id="Path" fill="#AAE1F9" points="0 0 54.6494118 0 54.6494118 75 0 75"></polygon>
                    <polygon id="Path" fill="#4891D3" points="54.6494118 2.5862069 59.8541176 2.5862069 59.8541176 75 54.6494118 75"></polygon>
                    <path d="M41.6376471,67.2413793 C24.3907689,67.2413793 10.4094118,53.3467681 10.4094118,36.2068966 L10.4094118,0 L0,0 L0,75 L54.6494118,75 L54.6494118,67.2413793 L41.6376471,67.2413793 Z" id="Path" fill="#57B7EB"></path>
                    <g transform="translate(2.602353, 11.637931)" fill="#4891D3" id="Oval">
                        <ellipse cx="2.60235294" cy="2.5862069" rx="2.60235294" ry="2.5862069"></ellipse>
                        <ellipse cx="2.60235294" cy="11.637931" rx="2.60235294" ry="2.5862069"></ellipse>
                        <ellipse cx="2.60235294" cy="20.6896552" rx="2.60235294" ry="2.5862069"></ellipse>
                        <ellipse cx="2.60235294" cy="29.7413793" rx="2.60235294" ry="2.5862069"></ellipse>
                        <ellipse cx="2.60235294" cy="38.7931034" rx="2.60235294" ry="2.5862069"></ellipse>
                        <ellipse cx="2.60235294" cy="47.8448276" rx="2.60235294" ry="2.5862069"></ellipse>
                    </g>
                </g>
                <g id="Group" transform="translate(18.867059, 51.724138)">
                    <polygon id="Path" fill="#7AB92D" points="0 5.17241379 13.0117647 5.17241379 13.0117647 18.1034483 0 18.1034483"></polygon>
                    <polygon id="Path" fill="#C4F236" points="18.2164706 0 5.20470588 0 0 5.17241379 13.0117647 5.17241379"></polygon>
                    <polygon id="Path" fill="#A1D51C" points="18.2164706 12.9310345 13.0117647 18.1034483 13.0117647 5.17241379 18.2164706 0"></polygon>
                </g>
                <g id="Group" transform="translate(42.776176, 5.818966)">
                    <polygon id="Path" fill="#A1D51C" transform="translate(15.448392, 28.949364) rotate(30.000728) translate(-15.448392, -28.949364) " points="10.2990657 11.479587 20.6921021 11.4516215 20.5977183 46.4191406 10.2046819 46.4471061"></polygon>
                    <polygon id="Path" fill="#FCBC04" points="0.161345882 55.2672414 2.15995294 41.4827586 11.1745035 46.6551724"></polygon>
                    <path d="M28.7945071,2.1036946 C31.664464,2.0959914 33.9847635,4.40906228 33.9770603,7.27010229 L33.9700496,9.86028788 L23.5770163,9.88825344 L23.5840077,7.29806784 C23.5917302,4.43702784 25.9245502,2.11143635 28.7945071,2.1036946 Z" id="Path" fill="#AAE1F9" transform="translate(28.777038, 5.995974) rotate(30.000728) translate(-28.777038, -5.995974) "></path>
                    <polygon id="Path" fill="#D0D8DA" transform="translate(25.532510, 11.591625) rotate(30.000728) translate(-25.532510, -11.591625) " points="20.3429829 9.01542118 30.7360192 8.98745562 30.7220364 14.1678288 20.3290001 14.1957944"></polygon>
                    <polygon id="Path" fill="#93999A" points="6.77002118 50.1 1.36103059 46.9965517 0.161345882 55.2672414"></polygon>
                    <path d="M14.6577529,31.5155172 C12.143348,35.831932 9.18605929,39.878067 5.83317412,43.5892241 L11.1745035,46.6551724 L28.7403859,16.4224138 L24.7548824,14.1323276 L14.6577529,31.5155172 Z" id="Path" fill="#7AB92D"></path>
                    <path d="M2.12091765,47.4323276 L6.77002118,50.1 L0.161345882,55.2724138 L11.1745035,46.6603448 L5.83317412,43.5943966 C4.64129647,44.912069 3.40778118,46.1987069 2.12091765,47.4323276 Z" id="Path" fill="#E59730"></path>
                    <path d="M30.7402941,2.63405172 C30.3277916,2.40143814 29.8845634,2.22733607 29.4235035,2.11681034 C30.025746,3.58250108 29.9143716,5.24227497 29.1216306,6.61551724 L27.3572353,9.65301724 L31.3401365,11.9392241 L32.6413129,9.69956897 C34.07914,7.22672098 33.2281228,4.0637448 30.7402941,2.63405172 L30.7402941,2.63405172 Z" id="Path" fill="#57B7EB"></path>
                    <polygon id="Path" fill="#93999A" transform="translate(28.047787, 13.037247) rotate(-59.999272) translate(-28.047787, -13.037247) " points="25.4514213 10.7340446 30.6317945 10.7480273 30.6441518 15.3404503 25.4637786 15.3264675"></polygon>
                    <path d="M2.12091765,47.4323276 C1.80863529,47.7310345 1.48724471,48.0206897 1.16975765,48.3142241 L0.162647059,55.2672414 L6.77132235,50.0948276 L2.12091765,47.4323276 Z" id="Path" fill="#656B76"></path>
                    <polygon id="Path" fill="#57B7EB" transform="translate(15.449529, 28.951766) rotate(-59.999272) translate(-15.449529, -28.951766) " points="-2.03947386 26.9558802 32.9280452 27.050264 32.9385323 30.9476526 -2.02898677 30.8532688"></polygon>
                    <path d="M8.36005882,45.0375 L25.9259412,14.8021552 L24.7548824,14.1323276 L14.6577529,31.5155172 C12.143348,35.831932 9.18605929,39.878067 5.83317412,43.5892241 L8.36005882,45.0375 Z" id="Path" fill="#4891D3"></path>
                </g>
                <g id="Group" transform="translate(16.264706, 3.879310)">
                    <path d="M27.3247079,16.8103448 C27.3277382,11.9856186 23.9743515,7.79946221 19.2423728,6.72087004 C14.5103941,5.64227787 9.65649829,7.9576924 7.54351235,12.3014825 C5.43052641,16.6452727 6.61959753,21.8638549 10.4094118,24.8793103 L10.4094118,27.1551724 L23.4211765,27.1551724 L23.4211765,24.8793103 C25.8892229,22.9194224 27.3257713,19.9499406 27.3247079,16.8103448 Z" id="Path" fill="#FCBC04"></path>
                    <rect id="Rectangle" fill="#D0D8DA" x="7.80705882" y="27.1551724" width="18.2164706" height="5.17241379" rx="2.5862069"></rect>
                    <path d="M10.4094118,32.3275862 L23.4211765,32.3275862 L23.4211765,33.6206897 C23.4211765,37.1914962 20.5083937,40.0862069 16.9152941,40.0862069 C13.3221945,40.0862069 10.4094118,37.1914962 10.4094118,33.6206897 L10.4094118,32.3275862 L10.4094118,32.3275862 Z" id="Path" fill="#93999A"></path>
                    <path d="M13.0117647,12.9310345 C13.0110268,10.710332 13.6533425,8.53632694 14.8620376,6.66853448 C10.9010179,7.46307137 7.7605992,10.4639929 6.80647238,14.3662722 C5.85234556,18.2685515 7.25693205,22.3670027 10.4094118,24.8793103 L10.4094118,27.1551724 L23.4211765,27.1551724 L23.4211765,24.8793103 C23.5604024,24.7681034 23.6814118,24.6413793 23.8193365,24.5237069 C17.7228357,24.0582568 13.0141936,19.0075621 13.0117647,12.9310345 L13.0117647,12.9310345 Z" id="Path" fill="#E59730"></path>
                    <path d="M10.4094118,27.1551724 C8.97217192,27.1551724 7.80705882,28.3130567 7.80705882,29.7413793 C7.80705882,31.1697019 8.97217192,32.3275862 10.4094118,32.3275862 L23.4211765,32.3275862 C24.8584163,32.3275862 26.0235294,31.1697019 26.0235294,29.7413793 L13.0117647,29.7413793 C11.5745249,29.7413793 10.4094118,28.583495 10.4094118,27.1551724 Z" id="Path" fill="#93999A"></path>
                    <path d="M20.8188235,34.9137931 L23.2910588,34.9137931 C23.3781259,34.4882111 23.4217197,34.0549783 23.4211815,33.6206897 L23.4211815,32.3275862 L10.4094118,32.3275862 L10.4094118,33.6206897 C10.4127504,36.2913556 12.0712548,38.6839912 14.5809835,39.6387931 C15.3584695,36.8516221 17.9084856,34.920052 20.8188235,34.9137931 L20.8188235,34.9137931 Z" id="Path" fill="#656B76"></path>
                    <g fill="#F9E109">
                        <ellipse id="Oval" cx="1.30117647" cy="16.8103448" rx="1.30117647" ry="1.29310345"></ellipse>
                        <ellipse id="Oval" cx="32.5294118" cy="16.8103448" rx="1.30117647" ry="1.29310345"></ellipse>
                        <ellipse id="Oval" cx="16.9152941" cy="1.29310345" rx="1.30117647" ry="1.29310345"></ellipse>
                        <ellipse id="Oval" cx="3.39346824" cy="9.05172414" rx="1.30117647" ry="1.29310345"></ellipse>
                        <ellipse id="Oval" cx="30.43712" cy="24.5689655" rx="1.30117647" ry="1.29310345"></ellipse>
                        <ellipse id="Oval" cx="24.7223529" cy="3.37241379" rx="1.30117647" ry="1.29310345"></ellipse>
                        <ellipse id="Oval" cx="30.43712" cy="9.05172414" rx="1.30117647" ry="1.29310345"></ellipse>
                        <ellipse id="Oval" cx="3.39346824" cy="24.5689655" rx="1.30117647" ry="1.29310345"></ellipse>
                        <ellipse id="Oval" cx="9.10823529" cy="3.37241379" rx="1.30117647" ry="1.29310345"></ellipse>
                        <path d="M15.5932988,27.1551724 C15.6002129,27.1080264 15.6045565,27.0605433 15.6063106,27.012931 L14.5302376,17.3831897 L16.5041224,18.0375 C16.7710293,18.1258462 17.059559,18.1258462 17.3264659,18.0375 L19.3003506,17.3831897 L18.2242776,27.012931 C18.2260317,27.0605433 18.2303753,27.1080264 18.2372894,27.1551724 L20.8266306,27.1551724 L22.1121929,15.6594828 C22.1611176,15.2212591 21.9819876,14.7884635 21.6369609,14.5112755 C21.2919343,14.2340875 20.8285687,14.1507143 20.4076518,14.2900862 L16.9152941,15.4538793 L13.4229365,14.2900862 C13.0020195,14.1507143 12.538654,14.2340875 12.1936273,14.5112755 C11.8486007,14.7884635 11.6694707,15.2212591 11.7183953,15.6594828 L13.0039576,27.1551724 L15.5932988,27.1551724 Z" id="Path"></path>
                    </g>
                </g>
                <g id="Group" transform="translate(0.000000, 18.103448)" fill="#D0D8DA">
                    <path d="M5.85529412,11.637931 C2.62150447,11.637931 -1.15567686e-15,9.03269143 -1.15567686e-15,5.81896552 C-1.15567686e-15,2.6052396 2.62150447,0 5.85529412,0 C9.08908376,0 11.7105882,2.6052396 11.7105882,5.81896552 C11.7105882,6.53312683 11.1280317,7.11206897 10.4094118,7.11206897 C9.69079184,7.11206897 9.10823529,6.53312683 9.10823529,5.81896552 C9.10823529,4.03356223 7.65184392,2.5862069 5.85529412,2.5862069 C4.05874431,2.5862069 2.60235294,4.03356223 2.60235294,5.81896552 C2.60235294,7.6043688 4.05874431,9.05172414 5.85529412,9.05172414 C6.57391404,9.05172414 7.15647059,9.63066627 7.15647059,10.3448276 C7.15647059,11.0589889 6.57391404,11.637931 5.85529412,11.637931 L5.85529412,11.637931 Z" id="Path"></path>
                    <path d="M5.85529412,20.6896552 C2.62150447,20.6896552 -1.15567686e-15,18.0844156 -1.15567686e-15,14.8706897 C-1.15567686e-15,11.6569637 2.62150447,9.05172414 5.85529412,9.05172414 C9.08908376,9.05172414 11.7105882,11.6569637 11.7105882,14.8706897 C11.7105882,15.584851 11.1280317,16.1637931 10.4094118,16.1637931 C9.69079184,16.1637931 9.10823529,15.584851 9.10823529,14.8706897 C9.10823529,13.0852864 7.65184392,11.637931 5.85529412,11.637931 C4.05874431,11.637931 2.60235294,13.0852864 2.60235294,14.8706897 C2.60235294,16.6560929 4.05874431,18.1034483 5.85529412,18.1034483 C6.57391404,18.1034483 7.15647059,18.6823904 7.15647059,19.3965517 C7.15647059,20.110713 6.57391404,20.6896552 5.85529412,20.6896552 Z" id="Path"></path>
                    <path d="M5.85529412,29.7413793 C2.62150447,29.7413793 -1.15567686e-15,27.1361397 -1.15567686e-15,23.9224138 C-1.15567686e-15,20.7086879 2.62150447,18.1034483 5.85529412,18.1034483 C9.08908376,18.1034483 11.7105882,20.7086879 11.7105882,23.9224138 C11.7105882,24.6365751 11.1280317,25.2155172 10.4094118,25.2155172 C9.69079184,25.2155172 9.10823529,24.6365751 9.10823529,23.9224138 C9.10823529,22.1370105 7.65184392,20.6896552 5.85529412,20.6896552 C4.05874431,20.6896552 2.60235294,22.1370105 2.60235294,23.9224138 C2.60235294,25.7078171 4.05874431,27.1551724 5.85529412,27.1551724 C6.57391404,27.1551724 7.15647059,27.7341145 7.15647059,28.4482759 C7.15647059,29.1624372 6.57391404,29.7413793 5.85529412,29.7413793 Z" id="Path"></path>
                    <path d="M5.85529412,38.7931034 C2.62150447,38.7931034 -1.15567686e-15,36.1878638 -1.15567686e-15,32.9741379 C-1.15567686e-15,29.760412 2.62150447,27.1551724 5.85529412,27.1551724 C9.08908376,27.1551724 11.7105882,29.760412 11.7105882,32.9741379 C11.7105882,33.6882992 11.1280317,34.2672414 10.4094118,34.2672414 C9.69079184,34.2672414 9.10823529,33.6882992 9.10823529,32.9741379 C9.10823529,31.1887346 7.65184392,29.7413793 5.85529412,29.7413793 C4.05874431,29.7413793 2.60235294,31.1887346 2.60235294,32.9741379 C2.60235294,34.7595412 4.05874431,36.2068966 5.85529412,36.2068966 C6.57391404,36.2068966 7.15647059,36.7858387 7.15647059,37.5 C7.15647059,38.2141613 6.57391404,38.7931034 5.85529412,38.7931034 Z" id="Path"></path>
                    <path d="M5.85529412,47.8448276 C2.62150447,47.8448276 -1.15567686e-15,45.239588 -1.15567686e-15,42.0258621 C-1.15567686e-15,38.8121362 2.62150447,36.2068966 5.85529412,36.2068966 C9.08908376,36.2068966 11.7105882,38.8121362 11.7105882,42.0258621 C11.7105882,42.7400234 11.1280317,43.3189655 10.4094118,43.3189655 C9.69079184,43.3189655 9.10823529,42.7400234 9.10823529,42.0258621 C9.10823529,40.2404588 7.65184392,38.7931034 5.85529412,38.7931034 C4.05874431,38.7931034 2.60235294,40.2404588 2.60235294,42.0258621 C2.60235294,43.8112654 4.05874431,45.2586207 5.85529412,45.2586207 C6.57391404,45.2586207 7.15647059,45.8375628 7.15647059,46.5517241 C7.15647059,47.2658855 6.57391404,47.8448276 5.85529412,47.8448276 Z" id="Path"></path>
                </g>
                <path d="M44.8905882,69.8275862 L39.6858824,69.8275862 C38.9672624,69.8275862 38.3847059,69.2486441 38.3847059,68.5344828 C38.3847059,67.8203214 38.9672624,67.2413793 39.6858824,67.2413793 L44.8905882,67.2413793 C47.046448,67.2413793 48.7941176,65.5045529 48.7941176,63.362069 L48.7941176,60.7758621 C48.7941176,60.0617008 49.3766742,59.4827586 50.0952941,59.4827586 C50.813914,59.4827586 51.3964706,60.0617008 51.3964706,60.7758621 L51.3964706,63.362069 C51.3921687,66.9311032 48.4819045,69.8233111 44.8905882,69.8275862 Z" id="Path" fill="#F9E109"></path>
                <path d="M18.8670588,51.7241379 C18.1484389,51.7241379 17.5658824,51.1451958 17.5658824,50.4310345 L17.5658824,45.2586207 C17.5658824,42.4019754 19.8961085,40.0862069 22.7705882,40.0862069 C23.4892082,40.0862069 24.0717647,40.665149 24.0717647,41.3793103 C24.0717647,42.0934717 23.4892082,42.6724138 22.7705882,42.6724138 C21.3333484,42.6724138 20.1682353,43.8302981 20.1682353,45.2586207 L20.1682353,50.4310345 C20.1682353,51.1451958 19.5856787,51.7241379 18.8670588,51.7241379 Z" id="Path" fill="#F9E109"></path>
                <path d="M5.85529412,20.6896552 C2.62150447,20.6896552 -1.15567686e-15,18.0844156 -1.15567686e-15,14.8706897 C-1.15567686e-15,11.6569637 2.62150447,9.05172414 5.85529412,9.05172414 C9.08908376,9.05172414 11.7105882,11.6569637 11.7105882,14.8706897 C11.7105882,15.584851 11.1280317,16.1637931 10.4094118,16.1637931 C9.69079184,16.1637931 9.10823529,15.584851 9.10823529,14.8706897 C9.10823529,13.0852864 7.65184392,11.637931 5.85529412,11.637931 C4.05874431,11.637931 2.60235294,13.0852864 2.60235294,14.8706897 C2.60235294,16.6560929 4.05874431,18.1034483 5.85529412,18.1034483 C6.57391404,18.1034483 7.15647059,18.6823904 7.15647059,19.3965517 C7.15647059,20.110713 6.57391404,20.6896552 5.85529412,20.6896552 Z" id="Path" fill="#D0D8DA"></path>
            </g>
        </g>
    </g>
</svg>