<svg xmlns="http://www.w3.org/2000/svg" viewBox="0 0 14 18.67"><title>PoolViewer</title><g id="Layer_2" data-name="Layer 2"><g id="Layer_1-2" data-name="Layer 1"><path d="M9.92,1.17H8.65a1.75,1.75,0,0,0-3.3,0H4.08a.58.58,0,0,0-.58.58V4.08a.58.58,0,0,0,.58.58H9.92a.58.58,0,0,0,.58-.58V1.75a.58.58,0,0,0-.58-.58" fill="#5f6369"/><path d="M12.83,2.33H11.67V4.08A1.75,1.75,0,0,1,9.92,5.83H4.08A1.75,1.75,0,0,1,2.33,4.08V2.33H1.17A1.17,1.17,0,0,0,0,3.5v14a1.15,1.15,0,0,0,1.17,1.17H12.83A1.15,1.15,0,0,0,14,17.5V3.5a1.15,1.15,0,0,0-1.17-1.17m-6,10.33L4.5,15a.59.59,0,0,1-.83,0L2.5,13.83A.58.58,0,1,1,3.33,13l.76.75L6,11.84a.58.58,0,0,1,.83.83M6.83,8,4.5,10.33a.58.58,0,0,1-.83,0L2.5,9.16a.58.58,0,1,1,.83-.83l.76.75L6,7.17A.58.58,0,0,1,6.83,8m4.25,6H8.75a.58.58,0,1,1,0-1.17h2.33a.58.58,0,0,1,0,1.17m0-4.67H8.75a.58.58,0,1,1,0-1.17h2.33a.58.58,0,0,1,0,1.17" fill="#5f6369"/></g></g></svg>