<?xml version="1.0" encoding="UTF-8"?>
<svg width="27px" height="30px" viewBox="0 0 27 30" version="1.1" xmlns="http://www.w3.org/2000/svg" xmlns:xlink="http://www.w3.org/1999/xlink">
    <title>citizenship</title>
    <defs>
        <polygon id="path-1" points="1.1438203e-05 0.0331135977 25.8164818 0.0331135977 25.8164818 27.1657322 1.1438203e-05 27.1657322"></polygon>
        <polygon id="path-3" points="1.1438203e-05 0.0331135977 25.8164818 0.0331135977 25.8164818 27.1657322 1.1438203e-05 27.1657322"></polygon>
    </defs>
    <g id="Page-1" stroke="none" stroke-width="1" fill="none" fill-rule="evenodd">
        <g id="citizenship" transform="translate(0.405405, 0.833106)">
            <g id="Group-3" transform="translate(0.000000, 0.126143)">
                <g id="Fill-1-Clipped">
                    <mask id="mask-2" fill="white">
                        <use xlink:href="#path-1"></use>
                    </mask>
                    <g id="path-1"></g>
                    <path d="M24.938268,22.7818693 C24.9370669,22.4192782 24.935866,22.0567445 24.9346649,21.6941534 C24.9359232,20.3358668 24.9371813,18.9775802 24.9384967,17.6192936 C24.9375816,17.2842114 24.9367239,16.9491293 24.9358088,16.6140471 C24.9375816,15.2451229 24.9394118,13.8761416 24.9411847,12.5072747 C24.9399837,12.1448552 24.9387255,11.7824929 24.9374673,11.4201306 C24.9390687,10.089067 24.94067,8.75800329 24.9423285,7.4269968 C24.9412991,7.0457043 24.9403269,6.6644118 24.9393546,6.28317649 C24.9432436,5.9521549 24.9443302,5.62107612 24.9529312,5.2901689 C24.9555968,5.17235541 24.9183083,5.11951091 24.7925452,5.12059754 C23.8182963,5.12923338 22.8439902,5.1335799 21.869684,5.139299 C21.5088088,5.13746889 21.1479335,5.13575316 20.7870581,5.13398024 C19.43552,5.11693731 18.0839819,5.10658574 16.7325583,5.139299 C16.3716258,5.13746889 16.0107505,5.13575316 15.6498752,5.13398024 C14.2983372,5.11693731 12.9468563,5.10658574 11.5953754,5.139299 C11.2345001,5.13746889 10.8736247,5.13575316 10.5127495,5.13398024 C9.16121139,5.11693731 7.80967332,5.10658574 6.45824963,5.139299 C6.09737433,5.13746889 5.73644183,5.13575316 5.37556652,5.13398024 C4.02402845,5.11693731 2.67254757,5.10658574 1.3210667,5.139299 C0.743894972,5.10029473 0.876635319,5.10772956 0.8716597,5.57303566 C0.871545318,5.58212904 0.87446206,5.59133679 0.876006217,5.60048735 C0.875148351,6.95071002 0.874233295,8.30087551 0.87337543,9.65109817 C0.874233295,10.0132889 0.875148351,10.3754224 0.876006217,10.7376131 C0.875148351,12.0878358 0.874233295,13.4380584 0.87337543,14.7882811 C0.874233295,15.1504718 0.875148351,15.5126626 0.876006217,15.8747961 C0.875148351,17.2250187 0.874233295,18.5751842 0.87337543,19.9254641 C0.874233295,20.2875975 0.875148351,20.6497882 0.876006217,21.0119789 C0.875377116,22.3621445 0.874805206,23.7123099 0.874176105,25.0624754 C0.850441833,25.4190042 1.01400813,25.6918054 1.26095894,25.9272607 C1.45655222,26.1594563 1.72100346,26.2764119 2.00964652,26.2843615 C2.99624872,26.3116987 3.98353721,26.3281697 4.9702538,26.2766407 C5.33404585,26.3206778 5.69823823,26.3105549 6.062545,26.2851622 C7.04108327,26.2910528 8.01967873,26.3011184 8.998217,26.3007181 C9.36789972,26.3005465 9.73878343,26.3314297 10.1074939,26.2765835 C10.4712288,26.3207922 10.8354212,26.3105549 11.1997279,26.2851622 C12.1782662,26.2910528 13.1568045,26.3011184 14.1352856,26.3007181 C14.5049683,26.3005465 14.8759092,26.3314297 15.2445625,26.2766407 C15.6083545,26.3206778 15.9725469,26.3105549 16.3369109,26.2851622 C17.3153919,26.2910528 18.2939302,26.3011184 19.2724684,26.3007181 C19.6421512,26.3005465 20.013035,26.3314297 20.3817454,26.2766407 C20.7455374,26.3206778 21.1097298,26.3105549 21.4740366,26.2851622 C22.234048,26.289337 22.995432,26.3230226 23.7537277,26.2888224 C24.4295539,26.2583395 24.9280308,25.7382445 24.942157,25.0918144 C24.9590283,24.3222521 24.9411275,23.5518891 24.938268,22.7818693 M24.943358,2.23285161 C24.9586279,1.88118406 24.8618608,1.56995056 24.6120504,1.31390638 C24.4030745,1.03532895 24.1046517,0.901158825 23.7762038,0.892237027 C22.8567438,0.867130172 21.9364831,0.851059497 21.0168517,0.900758488 C20.6365314,0.862554891 20.2562111,0.860953542 19.8758909,0.900644107 C19.488479,0.894467477 19.101067,0.88337242 18.7136551,0.882972083 C17.7689739,0.881942644 16.824064,0.848371518 15.8796687,0.900758488 C15.4994056,0.862554891 15.1190854,0.860953542 14.7387652,0.900644107 C14.2473227,0.893666802 13.7559376,0.879940959 13.2645523,0.881141971 C12.4238444,0.883086465 11.5828505,0.846998934 10.7425429,0.900758488 C10.3622227,0.862554891 9.98190249,0.860953542 9.60158221,0.900644107 C8.66576562,0.892522983 7.72994904,0.879311858 6.79413247,0.878453992 C6.39802749,0.878053656 6.00072151,0.846884552 5.60541721,0.900586915 C5.22509696,0.862783654 4.84477671,0.860781969 4.46445647,0.900644107 C3.70621798,0.892580173 2.94792231,0.872048599 2.18985541,0.879826577 C1.39226951,0.888004892 0.869943969,1.43572324 0.865597453,2.23977173 C0.862566328,2.79927142 0.86491116,3.35871394 0.864968351,3.91809926 C0.865025542,4.30047838 0.865139924,4.30047838 1.26158804,4.25318141 C1.62503695,4.29024119 1.9887718,4.28109063 2.35256385,4.26010153 C3.08415131,4.26513434 3.81568159,4.27703007 4.54721186,4.27325546 C5.1643601,4.27005277 5.78202307,4.30248007 6.39871379,4.2532958 C6.76216269,4.29006962 7.12589754,4.28114782 7.48974678,4.26010153 C8.22127705,4.26513434 8.95286452,4.27703007 9.68433765,4.27325546 C10.3014859,4.27005277 10.919206,4.30248007 11.5358396,4.2532958 C11.8993456,4.29006962 12.2630805,4.28114782 12.6268725,4.26010153 C13.3584028,4.26513434 14.0899902,4.27703007 14.8214633,4.27325546 C15.4386116,4.27005277 16.0563317,4.30248007 16.6730224,4.2532958 C17.0364714,4.29006962 17.4002062,4.28114782 17.7640555,4.26010153 C18.4955857,4.26513434 19.2271732,4.27703007 19.9586463,4.27325546 C20.5757945,4.27005277 21.1934575,4.30248007 21.8101482,4.2532958 C22.1731968,4.29012681 22.5365313,4.28114782 22.899923,4.26010153 C23.5270225,4.26507715 24.1542363,4.26707883 24.7812786,4.27714445 C24.9266582,4.27943209 24.9549105,4.21269017 24.9536282,4.08652679 C24.946961,3.46869226 24.9461603,2.85074334 24.943358,2.23285161 M5.54410845,0.0331135977 L6.63073773,0.0331135977 C7.98090322,0.0331135977 9.3310687,0.0331135977 10.6812342,0.0331135977 L11.7679207,0.0331135977 C13.1180861,0.0331135977 14.4682517,0.0331135977 15.8184171,0.0331135977 C16.1806078,0.0331135977 16.5428557,0.0331135977 16.9051036,0.0331135977 C18.2552691,0.0331135977 19.6053774,0.0331135977 20.9555429,0.0331135977 L22.0422294,0.0331135977 C22.5043327,0.0360875305 22.967294,0.0578201163 23.428368,0.037688879 C24.1254692,0.00709168588 24.7272904,0.207260239 25.2306857,0.693669823 C25.3972831,0.909508714 25.5582185,1.12895064 25.6642507,1.38287874 C25.775716,1.72871281 25.8084293,2.08283958 25.8064847,2.44588814 C25.8013948,3.38267697 25.8102594,4.31952299 25.8135192,5.25636901 C25.8144915,5.61833095 25.8154638,5.98029288 25.8164932,6.34225482 C25.8154066,7.69264907 25.8142627,9.0431005 25.8131761,10.393552 C25.8141483,10.7555139 25.8151778,11.1174186 25.8161501,11.4793234 C25.814949,12.8297748 25.8138052,14.1802834 25.8126614,15.530792 C25.813748,15.8926396 25.8147775,16.2545443 25.8158641,16.6164491 C25.8140912,17.9670722 25.8123755,19.3175808 25.8106597,20.6681466 C25.8116892,21.0298797 25.8127186,21.3916701 25.8136908,21.7534605 C25.8078574,22.7215328 25.790071,23.6897766 25.8010516,24.6576774 C25.8067707,25.1604437 25.7454048,25.6396472 25.5177274,26.0913418 C25.3038329,26.4048057 25.0417837,26.6698289 24.7247739,26.8796055 C24.3089953,27.0924133 23.8655933,27.1481745 23.4029752,27.1423411 C22.5117104,27.1311316 21.6202169,27.1382233 20.7287805,27.1403965 C20.6159998,27.1406825 20.5032763,27.1569248 20.3905528,27.1657322 C20.0264176,27.1207801 19.6619965,27.1278717 19.2974609,27.1597271 C18.3761709,27.152807 17.4548808,27.1403393 16.5335908,27.1415404 C16.107003,27.1420551 15.6790998,27.1071114 15.2533699,27.1657322 C14.8892919,27.1207801 14.5248136,27.1278717 14.1602781,27.1596699 C13.2390451,27.152807 12.3176979,27.1403393 11.3964078,27.1415404 C10.96982,27.1420551 10.5419169,27.1071114 10.1162442,27.1657322 C9.75210891,27.1207801 9.38768781,27.1278717 9.02315228,27.1596699 C8.10186222,27.152807 7.18057215,27.1403393 6.25928209,27.1415404 C5.83263711,27.1420551 5.40479114,27.1071114 4.97906122,27.1657322 C4.61492602,27.1207801 4.25056207,27.1278717 3.88602653,27.1597271 C3.38617707,27.152807 2.88552692,27.1251266 2.38670688,27.1441139 C1.72151819,27.1694496 1.1402287,26.9888404 0.642895639,26.5446949 C0.470807875,26.3515037 0.328059101,26.1373805 0.194518081,25.9166232 C0.0308945864,25.4827722 0.00567334871,25.032393 0.0101342479,24.5731491 C0.018312563,23.7285521 0.00693155103,22.8836122 0.00372885419,22.0389009 C0.00247065186,21.6769389 0.00126964054,21.3149198 1.14382037e-05,20.9529578 C0.00126964054,19.6025064 0.00247065186,18.2521121 0.00372885419,16.9017179 C0.00247065186,16.539756 0.00126964054,16.1777368 1.14382037e-05,15.8157749 C0.00126964054,14.4653807 0.00247065186,13.1149864 0.00372885419,11.7645349 C0.00247065186,11.402573 0.00126964054,11.0406111 1.14382037e-05,10.6786491 C0.00126964054,9.3282549 0.00247065186,7.97780347 0.00372885419,6.62740922 C0.00247065186,6.26544728 0.00126964054,5.90342816 1.14382037e-05,5.54146622 C0.00447233738,4.49058132 0.0136228998,3.43963922 0.0107061581,2.38869713 C0.0097339108,2.04417845 0.044734812,1.70926787 0.15614291,1.38316471 C0.387251801,0.830756686 0.790048122,0.44506048 1.32095232,0.183754732 C1.6940665,0.0558184307 2.07964832,0.0388898903 2.47026296,0.0400909016 C3.49483999,0.0430076434 4.51947422,0.0362019126 5.54410845,0.0331135977" id="Fill-1" fill="#2626BC" fill-rule="nonzero" mask="url(#mask-2)"></path>
                </g>
                <g id="Shape-Clipped">
                    <mask id="mask-4" fill="white">
                        <use xlink:href="#path-3"></use>
                    </mask>
                    <g id="path-1"></g>
                    <path d="M10.7459545,20.3715228 C10.2202203,19.8458074 9.59446027,19.4566212 8.91172041,19.2210279 C9.64295536,18.7173918 10.1233621,17.8745163 10.1233621,16.9214333 C10.1233621,15.3827326 8.87152154,14.130892 7.33282086,14.130892 C5.79412019,14.130892 4.54227961,15.3827326 4.54227961,16.9214333 C4.54227961,17.8745163 5.02268638,18.7173918 5.75394017,19.2210279 C5.07120031,19.4566212 4.44544029,19.8458074 3.9197061,20.3715228 C3.00802873,21.283219 2.50593871,22.4953509 2.50593871,23.7846564 L3.26013904,23.7846564 C3.26013904,21.5389683 5.08713279,19.7119745 7.33282086,19.7119745 C9.57850893,19.7119745 11.4055027,21.5389683 11.4055027,23.7846564 L12.159703,23.7846564 C12.159703,22.4953509 11.657613,21.283219 10.7459545,20.3715228 Z M7.33282086,18.9577742 C6.20998626,18.9577742 5.29647996,18.0442867 5.29647996,16.9214333 C5.29647996,15.7985799 6.20998626,14.8850924 7.33282086,14.8850924 C8.45565547,14.8850924 9.36916177,15.7985799 9.36916177,16.9214333 C9.36916177,18.0442867 8.45565547,18.9577742 7.33282086,18.9577742 Z" id="Shape" stroke="#2626BC" stroke-width="0.2" fill="#2626BC" fill-rule="nonzero" stroke-linejoin="round" mask="url(#mask-4)"></path>
                </g>
            </g>
            <path d="M2.18984969,1.00599821 C2.94791659,0.998220236 3.70626945,1.01869462 4.46439509,1.02693013 C4.4647367,1.17042238 4.35029747,1.23916598 4.26559758,1.32403745 C3.32898033,2.26311391 2.3903042,3.20013151 1.45368694,4.13915078 C1.38151188,4.21149743 1.28800457,4.26937473 1.26158232,4.37935305 C0.865134205,4.42659283 0.865019823,4.42659283 0.864962632,4.04427089 C0.864905441,3.48482838 0.862560609,2.92538587 0.865591733,2.36594337 C0.86993825,1.5618377 1.39226379,1.01411934 2.18984969,1.00599821 Z M22.5703426,2.56656373 C22.4842702,2.80516464 22.6039709,2.99967128 22.9025652,3.12806511 C23.2734433,3.07371649 23.3501364,2.99873907 23.3890834,2.65273343 C23.3333851,2.48861237 23.2660713,2.33265247 23.0688195,2.2993673 C22.8354802,2.26001988 22.6544134,2.33351034 22.5703426,2.56656373 Z M20.4650842,2.29015777 C20.2229946,2.28953045 20.0491339,2.45509843 20.0430717,2.69198362 C20.0368379,2.93567453 20.2299147,3.13081028 20.4697167,3.12314669 C20.6910458,3.11611219 20.8858956,2.91777375 20.8856671,2.69970441 C20.8854953,2.47831799 20.6928188,2.29078865 20.4650842,2.29015777 Z M17.870202,2.2911947 C17.6877054,2.33168594 17.5685766,2.44944224 17.5390088,2.6343408 C17.5072321,2.83355855 17.5965697,2.97055515 17.7478659,3.0687785 L17.8163337,3.10856298 C18.2267937,3.1530004 18.4169538,2.95391847 18.353529,2.54608934 C18.2448603,2.36142527 18.0995379,2.24029471 17.870202,2.2911947 Z M22.0824904,4.39898155 L21.8101597,4.37934733 L21.8101597,4.37934733 C21.193469,4.4285888 20.575806,4.39621868 19.9586577,4.39942138 C19.2271274,4.40313879 18.4955971,4.39130026 17.7640098,4.38626745 C17.400212,4.40725655 17.0364771,4.41623553 16.6730282,4.37940452 C16.0563317,4.42859451 15.4386688,4.3962244 14.8214633,4.3994271 C14.0899902,4.40314451 13.3584028,4.39130598 12.6268725,4.38627317 C12.2630461,4.40725655 11.8993113,4.41623553 11.5358624,4.37940452 C10.9191602,4.4285888 10.3014973,4.39621868 9.68434901,4.39942138 C8.95287596,4.40313879 8.22128849,4.39130026 7.48975822,4.38626745 C7.12590898,4.40725655 6.76217413,4.41623553 6.39866804,4.37940452 C5.78200019,4.42859451 5.16433723,4.3962244 4.54718898,4.3994271 C3.81565871,4.40314451 3.08412843,4.39130598 2.35254097,4.38627317 C2.36946951,4.25948068 2.47784648,4.20063113 2.55579784,4.12239382 C3.50579779,3.16884803 4.45854291,2.21810459 5.40922915,1.2651879 C5.48169017,1.19249812 5.57348175,1.13370576 5.60539434,1.02687293 C6.00069864,0.972998999 6.39800462,1.0041681 6.79410959,1.00456844 C7.72992616,1.0054835 8.66579994,1.01863743 9.6015601,1.02693013 C9.98191385,0.98711946 10.3622341,0.988720809 10.7425544,1.02692441 C11.5828048,0.973164853 12.4238559,1.00919519 13.2645638,1.0072507 C13.7558917,1.00610688 14.2473342,1.01983272 14.7387771,1.02692441 C15.1191083,0.98711946 15.4994285,0.988720809 15.8796916,1.02692441 C16.3518663,1.00073664 16.8241926,0.99603268 17.2965547,0.997998622 L18.7136551,1.00908653 L19.294773,1.01577788 L19.8758966,1.02692441 C20.2562168,0.98711946 20.6365371,0.988720809 21.0168573,1.02692441 C21.9364946,0.977225415 22.8567552,0.99329609 23.7762152,1.01840295 C24.0636072,1.02620952 24.328011,1.12990934 24.5296191,1.34233743 L24.6120561,1.44005514 L24.6120561,1.44005514 C24.8618665,1.69604213 24.9586337,2.00733283 24.9433637,2.35894318 C24.9461546,2.9768635 24.9469553,3.59481242 24.9535789,4.21270415 C24.9549048,4.33886753 24.9266525,4.40560944 24.7812729,4.40332181 C24.1542306,4.39319899 23.5270168,4.39119731 22.8999172,4.38622169 C22.6273849,4.402035 22.3548733,4.41103187 22.0824904,4.39898155 Z" id="Combined-Shape" fill="#DBE3FF" fill-rule="nonzero"></path>
            <path d="M1.26158232,4.37935305 C1.28800457,4.26937473 1.38151188,4.21149743 1.45368694,4.13915078 C2.3903042,3.20013151 3.32898033,2.26311391 4.26559758,1.32403745 C4.35029747,1.23916598 4.4647367,1.17042238 4.46439355,1.02693013 C4.84477099,0.986953607 5.22509124,0.988955292 5.60541149,1.02681574 C5.57349891,1.13370576 5.48170733,1.19249812 5.40918912,1.2651879 C4.45856007,2.21810459 3.50575775,3.16884802 2.55575781,4.12239382 C2.47786364,4.20063113 2.36948667,4.25948068 2.35255813,4.38627317 C1.98876608,4.40720508 1.62503123,4.41635564 1.26158232,4.37935305" id="Fill-14" fill="#D6E7F0" fill-rule="nonzero"></path>
            <path d="M2.51061168,10.0796867 C2.50908235,9.7174388 2.50755301,9.35519091 2.50593871,8.99288582 C2.51197109,8.78648345 2.54434201,8.57842254 2.51681398,8.37407904 C2.4866521,8.15109127 2.61902451,8.10093475 2.92004856,8.11477498 C3.23908477,8.12941588 3.56134957,8.112087 3.88217001,8.10871273 C4.39186328,8.10871273 4.90155655,8.10865554 5.41124982,8.10865554 L11.513975,8.10865554 C11.7997057,8.09435778 11.9577369,8.1560097 11.9125366,8.37596635 C11.8902763,8.48428612 11.9225622,8.59763872 11.930124,8.70870367 C11.8381089,9.55255709 11.8923154,10.3977832 11.9020011,11.2418653 C11.9053147,11.5273056 11.7765957,11.5827237 11.3814326,11.5787776 C10.1268684,11.5660812 8.87162446,11.5828381 7.61663542,11.5882141 C7.10677222,11.5868987 6.59699399,11.5855261 6.08721575,11.5841535 C5.02772666,11.5800929 3.9681526,11.5664243 2.90908833,11.5778625 C2.58283026,11.5814084 2.50576879,11.5148381 2.51647413,11.3060336 C2.53737504,10.8978042 2.51502976,10.4884881 2.51061168,10.0796867" id="Fill-26" fill="#1DC182" fill-rule="nonzero"></path>
            <path d="M13.9695713,16.0882133 C13.9680419,15.8696858 13.9665125,15.6511582 13.9648982,15.4325962 C13.9709306,15.3080831 14.0033016,15.1825696 13.9757735,15.0592985 C13.9456116,14.9247802 14.077984,14.8945231 14.3790081,14.9028722 C14.6980444,14.9117044 15.0203091,14.9012507 15.3411295,14.8992152 C15.8508229,14.8992152 16.3605161,14.8991807 16.8702093,14.8991807 L22.9729345,14.8991807 C23.2586652,14.8905555 23.4166965,14.9277472 23.3714962,15.060437 C23.3492358,15.1257814 23.3815218,15.1941618 23.3890834,15.2611622 C23.2970685,15.7702202 23.3512749,16.2801063 23.3609607,16.7893023 C23.3642743,16.9614954 23.2355553,16.9949266 22.8403922,16.992546 C21.585828,16.9848869 20.330584,16.9949956 19.075595,16.9982386 C18.5657318,16.9974452 18.0559535,16.9966171 17.5461753,16.9957891 C16.4866862,16.9933395 15.4271121,16.9850939 14.3680479,16.9919941 C14.0417898,16.9941331 13.9647283,16.9539743 13.9754337,16.8280122 C13.9963346,16.581746 13.9739893,16.3348244 13.9695713,16.0882133" id="Fill-26-Copy" fill="#6583FE" fill-rule="nonzero"></path>
            <path d="M20.6974794,8.12205394 C21.5479115,8.12555308 22.3983892,8.13039805 23.2488212,8.13127284 C23.3941314,8.13140742 23.5352014,8.13739633 23.6499632,8.29384846 C23.8039365,8.80505999 23.6765448,9.10840889 23.305313,9.11789695 C23.2241544,9.11998298 23.1430871,9.13054771 23.0619286,9.13720953 C22.2813932,9.13027853 14.4950979,9.12408775 14.3070198,9.11493614 C14.0789096,9.10390037 13.9298606,8.90559309 13.9312781,8.6222297 C13.9327331,8.33994296 14.0806879,8.14028986 14.3114881,8.13531031 C14.7861287,8.12514933 15.2609062,8.12602412 15.7355924,8.1223231 C16.0243892,8.12225581 16.3131859,8.12212123 16.601937,8.12205394 C17.6783363,8.12212123 18.7547356,8.12225581 19.8311349,8.1223231 C20.119886,8.12225581 20.4086828,8.12212123 20.6974794,8.12205394 Z" id="Fill-28" fill="#DBE3FF" fill-rule="nonzero"></path>
            <path d="M20.6974794,20.1045974 C21.5479115,20.1080965 22.3983892,20.1129415 23.2488212,20.1138163 C23.3941314,20.1139509 23.5352014,20.1199398 23.6499632,20.2763919 C23.8039365,20.7876034 23.6765448,21.0909523 23.305313,21.1004404 C23.2241544,21.1025264 23.1430871,21.1130912 23.0619286,21.119753 C22.2813932,21.112822 14.4950979,21.1066312 14.3070198,21.0974796 C14.0789096,21.0864439 13.9298606,20.8881365 13.9312781,20.6047732 C13.9327331,20.3224864 14.0806879,20.1228333 14.3114881,20.1178537 C14.7861287,20.1076928 15.2609062,20.1085675 15.7355924,20.1048666 C16.0243892,20.1047993 16.3131859,20.1046647 16.601937,20.1045974 C17.6783363,20.1046647 18.7547356,20.1047993 19.8311349,20.1048666 C20.119886,20.1047993 20.4086828,20.1046647 20.6974794,20.1045974 Z" id="Fill-28-Copy" fill="#DBE3FF" fill-rule="nonzero"></path>
            <path d="M20.6974794,10.7764871 C21.5479115,10.7799863 22.3983892,10.7848312 23.2488212,10.785706 C23.3941314,10.7858406 23.5352014,10.7918294 23.6499632,10.9482816 C23.8039365,11.4594932 23.6765448,11.7628421 23.305313,11.7723301 C23.2241544,11.7744162 23.1430871,11.7849809 23.0619286,11.7916427 C22.2813932,11.7847117 14.4950979,11.7785209 14.3070198,11.7693692 C14.0789096,11.7583335 13.9298606,11.5600262 13.9312781,11.2766629 C13.9327331,10.9943761 14.0806879,10.794723 14.3114881,10.7897435 C14.7861287,10.7795824 15.2609062,10.7804573 15.7355924,10.7767562 C16.0243892,10.7766889 16.3131859,10.7765544 16.601937,10.7764871 C17.6783363,10.7765544 18.7547356,10.7766889 19.8311349,10.7767562 C20.119886,10.7766889 20.4086828,10.7765544 20.6974794,10.7764871 Z" id="Fill-28-Copy-2" fill="#DBE3FF" fill-rule="nonzero"></path>
            <path d="M20.6974794,22.7590306 C21.5479115,22.7625297 22.3983892,22.7673746 23.2488212,22.7682495 C23.3941314,22.7683841 23.5352014,22.7743729 23.6499632,22.9308251 C23.8039365,23.4420366 23.6765448,23.7453855 23.305313,23.7548735 C23.2241544,23.7569596 23.1430871,23.7675244 23.0619286,23.7741861 C22.2813932,23.7672551 14.4950979,23.7610644 14.3070198,23.7519127 C14.0789096,23.740877 13.9298606,23.5425697 13.9312781,23.2592063 C13.9327331,22.9769196 14.0806879,22.7772664 14.3114881,22.7722869 C14.7861287,22.7621259 15.2609062,22.7630007 15.7355924,22.7592997 C16.0243892,22.7592324 16.3131859,22.7590979 16.601937,22.7590306 C17.6783363,22.7590979 18.7547356,22.7592324 19.8311349,22.7592997 C20.119886,22.7592324 20.4086828,22.7590979 20.6974794,22.7590306 Z" id="Fill-28-Copy-3" fill="#DBE3FF" fill-rule="nonzero"></path>
            <path d="M18.3535118,2.54611222 C18.4169367,2.95394135 18.2268337,3.15296608 17.8163166,3.10858585 C17.6245551,3.00844438 17.5026811,2.86197819 17.5389973,2.63435796 C17.5685651,2.4494594 17.687694,2.3317031 17.8701905,2.29121186 C18.0995837,2.24025467 18.244906,2.36144243 18.3535118,2.54611222" id="Fill-30" fill="#616875" fill-rule="nonzero"></path>
            <path d="M23.3890834,2.65273343 C23.3501364,2.99873907 23.2734433,3.07371649 22.9025023,3.12816234 C22.6039653,2.99965413 22.4842644,2.80514748 22.5703369,2.56654657 C22.6544077,2.33349318 22.8354744,2.26000272 23.0688138,2.29935014 C23.2660656,2.33263531 23.3333794,2.48859522 23.3890834,2.65273343" id="Fill-32" fill="#616875" fill-rule="nonzero"></path>
            <path d="M20.8856671,2.69970441 C20.8858956,2.91777375 20.6910458,3.11611219 20.4697167,3.12314669 C20.2299147,3.13081028 20.0368379,2.93567453 20.0430717,2.69198362 C20.0491339,2.45509843 20.2229946,2.28953045 20.4650842,2.29015777 C20.6928188,2.29078865 20.8854953,2.47831799 20.8856671,2.69970441" id="Fill-34" fill="#616875" fill-rule="nonzero"></path>
        </g>
    </g>
</svg>