<?xml version="1.0" encoding="UTF-8"?>
<svg width="11px" height="10px" viewBox="0 0 11 10" version="1.1" xmlns="http://www.w3.org/2000/svg" xmlns:xlink="http://www.w3.org/1999/xlink">
    <!-- Generator: Sketch 63.1 (92452) - https://sketch.com -->
    <title>date</title>
    <desc>Created with Sketch.</desc>
    <g id="task+member-1" stroke="none" stroke-width="1" fill="none" fill-rule="evenodd" opacity="0.6">
        <g id="date" transform="translate(1.000000, 0.000000)" fill="#000000" fill-rule="nonzero" stroke="#000000" stroke-width="0.4">
            <path d="M4.39026989,6.06178977 L5.06519886,6.06178977 C5.25447443,6.06178977 5.403125,5.91036932 5.403125,5.71740057 C5.403125,5.52443182 5.25447443,5.37301136 5.06519886,5.37301136 L4.39026989,5.37301136 C4.20099432,5.37301136 4.05234375,5.52443182 4.05234375,5.71740057 C4.05234375,5.91036932 4.20099432,6.06178977 4.39026989,6.06178977 Z M4.39026989,7.43934659 L5.06519886,7.43934659 C5.25447443,7.43934659 5.403125,7.28792614 5.403125,7.09495739 C5.403125,6.90198864 5.25447443,6.75056818 5.06519886,6.75056818 L4.39026989,6.75056818 C4.20099432,6.75056818 4.05234375,6.90198864 4.05234375,7.09495739 C4.05234375,7.28792614 4.20099432,7.43934659 4.39026989,7.43934659 Z M8.1037642,0.961505682 L6.75298295,0.961505682 L6.75298295,0.617116477 C6.75298295,0.424147727 6.60433239,0.272727273 6.41598011,0.272727273 C6.22670455,0.272727273 6.07805398,0.424147727 6.07805398,0.617116477 L6.07805398,0.961505682 L3.37649148,0.961505682 L3.37649148,0.617116477 C3.37649148,0.424147727 3.22784091,0.272727273 3.03948864,0.272727273 C2.85021307,0.272727273 2.7015625,0.424147727 2.7015625,0.617116477 L2.7015625,0.961505682 L1.35078125,0.961505682 C0.608451705,0.961505682 -9.09494702e-13,1.58196023 -9.09494702e-13,2.3399858 L-9.09494702e-13,8.34140625 C-9.09494702e-13,9.09943182 0.607528409,9.71896307 1.35078125,9.71896307 L8.1037642,9.71896307 C8.84701705,9.71896307 9.45454545,9.09943182 9.45454545,8.34140625 L9.45454545,2.3399858 C9.45454545,1.58196023 8.84701705,0.961505682 8.1037642,0.961505682 Z M8.77961648,8.34140625 C8.77961648,8.71995739 8.47585227,9.03018466 8.1037642,9.03018466 L1.35078125,9.03018466 C0.979616477,9.03018466 0.674928977,8.71995739 0.674928977,8.34140625 L0.674928977,3.71754261 L8.77869318,3.71754261 L8.77961648,8.34140625 L8.77961648,8.34140625 Z M8.77961648,3.0287642 L0.674928977,3.0287642 L0.674928977,2.3399858 C0.674928977,1.96143466 0.978693182,1.65120739 1.35078125,1.65120739 L2.7015625,1.65120739 L2.7015625,1.99559659 C2.7015625,2.18856534 2.85021307,2.3399858 3.03948864,2.3399858 C3.2287642,2.3399858 3.37741477,2.18856534 3.37741477,1.99559659 L3.37741477,1.65120739 L6.07897727,1.65120739 L6.07897727,1.99559659 C6.07897727,2.18856534 6.22762784,2.3399858 6.41690341,2.3399858 C6.60617898,2.3399858 6.75482955,2.18856534 6.75482955,1.99559659 L6.75482955,1.65120739 L8.1056108,1.65120739 C8.47677557,1.65120739 8.78146307,1.96143466 8.78146307,2.34090909 L8.77961648,3.0287642 Z M2.36363636,7.43934659 L3.03948864,7.43934659 C3.2287642,7.43934659 3.37741477,7.28792614 3.37741477,7.09495739 C3.37741477,6.90198864 3.2287642,6.75056818 3.03948864,6.75056818 L2.36455966,6.75056818 C2.17528409,6.75056818 2.02663352,6.90198864 2.02663352,7.09495739 C2.02663352,7.28792614 2.1743608,7.43934659 2.36363636,7.43934659 Z M6.41598011,6.06178977 L7.09090909,6.06178977 C7.28018466,6.06178977 7.42883523,5.91036932 7.42883523,5.71740057 C7.42883523,5.52443182 7.28018466,5.37301136 7.09090909,5.37301136 L6.41598011,5.37301136 C6.22670455,5.37301136 6.07805398,5.52443182 6.07805398,5.71740057 C6.07805398,5.91036932 6.22670455,6.06178977 6.41598011,6.06178977 Z M2.36363636,6.06178977 L3.03948864,6.06178977 C3.2287642,6.06178977 3.37741477,5.91036932 3.37741477,5.71740057 C3.37741477,5.52443182 3.2287642,5.37301136 3.03948864,5.37301136 L2.36455966,5.37301136 C2.17528409,5.37301136 2.02663352,5.52443182 2.02663352,5.71740057 C2.02663352,5.91036932 2.1743608,6.06178977 2.36363636,6.06178977 Z M6.41598011,7.43934659 L7.09090909,7.43934659 C7.28018466,7.43934659 7.42883523,7.28792614 7.42883523,7.09495739 C7.42883523,6.90198864 7.28018466,6.75056818 7.09090909,6.75056818 L6.41598011,6.75056818 C6.22670455,6.75056818 6.07805398,6.90198864 6.07805398,7.09495739 C6.07805398,7.28792614 6.22670455,7.43934659 6.41598011,7.43934659 Z" id="Shape"></path>
        </g>
    </g>
</svg>