<?xml version="1.0" encoding="UTF-8"?>
<svg width="22px" height="22px" viewBox="0 0 22 22" version="1.1" xmlns="http://www.w3.org/2000/svg" xmlns:xlink="http://www.w3.org/1999/xlink">
    <!-- Generator: Sketch 63.1 (92452) - https://sketch.com -->
    <title>delete</title>
    <desc>Created with Sketch.</desc>
    <g id="task+member-1" stroke="none" stroke-width="1" fill="none" fill-rule="evenodd">
        <g id="delete">
            <circle id="Oval-Copy" fill="#fff" opacity="1" cx="11" cy="11" r="11"></circle>
            <g id="编组" transform="translate(5.000000, 5.000000)">
                <rect id="矩形" x="0" y="0" width="12" height="12"></rect>
                <path d="M10.5,3 L10.5,9.75 C10.5,10.5784271 9.82842712,11.25 9,11.25 L3,11.25 C2.17157288,11.25 1.5,10.5784271 1.5,9.75 L1.5,3 L0.75,3 L0.75,2.25 L3,2.25 L3,1.5 C3,1.08578644 3.33578644,0.75 3.75,0.75 L8.25,0.75 C8.66421356,0.75 9,1.08578644 9,1.5 L9,2.25 L11.25,2.25 L11.25,3 L10.5,3 Z M8.25,1.5 L3.75,1.5 L3.75,2.25 L8.25,2.25 L8.25,1.5 Z M9.75,3 L2.25,3 L2.25,9.75 C2.25,10.1642136 2.58578644,10.5 3,10.5 L9,10.5 C9.41421356,10.5 9.75,10.1642136 9.75,9.75 L9.75,3 Z M6.75,4.5 L7.5,4.5 L7.5,9 L6.75,9 L6.75,4.5 Z M4.5,4.5 L5.25,4.5 L5.25,9 L4.5,9 L4.5,4.5 Z" id="形状" stroke="#1979FF" stroke-width="0.2" fill="#1979FF" fill-rule="nonzero"></path>
            </g>
        </g>
    </g>
</svg>