<?xml version="1.0" encoding="UTF-8"?>
<svg width="30px" height="32px" viewBox="0 0 30 32" version="1.1" xmlns="http://www.w3.org/2000/svg" xmlns:xlink="http://www.w3.org/1999/xlink">
    <title>economic_diversification</title>
    <defs>
        <polygon id="path-1" points="0 0.0548319457 18.5403894 0.0548319457 18.5403894 20.3871705 0 20.3871705"></polygon>
        <polygon id="path-3" points="0.0151050421 0.00267382747 23.0497897 0.00267382747 23.0497897 11.151216 0.0151050421 11.151216"></polygon>
    </defs>
    <g id="Page-1" stroke="none" stroke-width="1" fill="none" fill-rule="evenodd">
        <g id="economic_diversification" transform="translate(0.235294, 0.333106)">
            <g id="Fill-1-Clipped" transform="translate(0.179028, 0.461740)">
                <mask id="mask-2" fill="white">
                    <use xlink:href="#path-1"></use>
                </mask>
                <g id="path-1"></g>
                <path d="M13.1727699,3.21485242 C13.3115713,3.18762128 13.5176573,3.31860186 13.5771523,3.04154651 C13.7100655,2.42268483 13.8582511,1.80702682 14.0063754,1.19167685 C14.0439738,1.03537499 14.017845,0.97216424 13.8394213,0.976600077 C13.3914909,0.987689688 12.94307,0.984486018 12.4949556,0.978017087 C12.3330309,0.975675947 12.2808347,1.01103947 12.3262227,1.18890445 C12.4676001,1.7427687 12.601924,2.29915893 12.7147806,2.85936891 C12.7686942,3.12705971 12.8466511,3.30905248 13.1727699,3.21485242 M5.12995823,6.80141616 C5.12995823,7.91715384 5.13474236,9.03301474 5.12578744,10.1486908 C5.12407006,10.3608103 5.18387179,10.4386224 5.40087541,10.4285186 C5.74668276,10.412377 6.09408482,10.4134244 6.44001485,10.4271016 C6.64714352,10.4353571 6.73006859,10.3772599 6.72227902,10.1546053 C6.70688391,9.7150256 6.71859892,9.27439853 6.71859892,8.83426434 C6.71872158,7.0736044 6.71424412,5.31294446 6.7238124,3.55234613 C6.72516177,3.31139362 6.66192528,3.22581881 6.41658484,3.24177553 C6.10199705,3.26222969 5.78385184,3.26340026 5.46944806,3.24152909 C5.20650444,3.22323124 5.11848856,3.29642265 5.12302736,3.57705131 C5.14020119,4.65157263 5.12995823,5.7265868 5.12995823,6.80141616 M4.21318233,6.86505818 C4.21318233,5.59449726 4.20674214,4.32381313 4.21876383,3.05331381 C4.22103322,2.80657006 4.1465724,2.74212712 3.90754947,2.74551562 C3.01003281,2.75839188 2.11214813,2.75561948 1.21450879,2.74557723 C1.00228931,2.74323609 0.907710568,2.7792157 0.908617393,3.02669876 C0.917892197,5.5678822 0.917278842,8.10912726 0.91089999,10.6503723 C0.910347972,10.8685912 0.980024656,10.9280438 1.19052676,10.9258874 C2.09834773,10.9165229 3.00647537,10.913504 3.91417367,10.9290295 C4.16343956,10.9333421 4.22005186,10.8514023 4.21808914,10.6153785 C4.20766217,9.3653949 4.21318233,8.11522654 4.21318233,6.86505818 M14.4367026,9.1396598 C14.4948482,8.74413048 14.5709651,8.66810507 14.9849157,8.59183321 C15.3796071,8.59534492 15.77436,8.60440143 16.16899,8.60039685 C16.4337737,8.59774767 16.581162,8.44760671 16.6006665,8.18521428 C16.6199258,7.92621035 16.4724149,7.78728222 16.2348027,7.74243092 C16.0452771,7.70663614 15.8519489,7.71211933 15.6600926,7.7367629 C15.2938607,7.71489173 14.9213112,7.77576135 14.5629915,7.65149614 C14.5585754,7.6214926 14.5603541,7.58883987 14.5487617,7.56210159 C14.3468466,7.09522913 14.5221423,6.8162023 15.0235569,6.80739222 C15.214677,6.80400373 15.4057973,6.79815088 15.5969174,6.79346861 C16.0214178,6.79839732 16.4461021,6.81201289 16.8704184,6.80498948 C17.1359994,6.80067686 17.2887852,6.62607715 17.2902769,6.37606812 C17.2916679,6.12692162 17.1429302,5.95447823 16.8769812,5.94000013 C16.6756181,5.92915696 16.4730895,5.94209483 16.2710516,5.94437436 C15.8329963,5.94030817 15.3948796,5.94129392 14.9570696,5.93051235 C14.6499034,5.92293446 14.4463322,5.73336379 14.4447988,5.47362055 C14.4433267,5.21165938 14.6457325,5.02572364 14.9521628,5.01703679 C15.165977,5.0109375 15.3805886,5.02344411 15.5941574,5.01278576 C15.8711468,4.99892376 16.0472399,4.82284544 16.0436211,4.57172745 C16.0396343,4.3001553 15.8828004,4.14046496 15.6275237,4.13405763 C14.9870012,4.11785448 14.3454359,4.08877507 13.7052814,4.1504456 C13.314638,4.10060399 12.9236267,4.10953728 12.5325541,4.14305253 C12.0751168,4.13448889 11.6175568,4.13097719 11.1603036,4.11532852 C10.8932505,4.106272 10.7535904,3.94054399 10.7296085,3.68566785 C10.7078345,3.45371024 10.8898771,3.26604945 11.1289,3.22464825 C11.368291,3.18324705 11.7177171,3.35606009 11.8216801,3.1332206 C11.9064452,2.95141265 11.7361789,2.6494673 11.6786466,2.40087527 C11.6601847,2.32133815 11.6327066,2.2430332 11.6231383,2.16244872 C11.6070685,2.02684747 11.5545656,1.99924667 11.4191991,2.03793707 C10.6956288,2.24500468 10.0106996,2.52107429 9.49045518,3.09644007 C9.18574236,3.4334409 8.83656162,3.70858637 8.43641135,3.92008982 C8.32999494,3.95188003 8.22382386,3.98459437 8.11703944,4.01509079 C7.60574995,4.16098073 7.60568862,4.1607959 7.64494309,4.71330477 C7.64365505,6.16826121 7.64224435,7.62334087 7.64095631,9.07835891 C7.61286483,9.60080262 7.61280349,9.60148033 8.10753249,9.66247316 C8.19640707,9.6734395 8.28620167,9.67695127 8.37556692,9.68391303 C9.0536879,9.77546391 9.70893091,9.96263188 10.3636219,10.1552214 C10.8715992,10.3046846 11.3840541,10.438376 11.9222696,10.3982069 C12.3503887,10.4247604 12.7784465,10.4310446 13.2065043,10.3961123 C14.0008552,10.399932 14.7952062,10.4104671 15.5894959,10.4041215 C15.8767896,10.4018419 16.0442958,10.224285 16.0471785,9.97322861 C16.0500613,9.72469821 15.8813284,9.54615553 15.601947,9.52459236 C15.4195977,9.51054556 15.2343043,9.50752669 15.052323,9.52249771 C14.7469969,9.54751086 14.5389481,9.4343969 14.4367026,9.1396598 M10.9577751,11.2521067 C10.8102028,11.2174825 10.6578464,11.1962274 10.5165303,11.1443527 C10.3830651,11.095312 10.3140631,11.1362819 10.2442637,11.2476709 C9.92617988,11.755082 9.61680557,12.2666209 9.40575147,12.8310203 C9.08325146,13.4081727 8.90905972,14.0383088 8.75400455,14.675222 C8.71542477,14.8225905 8.67077281,14.9686652 8.6393079,15.1175741 C8.38605523,16.3172847 8.65096157,17.3558264 9.59086083,18.1823102 C9.82105151,18.4215376 10.083627,18.6158522 10.3825744,18.7598939 C11.5606379,19.4122708 12.8077033,19.6143481 14.1279416,19.3396955 C15.0802918,19.2019995 15.9182521,18.808565 16.6178404,18.1511361 C17.2765795,17.5321511 17.6426888,16.7697407 17.5944793,15.8401236 C17.500698,14.6156462 17.111404,13.4830892 16.536142,12.4085063 C16.4575104,12.1556632 16.3251492,11.9307906 16.178497,11.7133111 C16.0818942,11.5575637 16.0626963,11.3294875 15.8024515,11.331151 C14.5506632,11.3390985 13.2988749,11.3443353 12.0470253,11.3505577 C11.6839828,11.3177202 11.3208789,11.2848827 10.9577751,11.2521067 M0.0174927735,7.05043944 L0.017799449,5.87956177 C0.0203141886,4.74343153 0.0221542419,3.6073013 0.0257730133,2.47117106 C0.0273677263,1.97589689 0.167150442,1.83894024 0.6661729,1.83629105 C1.78670403,1.83025338 2.90723516,1.82452375 4.02770496,1.8186709 C4.35002096,1.8765833 4.69969243,1.74652685 4.9990691,1.9614804 C5.0796021,2.35164974 5.34193237,2.39335899 5.68620634,2.36945472 C6.13143791,2.33852704 6.58047225,2.36064465 7.02772787,2.36236969 C7.47455415,2.36409474 7.62273978,2.49661555 7.62439583,2.9379203 C7.62525451,3.15022466 7.6708265,3.20807545 7.88390468,3.13402152 C8.15979001,3.03828124 8.3943968,2.88974211 8.60453089,2.69105332 C8.89249924,2.41886508 9.18488367,2.15142072 9.47548946,1.88194328 C9.94500974,1.59312062 10.4464242,1.3763188 10.9724955,1.21588916 C11.369211,1.09488922 11.3693336,1.09525887 11.2846298,0.702255525 C11.2021954,0.319725692 11.3784726,0.0970710269 11.7740227,0.0776642144 C12.0071575,0.0663281717 12.2418869,0.10779098 12.473611,0.0548073022 C13.1443718,0.062631636 13.8152552,0.0698398806 14.486016,0.0785267394 C14.9782916,0.084872459 15.1417496,0.293541897 15.0366826,0.780991734 C14.957315,1.1492283 14.8757392,1.51697199 14.7950836,1.88496211 C14.6336495,2.27519306 14.6082568,2.70189649 14.473933,3.09822673 C14.4330837,3.21867218 14.4885307,3.21898022 14.5631755,3.21996596 C14.6635197,3.22125975 14.763864,3.21275773 14.8642696,3.20844509 C15.1172769,3.21337381 15.3703456,3.21774805 15.6233529,3.22335446 C16.4200347,3.240913 17.0242468,3.8578032 16.9398497,4.64849218 C16.901822,5.00508465 17.0232041,5.07710549 17.3115405,5.07575009 C17.5683506,5.20186356 17.7905677,5.37276673 17.9748184,5.59289543 C18.3819608,6.42997593 18.2691042,6.92894664 17.5214293,7.53795089 C17.4297946,7.61262091 17.4291199,7.67225835 17.4561074,7.77138711 C17.6182773,8.3667758 17.4549419,8.86359019 16.9745041,9.24316275 C16.8575993,9.33545295 16.8336173,9.40266831 16.8855682,9.54116522 C17.0181133,9.89393789 16.9996514,10.2539189 16.8084085,10.5758255 C16.695736,10.7657658 16.7229075,10.8931115 16.8644076,11.0289591 C16.9835816,11.2413252 17.1026945,11.4538144 17.2218686,11.6663035 C17.7332807,12.6871635 18.1390125,13.7476379 18.4084576,14.8592479 C18.4524349,15.2075231 18.4964121,15.55586 18.5403894,15.9041969 C18.478441,18.3846339 16.4257388,19.7813699 14.5796134,20.2036375 C14.4505643,20.2331482 14.3210859,20.2606873 14.1917915,20.2891506 C13.7629363,20.321865 13.3340812,20.3545177 12.9052262,20.3871705 C11.7249546,20.3206944 10.6175492,20.0129578 9.60803464,19.3814663 C9.38226013,19.202246 9.15648553,19.0230256 8.93071101,18.8437436 C8.28160154,18.1810164 7.7995689,17.4272928 7.66990648,16.4852307 C7.64623113,16.3137114 7.64138565,16.139543 7.62795327,15.9666067 C7.63120402,15.5328182 7.72222533,15.1100578 7.78699521,14.6840321 C8.12593303,13.3907991 8.60796566,12.1573267 9.31460747,11.0192865 C9.40771415,10.8692689 9.38109471,10.8215219 9.21279119,10.7779644 C8.75658063,10.6599833 8.29294853,10.6015781 7.82551365,10.5624564 C7.71572381,10.5531534 7.64187633,10.5567268 7.62482517,10.7100713 C7.56441009,11.251429 7.46823664,11.3282553 6.93406916,11.3324447 C6.801892,11.3334305 6.66977617,11.3441505 6.537599,11.3504345 C6.15051313,11.3485247 5.76342724,11.3466148 5.37634136,11.3447665 C5.0851836,11.2544478 5.12707547,11.5187502 5.0488732,11.6551523 C5.01587492,11.6866961 4.98293797,11.7181782 4.94993967,11.7495988 C4.80328743,11.8373915 4.64197609,11.839363 4.47735265,11.8397327 C3.16484262,11.842505 1.85227126,11.8482963 0.539638567,11.8531634 C0.250259517,11.8404104 0.0812812882,11.6794879 -4.90680879e-05,11.4106264 C0.0554592068,10.8283605 0.0197621726,10.2446775 0.023319609,9.66179544 C0.0286557635,8.79138452 0.0201301832,7.92091198 0.0174927735,7.05043944" id="Fill-1" fill="#2626BC" fill-rule="nonzero" mask="url(#mask-2)"></path>
            </g>
            <g id="Fill-4-Clipped" transform="translate(4.533821, 18.574765)">
                <mask id="mask-4" fill="white">
                    <use xlink:href="#path-3"></use>
                </mask>
                <g id="path-3"></g>
                <path d="M19.1202945,5.24842759 L19.1264894,5.24842759 C19.1264894,6.56876853 19.125876,7.88904785 19.1268573,9.20932714 C19.1271027,9.59844918 19.1763548,9.64712024 19.5703102,9.64810597 C20.2632129,9.6497694 20.9561156,9.6497078 21.6490184,9.64816757 C22.0553022,9.64718184 22.1251016,9.57565389 22.1252855,9.16262762 C22.1258989,7.83212119 22.1250402,6.50155319 22.1250402,5.17098517 C22.1250402,3.90184126 22.1236908,2.63263573 22.1270786,1.36349182 C22.1277389,1.1204446 22.0818603,0.932722203 21.7849983,0.932722203 C21.0003996,0.932722203 20.2158009,0.929703368 19.4312635,0.929395285 C19.2161613,0.929395285 19.1142223,1.01700321 19.1158391,1.25690838 C19.1250786,2.58741478 19.1202945,3.91792119 19.1202945,5.24842759 M5.36558932,5.42228799 C4.28658206,5.08417819 3.2075748,4.74613 2.12856754,4.4079586 C1.96676552,4.35454366 1.8076009,4.2906552 1.64279346,4.2499317 C1.30042088,4.16528103 1.11009803,4.27291183 0.964549812,4.61582712 C0.825564452,4.92183867 0.97945424,5.14640321 1.21479706,5.28157319 C4.0244358,6.89597354 6.84026937,8.49953071 9.6549376,10.1050594 C9.9261614,10.259821 10.2120444,10.2895781 10.5082317,10.1859519 C10.7773088,10.0917518 11.0457726,9.99619643 11.313991,9.89934713 C12.7012685,9.39852815 14.0883007,8.89715473 15.4754556,8.39590449 C16.3107785,8.11059355 17.1342022,7.76632286 18.0490154,7.87795824 C18.1964037,7.89594805 18.2091,7.79835951 18.2082414,7.68413655 C18.2017398,6.80583968 18.1976917,5.92754281 18.1928463,5.04930754 C18.2122282,4.63726703 18.2230845,4.22534974 18.1854247,3.81367888 C18.1927849,3.5488221 18.1918649,3.28347245 18.2102655,3.01941659 C18.2232685,2.83286475 18.1604613,2.76996204 17.9708746,2.77495236 C17.5035623,2.78727414 17.0355141,2.77285766 16.5679566,2.78062038 C15.7347804,2.794544 14.9394481,2.98158871 14.1821435,3.33109615 C13.5625975,3.5350217 12.9432969,3.73956334 12.3453409,4.0029415 C11.8279792,4.24685125 11.2757792,4.20052134 10.7288541,4.19996686 C9.9957155,4.19922755 9.26257685,4.20107582 8.52949965,4.19891951 C8.33292062,4.19836503 8.14995799,4.22892305 7.97282219,4.3271893 C7.71607341,4.46956753 7.66099449,4.71384693 7.7233723,4.94543489 C7.78133398,5.1608197 7.93252502,5.35026715 8.21846931,5.34774118 C9.20571924,5.33899272 10.1930919,5.34040972 11.1804031,5.33800698 C11.5488431,5.35846113 11.9172218,5.3789153 12.2856005,5.39936946 C13.2575167,5.72201542 13.8113727,6.51307406 13.7203514,7.44872884 C13.6926892,7.73293083 13.5040838,7.92847756 13.2603994,7.92558194 C13.0222965,7.92274793 12.8409899,7.73570323 12.8185412,7.46979909 C12.7372109,6.50783729 12.4718138,6.26263377 11.5173782,6.26996523 C11.4261729,6.27070453 11.335029,6.27908334 11.243885,6.28401206 C10.8557564,6.28271827 10.4676278,6.28154771 10.0794992,6.28031552 C9.51975504,6.27655738 8.95994945,6.26990361 8.40020523,6.27051971 C8.15376076,6.27082775 7.91240711,6.23521779 7.6856512,6.1476715 C7.22852062,5.97103871 6.75354153,5.85810954 6.28457327,5.7232476 C5.99182079,5.5811158 5.67643566,5.50866371 5.36558932,5.42228799 M7.64112191,10.022257 C7.37204478,9.8657703 7.10296765,9.709222 6.83389052,9.5527353 C5.92269613,9.02141994 5.01732856,8.47975424 4.08245881,7.99070258 C3.85864699,7.85953717 3.63483518,7.72837176 3.41114603,7.59714475 C2.45339828,7.04297244 1.49552786,6.48880014 0.537657443,5.93475105 C0.357086879,5.7680989 0.23539802,5.55714993 0.10444756,5.35303956 C-0.0782083992,4.71341566 0.000729887812,4.13318278 0.513982091,3.66932917 C0.967309891,3.2596298 1.49883996,3.22691546 2.06036289,3.38746832 C2.36249965,3.50082875 2.65690817,3.63803183 2.97977619,3.68694932 C4.0810481,4.03300667 5.18238134,4.37912562 6.28365325,4.72518297 C6.40546478,4.76911014 6.52696963,4.81408466 6.64933318,4.85659481 C6.74961609,4.89134225 6.82695966,4.89183512 6.81794339,4.74754701 C6.80095357,4.47652933 6.92264243,4.24198415 7.02016525,4.00146289 C7.16497745,3.82045586 7.3320543,3.66218253 7.51170483,3.51690868 C7.94890149,3.25667256 8.44111576,3.32290216 8.91456147,3.27842051 C9.76810088,3.2824251 10.6217016,3.2872306 11.4753023,3.28883243 C11.5452857,3.28895564 11.6194399,3.27879017 11.6847004,3.25451625 C12.5394665,2.93556684 13.3930672,2.61329053 14.2469746,2.29181515 C14.7465491,2.12701127 15.261028,2.02184482 15.7733602,1.90792992 C16.504168,1.84650582 17.2366932,1.85938209 17.9687278,1.86615906 C18.1551866,1.86788412 18.22701,1.81021816 18.2100202,1.62200289 C18.1972624,1.48005591 18.2051133,1.33595263 18.2087321,1.19301992 C18.2263966,0.49554525 18.711312,0.019308238 19.4228606,0.0125928649 C20.2874403,0.00433726852 21.152204,0.00550783815 22.0169064,0.00267382747 C22.2861062,0.0810403836 22.5318146,0.202841234 22.7384527,0.39672453 C22.9663126,0.693556344 23.026237,1.03178936 23.024397,1.40101166 C23.0195515,2.36857987 23.0353146,3.3362713 23.0428588,4.30390112 C23.0083885,4.69671965 22.9998629,5.08941495 23.0497897,5.4817406 C22.9882092,5.8371625 23.0247649,6.19554164 23.0222502,6.55231894 C23.016178,7.44219829 23.0166687,8.33226247 23.0221889,9.22214181 C23.0239676,9.50369463 22.9867372,9.77163185 22.8504505,10.0207784 C22.7340365,10.1387594 22.6176838,10.256679 22.5012697,10.37466 C22.2245871,10.5235072 21.9285839,10.5686666 21.6167562,10.5653397 C20.9340964,10.5578234 20.2511912,10.5556671 19.5687155,10.5657709 C19.1750054,10.5715621 18.8250273,10.4759451 18.5269387,10.211766 C18.3153325,9.96354362 18.2043159,9.67582997 18.1906996,9.34979549 C18.2359036,8.7975331 18.2355968,8.80849949 17.7065202,8.79395978 C17.3136688,8.7831166 16.9427754,8.84811403 16.5741513,8.98377688 C15.2690629,9.46432648 13.9598037,9.93347847 12.6522005,10.4069431 C12.0190994,10.6310148 11.3859371,10.8550865 10.7527747,11.0791582 C10.1494213,11.2296071 9.58857302,11.1457574 9.05232013,10.8160264 C8.59279748,10.5335495 8.11229823,10.2855735 7.64112191,10.022257" id="Fill-4" fill="#2626BC" fill-rule="nonzero" mask="url(#mask-4)"></path>
            </g>
            <path d="M4.39219778,7.32680456 C4.39219778,8.57697292 4.38667763,9.82714128 4.39710459,11.0771248 C4.39906732,11.3131487 4.342455,11.3950885 4.09318912,11.3907758 C3.18549082,11.3752504 2.27742452,11.3782693 1.36954221,11.3876338 C1.15904011,11.3897901 1.08936342,11.3303375 1.08991544,11.1121187 C1.09629429,8.57087363 1.09690764,6.02962859 1.08763284,3.48844514 C1.08672601,3.24096207 1.18130476,3.20498246 1.39352424,3.2073236 C2.29116358,3.21736586 3.18904826,3.22013826 4.08662626,3.20726199 C4.32558785,3.20387351 4.40004868,3.26831644 4.39777928,3.5150602 C4.38581893,4.78555951 4.39219778,6.05624364 4.39219778,7.32680456" id="Fill-7" fill="#1DC182" fill-rule="nonzero"></path>
            <path d="M5.30898594,7.26315021 C5.30898594,6.18832086 5.31922891,5.11330668 5.30205508,4.03878537 C5.29751628,3.75815671 5.38553216,3.6849653 5.64847577,3.70326315 C5.96287956,3.72513432 6.28102477,3.72396375 6.59561255,3.70350958 C6.840953,3.68755287 6.90418949,3.77318928 6.90284012,4.01408019 C6.89327184,5.77467852 6.8977493,7.53533846 6.89762664,9.2959984 C6.89762664,9.73619422 6.88591163,10.1767596 6.90130674,10.6163393 C6.9090963,10.838994 6.82617123,10.8970912 6.61904257,10.8888973 C6.27311254,10.8751585 5.92571048,10.874111 5.57990313,10.8902526 C5.36289951,10.9003565 5.30309777,10.8225444 5.30481515,10.6104249 C5.31377008,9.4947488 5.30898594,8.37888789 5.30898594,7.26315021" id="Fill-9" fill="#DBE3FF" fill-rule="nonzero"></path>
            <path d="M23.654115,23.8231926 C23.654115,22.4926862 23.6588992,21.1621798 23.6496597,19.8316734 C23.6480429,19.5917682 23.7499818,19.5041602 23.965084,19.5041602 C24.7496215,19.5044683 25.5342202,19.5074872 26.3188189,19.5074872 C26.6156809,19.5074872 26.6615595,19.6952096 26.6608992,19.9382568 C26.6575114,21.2074007 26.6588607,22.4766062 26.6588607,23.7457502 C26.6588607,25.0763182 26.6597194,26.4068862 26.6591061,27.7373926 C26.6589221,28.1504189 26.5891227,28.2219468 26.1828389,28.2229326 C25.4899362,28.2244728 24.7970335,28.2245344 24.1041307,28.222871 C23.7101754,28.2218852 23.6609233,28.1732142 23.6606779,27.7840921 C23.6596965,26.4638128 23.6603099,25.1435336 23.6603099,23.8231926 L23.654115,23.8231926 Z" id="Fill-11" fill="#DBE3FF" fill-rule="nonzero"></path>
            <path d="M13.3265766,27.3725691 C13.9109775,27.7361234 14.4374782,28.2348477 15.2029403,28.1745942 C15.3143862,28.1657841 15.422704,28.1597464 15.5298564,28.1205016 C16.3257408,27.8287833 17.1355483,27.5754474 17.917755,27.2458396 C18.3269215,27.1123947 18.7416081,26.993243 19.1424945,26.8381733 C19.2960162,26.7787823 19.4265374,26.7671998 19.5730056,26.8172879 C19.724626,26.8504951 19.8946469,26.8312115 20.0092822,26.9706941 C18.6221274,27.4718828 17.2350952,27.9733178 15.8477564,28.4741368 C15.5795992,28.5709244 15.3110741,28.6665415 15.0420583,28.7606799 C14.745871,28.8643678 14.4599882,28.834549 14.1887643,28.679849 C11.374096,27.0742588 8.55826248,25.4707631 5.74862375,23.8563629 C5.51328093,23.7211312 5.35939113,23.4966283 5.49837649,23.1906168 C5.84884532,23.0390588 6.08050803,23.3048397 6.35062786,23.4354506 C6.76322914,23.6723986 7.16939025,23.9216067 7.59002643,24.143214 C8.09935319,24.4115825 8.56899613,24.7528343 9.10426763,24.972655 C9.31354306,25.1774431 9.5906551,25.2660367 9.83857155,25.4046568 C10.3441569,25.6995787 10.8465528,26.0002303 11.3563702,26.287636 C11.7862066,26.5300054 12.1922451,26.8167334 12.6541598,27.0000816 C12.8635579,27.151085 13.0695212,27.3083726 13.3265766,27.3725691" id="Fill-13" fill="#DBE3FF" fill-rule="nonzero"></path>
            <path d="M12.0552532,17.5633928 C11.9286575,17.3202224 11.8280678,17.0679955 11.7893655,16.7942054 C11.8448123,16.385923 11.9463833,16.2842066 12.3475762,16.2352892 C12.6573186,16.3299205 12.6995171,16.6042035 12.765023,16.8627761 C12.8272782,17.1899195 13.0653197,17.2482632 13.339733,17.2260224 C13.616477,17.2036583 13.7622093,17.0093438 13.7882767,16.7607517 C13.8176562,16.4803695 13.684743,16.2701598 13.3913159,16.1961675 C13.0705332,16.1617898 12.7571108,16.1004272 12.4704305,15.941661 C11.6319182,15.3319174 11.590885,14.2518514 12.3035377,13.6124739 C12.3713743,13.5516043 12.4437497,13.4873462 12.5257548,13.4526603 C12.6987811,13.3795921 12.7902318,13.2773213 12.8110244,13.0737655 C12.8370918,12.8185196 13.0133689,12.6636348 13.2747178,12.6853211 C13.523125,12.7059601 13.6914285,12.8510491 13.6975007,13.1222516 C13.7003834,13.2494741 13.7387793,13.3306131 13.8609588,13.3832271 C14.1198543,13.4948008 14.3161266,13.6872671 14.4866996,13.9080735 C14.6521204,14.2156869 14.7431416,14.5383329 14.6831559,14.8914753 L14.4315593,15.1417923 C14.1251904,15.1761701 13.8815673,15.1032868 13.7936742,14.7647457 C13.743318,14.3605295 13.535576,14.1424955 13.2185962,14.1612862 C12.9451643,14.1776126 12.7125815,14.4339673 12.7173043,14.7139799 C12.7227018,15.0300337 12.957922,15.2337128 13.3263619,15.2413524 C13.6436485,15.2671664 13.9181231,15.4061562 14.1835814,15.568927 C14.5044867,15.8911417 14.706218,16.2579613 14.6925402,16.7356152 C14.6762864,17.3012468 14.4163482,17.7087899 13.9428411,17.9814094 C13.7893807,18.0698182 13.6941887,18.1447963 13.6884231,18.3430539 C13.6820443,18.5607798 13.5304239,18.6886183 13.3091881,18.7114136 C13.0789974,18.7351947 12.8701514,18.6512833 12.844084,18.4193256 C12.8113923,18.1279771 12.6337659,18.0127068 12.4206877,17.8846218 C12.2840331,17.8024355 12.1760833,17.6721326 12.0552532,17.5633928" id="Fill-15" fill="#6583FE" fill-rule="nonzero"></path>
            <path d="M10.6951593,15.2588308 C10.8070959,15.2587692 10.9190938,15.2559352 11.0309691,15.2593237 C11.3447595,15.2688114 11.4847875,15.3914749 11.4931905,15.660521 C11.5022681,15.9500214 11.3373993,16.1563497 11.0535404,16.1751404 C10.810408,16.1912203 10.5641475,16.1925757 10.3214445,16.1732921 C10.0539621,16.1519754 9.88418653,15.9341263 9.89958164,15.6728428 C9.91601942,15.3951713 10.0549435,15.2689963 10.359411,15.2593853 C10.4712248,15.2558735 10.5832841,15.2588308 10.6951593,15.2588308" id="Fill-17" fill="#DBE3FF" fill-rule="nonzero"></path>
            <path d="M15.8282027,16.1821823 C15.630213,16.167889 15.4482317,16.2037454 15.2709119,16.1167536 C15.0744555,16.0204588 14.9545454,15.8830709 14.988709,15.661402 C15.0234247,15.4363446 15.1686049,15.2838625 15.3956062,15.266612 C15.6691607,15.2457882 15.9470701,15.2433854 16.2201954,15.2671048 C16.459341,15.2879287 16.6130468,15.4485432 16.6275832,15.6920217 C16.6413223,15.9200979 16.5255216,16.0701157 16.2952696,16.1425061 C16.1322408,16.1937648 15.9716655,16.1624674 15.8282027,16.1821823" id="Fill-19" fill="#DBE3FF" fill-rule="nonzero"></path>
        </g>
    </g>
</svg>