<?xml version="1.0" encoding="UTF-8"?>
<svg width="31px" height="27px" viewBox="0 0 31 27" version="1.1" xmlns="http://www.w3.org/2000/svg" xmlns:xlink="http://www.w3.org/1999/xlink">
    <title>economic_maangement</title>
    <defs>
        <polygon id="path-1" points="0 0.00779308271 29.7806988 0.00779308271 29.7806988 23.5518797 0 23.5518797"></polygon>
    </defs>
    <g id="Page-1" stroke="none" stroke-width="1" fill="none" fill-rule="evenodd">
        <g id="economic_maangement" transform="translate(0.235294, 0.605833)">
            <g id="Fill-1-Clipped" transform="translate(0.000000, 0.053886)">
                <mask id="mask-2" fill="white">
                    <use xlink:href="#path-1"></use>
                </mask>
                <g id="path-1"></g>
                <path d="M3.60121401,16.6643976 C2.77955047,16.6602051 1.95782415,16.6594653 1.13622339,16.6487374 C0.967295536,16.6465179 0.923855155,16.7108848 0.925231574,16.8649585 C0.932267027,17.5905044 0.929002718,18.3160503 0.933773627,19.0415961 C0.9345897,19.1625615 0.936535736,19.288151 1.01481631,19.3941345 C1.20270224,19.8035796 1.57276157,19.7169554 1.91275162,19.7123314 C3.39493496,19.710975 4.87718109,19.7096803 6.35942722,19.7083239 C6.75679372,19.7096803 7.15416023,19.710975 7.55146396,19.7123314 C9.03371008,19.710975 10.5158935,19.7096803 11.9982024,19.7083239 C12.3955061,19.7096803 12.7928725,19.710975 13.1902391,19.7123314 C14.6724225,19.710975 16.1546685,19.7096803 17.6369146,19.7083239 C18.0342185,19.7096803 18.4315849,19.710975 18.8289515,19.7123314 C20.3111348,19.710975 21.7934436,19.7096803 23.275627,19.7083239 C23.6729935,19.7096803 24.07036,19.710975 24.4676637,19.7123314 C25.7188346,19.7155374 26.9700055,19.7226893 28.2210509,19.7196066 C28.5856488,19.7186818 28.820365,19.4944457 28.8284003,19.1151495 C28.8443451,18.3576051 28.8314135,17.5995059 28.8368403,16.8416532 C28.8378793,16.6927585 28.7791845,16.6456547 28.6332324,16.6496622 C28.2062988,16.6613765 27.7790514,16.6635961 27.3519922,16.6695765 C26.9533702,16.6679119 26.5547482,16.6661239 26.1562517,16.6643976 C24.6751983,16.6462096 23.1942077,16.6365916 21.7132171,16.6695765 C21.3146578,16.6678503 20.9160358,16.6661239 20.5174766,16.6643976 C19.036486,16.6462096 17.5554325,16.6365916 16.0745047,16.6695765 C15.6759455,16.6678503 15.2773235,16.6661239 14.8787015,16.6643976 C13.3977108,16.6462096 11.9167203,16.6365916 10.4357296,16.6695765 C10.0371076,16.6678503 9.63861118,16.6661239 9.23998909,16.6643976 C7.75893574,16.6462096 6.27800788,16.6365916 4.79701726,16.6695765 C4.39839525,16.6678503 3.99983602,16.6661239 3.60121401,16.6643976 L3.60121401,16.6643976 Z M15.8837312,22.6090277 C16.5081553,22.6127269 17.1327677,22.6100758 17.7569407,22.6241329 C17.953113,22.6285104 17.9747704,22.538742 17.9727615,22.382942 C17.9664213,21.8820021 17.9602065,21.380569 17.975147,20.8799374 C17.9816128,20.6615585 17.8973059,20.6073029 17.7015731,20.6531119 C17.304081,20.6521871 16.9065889,20.6512006 16.5090341,20.6502141 L12.0629863,20.6531119 C11.5966299,20.6272788 11.5966299,20.6272788 11.6290846,21.0722983 C11.6237487,21.5207705 11.6211122,21.9693044 11.6113193,22.4176532 C11.6084316,22.5506412 11.6341695,22.6245646 11.7959409,22.6227765 C12.761485,22.6122337 13.7270291,22.6095209 14.6925733,22.604157 L15.8837312,22.6090277 Z M5.98283927,15.7279329 C6.16137171,15.745936 6.33984138,15.7544442 6.51768329,15.7210893 C7.29992405,15.7218292 8.08216483,15.722569 8.86434281,15.7232472 C8.88593745,15.7244803 8.90740655,15.7255901 8.92893841,15.7268231 C9.43044882,15.7479705 9.93189645,15.7554307 10.4331558,15.7215209 C10.7248718,15.7488954 11.0166505,15.7469224 11.3083665,15.7222607 C12.1000864,15.7975404 12.8922455,15.7763931 13.6846559,15.7340367 C14.4881775,15.7370578 15.2917617,15.7627675 16.0950322,15.7199179 C16.8803489,15.7204728 17.6656657,15.7210277 18.4509825,15.7216442 C19.2660545,15.755369 20.0811895,15.7496969 20.89645,15.7246036 C21.6820178,15.7250352 22.4677113,15.7254668 23.2533418,15.7258367 C24.6187007,15.7481554 25.9841224,15.7563554 27.3494185,15.7215209 C27.7760381,15.7288578 28.2026578,15.7344066 28.629152,15.7447646 C28.7686383,15.7481554 28.8474839,15.7036412 28.839072,15.5530202 C28.8156569,15.1351284 28.8678858,14.7153871 28.8069312,14.2983585 C28.8585323,12.8449239 28.8413946,11.391366 28.815908,9.93768482 C28.8435918,9.54500964 28.8545775,9.15245777 28.8069312,8.76027579 C28.8585323,7.30690286 28.8413946,5.85328331 28.8159707,4.39972541 C28.843529,4.00698857 28.8545775,3.61437504 28.8069312,3.22225474 C28.8661908,2.65201564 28.8403903,2.07998857 28.8240687,1.50968782 C28.8141503,1.16165022 28.5853977,0.949251732 28.2496136,0.945120902 C27.6573932,0.937784063 27.0648588,0.950854741 26.47245,0.955417143 C26.0754601,0.954122402 25.6784075,0.952766018 25.2812921,0.951532929 C23.7987949,0.95282767 22.3162976,0.954122402 20.8337376,0.955417143 C20.436685,0.954122402 20.0396324,0.95282767 19.6425797,0.951532929 C18.1600825,0.95282767 16.6775225,0.954122402 15.1949625,0.955417143 C14.7979099,0.954122402 14.4008573,0.95282767 14.0038674,0.951532929 C12.5213074,0.95282767 11.0387474,0.954122402 9.55618736,0.955417143 C9.15919755,0.954122402 8.76214492,0.952766018 8.36509229,0.951532929 C6.88253229,0.95282767 5.39997229,0.954122402 3.91747506,0.955417143 C3.52042243,0.954122402 3.12343257,0.95282767 2.72631716,0.951532929 C2.34219621,0.947710375 1.9579497,0.93722917 1.5739543,0.942099848 C1.17853382,0.94709383 0.949467409,1.15215549 0.934150282,1.54088481 C0.9192098,1.91703669 0.940929991,2.29454496 0.946642527,2.67137504 C0.9187076,3.06337203 0.908035828,3.45530737 0.954991618,3.84681113 C0.904332095,5.30024571 0.920402527,6.75380361 0.946579755,8.20742316 C0.9187076,8.60009835 0.908035828,8.99265027 0.954991618,9.38483214 C0.904332095,10.8382668 0.920402527,12.2918246 0.946516973,13.7453826 C0.918770373,14.1380578 0.908035828,14.5307329 0.954991618,14.9229149 C0.902888268,15.1344503 0.937916782,15.3494382 0.928626064,15.5626382 C0.922913527,15.6938998 0.988136882,15.7422367 1.11783028,15.7413736 C2.34338894,15.7332352 3.56888483,15.7278096 4.79444348,15.7215209 C5.19055449,15.7236171 5.58672826,15.725775 5.98283927,15.7279329 L5.98283927,15.7279329 Z M-6.27751185e-06,16.0883013 C-6.27751185e-06,15.6979074 -6.27751185e-06,15.3074517 -6.27751185e-06,14.9170578 C-6.27751185e-06,13.4614653 -6.27751185e-06,12.0058728 -6.27751185e-06,10.5502803 C-6.27751185e-06,10.1598863 -6.27751185e-06,9.76943071 -6.27751185e-06,9.378975 C-6.27751185e-06,7.92344421 -6.27751185e-06,6.46779007 -6.27751185e-06,5.01225925 C-6.27751185e-06,4.62180361 -6.27751185e-06,4.23140963 -6.27751185e-06,3.84095398 C0.00363467943,3.13606226 0.0406092249,2.42950587 0.00313247847,1.72683369 C-0.0567549856,0.606763007 0.803954679,-0.0394956391 1.7323987,0.0137118797 C2.43673554,0.0540336842 3.14590606,0.0127870677 3.85294224,0.00779308271 C4.25062262,0.00927278196 4.64824023,0.0107524812 5.04592061,0.0122321804 C6.52785286,0.0107524812 8.00978511,0.00927278196 9.49165455,0.00779308271 C9.889335,0.00927278196 10.2870154,0.0107524812 10.6846957,0.0122321804 C12.1665652,0.0107524812 13.6484975,0.00927278196 15.1304297,0.00779308271 C15.5280473,0.00927278196 15.9257277,0.0107524812 16.3234081,0.0122321804 C17.8053404,0.0107524812 19.2872725,0.00927278196 20.7691421,0.00779308271 C21.1668225,0.00927278196 21.5645028,0.0107524812 21.9621205,0.0122321804 C23.4439271,0.0107524812 24.925671,0.00927278196 26.407415,0.00779308271 C26.8054092,0.00927278196 27.2033407,0.0107524812 27.6012722,0.0121705263 C27.8083045,0.0164246617 28.0153369,0.0204938346 28.2223692,0.0248712782 C29.0999654,0.0433058646 29.7172332,0.642214136 29.749939,1.50586526 C29.7560909,1.66795398 29.7654445,1.82985774 29.7732914,1.99188481 C29.7399577,2.40533745 29.7319853,2.81866677 29.7806988,3.23162617 C29.7189281,3.56720963 29.7537055,3.90587579 29.7539566,4.24275398 C29.7547726,5.33853293 29.7660722,6.43418857 29.7732914,7.52990587 C29.7399577,7.94342015 29.7319853,8.35668782 29.7806988,8.76964721 C29.7189281,9.10535402 29.7537055,9.44395848 29.7539566,9.7808983 C29.7547726,10.876554 29.7660722,11.9722713 29.7732914,13.0679886 C29.7399577,13.4814412 29.7319853,13.8947705 29.7806988,14.3077299 C29.7195558,14.6229059 29.7542705,14.9412262 29.7537055,15.2578202 C29.7517595,16.3955239 29.7587275,17.5332893 29.7622429,18.6709931 C29.7587275,18.8233404 29.7554632,18.9756879 29.7513828,19.1280352 C29.7277166,20.0189991 29.0944412,20.6328893 28.1901655,20.6423224 C28.0557013,20.6436788 27.9211742,20.6475013 27.7866471,20.6502141 C26.3045894,20.6512006 24.8225943,20.6521871 23.3404737,20.6531119 C22.9429189,20.6521871 22.5454268,20.6512006 22.147872,20.6502141 C21.1368159,20.6471931 20.1256971,20.6449736 19.114641,20.6397946 C18.9873958,20.639178 18.8957442,20.6460217 18.8981924,20.8140292 C18.9060393,21.3565855 18.9038422,21.8993269 18.899134,22.4420066 C18.8980668,22.5740081 18.9478475,22.6245646 19.081433,22.6216051 C19.4979459,22.612357 19.9146471,22.6095209 20.3313484,22.604157 C20.6216833,22.6486096 20.9479255,22.5436126 21.1868477,22.8023134 C21.3574077,23.2802563 21.1846505,23.5279209 20.674791,23.5380321 C20.5818211,23.5399435 20.4889139,23.5469104 20.395944,23.5515345 C19.9982635,23.5504246 19.6005832,23.5493149 19.2029028,23.5482051 C17.7210334,23.5493149 16.2391011,23.5504246 14.7571688,23.5515345 C14.3595513,23.5504246 13.9618708,23.5493149 13.5641905,23.5482051 L9.11889591,23.5514728 C8.82040023,23.5593029 8.59133382,23.4574503 8.48423946,23.16336 C8.54249477,22.7606352 8.62485574,22.6796833 9.05379813,22.604157 C9.45091355,22.60576 9.84796618,22.6074246 10.244956,22.6090277 C10.3702552,22.6084112 10.4954915,22.6077329 10.6207906,22.607178 C10.665361,22.6109389 10.6772883,22.5878187 10.6702575,22.5492231 C10.6701946,22.4263464 10.6701319,22.3034697 10.6700691,22.1806547 C10.6686253,21.7899525 10.6671187,21.3992503 10.6656121,21.0085479 C10.6671187,20.9064488 10.6686253,20.8042262 10.6701319,20.7021269 C10.6782299,20.6622983 10.6605273,20.6466382 10.6209162,20.6515705 C9.22203545,20.6520638 7.82315468,20.6526187 6.42427392,20.6531119 L5.23160942,20.6502141 C4.11942262,20.6471931 3.00723583,20.6415209 1.89511181,20.6425074 C1.59303794,20.6428156 1.29297286,20.6391164 0.998369227,20.5650697 C0.722409799,20.4338081 0.47890511,20.2608066 0.281602909,20.0282472 C0.0659075981,19.6974728 0.0045135311,19.3338983 0.00733841148,18.9452923 C0.0142436746,17.9930442 0.00357190431,17.0407345 -6.27751185e-06,16.0883013 L-6.27751185e-06,16.0883013 Z" id="Fill-1" fill="#2626BC" fill-rule="nonzero" mask="url(#mask-2)"></path>
            </g>
            <path d="M21.0889875,6.44720993 C21.7102102,6.4542385 22.3316211,6.47298136 22.9525297,6.46250015 C23.199801,6.45830767 23.2732478,6.53186105 23.2672215,6.77255879 C23.2526576,7.35241594 23.2657148,7.93282797 23.2676608,8.51299338 C23.2077734,8.92336331 23.201747,9.3335483 23.2710507,9.74367161 C23.2699207,11.1794731 23.2687908,12.6152746 23.2676608,14.0510761 C23.2077734,14.4613844 23.201747,14.8716926 23.2710507,15.2817543 C23.2651498,15.4477272 23.2591862,15.6137618 23.2533481,15.7797347 C22.4677175,15.7793031 21.6820241,15.7788716 20.896519,15.77844 L20.8856589,12.2045347 C20.8838385,11.8135242 20.882018,11.4225754 20.8801975,11.0316264 C20.882018,9.57658884 20.8837757,8.12142797 20.8856589,6.66639038 C20.8765565,6.52452421 20.9524516,6.45873925 21.0889875,6.44720993" id="Fill-4" fill="#6583FE" fill-rule="nonzero"></path>
            <path d="M11.2966778,9.37048527 C11.3352845,8.78483263 11.3352845,8.78483263 11.934473,8.74636046 C12.3120654,8.74747022 12.6895949,8.74845669 13.0671873,8.74956646 C13.1191023,8.75264917 13.1710174,8.75782812 13.2230579,8.75856797 C13.677487,8.76504165 13.6767965,8.76479504 13.6776754,9.22609125 C13.6795585,10.2806236 13.6821952,11.3350326 13.6845178,12.3895033 C13.6863383,12.7788492 13.6882215,13.168195 13.6901048,13.5575409 C13.6882215,14.3010281 13.6863383,15.0444537 13.6845178,15.7879409 C12.892233,15.8302356 12.1000738,15.8514446 11.3084167,15.7761033 C11.3045247,15.4869454 11.3005699,15.1977259 11.2966778,14.9085063 C11.297745,13.4336778 11.2987494,11.9587875 11.2998794,10.4839589 C11.2988122,10.1128011 11.2978077,9.74164313 11.2966778,9.37048527" id="Fill-6" fill="#6583FE" fill-rule="nonzero"></path>
            <path d="M18.4509574,15.7755299 C17.6656405,15.7749134 16.8803238,15.7743585 16.0950071,15.7738036 L16.0791877,11.3392066 C16.1241347,11.1200262 15.9914909,10.8424593 16.1349948,10.6898036 C16.2939415,10.5206246 16.5889217,10.6693345 16.8189297,10.6155104 C17.266893,10.6206277 17.7152329,10.6388773 18.1626312,10.625375 C18.3938947,10.6184081 18.4637006,10.6787675 18.4597458,10.9137931 C18.4464375,11.691745 18.4599969,12.4700668 18.4632613,13.2482653 C18.463889,13.6388442 18.4645167,14.0293615 18.4651445,14.4199404 L18.4509574,15.7755299 Z" id="Fill-8" fill="#20C284" fill-rule="nonzero"></path>
            <path d="M8.88210817,12.7588116 C8.88104099,13.7430582 8.87997382,14.7273048 8.87890665,15.7115514 C8.87407295,15.733377 8.86923927,15.7553259 8.86434281,15.7771514 C8.08216483,15.7764116 7.29992405,15.7757334 6.51762052,15.7749319 C6.51040138,15.5900928 6.50318224,15.4052537 6.4959631,15.2204146 C6.53519755,14.8503048 6.50713707,14.480565 6.49075276,14.1107635 C6.50079678,13.4665394 6.52446301,12.8221921 6.51410511,12.1783996 C6.51002473,11.9264807 6.59652885,11.8737664 6.83337937,11.8770341 C7.46822415,11.8860356 8.10338281,11.8691424 8.73841593,11.8625454 C8.88066435,11.8846793 8.87005535,11.989183 8.8706831,12.0921454 C8.8721897,12.3143469 8.87809056,12.5366101 8.88210817,12.7588116" id="Fill-10" fill="#20C284" fill-rule="nonzero"></path>
            <path d="M12.4771451,6.17405141 C12.904267,6.17287369 13.1920909,5.89635488 13.1895172,5.48949925 C13.1870062,5.09879699 12.8948507,4.8171609 12.4938433,4.81893203 C12.1261695,4.82055188 11.7778303,5.14035188 11.7686651,5.48481354 C11.7579934,5.88353083 12.0576817,6.17515488 12.4771451,6.17405141 M21.3952925,3.17691429 C21.3927815,3.58944211 21.6717541,3.88618346 22.0706272,3.89518496 C22.4469641,3.90363158 22.774713,3.57556993 22.7752795,3.1898 C22.7758429,2.80705112 22.4614651,2.49255338 22.0689323,2.4831203 C21.7114907,2.47442707 21.3977407,2.7976797 21.3952925,3.17691429 M16.5729078,7.36470978 C16.5690157,7.75171279 16.8820125,8.06769022 17.2798185,8.07817143 C17.6115222,8.08692631 18.0108975,7.71330226 18.0085948,7.39633835 C18.0058755,7.02431729 17.6370088,6.66407218 17.2609231,6.66621087 C16.8923076,6.66838797 16.5767998,6.98874286 16.5729078,7.36470978 M7.11332502,8.9423158 C7.21514625,9.25120304 7.47610243,9.31285714 7.75218741,9.30589027 C8.06719295,9.29799848 8.26813612,9.09102554 8.36418205,8.82301504 C8.4682632,8.53268571 8.37711372,8.26954587 8.11521593,8.07934286 C7.74226894,7.83069173 7.52224215,7.83901504 7.23579927,8.11263609 C6.93504367,8.39994436 6.90202396,8.62362556 7.11332502,8.9423158 M23.6513047,2.66641804 C23.7411359,3.06180602 23.7518077,3.45343308 23.5931122,3.83698346 C23.3956845,4.21806767 23.0952427,4.49785413 22.7143233,4.69847669 C22.3165174,4.79613684 21.9187115,4.86173684 21.5210938,4.6977985 C21.3714379,4.70741654 21.2569989,4.49927218 21.0708706,4.66949925 C20.488757,5.20182105 19.9075849,5.73845864 19.2879945,6.2267594 C18.9378349,6.50272331 18.6849139,6.75513534 18.8929506,7.21772631 C19.0026815,8.36184211 18.0139106,9.03794134 17.1380722,9.00205866 C16.2209277,8.80834136 15.6834471,8.28341804 15.6310926,7.33530075 C15.6260079,7.24306617 15.5753484,7.19066015 15.4867099,7.15958646 C15.2637326,7.08140903 15.0428898,6.99725112 14.8212308,6.91543609 C14.5568848,6.79089474 14.2892745,6.67461504 14.0037105,6.60383609 C13.862027,6.48860451 13.7437587,6.53694136 13.6190245,6.64249323 C12.936659,7.21994587 12.2814123,7.27278346 11.5475084,6.8015609 C11.4441177,6.73522105 11.3899428,6.7574782 11.3036898,6.81444662 C10.6918835,7.21852782 10.0801399,7.62328721 9.45967064,8.01429774 C9.29212391,8.11991128 9.29149609,8.25801654 9.306876,8.41110376 C9.36017209,8.93984964 9.22351064,9.389 8.81748119,9.76848116 C8.1929943,10.351976 7.27126722,10.3924827 6.61382339,9.8359925 C6.55117382,9.78296991 6.48676655,9.73198196 6.42317535,9.6800075 C6.29768788,9.45435339 6.17220042,9.22863759 6.04671295,9.00298348 C6.02392559,8.47374436 6.08023487,7.97693534 6.47546703,7.55651579 C6.8320297,7.17721954 7.24301841,6.98387218 7.76894836,7.03122255 C7.86141612,7.03960752 7.95545325,7.03023609 8.04873707,7.02894136 C8.16248559,7.07493534 8.27918454,7.11494887 8.38941765,7.16803308 C8.82018052,7.37562255 8.97096635,7.34596692 9.30580882,6.97801504 C9.67116,6.80710978 9.97781645,6.54057895 10.331366,6.35586316 C10.7213878,6.15203459 11.0164308,5.92823007 10.8680933,5.43641504 C10.8195053,4.64280301 11.5731206,3.9181203 12.3763283,3.8941985 C13.412871,3.9040015 14.0406223,4.47054136 14.1259336,5.48419699 C14.1360405,5.60417594 14.1742705,5.66361053 14.2887723,5.70479549 C14.463036,5.76743609 14.6260003,5.86170526 14.818406,5.86639097 C15.0567004,6.06078646 15.3653028,6.10412932 15.6341686,6.23292481 C15.8288343,6.33181804 15.9767325,6.34846466 16.1825721,6.17934737 C16.7027267,5.75189925 17.3060585,5.6079985 17.9530188,5.9054797 C18.115418,5.98008121 18.2037426,5.95122707 18.3307367,5.8390782 C18.9798315,5.26631128 19.6395352,4.70513534 20.2978578,4.14260301 C20.4875643,3.98057594 20.5818525,3.84210075 20.4904519,3.54807218 C20.2642104,2.82036842 20.74444,1.95585413 21.4549288,1.68981654 C22.2320221,1.39874737 23.1022735,1.70584662 23.4912282,2.40691579 C23.5404439,2.49569774 23.5977575,2.5800406 23.6513047,2.66641804" id="Fill-12" fill="#6583FE" fill-rule="nonzero"></path>
            <path d="M5.52400337,18.7071717 C5.28445351,18.7000815 5.06938595,18.4823191 5.06875555,18.2460604 C5.06813045,17.9905657 5.29047993,17.7898815 5.55959686,17.8030754 C5.82193408,17.8159612 6.00015265,18.0075206 5.99054805,18.2664679 C5.98138289,18.5112965 5.76644088,18.7143853 5.52400337,18.7071717" id="Fill-14" fill="#DBE3FF" fill-rule="nonzero"></path>
            <path d="M3.66901114,18.0486624 C3.7513721,17.9709165 3.8336075,17.8932323 3.91596846,17.8155481 C4.14585095,17.7746714 4.3589097,17.7931677 4.49544559,18.0093271 C4.59802014,18.171724 4.59299813,18.3448488 4.48263946,18.5009571 C4.37372463,18.6550308 4.21703794,18.7342564 4.02256061,18.6922083 C3.82205688,18.6489271 3.68407716,18.5297496 3.65601669,18.3225301 C3.64396386,18.2334398 3.66367525,18.1400954 3.66901114,18.0486624" id="Fill-16" fill="#DBE3FF" fill-rule="nonzero"></path>
            <path d="M2.78629879,18.7093974 C2.48077229,18.7214817 2.27625095,18.5972486 2.20443621,18.2937869 C2.22421037,17.9722606 2.39640253,17.8008621 2.7252186,17.7837839 C3.02440483,17.857214 3.14970396,18.0537674 3.13896942,18.3467479 C3.07663372,18.5195027 2.95265286,18.6343027 2.78629879,18.7093974" id="Fill-18" fill="#DBE3FF" fill-rule="nonzero"></path>
        </g>
    </g>
</svg>