<?xml version="1.0" encoding="UTF-8"?>
<svg width="31px" height="29px" viewBox="0 0 31 29" version="1.1" xmlns="http://www.w3.org/2000/svg" xmlns:xlink="http://www.w3.org/1999/xlink">
    <title>education</title>
    <g id="Page-1" stroke="none" stroke-width="1" fill="none" fill-rule="evenodd">
        <g id="education" transform="translate(0.500000, 0.912053)" fill-rule="nonzero">
            <g id="Group-3" transform="translate(0.398438, 0.312074)" fill="#2626BC">
                <path d="M14.2723667,18.3911779 C10.0187298,18.3911779 5.76509287,18.3909964 1.51139581,18.3914806 C1.10317234,18.3915412 0.875980296,18.5666151 0.882435337,18.8703915 C0.889401175,19.171141 1.1245976,19.3503921 1.52313157,19.3511186 C1.9834738,19.3520872 2.44387621,19.3466389 2.90427864,19.3467599 C10.9011376,19.3482128 18.8979966,19.3500894 26.8948556,19.3517241 C27.3793313,19.351845 27.6224118,19.1928134 27.6270079,18.8743265 C27.6315596,18.542824 27.4080388,18.3912385 26.9132115,18.3911779 C22.6995965,18.3911174 18.4859816,18.3911779 14.2723667,18.3911779 M14.2865097,0.927123344 C10.7133657,0.927123344 7.14022161,0.927062804 3.56713775,0.927183876 C2.83645203,0.927183876 2.10576631,0.923188417 1.37520095,0.93087666 C1.08602009,0.933903519 0.884646695,1.13579556 0.881201147,1.39344249 C0.878146896,1.63383627 1.06814564,1.8436587 1.3303042,1.87961788 C1.41889405,1.89178588 1.5100116,1.88682183 1.60004585,1.88682183 C2.91119972,1.88718505 4.22235358,1.88706397 5.53344727,1.88706397 L21.1472279,1.88706397 C23.1089635,1.88706397 25.0706389,1.88821418 27.0324346,1.8859743 C27.3999742,1.88561108 27.6348095,1.68583785 27.6313949,1.39350302 C27.6278283,1.10673763 27.4053907,0.928213015 27.0476009,0.928152475 C22.7939038,0.927910323 18.5402068,0.927970863 14.2865097,0.927123344 M2.5099575,14.53616 C2.50430028,15.4617154 2.50129111,16.3872708 2.49063866,17.3128263 C2.48883316,17.4708287 2.56418268,17.4936513 2.69357682,17.4911087 C3.14344716,17.4822097 3.59343786,17.4798488 4.04336838,17.4750058 C4.42493064,17.4765193 4.80643272,17.4779116 5.18799499,17.4793645 C6.60838159,17.4779116 8.02882837,17.4765193 9.44927517,17.4750058 C9.83083739,17.4765193 10.2123997,17.4779116 10.5939018,17.4793645 C11.9943676,17.478517 13.3948336,17.4776695 14.7952995,17.4768219 C15.1968426,17.4776695 15.5983256,17.478517 15.9998687,17.4793645 C17.4203155,17.4779116 18.840702,17.4765193 20.2611488,17.4750058 C20.6427111,17.4765193 21.0242132,17.4779116 21.4057755,17.4793645 C22.8462032,17.4779116 24.2866307,17.4763981 25.7269982,17.4748847 C25.9800691,17.536875 26.06902,17.438865 26.0024573,17.1891484 C26.0337526,15.7408531 26.0252667,14.2924972 26.0070914,12.8441413 C26.0055868,12.4799487 26.0040221,12.1156349 26.0024573,11.7513212 C26.0337526,10.3030864 26.0252667,8.85479098 26.0070914,7.40643506 C26.0055868,7.04218188 26.0040221,6.67786815 26.0024573,6.31361496 C26.0081747,5.19082888 26.0126884,4.0680428 26.0210539,2.94531726 C26.0220169,2.81703862 25.9759165,2.76146534 25.8468834,2.76848768 C25.569017,2.78362201 25.2892248,2.74088265 25.012562,2.79609271 C24.6297359,2.75056862 24.2464884,2.76116266 23.8631207,2.78773855 C22.8334443,2.7815032 21.8037076,2.77096971 20.773971,2.77127239 C20.384946,2.77145401 19.9946571,2.73936921 19.606595,2.79609271 C19.2237689,2.75056862 18.8405215,2.76116266 18.457214,2.78773855 C17.4274773,2.7815032 16.3977406,2.77096971 15.3680642,2.77127239 C14.9790392,2.77145401 14.5886901,2.73936921 14.2006883,2.79609271 C13.817802,2.75056862 13.4346148,2.76116266 13.051247,2.78773855 C12.0215705,2.7815032 10.9918339,2.77096971 9.9621574,2.77127239 C9.57313243,2.77145401 9.18284356,2.73936921 8.79478151,2.79603217 C8.4119554,2.75062916 8.02864782,2.76110212 7.64534023,2.78773855 C6.61560359,2.7815032 5.58586694,2.77096971 4.55619047,2.77127239 C4.16716548,2.77145401 3.77681644,2.73936921 3.38881457,2.79609271 C3.15217374,2.74045888 2.91186173,2.78658834 2.67401724,2.76921412 C2.52265618,2.75819633 2.48636564,2.83495768 2.49262471,2.96959272 C2.50321697,3.1997557 2.50466137,3.43034244 2.5099575,3.66068703 C2.47872236,5.08894453 2.48781004,6.51720205 2.50508265,7.9455201 C2.50670761,8.32987169 2.50833255,8.71410219 2.5099575,9.09845378 C2.47872236,10.5267112 2.48781004,11.9549688 2.50508265,13.3832264 C2.50670761,13.7675779 2.50833255,14.1518689 2.5099575,14.53616 M7.68692691,20.4469655 C7.76516523,20.3280097 7.81908949,20.2278809 7.59412423,20.2336319 C7.29417054,20.2411991 6.99379558,20.2376274 6.69372154,20.2333898 C6.59321539,20.2319369 6.52617117,20.2578468 6.48235771,20.3584599 C6.19576473,21.0161982 5.90453763,21.6719387 5.61481512,22.3283451 C5.19178654,23.2480284 4.76984127,24.168317 4.34446555,25.0869106 C4.28699047,25.2111333 4.32508651,25.2440656 4.44900397,25.2424916 C4.75882772,25.2384961 5.06895238,25.2356509 5.37859558,25.2438235 C5.50413799,25.247153 5.55421051,25.1798355 5.59808415,25.0823098 C6.29374318,23.5369731 6.99042531,21.9919996 7.68692691,20.4469655 M22.2685636,20.9333831 C22.0260248,20.2347821 22.0260248,20.2347821 21.303825,20.2347821 C21.1746113,20.2347821 21.0453375,20.2377485 20.9162443,20.2340557 C20.791063,20.230484 20.7222735,20.2504008 20.7947944,20.4008361 C20.9977928,20.8218128 21.1927265,21.2467243 21.39085,21.670062 C21.4832314,21.9433881 21.6067878,22.2023668 21.7453899,22.4544443 C22.1090778,23.2697613 22.4871494,24.079085 22.8286296,24.9037247 C22.9464084,25.1880686 23.0942186,25.3027868 23.3859873,25.2242094 L24.2058647,25.2242094 C24.1400242,25.0027638 24.0561888,24.8035959 23.933776,24.6211969 C23.8742546,24.4729409 23.8216544,24.3213554 23.7540685,24.1769134 C23.3549327,23.3237001 23.0074342,22.4460902 22.5654479,21.6130358 C22.5014731,21.3710681 22.3909163,21.1495619 22.2685636,20.9333831 M23.4477354,26.1521258 C23.1104681,26.0961287 22.7582151,26.2151451 22.4291327,26.0638623 C22.2310092,25.8208654 22.1403129,25.5215082 22.0104373,25.2435208 C21.6988081,24.5763993 21.3964471,23.9048585 21.0902945,23.2351944 C20.9569884,22.9481869 20.8236823,22.6613004 20.6903763,22.3743534 C20.394816,21.7080795 20.0976308,21.0424714 19.8053204,20.3747445 C19.7619884,20.2758265 19.6968701,20.2427125 19.5969055,20.2448313 C19.2187135,20.2529434 18.8405817,20.2583917 18.4623897,20.2648087 C18.0820913,20.2048161 17.7001077,20.2411991 17.318726,20.2441049 C15.8979181,20.2440444 14.4771704,20.2439838 13.0563626,20.2439233 C12.6751614,20.2439838 12.2939602,20.2440444 11.9127591,20.2441049 C10.9234657,20.2445286 9.93411199,20.2496138 8.94487873,20.2411991 C8.75686602,20.2395646 8.71570063,20.3564016 8.65702189,20.4861332 C7.88071721,22.2038197 7.09430174,23.9170266 6.33195959,25.641009 C6.17102938,26.0047779 5.96369784,26.1655045 5.55968719,26.146072 C4.94142392,26.1163482 4.32069313,26.1401999 3.70098546,26.1376573 C3.19839453,26.135599 3.02253886,25.8524659 3.22890748,25.3842701 C3.35023706,25.1090674 3.47186755,24.8339856 3.59319712,24.5588434 C3.90861792,23.8573972 4.25689881,23.1707222 4.53416338,22.4519623 C4.85000545,21.773036 5.16386148,21.0931411 5.48331455,20.4159099 C5.55649747,20.2608738 5.50461945,20.2315737 5.35464261,20.2326634 C4.33796574,20.2398067 3.32122869,20.240957 2.30449164,20.2439838 C1.90330961,20.2365377 1.50212758,20.2291522 1.10094555,20.2217666 C0.292322434,19.9558261 -0.0921888137,19.3868356 0.0187290499,18.6204934 C0.108281834,18.001378 0.658838869,17.5074538 1.31465653,17.4995234 C1.56110724,17.4964966 1.6135871,17.4133788 1.60534198,17.1874535 C1.58710644,16.6855989 1.59270349,16.1828968 1.5886712,15.6805579 C1.58662497,15.2981436 1.58457873,14.9158502 1.5825325,14.5334358 C1.61671663,13.1032411 1.60522162,11.6730464 1.5886712,10.2427912 L1.5825325,9.09566904 C1.61671663,7.66553489 1.60522162,6.23527965 1.5886712,4.80508494 C1.58662497,4.42267055 1.58457873,4.0403167 1.5825325,3.65796284 C1.58800919,3.60814061 1.59775889,3.55837892 1.5980598,3.50855668 C1.59932365,3.29764458 1.65258589,3.06614979 1.58373617,2.88084498 C1.4926788,2.63554767 1.21631698,2.79149186 1.0267997,2.74039834 C0.242851743,2.5292441 -0.141719688,1.79008315 0.0798753057,0.878754004 C0.249532092,0.527395271 0.517046961,0.275438853 0.86099465,0.10127292 C1.11226002,0.0239061964 1.37074739,0.0281438103 1.6298366,0.0275384369 C2.81478603,0.0248142566 3.99967529,0.018699985 5.18462472,0.0138569976 C5.56612681,0.0153098938 5.94768907,0.01676279 6.32919116,0.0181551489 C7.74981848,0.01676279 9.17038559,0.0153098938 10.591013,0.0138569976 C10.9722743,0.0153098938 11.3534755,0.01676279 11.7347368,0.0181551489 C13.1554845,0.01676279 14.5762323,0.0153098938 15.9969197,0.0138569976 C16.3781811,0.0153098938 16.7594425,0.01676279 17.1407038,0.0181551489 C18.561271,0.01676279 19.9818381,0.0153098938 21.4024052,0.0138569976 C21.7839675,0.0153098938 22.1654695,0.01676279 22.5470318,0.0181551489 L26.8083722,0.0138569976 C27.1355889,0.0159152672 27.4600973,0.0369217249 27.7706433,0.154666856 C28.4717188,0.658095392 28.700596,1.30875074 28.3914944,1.96679166 C28.1589461,2.4618055 27.7651064,2.7506897 27.2144892,2.75795418 C26.9593721,2.76128373 26.8995499,2.84676246 26.9063506,3.08933559 C26.9257898,3.78230655 26.9201326,4.47588287 26.9243454,5.16921705 C26.9260306,5.5515709 26.9277156,5.93398529 26.929461,6.31633915 C26.8967213,7.74653385 26.9066515,9.1767891 26.9244056,10.6070443 C26.9260907,10.9893982 26.9277759,11.371752 26.929461,11.7540453 C26.8967213,13.1842401 26.9066515,14.6145558 26.9244056,16.0448111 C26.9260907,16.427165 26.9277759,16.8094582 26.929461,17.1918121 C26.8785459,17.3974575 26.9185678,17.4928643 27.16881,17.4979495 C27.9483646,17.5138102 28.5094538,18.0996906 28.5100556,18.8624006 C28.5106574,19.62505 27.9519155,20.2121412 27.1682083,20.2276993 C26.219057,20.2464659 25.269304,20.2330266 24.3197918,20.2358719 C24.1906384,20.2362351 24.0615451,20.2503403 23.9324519,20.2580285 C23.6112535,20.2027579 23.290356,20.2419861 22.9284136,20.2289705 C23.0541967,20.4729966 23.1584342,20.6751308 23.2626115,20.8772045 C23.6758904,21.8780078 24.135691,22.857502 24.5957323,23.8369357 C24.7287375,24.1273332 24.8617426,24.4177309 24.9946876,24.7081285 C25.0933882,24.9379282 25.1914268,25.1679702 25.2909701,25.3974067 C25.4861446,25.8475019 25.3081825,26.1323906 24.8262344,26.1380811 C24.3667348,26.1435294 23.9072351,26.1475249 23.4477354,26.1521258" id="Fill-1"></path>
            </g>
            <path d="M14.684936,1.23961538 C18.9386331,1.24003914 23.1923301,1.23997861 27.4460272,1.24022075 C27.803817,1.24028129 28.0262546,1.41880592 28.0298212,1.70557131 C28.0332358,1.99790613 27.7984006,2.19767935 27.430861,2.19810312 C25.4690653,2.20028246 23.5073898,2.19913226 21.5456542,2.19913226 L5.93193378,2.19913226 C4.62077991,2.19913226 3.30962604,2.19925333 1.99847218,2.1988901 C1.90849811,2.1988901 1.81732038,2.20385416 1.72873053,2.19168616 C1.46657198,2.15572698 1.27657323,1.94590455 1.27962748,1.70551077 C1.28307303,1.44786384 1.48444642,1.24597181 1.77362729,1.24294494 C2.50419264,1.23525669 3.23487836,1.23925215 3.96556408,1.23925215 C7.53864794,1.23913108 11.111792,1.23919162 14.684936,1.23961538" id="Fill-6" fill="#DBE3FF"></path>
            <path d="M14.670805,18.7032522 C18.88442,18.7032522 23.0980349,18.7031917 27.3116499,18.7032522 C27.8064771,18.7033129 28.029998,18.8548984 28.0254463,19.1864008 C28.0208502,19.5048878 27.7777697,19.6639193 27.293294,19.6637984 C19.296435,19.6621637 11.299576,19.6602871 3.302717,19.6588342 C2.84231458,19.6587132 2.38191216,19.6641615 1.92156993,19.6631929 C1.52303597,19.6624664 1.28783954,19.4832154 1.2808737,19.1824659 C1.27441866,18.8786895 1.50161071,18.7036155 1.90983418,18.7035549 C6.16353124,18.7030707 10.4171681,18.7032522 14.670805,18.7032522" id="Fill-8" fill="#DBE3FF"></path>
            <path d="M10.0288412,6.71806928 C10.4306853,6.72448624 10.8324692,6.7309032 11.2343132,6.73732016 C11.2374428,7.94031822 11.2402111,9.14331628 11.2443036,10.3463143 C11.2447249,10.476288 11.2528497,10.6062617 11.2574236,10.7362354 C11.2362992,11.1195578 11.2322669,11.5028803 11.2607939,11.8860211 C11.2550765,13.0000899 11.2384056,14.1142796 11.2512849,15.2282272 C11.2545949,15.5151137 11.1648014,15.5769223 10.8999347,15.5685076 C10.301592,15.5494989 9.70216612,15.5559764 9.10346248,15.5664494 C8.91797747,15.5695973 8.86056259,15.5083941 8.86670128,15.3260556 C8.87627043,15.0457072 8.86170606,14.7645112 8.85743305,14.4836784 C8.87067338,14.1202122 8.89378377,13.756625 8.84335015,13.3940668 C8.8922792,11.9452267 8.87909904,10.4963259 8.8503916,9.0473646 C8.87831666,8.6824455 8.89017278,8.31758693 8.84347052,7.95315213 C8.89926046,7.61517215 8.86501615,7.27464961 8.8670022,6.93551942 C8.86790495,6.77836447 8.91960242,6.72654451 9.07463466,6.72920815 C9.39252293,6.73459597 9.71071217,6.72279119 10.0288412,6.71806928" id="Fill-10" fill="#1DC182"></path>
            <path d="M14.7744226,15.5735322 C14.4360117,15.5157796 14.0799071,15.6313453 13.7523894,15.4677129 C13.5981997,15.3050491 13.5135218,15.1257375 13.6256434,14.9035655 C13.7293994,14.6977991 13.9096484,14.652396 14.1219752,14.6553018 C14.3382139,14.6582681 14.5547534,14.6425285 14.7711727,14.6350218 C15.1331754,14.6741894 15.4955994,14.6612951 15.8580233,14.64271 C16.4883233,14.6476741 17.118563,14.6578444 17.7487426,14.6562098 C18.5589305,14.6540911 19.3690582,14.6424679 20.1791859,14.6349613 C20.5409478,14.6743106 20.9030709,14.6612344 21.2652541,14.6427706 C22.3904415,14.6476741 23.5156289,14.6547569 24.6408163,14.655544 C24.8476664,14.655665 25.0394105,14.672555 25.1778923,14.8508375 C25.3149297,15.3044438 25.1535782,15.5344251 24.6825233,15.5571266 C24.6039842,15.5609404 24.5253848,15.5643911 24.4468455,15.5679023 C23.0246534,15.5501042 21.6025215,15.539147 20.1803895,15.5735927 C19.8006328,15.5717766 19.420876,15.5698394 19.0411193,15.5680233 C17.618867,15.5499227 16.1966147,15.5392075 14.7744226,15.5735322" id="Fill-16" fill="#2626BC"></path>
            <path d="M23.4358082,12.2465029 C23.5864041,12.0952273 23.7368566,11.944096 23.8732514,11.8070843 C23.7273892,11.6596014 23.5757277,11.5062851 23.4385132,11.3675625 C23.2972207,11.5098305 23.1469322,11.6611267 23.0010699,11.8079912 C23.1413994,11.9495377 23.2898231,12.0992468 23.4358082,12.2465029 L23.4358082,12.2465029 Z M21.773106,8.68489917 C21.7204619,8.70318253 21.6885968,8.71381861 21.6570392,8.72525858 C20.9244289,8.99081024 20.1911219,9.25446553 19.4599255,9.52387173 C19.3241863,9.57387784 19.2025046,9.57404274 19.0660278,9.5221197 C18.3471881,9.24863221 17.6255411,8.98260644 16.9047341,8.71437515 C16.8655125,8.69976084 16.8251227,8.68834148 16.7777042,8.67300573 C16.7777042,9.22639125 16.7764746,9.76433797 16.7804911,10.3022228 C16.7807574,10.3383154 16.8135446,10.3824881 16.843504,10.4086454 C17.0290388,10.5705159 17.2472378,10.6758461 17.4785722,10.7500513 C18.5086038,11.080615 19.5532871,11.0989808 20.6057369,10.8806732 C20.977995,10.8034585 21.3311546,10.6726511 21.6479202,10.4531068 C21.7361794,10.3919493 21.7783109,10.3258448 21.7763642,10.2102289 C21.7684952,9.74428188 21.773106,9.27812881 21.773106,8.8120787 L21.773106,8.68489917 Z M15.3792875,7.48646409 C15.4274027,7.5050154 15.452567,7.51497127 15.4779361,7.52443243 C16.7089329,7.98304137 17.9397043,8.44235114 19.1718896,8.89776513 C19.2259885,8.91777993 19.299432,8.91975874 19.3533055,8.90040353 C20.4903668,8.49194497 21.6259322,8.07917837 22.7617641,7.66723628 C22.9216224,7.60925314 23.0814192,7.55104325 23.2608883,7.48578388 C23.2169944,7.46646991 23.1961745,7.45585443 23.1743914,7.4479186 C21.9174928,6.99042274 20.6608194,6.53237034 19.4026093,6.07854352 C19.3516047,6.0601365 19.281399,6.06745396 19.228591,6.08649997 C18.2874129,6.42617441 17.3475463,6.7695385 16.4073927,7.11205748 C16.0719589,7.23426937 15.7365044,7.3563782 15.3792875,7.48646409 L15.3792875,7.48646409 Z M14.1768771,7.39649025 C14.2393573,7.26982605 14.3444403,7.20357727 14.4752614,7.15620959 C16.0372864,6.59074512 17.5981842,6.02216815 19.1584674,5.45188035 C19.2739604,5.40966581 19.3808262,5.4078519 19.4956431,5.44977786 C21.0687747,6.02445615 22.6425415,6.59738236 24.2160624,7.17100941 C24.4259623,7.24752325 24.5146108,7.38799788 24.4668643,7.56466816 C24.4376017,7.67290474 24.366269,7.74123538 24.2643212,7.77889453 C24.1174344,7.83318803 23.9703426,7.88706928 23.8223083,7.93804414 C23.7718364,7.95539992 23.746119,7.97644535 23.7463034,8.03807692 C23.7488443,8.92596312 23.7474918,9.81386989 23.7509755,10.7017974 C23.7511394,10.7424659 23.7791316,10.7916063 23.8089475,10.8222778 C24.0448721,11.0648877 24.2846083,11.3037461 24.5226846,11.5442328 C24.691047,11.7143071 24.6916823,11.8829797 24.5231149,12.0537961 C24.2854075,12.2946745 24.0447697,12.5326466 23.8097672,12.7761222 C23.7765085,12.8105657 23.752328,12.8685694 23.7506476,12.9166174 C23.7439877,13.1083554 23.7490083,13.3004851 23.7475533,13.4924499 C23.7460779,13.6849094 23.6198061,13.8221479 23.4448657,13.8247962 C23.2664827,13.8273422 23.1359279,13.6882487 23.1343296,13.4904093 C23.1328336,13.3052879 23.1302516,13.1200427 23.1362968,12.9351068 C23.1387763,12.8589434 23.11269,12.8085251 23.0603329,12.7570143 C22.8264574,12.5268956 22.5957173,12.2934995 22.3650795,12.0600829 C22.1859178,11.8787954 22.1870244,11.7176257 22.3670058,11.5359466 C22.602787,11.2979745 22.8402485,11.0616927 23.0738371,10.8215975 C23.103653,10.7909467 23.1316861,10.7418476 23.13185,10.7011789 C23.1351902,9.88527187 23.1343501,9.06936473 23.1341042,8.25343699 C23.1341042,8.23709123 23.1311943,8.22076607 23.1284688,8.19207339 C22.8892655,8.27876983 22.6556769,8.36082844 22.4252646,8.45102903 C22.4027848,8.45983059 22.3893421,8.5187413 22.3891986,8.55446287 C22.3870265,9.15439155 22.3823133,9.75440267 22.390838,10.3542076 C22.393461,10.5386283 22.334403,10.6758255 22.2000163,10.7957907 C21.8639267,11.0958271 21.4690658,11.2809898 21.0437129,11.4074066 C20.3021886,11.6277343 19.5425288,11.6654347 18.7763936,11.6231171 C18.233273,11.5931258 17.7005624,11.5049247 17.1910897,11.3039522 C16.8780535,11.1804623 16.5878045,11.0190041 16.3396257,10.7863707 C16.2183333,10.6726511 16.1581688,10.5434722 16.1603819,10.3697702 C16.1681689,9.75965885 16.1618574,9.14936208 16.1653205,8.53916835 C16.1657714,8.46053142 16.1405866,8.4276956 16.0679629,8.40116723 C15.5339408,8.20608993 15.0027671,8.00317984 14.4683147,7.80931869 C14.336223,7.76141508 14.2316932,7.69425935 14.1768771,7.56106097 L14.1768771,7.39649025 Z" id="Fill-1" stroke="#2626BC" stroke-width="0.4" fill="#2626BC"></path>
            <path d="M4.49759067,13.3961856 C4.496387,13.03278 4.49518333,12.6693743 4.49397967,12.3059686 C4.49825269,11.1495238 4.51215503,9.99289735 4.49993782,8.83663411 C4.49698883,8.55628567 4.5761299,8.47910057 4.84948255,8.48836277 C5.44878808,8.50864278 6.04935746,8.50155992 6.64914445,8.49072374 C6.84287457,8.48721257 6.91515473,8.54242262 6.90745127,8.74413304 C6.89505351,9.06528365 6.90889567,9.38746335 6.91160392,9.70927989 C6.91298814,10.0926628 6.91437236,10.4760459 6.91569638,10.8594894 C6.91437236,12.2885944 6.91298814,13.71776 6.91160392,15.1469861 C6.89619699,15.5589427 6.89619699,15.5589427 6.48562637,15.5735927 C5.90515822,15.5708686 5.32456971,15.561909 4.74422192,15.5691735 C4.56192664,15.5714134 4.50120167,15.5152953 4.50312754,15.3290219 C4.50980789,14.6848441 4.50066002,14.0404845 4.49759067,13.3961856" id="Fill-18" fill="#6583FE"></path>
        </g>
    </g>
</svg>