<svg xmlns="http://www.w3.org/2000/svg" width="39" height="39" viewBox="0 0 39 39">
    <g fill="none" fill-rule="evenodd">
        <g>
            <g>
                <path fill="#6583FE" d="M25.87 11.35l-7.26 7.26c-.492.492-.492 1.289 0 1.78.245.245.568.368.89.368.32 0 .643-.123.889-.369l7.26-7.26 4.215 1.884c.581.194 1.222.043 1.655-.39l5.006-5.006c.85-.85.508-2.296-.632-2.676l-4.377-1.459-1.458-4.376C31.824.4 31.18 0 30.52 0c-.405 0-.815.151-1.138.474L24.377 5.48c-.433.434-.584 1.074-.391 1.655l1.884 4.216z" transform="translate(-100 -484) translate(100 484)"/>
                <path fill="#2F3842" fill-rule="nonzero" d="M38.09 13.61l-2.058 2.06c.285 1.233.452 2.511.452 3.83 0 9.365-7.62 16.984-16.984 16.984-9.365 0-16.984-7.62-16.984-16.984 0-9.365 7.62-16.984 16.984-16.984 1.32 0 2.598.166 3.83.452L25.39.91C23.483.306 21.497 0 19.5 0 8.73 0 0 8.73 0 19.5S8.73 39 19.5 39 39 30.27 39 19.5c0-2.053-.322-4.03-.91-5.89zM21.6 7.93c-.123-.367-.194-.75-.211-1.136-.622-.09-1.242-.19-1.889-.19-7.128 0-12.895 5.77-12.895 12.896 0 7.128 5.768 12.895 12.895 12.895 7.128 0 12.895-5.768 12.895-12.895 0-.657-.098-1.286-.192-1.915-.385-.017-.768-.063-1.134-.184-.166-.056.08.048-1.626-.714.255.9.436 1.832.436 2.813 0 5.723-4.656 10.379-10.379 10.379S9.121 25.223 9.121 19.5 13.777 9.121 19.5 9.121c.981 0 1.912.18 2.813.436-.762-1.706-.658-1.459-.714-1.627z" transform="translate(-100 -484) translate(100 484)"/>
                <path fill="#FFF" d="M30.133 3.283L31.132 6.278 31.529 7.471 32.723 7.869 35.718 8.868 32.185 12.401 28.325 10.676 26.601 6.816z" transform="translate(-100 -484) translate(100 484)"/>
                <path fill="#6583FE" d="M19.5 13.21c-3.468 0-6.29 2.822-6.29 6.29s2.822 6.29 6.29 6.29 6.29-2.822 6.29-6.29c0-.296-.048-.58-.087-.866l-3.534 3.535-.001-.001c-.684.683-1.628 1.106-2.668 1.106-2.081 0-3.774-1.693-3.774-3.774 0-1.04.423-1.984 1.106-2.668l3.534-3.535c-.286-.04-.57-.087-.866-.087z" transform="translate(-100 -484) translate(100 484)"/>
            </g>
        </g>
    </g>
</svg>
