<svg xmlns="http://www.w3.org/2000/svg" width="224.75" height="23.6" viewBox="0 0 224.75 23.6"><title>Asset 25MEERA LOGO </title><g id="Layer_2" data-name="Layer 2"><g id="Layer_1-2" data-name="Layer 1"><path d="M35.63,20.46l-6.44-8.93V21.77H26.07V2.13l9.56,13.15L45.19,2.06V21.77H41.87V11.69l-.11,0Z" fill="#666"/><path d="M90.61,14.44l4.64,7.34-.43,0c-1,0-2,0-2.95,0a.67.67,0,0,1-.63-.34c-1.23-1.94-2.49-3.87-3.72-5.81a.73.73,0,0,0-.73-.4c-.66,0-1.33,0-2,0-.38,0-.5.08-.5.48,0,1.83,0,3.67,0,5.51v.51h-3.1V2.88a1.47,1.47,0,0,1,.27,0c2,0,3.91,0,5.86,0a7,7,0,0,1,3.08.8,5.43,5.43,0,0,1,3,4.58,7,7,0,0,1-.86,4.23A5.6,5.6,0,0,1,90.61,14.44Zm-6.3-5.38c0,.95,0,1.91,0,2.86,0,.23,0,.4.31.39,1,0,2,0,3-.07A3.13,3.13,0,0,0,90.3,9.09a3.06,3.06,0,0,0-2.65-3.2c-1-.1-2,0-3-.09-.27,0-.31.12-.31.35C84.32,7.12,84.31,8.09,84.31,9.06Z" fill="#666"/><path d="M60.42,10.84v2.95H52.1v5.06h9.77c0,.94,0,1.84,0,2.73,0,.08-.14.17-.23.22s-.17,0-.26,0H48.91V2.88H61.44V5.72H52.09v5.12Z" fill="#666"/><path d="M77.6,2.87V5.71H68.24v5.12h8.31v2.95h-8.3v5.06H78v2.93H65.06V2.87Z" fill="#666"/><path d="M114,21.81c-1,0-2,0-2.93,0-.12,0-.29-.19-.36-.33q-.9-2.12-1.77-4.24a.51.51,0,0,0-.55-.4c-1.93,0-3.85,0-5.78,0a.49.49,0,0,0-.54.36c-.58,1.43-1.19,2.86-1.77,4.29a.47.47,0,0,1-.51.35c-.89,0-1.79,0-2.79,0L105.5,2ZM105.5,8.9l-2.16,5.23h4.3Z" fill="#666"/><path d="M127.52,21.69h-1.61V2.6h1.61Z" fill="gray"/><path d="M146.91,21.69H145.3l-11-16.33V21.69H132.7V2.6h1.63l11,16.35V2.6h1.6Z" fill="gray"/><path d="M162.57,17a3.46,3.46,0,0,0-.26-1.4,2.94,2.94,0,0,0-.86-1.11,6.32,6.32,0,0,0-1.61-.92,21,21,0,0,0-2.49-.84,22.24,22.24,0,0,1-2.59-.89,7.94,7.94,0,0,1-2-1.12,4.6,4.6,0,0,1-1.25-1.48,4.24,4.24,0,0,1-.44-2,4.38,4.38,0,0,1,.47-2,4.68,4.68,0,0,1,1.33-1.55,6.33,6.33,0,0,1,2-1,8.84,8.84,0,0,1,2.58-.36,7.76,7.76,0,0,1,2.72.45A6.07,6.07,0,0,1,162.31,4a5.23,5.23,0,0,1,1.31,1.81A5.35,5.35,0,0,1,164.08,8h-1.63a4.62,4.62,0,0,0-.32-1.72,3.78,3.78,0,0,0-1-1.37,4.46,4.46,0,0,0-1.55-.9,6.17,6.17,0,0,0-2.1-.33,6.93,6.93,0,0,0-2.08.28,4.64,4.64,0,0,0-1.49.76A3.24,3.24,0,0,0,153,5.88a3.18,3.18,0,0,0-.3,1.36A3,3,0,0,0,153,8.5a2.93,2.93,0,0,0,.86,1.07,6.47,6.47,0,0,0,1.59.92,18.39,18.39,0,0,0,2.42.81,22.77,22.77,0,0,1,2.69.91,8.05,8.05,0,0,1,2,1.18,4.55,4.55,0,0,1,1.24,1.55,4.66,4.66,0,0,1,.42,2,4.52,4.52,0,0,1-.49,2.1,4.65,4.65,0,0,1-1.37,1.56,6.37,6.37,0,0,1-2.08,1,10.09,10.09,0,0,1-4.33.19,8.36,8.36,0,0,1-1.65-.44,6.43,6.43,0,0,1-1.48-.75,5,5,0,0,1-2-2.55,5.57,5.57,0,0,1-.29-1.83h1.61a4,4,0,0,0,.5,2,4.11,4.11,0,0,0,1.28,1.34,5.58,5.58,0,0,0,1.77.74,8.34,8.34,0,0,0,2,.23,7.58,7.58,0,0,0,2-.25,4.89,4.89,0,0,0,1.56-.73,3.32,3.32,0,0,0,1-1.13A3.08,3.08,0,0,0,162.57,17Z" fill="gray"/><path d="M169.64,21.69H168V2.6h1.61Z" fill="gray"/><path d="M188.6,19.43a5.76,5.76,0,0,1-.75.8,5.91,5.91,0,0,1-1.31.82,9.1,9.1,0,0,1-1.95.64A11.35,11.35,0,0,1,182,22a7.83,7.83,0,0,1-3.1-.61,6.9,6.9,0,0,1-2.42-1.75,8,8,0,0,1-1.58-2.74,10.83,10.83,0,0,1-.56-3.62V10.92a11.59,11.59,0,0,1,.51-3.56,7.72,7.72,0,0,1,1.47-2.7,6.74,6.74,0,0,1,2.33-1.72,7.59,7.59,0,0,1,3.08-.6,8.34,8.34,0,0,1,2.81.43A6.16,6.16,0,0,1,186.58,4a5.75,5.75,0,0,1,1.35,1.79A7.55,7.55,0,0,1,188.59,8H187a6.53,6.53,0,0,0-.49-1.63,4.36,4.36,0,0,0-1-1.35,4.76,4.76,0,0,0-1.55-.94,6.4,6.4,0,0,0-2.22-.34,5.55,5.55,0,0,0-2.48.52,5.14,5.14,0,0,0-1.82,1.45A6.56,6.56,0,0,0,176.3,8a10.79,10.79,0,0,0-.38,2.94v2.35a9.86,9.86,0,0,0,.43,3,6.84,6.84,0,0,0,1.23,2.32,5.42,5.42,0,0,0,1.91,1.48,5.74,5.74,0,0,0,2.48.52,10.2,10.2,0,0,0,1.94-.16,8.49,8.49,0,0,0,1.45-.41,5.32,5.32,0,0,0,1-.54,3.42,3.42,0,0,0,.61-.55V14h-5.13V12.63h6.74Z" fill="gray"/><path d="M207.33,21.69H205.7V12.54H194.79v9.15h-1.61V2.6h1.61v8.58H205.7V2.6h1.63Z" fill="gray"/><path d="M224.75,4h-6.54V21.69H216.6V4h-6.53V2.6h14.68Z" fill="gray"/><path d="M11.73,5.44A6.36,6.36,0,1,0,18.1,11.8a6.36,6.36,0,0,0-6.37-6.36m0,9.67a3.31,3.31,0,1,1,3.32-3.31,3.31,3.31,0,0,1-3.32,3.31" fill="#1565c0"/><path d="M3.48,11.8a8.32,8.32,0,0,1,14-6.12l3.3-1.59A11.8,11.8,0,1,0,11.8,23.6l-.88-3.53A8.33,8.33,0,0,1,3.48,11.8" fill="#1565c0"/><path d="M11.73,9.89a1.91,1.91,0,1,0,1.91,1.91,1.92,1.92,0,0,0-1.91-1.91" fill="#1565c0"/></g></g></svg>