<svg xmlns="http://www.w3.org/2000/svg" width="170.75" height="23.6" viewBox="0 0 170.75 23.6"><title>Asset 26MEERA LOGO </title><g id="Layer_2" data-name="Layer 2"><g id="Layer_1-2" data-name="Layer 1"><path d="M35.63,20.46l-6.44-8.93V21.77H26.07V2.13l9.56,13.15L45.19,2.06V21.77H41.87V11.69l-.11,0Z" fill="#666"/><path d="M90.61,14.44l4.64,7.34-.43,0c-1,0-2,0-2.95,0a.67.67,0,0,1-.63-.34c-1.23-1.94-2.49-3.87-3.72-5.81a.73.73,0,0,0-.73-.4c-.66,0-1.33,0-2,0-.38,0-.5.08-.5.48,0,1.83,0,3.67,0,5.51v.51h-3.1V2.88a1.47,1.47,0,0,1,.27,0c2,0,3.91,0,5.86,0a7,7,0,0,1,3.08.8,5.43,5.43,0,0,1,3,4.58,7,7,0,0,1-.86,4.23A5.6,5.6,0,0,1,90.61,14.44Zm-6.3-5.38c0,.95,0,1.91,0,2.86,0,.23,0,.4.31.39,1,0,2,0,3-.07A3.13,3.13,0,0,0,90.3,9.09a3.06,3.06,0,0,0-2.65-3.2c-1-.1-2,0-3-.09-.27,0-.31.12-.31.35C84.32,7.12,84.31,8.09,84.31,9.06Z" fill="#666"/><path d="M60.42,10.84v2.95H52.1v5.06h9.77c0,.94,0,1.84,0,2.73,0,.08-.14.17-.23.22s-.17,0-.26,0H48.91V2.88H61.44V5.72H52.09v5.12Z" fill="#666"/><path d="M77.6,2.87V5.71H68.24v5.12h8.31v2.95h-8.3v5.06H78v2.93H65.06V2.87Z" fill="#666"/><path d="M114,21.81c-1,0-2,0-2.93,0-.12,0-.29-.19-.36-.33q-.9-2.12-1.77-4.24a.51.51,0,0,0-.55-.4c-1.93,0-3.85,0-5.78,0a.49.49,0,0,0-.54.36c-.58,1.43-1.19,2.86-1.77,4.29a.47.47,0,0,1-.51.35c-.89,0-1.79,0-2.79,0L105.5,2ZM105.5,8.9l-2.16,5.23h4.3Z" fill="#666"/><path d="M127.18,20.33h9.43V21.7H125.55V2.6h1.63Z" fill="gray"/><path d="M139.7,21.7V2.6H145a8.55,8.55,0,0,1,3.28.62A7.4,7.4,0,0,1,150.91,5a8,8,0,0,1,1.68,2.74,10,10,0,0,1,.61,3.56V13a10,10,0,0,1-.61,3.56,7.87,7.87,0,0,1-1.69,2.74,7.45,7.45,0,0,1-2.61,1.75,8.86,8.86,0,0,1-3.36.62ZM141.32,4V20.33h3.61a6.81,6.81,0,0,0,2.77-.53,6,6,0,0,0,2.1-1.49A6.76,6.76,0,0,0,151.13,16a9.07,9.07,0,0,0,.47-3V11.24a8.81,8.81,0,0,0-.48-3A6.55,6.55,0,0,0,149.79,6a5.82,5.82,0,0,0-2.06-1.46A6.69,6.69,0,0,0,145,4Z" fill="gray"/><path d="M164.42,13.75h-5.55v8h-1.62V2.6h6.2a9.3,9.3,0,0,1,2.69.37,5.89,5.89,0,0,1,2.05,1.08,4.79,4.79,0,0,1,1.3,1.77,6.06,6.06,0,0,1,.45,2.41,5.49,5.49,0,0,1-.29,1.78,5.18,5.18,0,0,1-.81,1.5,5.49,5.49,0,0,1-1.25,1.15,6.25,6.25,0,0,1-1.61.75l4.77,8.12v.17H169Zm-5.55-1.38h4.95a5.2,5.2,0,0,0,2-.34,4.24,4.24,0,0,0,1.41-.91A3.81,3.81,0,0,0,168,9.8a4.44,4.44,0,0,0,.28-1.57A4.69,4.69,0,0,0,168,6.46a3.43,3.43,0,0,0-.94-1.34,4,4,0,0,0-1.53-.84,6.56,6.56,0,0,0-2.08-.3h-4.58Z" fill="gray"/><path d="M11.73,5.44A6.36,6.36,0,1,0,18.1,11.8a6.36,6.36,0,0,0-6.37-6.36m0,9.67a3.31,3.31,0,1,1,3.32-3.31,3.31,3.31,0,0,1-3.32,3.31" fill="#1565c0"/><path d="M3.48,11.8a8.32,8.32,0,0,1,14-6.12l3.3-1.59A11.8,11.8,0,1,0,11.8,23.6l-.88-3.53A8.33,8.33,0,0,1,3.48,11.8" fill="#1565c0"/><path d="M11.73,9.89a1.91,1.91,0,1,0,1.91,1.91,1.92,1.92,0,0,0-1.91-1.91" fill="#1565c0"/></g></g></svg>