<svg xmlns="http://www.w3.org/2000/svg" width="177.99" height="23.6" viewBox="0 0 177.99 23.6"><title>Asset 28MEERA LOGO </title><g id="Layer_2" data-name="Layer 2"><g id="Layer_1-2" data-name="Layer 1"><path d="M35.63,20.46l-6.44-8.93V21.77H26.07V2.13l9.56,13.15L45.19,2.06V21.77H41.87V11.69l-.11,0Z" fill="#666"/><path d="M90.61,14.44l4.64,7.34-.43,0c-1,0-2,0-2.95,0a.67.67,0,0,1-.63-.34c-1.23-1.94-2.49-3.87-3.72-5.81a.73.73,0,0,0-.73-.4c-.66,0-1.33,0-2,0-.38,0-.5.08-.5.48,0,1.83,0,3.67,0,5.51v.51h-3.1V2.88a1.47,1.47,0,0,1,.27,0c2,0,3.91,0,5.86,0a7,7,0,0,1,3.08.8,5.43,5.43,0,0,1,3,4.58,7,7,0,0,1-.86,4.23A5.6,5.6,0,0,1,90.61,14.44Zm-6.3-5.38c0,.95,0,1.91,0,2.86,0,.23,0,.4.31.39,1,0,2,0,3-.07A3.13,3.13,0,0,0,90.3,9.09a3.06,3.06,0,0,0-2.65-3.2c-1-.1-2,0-3-.09-.27,0-.31.12-.31.35C84.32,7.12,84.31,8.09,84.31,9.06Z" fill="#666"/><path d="M60.42,10.84v2.95H52.1v5.06h9.77c0,.94,0,1.84,0,2.73,0,.08-.14.17-.23.22s-.17,0-.26,0H48.91V2.88H61.44V5.72H52.09v5.12Z" fill="#666"/><path d="M77.6,2.87V5.71H68.24v5.12h8.31v2.95h-8.3v5.06H78v2.93H65.06V2.87Z" fill="#666"/><path d="M114,21.81c-1,0-2,0-2.93,0-.12,0-.29-.19-.36-.33q-.9-2.12-1.77-4.24a.51.51,0,0,0-.55-.4c-1.93,0-3.85,0-5.78,0a.49.49,0,0,0-.54.36c-.58,1.43-1.19,2.86-1.77,4.29a.47.47,0,0,1-.51.35c-.89,0-1.79,0-2.79,0L105.5,2ZM105.5,8.9l-2.16,5.23h4.3Z" fill="#666"/><path d="M135.86,16.35h-8.67l-2,5.35h-1.7l7.23-19.1h1.53l7.23,19.1h-1.68ZM127.69,15h7.66l-3.83-10.4Z" fill="gray"/><path d="M144.46,2.6l7,16.85L158.57,2.6h2.15V21.7h-1.61V13.36l.13-8.5L152.13,21.7h-1.24L143.81,4.92l.13,8.44V21.7h-1.62V2.6Z" fill="gray"/><path d="M176.37,17a3.55,3.55,0,0,0-.26-1.39,2.92,2.92,0,0,0-.87-1.12,6.25,6.25,0,0,0-1.6-.92,22.36,22.36,0,0,0-2.49-.84,22.43,22.43,0,0,1-2.6-.89,8.12,8.12,0,0,1-2-1.12,4.73,4.73,0,0,1-1.25-1.48,4.24,4.24,0,0,1-.43-2,4.19,4.19,0,0,1,.47-2,4.48,4.48,0,0,1,1.32-1.56,6.54,6.54,0,0,1,2-1,8.86,8.86,0,0,1,2.59-.36,7.8,7.8,0,0,1,2.72.45A6,6,0,0,1,176.1,4a5.19,5.19,0,0,1,1.31,1.81,5.36,5.36,0,0,1,.46,2.23h-1.62a4.44,4.44,0,0,0-.33-1.73A3.87,3.87,0,0,0,175,5a4.41,4.41,0,0,0-1.54-.9,6.25,6.25,0,0,0-2.1-.33,6.89,6.89,0,0,0-2.08.28,4.59,4.59,0,0,0-1.5.76,3.21,3.21,0,0,0-.9,1.12,3.09,3.09,0,0,0-.31,1.37,3,3,0,0,0,.26,1.25,2.76,2.76,0,0,0,.86,1.07,6.58,6.58,0,0,0,1.58.92,17.64,17.64,0,0,0,2.43.81,21.58,21.58,0,0,1,2.69.92,7.92,7.92,0,0,1,2,1.17,4.64,4.64,0,0,1,1.23,1.55,4.71,4.71,0,0,1,.42,2,4.38,4.38,0,0,1-.49,2.09,4.62,4.62,0,0,1-1.36,1.56,6.57,6.57,0,0,1-2.08,1,10.13,10.13,0,0,1-4.34.19,8.36,8.36,0,0,1-1.65-.44,6.64,6.64,0,0,1-1.48-.75,5.17,5.17,0,0,1-1.19-1.09,4.92,4.92,0,0,1-.8-1.46,5.32,5.32,0,0,1-.3-1.83h1.61a3.9,3.9,0,0,0,.5,2,3.94,3.94,0,0,0,1.29,1.34,5.41,5.41,0,0,0,1.77.75,8.73,8.73,0,0,0,2,.22,7.52,7.52,0,0,0,2-.25,4.69,4.69,0,0,0,1.56-.73,3.26,3.26,0,0,0,1-1.13A3.17,3.17,0,0,0,176.37,17Z" fill="gray"/><path d="M11.73,5.44A6.36,6.36,0,1,0,18.1,11.8a6.36,6.36,0,0,0-6.37-6.36m0,9.67a3.31,3.31,0,1,1,3.32-3.31,3.31,3.31,0,0,1-3.32,3.31" fill="#1565c0"/><path d="M3.48,11.8a8.32,8.32,0,0,1,14-6.12l3.3-1.59A11.8,11.8,0,1,0,11.8,23.6l-.88-3.53A8.33,8.33,0,0,1,3.48,11.8" fill="#1565c0"/><path d="M11.73,9.89a1.91,1.91,0,1,0,1.91,1.91,1.92,1.92,0,0,0-1.91-1.91" fill="#1565c0"/></g></g></svg>