<svg xmlns="http://www.w3.org/2000/svg" width="54" height="40" viewBox="0 0 54 40">
    <defs>
        <linearGradient id="enj6v351xa" x1="29.744%" x2="77.596%" y1="73.662%" y2="23.091%">
            <stop offset="0%" stop-color="#D2DBFC" stop-opacity="0"/>
            <stop offset="100%" stop-color="#B8C1FB"/>
        </linearGradient>
    </defs>
    <g fill="none" fill-rule="evenodd" opacity=".7">
        <g fill-rule="nonzero">
            <g>
                <g>
                    <path fill="url(#enj6v351xa)" d="M52.442 7.915c-2.336-5.944-9.533-9.509-15.628-7.15-6.957 2.693-4.65 13.759-10.97 15.997-3.413 1.208-8.46-3.307-11.908-4-6.356-1.275-12.11 3.21-13.526 9.42-1.445 6.334.873 14.796 7.834 16.516 8.291 2.048 12.61-5.406 19.566-7.546 7.138-2.196 15.074 2.991 20.983-3.32 4.366-4.663 5.962-14.03 3.649-19.917z" transform="translate(-103 -283) translate(103 283)"/>
                    <path fill="#2B2AB5" d="M44.992 34.828L30.63 13.568c-.093-.139-.213-.245-.345-.32V10.23h2.574c.252 0 .457-.205.457-.457v-2.43c0-.252-.205-.457-.457-.457H29.07c-.252 0-.457.205-.457.457v2.43c0 .252.205.457.457.457h.17v3.026c-.132.076-.25.18-.344.319L20.049 26.61l-5.301-7.81c-.094-.138-.213-.243-.346-.319v-3.026h2.574c.252 0 .457-.204.457-.457v-2.43c0-.252-.205-.456-.457-.456h-3.788c-.253 0-.457.204-.457.457v2.43c0 .252.204.456.457.456h.17v3.04c-.133.076-.252.181-.346.32L2.196 34.828c-.468.694.03 1.63.87 1.63h41.056c.84 0 1.338-.936.87-1.63z" opacity=".11" transform="translate(-103 -283) translate(103 283)"/>
                    <path fill="#FFF" d="M47.218 34.577H18.58c-.837 0-1.335-.935-.866-1.629l14.318-21.24c.414-.614 1.319-.614 1.733 0l9.81 14.553 2.07 3.069 2.44 3.618c.466.694-.03 1.63-.868 1.63z" transform="translate(-103 -283) translate(103 283)"/>
                    <path fill="#6E80F8" d="M35.897 14.908c-.636.981-1.742 1.63-2.998 1.63-1.256 0-2.361-.649-2.998-1.63l2.132-3.163c.414-.614 1.319-.614 1.733 0l2.131 3.163z" transform="translate(-103 -283) translate(103 283)"/>
                    <path fill="#FFF" d="M36.62 8.35h-3.788c-.252 0-.457-.205-.457-.457v-2.43c0-.252.205-.457.457-.457h3.788c.253 0 .457.205.457.457v2.43c0 .252-.204.457-.457.457zM27.851 34.577H6.282c-.838 0-1.334-.935-.867-1.629l10.784-15.997c.415-.615 1.32-.615 1.734 0l10.785 15.997c.467.694-.03 1.63-.867 1.63z" transform="translate(-103 -283) translate(103 283)"/>
                    <path fill="#6E80F8" d="M20.065 20.15c-.637.981-1.742 1.63-2.998 1.63-1.258 0-2.364-.649-3-1.63l2.132-3.163c.415-.614 1.32-.614 1.734 0l2.132 3.163z" transform="translate(-103 -283) translate(103 283)"/>
                    <path fill="#FFF" d="M20.737 13.574h-3.788c-.252 0-.457-.204-.457-.456v-2.43c0-.253.205-.457.457-.457h3.789c.252 0 .456.204.456.457v2.434c0 .25-.204.452-.457.452zM46.586 19.356v7.246c0 .538-.436.974-.975.974h-8.917c-.539 0-.975-.436-.975-.974v-7.246c0-.538.436-.975.975-.975h8.917c.539 0 .975.437.975.975z" transform="translate(-103 -283) translate(103 283)"/>
                    <path fill="#E76580" d="M40.012 21.411h-1.726c-.25 0-.482-.168-.531-.414-.067-.336.188-.63.512-.63h1.726c.25 0 .482.168.531.414.067.336-.188.63-.512.63z" transform="translate(-103 -283) translate(103 283)"/>
                    <g>
                        <path fill="#FFD0DA" d="M44.392 14.195v5.301c0 .538-.437.975-.975.975h-8.918c-.538 0-.974-.437-.974-.975v-1.637h1.846c.278 0 .546-.11.742-.304l1.393-1.378c.198-.194.464-.304.743-.304h4.01c.143 0 .283-.029.412-.083.123-.051.235-.125.33-.22l1.39-1.375z" transform="translate(-103 -283) translate(103 283) translate(2.194 7.105)"/>
                        <path fill="#6E80F8" d="M38.062 8.85c-.391 0-.782-.15-1.08-.447-.594-.595-.594-1.563 0-2.158.596-.595 1.564-.595 2.159 0 .288.288.446.672.446 1.08 0 .407-.158.79-.446 1.078-.298.298-.689.446-1.08.446zm0-2.007c-.123 0-.247.047-.34.141-.188.188-.188.493 0 .68.187.188.492.188.68 0 .09-.09.14-.211.14-.34 0-.128-.05-.249-.14-.34-.094-.094-.217-.14-.34-.14zM40.863 3.152c-.39 0-.781-.149-1.079-.446-.594-.595-.594-1.563 0-2.158.595-.595 1.563-.595 2.158 0s.595 1.563 0 2.158c-.297.297-.688.446-1.079.446zm0-2.006c-.123 0-.246.047-.34.14-.187.188-.187.493 0 .681.188.187.493.187.68 0 .188-.188.188-.493 0-.68-.093-.094-.216-.14-.34-.14zM25.694 1.976h-.32v-.32c0-.251-.168-.482-.414-.531-.336-.068-.63.187-.63.511v.34h-.32c-.252 0-.483.168-.532.414-.067.336.188.63.512.63h.34v.32c0 .252.167.483.414.532.335.067.63-.188.63-.512v-.34h.34c.324 0 .579-.294.511-.63-.05-.246-.28-.414-.531-.414zM2.288 19.948h-.32v-.32c0-.25-.168-.481-.414-.53-.336-.068-.631.187-.631.51v.34h-.32c-.251 0-.482.169-.531.415-.068.336.188.63.511.63h.34v.32c0 .251.168.482.414.532.336.067.63-.188.63-.512v-.34h.34c.324 0 .58-.294.512-.63-.05-.246-.28-.415-.531-.415zM48.996 22.77h-.32v-.32c0-.251-.168-.482-.414-.531-.336-.068-.631.187-.631.511v.34h-.32c-.251 0-.482.168-.531.414-.068.336.188.63.511.63h.34v.32c0 .252.168.482.414.532.336.067.63-.188.63-.512v-.34h.34c.324 0 .58-.294.512-.63-.05-.246-.28-.414-.531-.414z" transform="translate(-103 -283) translate(103 283) translate(2.194 7.105)"/>
                    </g>
                    <path fill="#2B2AB5" d="M13.72 32.592h-1.893c-.25 0-.481-.168-.53-.414-.068-.336.187-.63.51-.63h1.98c.135 0 .267-.056.363-.151l2.212-2.212c.294-.294.692-.46 1.108-.46h10.343c.14 0 .276-.056.374-.154L29.56 27.2c.293-.294.692-.46 1.108-.46h1.45c.416 0 .807.163 1.102.457l3.57 3.57c.098.098.23.153.369.153h2.712c.25 0 .482.168.531.414.067.336-.188.631-.512.631H37.22c-.427 0-.828-.166-1.13-.468l-3.66-3.66c-.1-.1-.234-.156-.377-.156h-1.38c-.138 0-.271.055-.37.153l-1.373 1.373c-.293.294-.692.46-1.108.46h-10.3c-.138 0-.271.054-.369.152l-2.314 2.314c-.294.294-.692.459-1.108.459h-.012z" transform="translate(-103 -283) translate(103 283)"/>
                    <path fill="#2B2AB5" d="M35.196 24.337v1.045h-6.755c-.138 0-.27.055-.368.153l-1.688 1.687c-.294.294-.692.459-1.107.459h-3.825c-.138 0-.268.054-.366.152l-1.378 1.378c-.294.293-.685.455-1.1.455h-6.926c-.25 0-.482-.168-.531-.414-.068-.336.187-.63.511-.63h6.944c.139 0 .272-.056.37-.154l1.372-1.372c.295-.295.694-.46 1.11-.46h3.81c.138 0 .27-.055.368-.153l1.678-1.677c.303-.302.704-.469 1.132-.469h6.75z" transform="translate(-103 -283) translate(103 283)"/>
                    <path fill="#E76580" d="M10.98 21.307H8.446c-.251 0-.482.168-.531.414-.068.336.187.63.511.63h2.534c.251 0 .482-.167.531-.413.068-.336-.187-.631-.511-.631z" transform="translate(-103 -283) translate(103 283)"/>
                    <g fill="#E76580">
                        <path d="M8.158.095H.61C.358.095.127.263.078.509c-.068.336.188.63.511.63h7.55c.251 0 .482-.167.531-.414.067-.336-.188-.63-.512-.63zM8.158 1.871H.61c-.251 0-.482.168-.531.415-.068.336.188.63.511.63h7.55c.251 0 .482-.168.531-.414.067-.336-.188-.63-.512-.63z" transform="translate(-103 -283) translate(103 283) translate(7.837 23.093)"/>
                    </g>
                </g>
                <path fill="#2720B9" d="M48.518 32.693l-3.128-4.64h.164c.825 0 1.497-.671 1.497-1.497v-7.215c0-.825-.672-1.497-1.497-1.497h-7.046l-4.309-6.391c-.19-.283-.465-.49-.777-.601v-1.94h3.164c.54 0 .98-.44.98-.98v-2.46c0-.54-.44-.98-.98-.98h-3.164v-.026c0-.289-.234-.522-.523-.522-.288 0-.522.233-.522.522v.127c-.324.16-.548.493-.548.878v2.46c0 .386.224.719.548.879v2.042c-.313.11-.586.318-.777.601L23.216 23.89l-1.556-2.308c-.16-.239-.486-.302-.725-.14-.24.16-.302.485-.141.724l7.49 11.111c.159.235.073.454.028.537-.044.084-.178.278-.461.278H6.28c-.283 0-.416-.194-.46-.278-.045-.083-.131-.302.027-.537L16.633 17.28c.099-.147.257-.23.433-.23.177 0 .335.083.434.23l1.656 2.457c.161.239.486.302.725.14.24-.16.303-.485.141-.724l-1.656-2.457c-.19-.283-.465-.491-.777-.602v-1.94h3.164c.54 0 .98-.44.98-.98v-2.46c0-.54-.44-.98-.98-.98h-3.164v-.026c0-.288-.234-.522-.523-.522-.288 0-.522.234-.522.522v.128c-.324.16-.549.493-.549.878v2.46c0 .385.225.718.549.878v2.042c-.313.11-.587.319-.777.602L4.982 32.693c-.325.481-.357 1.1-.084 1.612.273.513.803.831 1.384.831h40.937c.58 0 1.11-.318 1.383-.83.273-.514.24-1.131-.084-1.613zm-27.83-19.584H17.04v-2.33h3.647v2.33zm24.866 5.78c.25 0 .452.203.452.452v1.673l-1.234 1.234c-.045.046-.1.082-.16.108-.067.029-.137.043-.207.043h-3.994c-.417 0-.81.163-1.109.459l-1.388 1.389c-.097.096-.231.152-.369.152H36.23v-5.057c0-.25.203-.453.452-.453h8.873zM36.52 7.866h-3.648v-2.33h3.648v2.33zm-1.337 18.69c0 .826.672 1.498 1.497 1.498h3.46c.288 0 .522-.234.522-.523 0-.288-.234-.522-.522-.522h-3.46c-.25 0-.452-.203-.452-.453v-1.112h1.316c.414 0 .818-.168 1.108-.46l1.387-1.386c.1-.1.232-.154.371-.154h3.994c.211 0 .417-.042.615-.126.188-.08.354-.193.493-.333l.493-.493v4.064c0 .25-.203.453-.452.453h-2.477c-.289 0-.523.234-.523.522 0 .289.234.523.523.523h1.053l3.522 5.223c.158.235.072.454.028.537-.045.084-.178.278-.462.278h-17.89c.165-.465.103-.983-.178-1.4l-5.304-7.868 8.62-12.787c.1-.146.257-.23.434-.23.176 0 .334.084.433.23l3.914 5.807h-.566c-.825 0-1.497.672-1.497 1.497v7.215z" transform="translate(-103 -283) translate(103 283)"/>
            </g>
        </g>
    </g>
</svg>
