<svg xmlns="http://www.w3.org/2000/svg" width="74" height="63" viewBox="0 0 74 63">
    <g fill="none" fill-rule="evenodd">
        <g fill-rule="nonzero">
            <g>
                <path fill="#D4E1F4" d="M9.686 47.683l-.617 4.432 3.835.533.609-4.376c.34-2.448 2.6-4.156 5.047-3.816l-3.827-.589c-2.447-.34-4.707 1.369-5.047 3.816zM38.742 6.677c-9.846-.23-18.3 6.959-19.655 16.714L16.21 44.072v.002l3.834.533 2.869-20.627c1.355-9.755 9.81-16.944 19.655-16.714.192.004.385.011.578.022-.72-.185-1.45-.33-2.187-.432-.735-.103-1.476-.163-2.218-.18z" transform="translate(-314 -366) translate(314 366)"/>
                <path fill="#0635C9" d="M27.95 15.91c.21 0 .414-.075.574-.213.42-.36.861-.706 1.312-1.027 1.656-1.18 3.496-2.08 5.444-2.662.465-.141.728-.631.59-1.097-.14-.465-.628-.731-1.094-.595-2.135.637-4.15 1.622-5.965 2.916-.494.351-.977.73-1.437 1.124-.28.24-.382.63-.254.977.129.347.46.577.829.577zM26.065 16.847c-.181-.147-.414-.217-.647-.193-.233.024-.447.14-.595.322-.24.295-.476.603-.7.913-.19.256-.227.593-.098.884.13.29.404.49.72.52.317.032.626-.11.809-.369.205-.284.42-.564.64-.834.147-.182.217-.415.193-.648-.024-.233-.14-.447-.322-.595z" transform="translate(-314 -366) translate(314 366)"/>
                <path fill="#2626BC" d="M55.605 48.733l2.765-19.88c1.374-9.897-4.664-19.32-14.23-22.205l.425-3.055c.168-1.11-.275-2.226-1.158-2.92-.884-.694-2.073-.86-3.112-.433-1.04.427-1.77 1.38-1.912 2.494L37.96 5.79c-9.818.154-18.354 7.459-19.748 17.48l-2.753 19.806-.603-.084c-1.438-.204-2.898.189-4.04 1.088-1.111.887-1.835 2.171-2.018 3.582l-.602 4.33c-.068.484.27.93.753.997l16.839 2.341c-.424 3.692 2.175 7.047 5.855 7.56 3.684.517 7.106-2.004 7.704-5.675l18.351 2.552c.04.005.08.008.122.008.31 0 .596-.162.757-.427.064-.11.105-.23.12-.357l.613-4.41c.357-2.591-1.208-5.062-3.704-5.848zM41.661 1.823c.74.103 1.256.787 1.154 1.527l-.398 2.864c-.44-.091-.885-.17-1.335-.232-.45-.062-.9-.108-1.347-.14l.397-2.865c.105-.74.788-1.256 1.529-1.155zM31.887 61.14c-2.715-.379-4.64-2.842-4.35-5.567l10.06 1.398c-.47 2.701-2.995 4.545-5.71 4.169zm25.673-6.802l-.494 3.557-47-6.535.484-3.482c.12-.924.584-1.769 1.3-2.365.772-.632 1.774-.912 2.762-.772l6.242.868c.443.062.862-.218.976-.65.064-.244.02-.504-.12-.714-.14-.21-.362-.35-.613-.385l-3.89-.541 2.754-19.807c.904-6.555 5.238-12.128 11.368-14.618s13.124-1.517 18.342 2.55c5.218 4.068 7.868 10.613 6.95 17.165l-2.755 19.806-26.896-3.738c-.48-.062-.92.274-.987.754-.067.48.265.924.744.995l27.77 3.861c1.963.275 3.333 2.087 3.063 4.051z" transform="translate(-314 -366) translate(314 366)"/>
                <g fill="#E76580">
                    <path d="M68.508 14.712c-.227-4.38-3.052-8.2-7.174-9.698-.297-.11-.63-.053-.873.15-.243.203-.359.521-.304.833.056.312.274.57.572.677 3.453 1.26 5.82 4.46 6.014 8.13.194 3.67-1.823 7.102-5.124 8.718-.284.139-.472.418-.493.733-.022.315.126.617.388.793.262.176.598.2.881.06 3.94-1.923 6.348-6.017 6.113-10.396z" transform="translate(-314 -366) translate(314 366) translate(0 6.918)"/>
                    <path d="M63.242.062c-.297-.112-.632-.056-.877.147-.244.203-.36.522-.304.835.056.313.276.572.576.677 5.436 1.983 9.163 7.021 9.468 12.8.305 5.779-2.87 11.181-8.068 13.725-.283.139-.471.418-.493.733-.022.315.126.617.388.793.262.177.598.2.881.06 5.834-2.854 9.399-8.918 9.056-15.404-.342-6.486-4.525-12.14-10.627-14.366zM13.163 26.08c-3.453-1.259-5.82-4.46-6.014-8.13-.194-3.67 1.823-7.102 5.125-8.718.438-.215.62-.744.405-1.182-.215-.438-.744-.62-1.182-.405-3.937 1.927-6.343 6.02-6.112 10.398.23 4.378 3.054 8.195 7.173 9.697.297.112.632.056.877-.147.244-.204.36-.523.304-.836-.056-.313-.276-.571-.576-.677z" transform="translate(-314 -366) translate(314 366) translate(0 6.918)"/>
                    <path d="M11.256 31.033c-5.437-1.983-9.164-7.021-9.469-12.8-.305-5.779 2.87-11.181 8.068-13.725.439-.215.62-.744.405-1.182-.214-.438-.743-.62-1.181-.405C3.245 5.777-.32 11.841.023 18.326c.342 6.486 4.525 12.14 10.627 14.366.297.108.628.05.87-.153.242-.202.357-.519.303-.83-.055-.31-.271-.568-.567-.676z" transform="translate(-314 -366) translate(314 366) translate(0 6.918)"/>
                </g>
            </g>
        </g>
    </g>
</svg>
