<svg xmlns="http://www.w3.org/2000/svg" width="48" height="30" viewBox="0 0 48 30">
    <g fill="none" fill-rule="evenodd">
        <g>
            <g>
                <path fill="#6583FE" fill-rule="nonzero" d="M15.083 13.596c-.521.034-.993.322-1.26.771-.268.45-.297 1.001-.078 1.476 0 0 1.13 2.434 2.445 5.072.658 1.319 1.36 2.702 2.015 3.866.656 1.163 1.148 2.039 1.85 2.742 2.052 2.051 5.417 2.051 7.468 0s2.051-5.433 0-7.484c-.703-.703-1.58-1.195-2.742-1.85-1.164-.656-2.53-1.358-3.85-2.016-2.638-1.315-5.071-2.428-5.071-2.428-.243-.114-.51-.166-.777-.149zm3.47 4.956c.468.228.46.215.958.463 1.29.644 2.632 1.338 3.717 1.95 1.084.61 1.994 1.25 2.065 1.321.839.84.839 2.151 0 2.99-.84.84-2.168.84-3.007 0-.071-.07-.71-.98-1.322-2.065-.61-1.084-1.305-2.41-1.95-3.7-.247-.497-.234-.491-.462-.959z" transform="translate(-169 -489) translate(169 489)"/>
                <path fill="#2F3842" d="M23.79 0C10.67 0 0 10.67 0 23.79c0 .875.71 1.585 1.586 1.585h4.758c.572.008 1.104-.292 1.392-.786.288-.494.288-1.105 0-1.6-.288-.493-.82-.794-1.392-.786H3.337c.346-4.485 2.111-8.554 4.84-11.779L9.45 11.68c.388.445.992.637 1.566.499.575-.14 1.025-.586 1.167-1.159.143-.573-.044-1.178-.487-1.57L10.408 8.16c3.208-2.777 7.289-4.58 11.795-4.923v3.106c-.008.572.293 1.104.787 1.392.494.288 1.105.288 1.599 0s.794-.82.786-1.392V3.238c4.507.343 8.588 2.146 11.796 4.923L35.882 9.45c-.442.392-.63.997-.487 1.57.143.573.593 1.02 1.167 1.159.575.138 1.178-.054 1.567-.5l1.272-1.255c2.73 3.225 4.495 7.294 4.84 11.78h-3.006c-.572-.009-1.104.292-1.392.786-.289.494-.289 1.105 0 1.599.288.494.82.794 1.392.786h4.758c.876 0 1.586-.71 1.586-1.586C47.579 10.67 36.909 0 23.789 0z" transform="translate(-169 -489) translate(169 489)"/>
            </g>
        </g>
    </g>
</svg>
