<svg xmlns="http://www.w3.org/2000/svg" xmlns:xlink="http://www.w3.org/1999/xlink" viewBox="0 0 47.12 54.27"><defs><clipPath id="clip-path"><rect x="4.91" y="5" width="38" height="45" fill="none"/></clipPath><clipPath id="clip-path-2"><path d="M34.72,5h-27A2.75,2.75,0,0,0,5,7.75v9.36a.92.92,0,0,0,1.83,0V7.75a.92.92,0,0,1,.92-.92h27a.92.92,0,0,1,.92.92V41.87a.92.92,0,0,1-.92.92h-27a.92.92,0,0,1-.92-.92v-17a.92.92,0,1,0-1.83,0v17a2.75,2.75,0,0,0,2.75,2.75h27a2.75,2.75,0,0,0,2.75-2.75V7.75A2.75,2.75,0,0,0,34.72,5Z" fill="none"/></clipPath><clipPath id="clip-path-4"><path d="M6.57,20.56a.92.92,0,1,0,.27.65A.92.92,0,0,0,6.57,20.56Z" fill="none"/></clipPath><clipPath id="clip-path-6"><path d="M10.24,47.71a.92.92,0,1,0,.27.65A.92.92,0,0,0,10.24,47.71Z" fill="none"/></clipPath><clipPath id="clip-path-8"><path d="M41.2,9.65a.92.92,0,0,0-.92.92v36a.92.92,0,0,1-.92.92H14.24a.92.92,0,0,0,0,1.83H39.37a2.75,2.75,0,0,0,2.75-2.75v-36A.92.92,0,0,0,41.2,9.65Z" fill="none"/></clipPath><clipPath id="clip-path-10"><path d="M18.94,20.59H12v-7h7Zm.92-8.8h-8.8a.92.92,0,0,0-.92.92v8.8a.92.92,0,0,0,.92.92h8.8a.92.92,0,0,0,.92-.92V12.7A.92.92,0,0,0,19.86,11.79Z" fill="none"/></clipPath><clipPath id="clip-path-12"><path d="M16.91,26.59a.92.92,0,0,0-1.3,0L13.17,29,12,27.89a.92.92,0,1,0-1.3,1.3L12.52,31a.92.92,0,0,0,1.3,0l3.09-3.09A.92.92,0,0,0,16.91,26.59Z" fill="none"/></clipPath><clipPath id="clip-path-14"><path d="M31.93,27.84H21.23a.92.92,0,0,0,0,1.84h10.7a.92.92,0,0,0,0-1.84Z" fill="none"/></clipPath><clipPath id="clip-path-16"><path d="M31.41,11.79H25a.92.92,0,0,0,0,1.83h6.42a.92.92,0,0,0,0-1.83Z" fill="none"/></clipPath><clipPath id="clip-path-18"><path d="M31.41,16.19H25A.92.92,0,1,0,25,18h6.42a.92.92,0,1,0,0-1.83Z" fill="none"/></clipPath><clipPath id="clip-path-20"><path d="M31.41,20.59H25a.92.92,0,1,0,0,1.83h6.42a.92.92,0,1,0,0-1.83Z" fill="none"/></clipPath><clipPath id="clip-path-22"><path d="M16.91,33.59a.92.92,0,0,0-1.3,0L13.17,36,12,34.9a.92.92,0,0,0-1.3,1.3L12.52,38a.92.92,0,0,0,1.3,0l3.09-3.09A.92.92,0,0,0,16.91,33.59Z" fill="none"/></clipPath><clipPath id="clip-path-24"><path d="M31.93,34.81H21.23a.92.92,0,0,0,0,1.83h10.7a.92.92,0,0,0,0-1.83Z" fill="none"/></clipPath></defs><title>posting</title><g id="Layer_2" data-name="Layer 2"><g id="Layer_1-2" data-name="Layer 1"><g opacity="0.24" style="isolation:isolate;"><g clip-path="url(#clip-path)"><g clip-path="url(#clip-path-2)"><g clip-path="url(#clip-path)"><rect width="42.47" height="49.62"/></g></g><g clip-path="url(#clip-path-4)"><g clip-path="url(#clip-path)"><rect y="15.3" width="11.83" height="11.83"/></g></g><g clip-path="url(#clip-path-6)"><g clip-path="url(#clip-path)"><rect x="3.67" y="42.44" width="11.83" height="11.83"/></g></g><g clip-path="url(#clip-path-8)"><g clip-path="url(#clip-path)"><rect x="8.32" y="4.65" width="38.8" height="49.62"/></g></g><g clip-path="url(#clip-path-10)"><g clip-path="url(#clip-path)"><rect x="5.14" y="6.79" width="20.64" height="20.64"/></g></g><g clip-path="url(#clip-path-12)"><g clip-path="url(#clip-path)"><rect x="5.47" y="21.32" width="16.7" height="14.92"/></g></g><g clip-path="url(#clip-path-14)"><g clip-path="url(#clip-path)"><rect x="15.32" y="22.84" width="22.53" height="11.84"/></g></g><g clip-path="url(#clip-path-16)"><g clip-path="url(#clip-path)"><rect x="19.08" y="6.79" width="18.25" height="11.83"/></g></g><g clip-path="url(#clip-path-18)"><g clip-path="url(#clip-path)"><rect x="19.08" y="11.19" width="18.25" height="11.83"/></g></g><g clip-path="url(#clip-path-20)"><g clip-path="url(#clip-path)"><rect x="19.08" y="15.59" width="18.25" height="11.83"/></g></g><g clip-path="url(#clip-path-22)"><g clip-path="url(#clip-path)"><rect x="5.47" y="28.32" width="16.7" height="14.92"/></g></g><g clip-path="url(#clip-path-24)"><g clip-path="url(#clip-path)"><rect x="15.32" y="29.81" width="22.53" height="11.83"/></g></g></g></g></g></g></svg>