<?xml version="1.0" encoding="UTF-8"?>
<svg width="14px" height="11px" viewBox="0 0 14 11" version="1.1" xmlns="http://www.w3.org/2000/svg" xmlns:xlink="http://www.w3.org/1999/xlink">
    <!-- Generator: Sketch 63.1 (92452) - https://sketch.com -->
    <title>price</title>
    <desc>Created with Sketch.</desc>
    <g id="task+member-1" stroke="none" stroke-width="1" fill="none" fill-rule="evenodd" opacity="0.6">
        <g id="price" transform="translate(1.000000, 1.000000)" fill="#000000" fill-rule="nonzero" stroke="#000000" stroke-width="0.4">
            <g id="Group">
                <path d="M11.1904351,1.87274171 L11.9362914,1.87274171 L11.9362914,8.95804558 C11.9362914,9.36975829 11.6021478,9.70390193 11.1904351,9.70390193 L2.24015884,9.70390193 L2.24015884,8.95804558 L11.1904351,8.95804558 L11.1904351,1.87207873 L11.1904351,1.87274171 Z M10.4445787,7.46633287 C10.4445787,7.87804558 10.1104351,8.21218923 9.69872238,8.21218923 L0.748446133,8.21218923 C0.336521043,8.21218923 0.00258977901,7.87825796 0.00258977901,7.46633287 L0.00258977901,0.753625691 C0.00258977901,0.341912983 0.336733425,0.00776933702 0.748446133,0.00776933702 L9.69872238,0.00776933702 C10.1104351,0.00776933702 10.4445787,0.341912983 10.4445787,0.753625691 L10.4445787,7.46633287 Z M0.748446133,0.753625691 L0.748446133,7.46633287 L9.69872238,7.46633287 L9.69872238,0.753625691 L0.748446133,0.753625691 Z M5.22358425,6.10125 C4.41805635,6.10125 3.69184592,5.6160117 3.38358374,4.87180096 C3.07532155,4.12759022 3.24571459,3.2709666 3.81530883,2.70137236 C4.38490307,2.13177812 5.24152668,1.96138509 5.98573742,2.26964727 C6.72994816,2.57790945 7.21518646,3.30411989 7.21518646,4.10964779 C7.21118676,5.20791832 6.32185479,6.0972503 5.22358425,6.10125 L5.22358425,6.10125 Z M5.22358425,2.86456492 C4.77179025,2.85414021 4.34978174,3.08920847 4.12082171,3.47882854 C3.89186167,3.86844861 3.89186167,4.35150996 4.12082171,4.74113002 C4.34978174,5.13075009 4.77179025,5.36581835 5.22358425,5.35539365 C5.90021384,5.33978108 6.44059339,4.78678896 6.44059339,4.10997928 C6.44059339,3.4331696 5.90021384,2.88017748 5.22358425,2.86456492 L5.22358425,2.86456492 Z" id="Shape"></path>
            </g>
        </g>
    </g>
</svg>