<svg xmlns="http://www.w3.org/2000/svg" width="97" height="84" viewBox="0 0 97 84">
    <defs>
        <linearGradient id="9lr11sa57a" x1="11.936%" x2="96.277%" y1="31.667%" y2="73.741%">
            <stop offset="0%" stop-color="#D2DEFF" stop-opacity="0"/>
            <stop offset="100%" stop-color="#B7C5FF"/>
        </linearGradient>
    </defs>
    <g fill="none" fill-rule="evenodd" opacity=".7">
        <g fill-rule="nonzero">
            <g transform="translate(-185 -354) translate(185 354)">
                <path fill="url(#9lr11sa57a)" d="M95.23 48.294c-2.227-6.519-7.183-11.33-13.156-13.599-3.094-1.175-5.15-4.116-5.196-7.426 0-.072-.002-.145-.004-.217-.284-12.163-10.45-21.91-22.615-21.7-7.175.122-13.52 3.644-17.498 9.024-3.425 4.633-8.756 7.527-14.517 7.524-.17 0-.339.002-.509.006C10.074 22.16.158 32.166.002 43.83c-.165 12.417 9.85 22.535 22.23 22.535 9.596 0 17.77-6.079 20.885-14.596.815-2.228 3.23-3.422 5.515-2.782l.086.024c2.09.577 3.476 2.569 3.305 4.73-.23 2.898.11 5.888 1.092 8.815C56.98 74.07 69.536 80.389 81.082 76.62c11.811-3.854 18.152-16.609 14.148-28.327z"/>
                <g fill="#2626BC" opacity=".1">
                    <path d="M55.026 24.493H29.728c-1.043 0-1.888-.846-1.888-1.888V2.023c0-1.042.845-1.888 1.888-1.888h25.298c1.042 0 1.888.846 1.888 1.888v20.582c0 1.043-.846 1.888-1.888 1.888zM52.195 53.701H32.559c-1.043 0-1.888-.845-1.888-1.888V39.726c0-1.043.845-1.888 1.888-1.888h19.636c1.042 0 1.888.845 1.888 1.888v12.087c0 1.043-.846 1.888-1.888 1.888z" transform="translate(5.839)"/>
                    <path d="M82.771 37.838h-8.876v-.347c0-2.6-2.116-4.716-4.717-4.716H15.575c-2.6 0-4.717 2.115-4.717 4.716v.347H1.982c-1.043 0-1.888.845-1.888 1.888v12.087c0 1.043.845 1.888 1.888 1.888h19.636c1.043 0 1.888-.845 1.888-1.888V39.726c0-1.043-.845-1.888-1.888-1.888h-8.876v-.347c0-1.562 1.27-2.833 2.833-2.833h53.603c1.563 0 2.834 1.27 2.834 2.833v.347h-8.877c-1.042 0-1.888.845-1.888 1.888v12.087c0 1.043.846 1.888 1.888 1.888h19.636c1.043 0 1.888-.845 1.888-1.888V39.726c0-1.043-.845-1.888-1.888-1.888z" transform="translate(5.839)"/>
                </g>
                <path fill="#FFF" d="M60.864 27.883H35.566c-1.043 0-1.888-.845-1.888-1.888V5.413c0-1.042.845-1.887 1.888-1.887h25.298c1.043 0 1.888.845 1.888 1.887v20.582c0 1.043-.845 1.888-1.888 1.888z"/>
                <path fill="#FFF" d="M60.864 3.526H54.43v24.357h6.434c1.043 0 1.888-.845 1.888-1.888V5.413c0-1.042-.845-1.887-1.888-1.887z"/>
                <path fill="#6583FE" d="M62.752 9.693v-4.28c0-1.042-.845-1.887-1.888-1.887H35.566c-1.043 0-1.888.845-1.888 1.887v4.28h29.074z"/>
                <path fill="#2626BC" d="M50.637 21.78H39.578c-.521 0-.943-.423-.943-.944 0-.521.422-.944.943-.944h11.059c.521 0 .944.423.944.944 0 .521-.423.944-.944.944zM45.54 17.861h-5.961c-.522 0-.944-.422-.944-.943 0-.521.422-.944.944-.944h5.96c.522 0 .944.423.944.944 0 .52-.422.943-.943.943z"/>
                <path fill="#FFF" d="M27.457 57.092H7.82c-1.043 0-1.888-.846-1.888-1.888V43.116c0-1.043.845-1.888 1.888-1.888h19.636c1.042 0 1.888.845 1.888 1.888v12.088c0 1.042-.846 1.888-1.888 1.888z"/>
                <path fill="#FFF" d="M27.457 57.092H7.82c-1.043 0-1.888-.846-1.888-1.888V43.116c0-1.043.845-1.888 1.888-1.888h19.636c1.042 0 1.888.845 1.888 1.888v12.088c0 1.042-.846 1.888-1.888 1.888z"/>
                <path fill="#E76580" d="M29.345 47.395v-4.28c0-1.042-.846-1.887-1.888-1.887H7.82c-1.043 0-1.888.845-1.888 1.888v4.279h23.412z"/>
                <path fill="#2626BC" d="M23.444 52.838H11.833c-.521 0-.944-.423-.944-.944 0-.521.423-.944.944-.944h11.611c.522 0 .944.423.944.944 0 .521-.422.944-.944.944z"/>
                <path fill="#FFF" d="M58.033 57.092H38.397c-1.042 0-1.888-.846-1.888-1.888V43.116c0-1.043.846-1.888 1.888-1.888h19.636c1.043 0 1.888.845 1.888 1.888v12.088c0 1.042-.845 1.888-1.888 1.888z"/>
                <path fill="#E76580" d="M59.921 47.395v-4.28c0-1.042-.845-1.887-1.888-1.887H38.397c-1.042 0-1.888.845-1.888 1.888v4.279h23.412z"/>
                <path fill="#2626BC" d="M54.021 52.838H42.41c-.522 0-.944-.423-.944-.944 0-.521.422-.944.944-.944H54.02c.521 0 .944.423.944.944 0 .521-.423.944-.944.944z"/>
                <path fill="#FFF" d="M88.61 57.092H68.974c-1.043 0-1.888-.846-1.888-1.888V43.116c0-1.043.845-1.888 1.888-1.888H88.61c1.042 0 1.888.845 1.888 1.888v12.088c0 1.042-.846 1.888-1.888 1.888z"/>
                <path fill="#E76580" d="M90.498 47.395v-4.28c0-1.042-.846-1.887-1.888-1.887H68.974c-1.043 0-1.888.845-1.888 1.888v4.279h23.412z"/>
                <path fill="#2626BC" d="M84.598 52.838H72.986c-.521 0-.944-.423-.944-.944 0-.521.423-.944.944-.944h11.612c.52 0 .943.423.943.944 0 .521-.422.944-.943.944z"/>
                <path fill="#2626BC" d="M74.454 63.67h-8.876v-.348c0-2.6-2.116-4.716-4.717-4.716H35.569c-2.6 0-4.716 2.116-4.716 4.716v.347h-8.877c-1.042 0-1.888.845-1.888 1.888v12.088c0 1.043.846 1.888 1.888 1.888h19.636c1.043 0 1.888-.845 1.888-1.888V65.557c0-1.043-.845-1.888-1.888-1.888h-8.876v-.347c0-1.562 1.271-2.833 2.833-2.833h25.292c1.562 0 2.833 1.271 2.833 2.833v.347h-8.876c-1.043 0-1.888.845-1.888 1.888v12.088c0 1.043.845 1.888 1.888 1.888h19.636c1.043 0 1.888-.845 1.888-1.888V65.557c0-1.043-.845-1.888-1.888-1.888z" opacity=".1"/>
                <path fill="#FFF" d="M41.612 82.923H21.977c-1.043 0-1.888-.845-1.888-1.888V68.947c0-1.042.845-1.888 1.888-1.888h19.636c1.042 0 1.888.846 1.888 1.888v12.088c0 1.043-.846 1.888-1.889 1.888z"/>
                <path fill="#6583FE" d="M43.5 73.227v-4.28c0-1.042-.845-1.888-1.887-1.888H21.977c-1.043 0-1.888.846-1.888 1.888v4.28H43.5z"/>
                <path fill="#2626BC" d="M37.6 78.67H25.99c-.522 0-.944-.423-.944-.945 0-.52.422-.943.944-.943H37.6c.521 0 .944.422.944.943 0 .522-.423.944-.944.944z"/>
                <path fill="#FFF" d="M74.454 82.923H54.818c-1.043 0-1.888-.845-1.888-1.888V68.947c0-1.042.845-1.888 1.888-1.888h19.636c1.043 0 1.888.846 1.888 1.888v12.088c0 1.043-.845 1.888-1.888 1.888z"/>
                <path fill="#6583FE" d="M76.342 73.227v-4.28c0-1.042-.845-1.888-1.888-1.888H54.818c-1.043 0-1.888.846-1.888 1.888v4.28h23.412z"/>
                <path fill="#2626BC" d="M70.442 78.67H58.83c-.521 0-.943-.423-.943-.945 0-.52.422-.943.943-.943h11.612c.521 0 .943.422.943.943 0 .522-.422.944-.943.944z"/>
                <path fill="#2626BC" d="M88.61 40.286h-8.877c-.017-2.587-2.125-4.686-4.716-4.686h-25.86v-6.775h11.707c1.56 0 2.83-1.27 2.83-2.83V14.891c0-.52-.422-.942-.942-.942s-.942.422-.942.942v11.104c0 .522-.424.946-.946.946H35.566c-.522 0-.946-.424-.946-.946v-15.36h28.132c.52 0 .942-.422.942-.942v-4.28c0-1.56-1.27-2.83-2.83-2.83H35.567c-1.56 0-2.83 1.27-2.83 2.83v20.582c0 1.56 1.27 2.83 2.83 2.83h11.708v6.774h-25.86c-2.591 0-4.7 2.1-4.716 4.687H7.82c-1.56 0-2.83 1.27-2.83 2.83v12.087c0 1.56 1.27 2.83 2.83 2.83h19.636c1.56 0 2.83-1.27 2.83-2.83V43.115c0-1.56-1.27-2.83-2.83-2.83h-8.875c.016-1.548 1.28-2.802 2.832-2.802h25.86v2.803h-8.877c-1.56 0-2.83 1.27-2.83 2.83v12.087c0 1.56 1.27 2.83 2.83 2.83h8.877v3.398H35.569c-2.59 0-4.7 2.1-4.716 4.686h-8.877c-1.56 0-2.83 1.27-2.83 2.83v12.088c0 1.56 1.27 2.83 2.83 2.83h19.636c1.56 0 2.83-1.27 2.83-2.83V68.947c0-1.56-1.27-2.83-2.83-2.83h-8.874c.016-1.548 1.28-2.803 2.831-2.803h25.292c1.552 0 2.815 1.255 2.832 2.803h-8.875c-1.56 0-2.83 1.27-2.83 2.83v12.088c0 1.56 1.27 2.83 2.83 2.83h19.636c1.56 0 2.83-1.27 2.83-2.83V68.947c0-1.56-1.27-2.83-2.83-2.83h-8.877c-.017-2.587-2.125-4.686-4.716-4.686H49.157v-3.398h8.876c1.56 0 2.83-1.27 2.83-2.83V43.115c0-1.56-1.27-2.83-2.83-2.83h-8.876v-2.802h25.86c1.552 0 2.815 1.254 2.832 2.803h-8.875c-1.56 0-2.83 1.27-2.83 2.83v12.087c0 1.56 1.27 2.83 2.83 2.83H88.61c1.56 0 2.83-1.27 2.83-2.83V43.115c0-1.56-1.27-2.829-2.83-2.829zM34.62 5.413c0-.521.424-.946.946-.946h25.298c.522 0 .946.425.946.946v3.338H34.62V5.413zM27.457 56.15H7.82c-.522 0-.947-.425-.947-.946v-6.867h21.529v6.867c0 .521-.425.946-.946.946zm.946-13.034v3.337H6.874v-3.337c0-.522.425-.946.947-.946h19.636c.521 0 .946.424.946.946zm14.156 25.831v12.088c0 .522-.425.946-.947.946H21.977c-.522 0-.947-.424-.947-.946v-6.867h17.272c.52 0 .942-.421.942-.941s-.421-.942-.942-.942H21.03v-3.338c0-.522.425-.946.947-.946h19.636c.521 0 .946.425.946.946zm31.895 13.034H54.818c-.522 0-.946-.424-.946-.946v-6.867H75.4v6.867c0 .522-.424.946-.946.946zm.946-13.034v3.338H53.872v-3.338c0-.522.424-.946.946-.946h19.636c.522 0 .946.425.946.946zM58.033 56.15H38.397c-.521 0-.946-.425-.946-.946v-6.867h21.528v6.867c0 .521-.424.946-.946.946zm.946-13.034v3.337H37.451v-3.337c0-.522.425-.946.946-.946h19.636c.522 0 .946.424.946.946zm9.995-.946H88.61c.522 0 .946.424.946.946v3.337H68.028v-3.337c0-.522.424-.946.946-.946zM88.61 56.15H68.974c-.522 0-.946-.425-.946-.946v-6.867h21.528v6.867c0 .521-.424.946-.946.946z"/>
                <g fill="#6583FE">
                    <path d="M14.594 6.055c-.52 0-.941-.421-.941-.941 0-.626-.51-1.135-1.135-1.135-.52 0-.941-.421-.941-.941s.421-.942.941-.942c.626 0 1.135-.509 1.135-1.135 0-.52.421-.941.941-.941s.942.421.942.941c0 .626.509 1.135 1.134 1.135.52 0 .942.422.942.942s-.422.941-.942.941c-.625 0-1.134.51-1.134 1.135 0 .52-.422.941-.942.941zM74.206 56.032c-.52 0-.942-.422-.942-.942 0-.625-.509-1.134-1.134-1.134-.52 0-.942-.422-.942-.942s.422-.942.942-.942c.625 0 1.134-.508 1.134-1.134 0-.52.422-.942.942-.942s.942.422.942.942c0 .626.509 1.134 1.134 1.134.52 0 .942.422.942.942s-.422.942-.942.942c-.625 0-1.134.509-1.134 1.134 0 .52-.422.942-.942.942zM60.172 18.974c-.24 0-.482-.092-.665-.275l-2.076-2.076c-.368-.368-.368-.965 0-1.332l2.076-2.076c.367-.368.964-.368 1.331 0l2.076 2.076c.368.368.368.964 0 1.332l-2.076 2.076c-.183.183-.424.275-.666.275zm-.744-3.018l.744.745.745-.745-.745-.744-.744.744zM3.172 63.249c-.241 0-.482-.092-.666-.276L.429 60.897c-.176-.176-.275-.416-.275-.666 0-.25.099-.49.275-.666l2.077-2.076c.176-.177.416-.276.666-.276.25 0 .489.1.666.276l2.076 2.076c.368.368.368.964 0 1.332l-2.076 2.076c-.184.184-.425.276-.666.276zm-.745-3.018l.745.745.744-.745-.744-.744-.745.744z" transform="translate(9.794 12.996)"/>
                </g>
                <circle cx="54.43" cy="15.974" r="2.654" fill="#2626BC"/>
            </g>
        </g>
    </g>
</svg>
