<svg xmlns="http://www.w3.org/2000/svg" width="48" height="48" viewBox="0 0 48 48">
    <g fill="none" fill-rule="evenodd">
        <g fill-rule="nonzero">
            <g>
                <path fill="#2F3842" d="M46.363 3.465c-.1-1.844-1.567-3.31-3.41-3.41C39.231-.15 31.95.048 24.99 3.65c-3.549 1.835-7.302 4.948-10.297 8.538-.037.045-.073.09-.11.133l-6.797.525c-1.12.087-2.116.673-2.735 1.61L.414 21.47c-.47.71-.544 1.598-.2 2.376.344.778 1.052 1.32 1.893 1.451l5.727.887-.06.334c-.19 1.14.188 2.313 1.011 3.137l7.978 7.977c.683.683 1.605 1.06 2.55 1.06.196 0 .391-.017.586-.05.112-.018.223-.038.334-.058l.887 5.727c.13.84.673 1.548 1.45 1.892.325.144.667.214 1.008.214.48 0 .955-.14 1.37-.413l7.014-4.638c.936-.619 1.522-1.615 1.609-2.734l.525-6.798c.044-.036.089-.072.133-.11 3.59-2.994 6.703-6.748 8.539-10.297 3.6-6.961 3.798-14.242 3.595-17.962zM30.462 39.097l-6.71 4.437-.864-5.582c2.835-.834 5.64-2.17 8.313-3.958l-.342 4.428c-.021.276-.166.523-.397.675zM18.686 35.71l-7.978-7.978c-.203-.203-.297-.49-.251-.765.237-1.418.606-2.768 1.062-4.04l11.97 11.97c-1.528.547-2.896.873-4.038 1.064-.276.046-.562-.048-.765-.251zM7.995 15.559l4.428-.343C10.634 17.89 9.3 20.694 8.465 23.53l-5.581-.865 4.436-6.71c.153-.23.399-.376.675-.397zm24.492 14.077c-2.197 1.833-4.33 3.158-6.295 4.117L12.664 20.225c1.256-2.566 2.79-4.703 4.117-6.294 2.772-3.324 6.22-6.19 9.459-7.866 6.389-3.304 13.12-3.482 16.564-3.295.456.025.818.387.843.843.188 3.444.01 10.176-3.295 16.565-1.675 3.239-4.542 6.686-7.865 9.458z" transform="translate(-419 -374) translate(419.5 374.885)"/>
                <path fill="#6583FE" d="M31.796 21.417c1.74 0 3.482-.662 4.808-1.988 1.284-1.284 1.991-2.991 1.991-4.807 0-1.817-.707-3.524-1.991-4.808-2.651-2.651-6.965-2.651-9.616 0-1.284 1.284-1.991 2.991-1.991 4.808 0 1.816.707 3.523 1.991 4.807 1.326 1.326 3.066 1.989 4.808 1.988zm-2.885-9.68c.795-.796 1.84-1.193 2.885-1.193 1.044 0 2.09.397 2.884 1.193.77.77 1.195 1.795 1.195 2.884 0 1.09-.424 2.115-1.195 2.885-1.59 1.59-4.178 1.59-5.769 0-.77-.77-1.195-1.795-1.195-2.884 0-1.09.425-2.115 1.195-2.885zM1.387 38.252c.348 0 .696-.132.962-.398l4.44-4.44c.53-.53.53-1.392 0-1.923-.531-.531-1.393-.531-1.924 0l-4.44 4.44c-.53.53-.53 1.392 0 1.923.266.265.614.398.962.398zM10.857 35.56c-.53-.531-1.392-.531-1.923 0L.398 44.096c-.53.53-.53 1.392 0 1.923.266.265.614.398.962.398s.696-.133.961-.398l8.536-8.536c.531-.531.531-1.392 0-1.923zM13.003 39.629l-4.44 4.44c-.53.53-.53 1.392 0 1.923.266.265.614.398.962.398s.696-.133.961-.398l4.44-4.44c.531-.531.531-1.392 0-1.923-.53-.531-1.392-.531-1.923 0z" transform="translate(-419 -374) translate(419.5 374.885)"/>
            </g>
        </g>
    </g>
</svg>
