<?xml version="1.0" encoding="UTF-8"?>
<svg width="19px" height="19px" viewBox="0 0 19 19" version="1.1" xmlns="http://www.w3.org/2000/svg" xmlns:xlink="http://www.w3.org/1999/xlink">
    <title>Shape</title>
    <g id="Page-1" stroke="none" stroke-width="1" fill="none" fill-rule="evenodd">
        <path d="M18.1172589,1.15399058 C18.0711578,0.93990784 17.9037601,0.77278103 17.689603,0.727026628 C16.5612971,0.484826658 15.6783052,0.484826658 14.7984273,0.484826658 C11.2093698,0.484826658 9.04894602,2.39128643 7.43208822,4.91362612 L3.92364864,4.91362612 C3.2956999,4.91415742 2.72174623,5.26881179 2.44034682,5.83018001 L0.730415033,9.24865959 C0.602022617,9.50613724 0.616058538,9.8117283 0.767512694,10.0563525 C0.91896685,10.3009767 1.18625497,10.4497717 1.47396894,10.4496254 L4.67792855,10.4496254 L4.3115146,11.1907574 C4.10215964,11.6149728 4.18788685,12.1255724 4.52430457,12.4581552 L6.38474634,14.316867 C6.59191341,14.5250884 6.87332812,14.6424586 7.16705225,14.6431449 C7.33512486,14.6429601 7.50088937,14.6040055 7.65145219,14.5293109 L8.3915461,14.163243 L8.3915461,17.3696246 C8.39306514,17.8276111 8.76395948,18.1985055 9.221946,18.2000245 C9.34969619,18.2000245 9.47565429,18.169964 9.58974395,18.1124865 L13.0047635,16.4035927 C13.5671116,16.1226814 13.9221881,15.5478594 13.9216634,14.9192529 L13.9216634,11.4083913 C16.4398511,9.78980352 18.3563449,7.62107579 18.3563449,4.04862622 C18.3591129,3.16528833 18.3591129,2.28402644 18.1172589,1.15399058 Z M5.0699465,9.34242558 L1.92134689,9.34242558 L3.4295607,6.32530595 C3.52414264,6.13920278 3.71489175,6.02165432 3.92364864,6.02082598 L6.87087628,6.02082598 C6.38855234,6.99204786 5.77336442,8.23522571 5.22530049,9.34242558 L5.0699465,9.34242558 Z M12.8155016,14.9192529 C12.8149969,15.1286754 12.6963604,15.3198864 12.5089456,15.4133408 L9.49874596,16.9198247 L9.49874596,13.6148331 C10.6059458,13.0671151 11.8453177,12.4526192 12.8155016,11.9699493 L12.8155016,14.9192529 Z M13.3220455,10.4807654 C11.9553457,11.1651534 8.62094407,12.8145352 7.16636025,13.5338691 L5.30418848,11.6810393 C6.02629039,10.2198815 7.67532619,6.88582588 8.3569461,5.51601204 C10.0942119,2.80302638 12.0826736,1.59202652 14.7984273,1.59202652 C15.5437112,1.59202652 16.2516271,1.59202652 17.103825,1.7404605 C17.253989,2.6009624 17.251221,3.30472631 17.248453,4.04828022 C17.2491978,6.74984789 16.0381452,8.73554165 13.3220455,10.4807654 Z M13.3739455,3.25282632 C12.1509663,3.25282632 11.1595458,4.24424685 11.1595458,5.46722605 C11.1595458,6.69020525 12.1509663,7.68162578 13.3739455,7.68162578 C14.5969247,7.68162578 15.5883452,6.69020525 15.5883452,5.46722605 C15.5870104,4.24480018 14.5963714,3.25416116 13.3739455,3.25282632 L13.3739455,3.25282632 Z M13.3739455,6.57442592 C12.7624559,6.57442592 12.2667456,6.07871565 12.2667456,5.46722605 C12.2667456,4.85573645 12.7624559,4.36002619 13.3739455,4.36002619 C13.9854351,4.36002619 14.4811454,4.85573645 14.4811454,5.46722605 C14.4811454,6.07871565 13.9854351,6.57442592 13.3739455,6.57442592 Z" id="Shape" fill="#2F3842" fill-rule="nonzero"></path>
    </g>
</svg>