<svg xmlns="http://www.w3.org/2000/svg" width="38" height="50" viewBox="0 0 38 50">
    <g fill="none" fill-rule="evenodd">
        <g fill-rule="nonzero">
            <g>
                <path fill="#2F3842" stroke="#2F3842" stroke-width=".3" d="M13.44 37.3c.465-.465 1.217-.465 1.682 0h0l2.474 2.474L20.07 37.3c.465-.465 1.218-.465 1.683 0 .455.465.455 1.217 0 1.683h0l-2.474 2.474 2.474 2.474c.465.465.465 1.217 0 1.682-.238.228-.535.347-.842.347-.306 0-.613-.12-.84-.347h0l-2.475-2.474-2.474 2.474c-.238.228-.534.347-.841.347-.307 0-.614-.12-.841-.347-.466-.465-.466-1.217 0-1.682h0l2.474-2.474-2.474-2.474c-.466-.466-.466-1.218 0-1.683zm14.072-6.126c.466-.465 1.218-.465 1.683 0h0l2.474 2.474 2.474-2.474c.465-.465 1.217-.465 1.683 0 .465.465.465 1.208 0 1.683h0L33.35 35.33l2.475 2.474c.465.465.465 1.217 0 1.682-.238.228-.535.347-.842.347-.306 0-.613-.12-.84-.347h0l-2.475-2.474-2.474 2.474c-.238.228-.535.347-.841.347-.307 0-.614-.12-.842-.347-.465-.465-.465-1.217 0-1.682h0l2.475-2.474-2.475-2.474c-.465-.466-.465-1.218 0-1.683zm-22.92 2.97c.317 0 .623.128.841.346.218.217.347.524.347.84 0 .317-.13.624-.347.842-.218.218-.524.346-.841.346-.317 0-.623-.128-.841-.346-.218-.218-.347-.525-.347-.841 0-.317.13-.624.347-.841.218-.218.524-.347.841-.347zm.336-3.91c.357-.544 1.099-.693 1.643-.336.545.356.693 1.098.337 1.642-.228.347-.604.535-.99.535-.227 0-.455-.07-.653-.198-.554-.356-.703-1.099-.337-1.643zM8.976 26.8c.594-.267 1.297 0 1.574.604.267.593 0 1.296-.604 1.563-.158.07-.327.1-.485.1-.455 0-.89-.258-1.089-.703-.267-.594 0-1.297.604-1.564zm5.087-.802c.653 0 1.188.535 1.188 1.188 0 .653-.535 1.187-1.188 1.187-.663 0-1.188-.534-1.188-1.187s.535-1.188 1.188-1.188zm4.7 0c.657 0 1.188.532 1.188 1.188 0 .656-.531 1.187-1.187 1.187s-1.188-.531-1.188-1.187.532-1.188 1.188-1.188zm12.055-13.746c.465-.465 1.217-.465 1.682 0h0l4.592 4.592c.465.465.465 1.217 0 1.672-.237.228-.534.347-.84.347-.308 0-.614-.119-.842-.347h0l-2.563-2.563v3.078c0 5.146-4.216 9.333-9.392 9.333-.653 0-1.188-.535-1.188-1.188 0-.653.535-1.188 1.188-1.188 3.87 0 7.017-3.117 7.017-6.957h0v-3.068l-2.564 2.563c-.465.466-1.217.466-1.682 0-.465-.465-.465-1.217 0-1.682h0zM31.669 0c2.534 0 4.592 2.068 4.592 4.612 0 2.543-2.058 4.612-4.592 4.612s-4.592-2.079-4.592-4.612C27.077 2.078 29.135 0 31.669 0zm0 2.385c-1.227 0-2.217.99-2.217 2.227 0 1.237.99 2.246 2.217 2.246s2.217-1 2.217-2.236c0-1.237-1-2.237-2.217-2.237z" transform="translate(-32 -478) translate(32 479)"/>
                <path fill="#6583FE" d="M15.943 20.436c.228.228.535.347.842.347.306 0 .603-.119.84-.347.466-.465.466-1.217 0-1.682l-2.473-2.474 2.474-2.474c.465-.465.465-1.218 0-1.683-.465-.465-1.217-.465-1.683 0l-2.474 2.474-2.474-2.474c-.465-.465-1.217-.465-1.682 0-.465.465-.465 1.218 0 1.683l2.474 2.474-2.474 2.474c-.465.465-.465 1.217 0 1.682.227.228.534.347.84.347.308 0 .605-.119.842-.347l2.474-2.474 2.474 2.474zM4.592 38.963C2.058 38.963 0 41.03 0 43.575c0 2.543 2.058 4.611 4.592 4.611s4.592-2.068 4.592-4.611c0-2.544-2.068-4.612-4.592-4.612zm0 6.848c-1.217 0-2.217-1-2.217-2.236 0-1.228.99-2.237 2.217-2.237s2.217 1 2.217 2.237c-.01 1.227-1 2.236-2.217 2.236z" transform="translate(-32 -478) translate(32 479)"/>
            </g>
        </g>
    </g>
</svg>
