<svg xmlns="http://www.w3.org/2000/svg" width="106" height="88" viewBox="0 0 106 88">
    <defs>
        <linearGradient id="lwex0ye2wa" x1="73.796%" x2="43.036%" y1="88.648%" y2="32.423%">
            <stop offset="0%" stop-color="#D2DBFC" stop-opacity="0"/>
            <stop offset="100%" stop-color="#B8C1FB"/>
        </linearGradient>
    </defs>
    <g fill="none" fill-rule="evenodd" opacity=".7">
        <g fill-rule="nonzero">
            <g transform="translate(-35 -354) translate(35 354)">
                <path fill="url(#lwex0ye2wa)" d="M97.394 17.47c-13.513-10.39-26.62-1.923-41.24-4.916C41.428 9.539 35.562-.502 18.79 4.133 3.933 8.238-5.082 24.697 3.085 38.477c2.328 3.927 6.293 6.89 7.913 11.283 2.614 7.088-1.365 12.53-.589 19.495 3.225 28.941 47.424 17.73 63.687 8.726 25.506-14.12 42.76-45.548 23.298-60.511z"/>
                <path fill="#2B2AB5" d="M90.08 41.64c-3.39-3.634-7.258-6.812-11.504-9.441V19.185c0-2.28-1.85-4.131-4.131-4.131H23.884c-2.28 0-4.132 1.85-4.132 4.131V32.2c-4.245 2.629-8.114 5.807-11.502 9.44-1.486 1.594-1.486 4.061 0 5.655.678.726 1.376 1.433 2.091 2.123-.324.365-.523.844-.523 1.37V66.89c0 1.14.925 2.065 2.066 2.065h7.868v.791c0 2.28 1.851 4.131 4.132 4.131h32.368c1.192 4.207 5.058 7.29 9.647 7.29 4.65 0 8.558-3.164 9.695-7.455 1.721-.498 2.982-2.085 2.982-3.966V56.733c4.245-2.628 8.114-5.806 11.503-9.438 1.486-1.594 1.486-4.061 0-5.655z" opacity=".11"/>
                <path fill="#FFF" d="M82.294 15.467v50.56c0 2.281-1.85 4.132-4.131 4.132h-50.56c-2.281 0-4.132-1.85-4.132-4.131V15.467c0-2.28 1.85-4.132 4.131-4.132h50.561c2.28 0 4.131 1.851 4.131 4.132z"/>
                <path fill="#FFF" d="M93.797 37.922c1.487 1.594 1.486 4.061 0 5.655-10.21 10.946-24.762 17.787-40.912 17.787-16.154 0-30.706-6.841-40.917-17.787-1.486-1.594-1.486-4.061 0-5.655C22.176 26.976 36.731 20.13 52.885 20.13c16.153 0 30.705 6.844 40.912 17.79z"/>
                <circle cx="52.883" cy="40.747" r="12.111" fill="#E76580"/>
                <path fill="#6E80F8" d="M74.624 77.449c5.539 0 10.03-4.49 10.03-10.03 0-5.54-4.491-10.03-10.03-10.03h-5.006v20.06h5.006z"/>
                <circle cx="69.617" cy="67.419" r="10.03" fill="#FFF"/>
                <path fill="#6E80F8" d="M87.918 17.733c.488-7.617-5.793-13.898-13.41-13.41-6.169.395-11.208 5.322-11.73 11.48-.254 2.988.537 5.779 2.045 8.054l-1.77 4.02c-.366.83.48 1.677 1.31 1.311l4.02-1.77c2.276 1.508 5.067 2.3 8.054 2.045 6.159-.522 11.086-5.562 11.481-11.73z"/>
                <path fill="#2B2AB5" d="M70.518 15.339c.782 0 1.416.634 1.416 1.416 0 .782-.634 1.417-1.416 1.417-.782 0-1.417-.635-1.417-1.417s.635-1.416 1.417-1.416zM75.563 15.339c.783 0 1.417.634 1.417 1.416 0 .782-.634 1.417-1.417 1.417-.782 0-1.416-.635-1.416-1.417s.634-1.416 1.416-1.416zM80.609 15.339c.782 0 1.416.634 1.416 1.416 0 .782-.634 1.417-1.416 1.417-.783 0-1.417-.635-1.417-1.417s.634-1.416 1.417-1.416z"/>
                <path fill="#6E80F8" d="M31.703 65.237h-16.1c-1.142 0-2.066-.925-2.066-2.066v-16.1c0-1.142.924-2.067 2.065-2.067h16.101c1.141 0 2.066.925 2.066 2.066v16.101c0 1.141-.925 2.066-2.066 2.066z"/>
                <g fill="#2B2AB5">
                    <path d="M6.584 5.741c-.265 0-.529-.1-.73-.302-.404-.404-.404-1.058 0-1.461L9.502.328c.403-.403 1.057-.403 1.46 0 .404.404.404 1.058 0 1.461l-3.65 3.65c-.2.201-.465.302-.73.302zM1.147 5.741c-.264 0-.529-.1-.73-.302-.404-.404-.404-1.058 0-1.461l3.65-3.65c.403-.403 1.056-.403 1.46 0 .403.404.403 1.058 0 1.461l-3.65 3.65c-.201.201-.465.302-.73.302zM47.26 17.431c-.265 0-.529-.1-.73-.302-.404-.404-.404-1.058 0-1.46l3.649-3.65c.403-.404 1.057-.404 1.46 0 .404.403.404 1.057 0 1.46l-3.649 3.65c-.202.201-.466.302-.73.302zM41.823 17.431c-.264 0-.529-.1-.73-.302-.404-.404-.404-1.058 0-1.46l3.649-3.65c.403-.404 1.057-.404 1.46 0 .404.403.404 1.057 0 1.46l-3.649 3.65c-.201.201-.466.302-.73.302z" transform="translate(26.854 32.019)"/>
                </g>
                <circle cx="52.883" cy="40.747" r="9.543" fill="#FFD0DA"/>
                <circle cx="51.888" cy="41.135" r="2.934" fill="#E76580"/>
                <circle cx="55.046" cy="39.165" r="2.2" fill="#D2DBFC"/>
                <path fill="#6E80F8" d="M17.083 13.155c-.772 0-1.545-.294-2.133-.883-1.176-1.176-1.176-3.09 0-4.265 1.176-1.177 3.09-1.176 4.266 0 .57.57.884 1.327.884 2.133 0 .805-.314 1.563-.884 2.133-.588.587-1.36.882-2.133.882zm0-3.966c-.243 0-.487.093-.672.278-.37.37-.37.974 0 1.345.37.37.974.37 1.345 0 .18-.18.278-.419.278-.673 0-.253-.099-.492-.279-.672-.185-.185-.429-.278-.672-.278zM90.562 60.554c-.773 0-1.545-.294-2.133-.882-.57-.57-.884-1.327-.884-2.133s.314-1.563.884-2.133c1.176-1.176 3.09-1.176 4.266 0 .57.57.883 1.327.883 2.133s-.313 1.563-.883 2.133c-.588.588-1.36.882-2.133.882zm0-3.965c-.244 0-.487.092-.672.278-.18.18-.28.418-.28.672 0 .254.1.492.28.672.37.371.973.371 1.344 0 .18-.18.278-.418.278-.672 0-.254-.099-.493-.278-.672-.185-.186-.429-.278-.672-.278zM23.677 1.842h-.671V1.17c0-.57-.463-1.033-1.033-1.033-.57 0-1.033.463-1.033 1.033v.672h-.671c-.57 0-1.033.462-1.033 1.032 0 .57.462 1.033 1.033 1.033h.671v.672c0 .57.463 1.033 1.033 1.033.57 0 1.033-.463 1.033-1.033v-.672h.671c.57 0 1.033-.462 1.033-1.033 0-.57-.462-1.032-1.033-1.032zM21.886 72.481h-.671v-.67c0-.571-.463-1.034-1.033-1.034-.57 0-1.033.463-1.033 1.033v.671h-.671c-.57 0-1.033.463-1.033 1.033 0 .57.462 1.033 1.033 1.033h.67v.672c0 .57.463 1.032 1.034 1.032.57 0 1.033-.462 1.033-1.032v-.672h.671c.57 0 1.033-.462 1.033-1.033 0-.57-.463-1.033-1.033-1.033zM30.324 77.413h-.672v-.671c0-.57-.462-1.033-1.032-1.033-.57 0-1.033.462-1.033 1.033v.671h-.672c-.57 0-1.032.463-1.032 1.033 0 .57.462 1.033 1.032 1.033h.672v.671c0 .57.462 1.033 1.033 1.033.57 0 1.032-.462 1.032-1.033v-.671h.672c.57 0 1.033-.463 1.033-1.033 0-.57-.463-1.033-1.033-1.033z"/>
                <g fill="#2B2AB5">
                    <path d="M84.844 34.119c-3.327-3.568-7.09-6.69-11.199-9.295 3.18-2.327 5.33-5.991 5.595-10.123.251-3.927-1.194-7.77-3.967-10.541C72.501 1.387 68.66-.058 64.733.193 58.06.621 52.604 5.962 52.038 12.617c-.119 1.401-.027 2.78.263 4.11-3.002-.483-6.066-.728-9.126-.728-8.043 0-15.817 1.642-23.107 4.88-1.812.804-3.57 1.698-5.274 2.676V12.37c0-1.709 1.39-3.099 3.099-3.099h30.653c.57 0 1.033-.463 1.033-1.033 0-.57-.463-1.033-1.033-1.033H17.894c-2.848 0-5.165 2.317-5.165 5.165v12.433c-4.105 2.596-7.863 5.711-11.225 9.317-1.847 1.98-1.847 5.083 0 7.063.5.535 1.016 1.061 1.537 1.579-.158.372-.246.781-.246 1.21v6.268c0 .57.462 1.033 1.033 1.033.57 0 1.032-.463 1.032-1.033v-6.268c0-.569.464-1.032 1.033-1.032h16.101c.57 0 1.033.463 1.033 1.032v16.102c0 .57-.463 1.032-1.033 1.032h-16.1c-.57 0-1.034-.463-1.034-1.032v-4.03c0-.57-.462-1.032-1.032-1.032-.57 0-1.033.462-1.033 1.033v4.029c0 1.708 1.39 3.098 3.098 3.098h6.842c.128 2.736 2.392 4.922 5.159 4.922h31.615c1.546 4.248 5.624 7.29 10.4 7.29h5.006c6.1 0 11.062-4.963 11.062-11.063 0-2.57-.883-4.936-2.359-6.816v-7.026c4.113-2.608 7.908-5.74 11.225-9.296 1.848-1.98 1.848-5.083.001-7.063zM54.097 12.792c.48-5.645 5.109-10.175 10.767-10.537 3.334-.213 6.596 1.013 8.949 3.365 2.352 2.353 3.579 5.614 3.365 8.949-.362 5.659-4.892 10.287-10.537 10.767-2.647.224-5.203-.425-7.396-1.877-.172-.114-.37-.172-.57-.172-.142 0-.283.029-.417.087l-3.93 1.73 1.731-3.93c.142-.321.11-.693-.084-.986-1.453-2.192-2.102-4.75-1.878-7.396zM17.894 66.027c-1.627 0-2.962-1.26-3.086-2.856h7.187c1.708 0 3.098-1.39 3.098-3.098v-3.705c5.813 1.943 11.89 2.93 18.083 2.93 2.38 0 4.767-.15 7.12-.443-.92 1.614-1.45 3.478-1.45 5.465 0 .58.046 1.15.132 1.707H17.894zm33.018-1.706c0-4.961 4.036-8.997 8.996-8.997 4.961 0 8.997 4.036 8.997 8.997 0 4.96-4.036 8.996-8.997 8.996-4.96 0-8.996-4.036-8.996-8.996zm15.63 8.846c2.688-2.02 4.429-5.234 4.429-8.847 0-3.612-1.741-6.826-4.428-8.846 4.186.769 7.369 4.442 7.369 8.846 0 4.405-3.183 8.078-7.37 8.847zm5.01-17.69c-1.084-.816-2.323-1.435-3.664-1.81 1.242-.6 2.466-1.243 3.664-1.934v3.744zm11.78-15.704C77.9 45.6 71.143 50.253 63.795 53.231c-.019.008-.034.019-.051.027h-3.835c-3.056 0-5.826 1.246-7.83 3.256-2.922.477-5.917.718-8.902.718-6.203 0-12.284-1.026-18.083-3.047V43.97c0-1.708-1.39-3.098-3.099-3.098h-16.1c-.526 0-1.021.132-1.456.364-.482-.48-.96-.968-1.423-1.464-1.11-1.19-1.11-3.055 0-4.246 5.085-5.453 11.104-9.746 17.892-12.76 7.025-3.12 14.517-4.702 22.269-4.702 3.296 0 6.595.295 9.812.875.267.655.587 1.291.959 1.905l-1.549 3.517c-.34.772-.174 1.655.422 2.25.596.597 1.479.762 2.25.423l3.517-1.55c2.133 1.292 4.534 1.96 7.029 1.96.397 0 .798-.018 1.2-.052 1.727-.146 3.365-.625 4.852-1.367 4.3 2.616 8.225 5.812 11.665 9.5 1.11 1.192 1.11 3.057 0 4.247z" transform="translate(9.709 3.099)"/>
                    <path d="M10.398 51.164c-1.482 0-2.688-1.205-2.688-2.688 0-1.482 1.206-2.687 2.688-2.687 1.482 0 2.688 1.205 2.688 2.687 0 1.482-1.206 2.688-2.688 2.688zm0-3.31c-.343 0-.622.28-.622.622 0 .343.28.622.622.622.343 0 .622-.279.622-.622 0-.342-.279-.622-.622-.622zM17.49 58.256c-1.482 0-2.688-1.206-2.688-2.688 0-1.482 1.206-2.688 2.688-2.688 1.482 0 2.687 1.206 2.687 2.688 0 1.482-1.205 2.688-2.687 2.688zm0-3.31c-.343 0-.622.279-.622.622 0 .343.279.622.622.622.343 0 .622-.28.622-.622 0-.343-.28-.622-.622-.622zM11.012 55.987c-.264 0-.529-.1-.73-.302-.404-.404-.404-1.058 0-1.461l5.864-5.864c.403-.403 1.057-.403 1.46 0 .404.404.404 1.058 0 1.46l-5.864 5.865c-.201.201-.466.302-.73.302z" transform="translate(9.709 3.099)"/>
                </g>
            </g>
        </g>
    </g>
</svg>
