<?xml version="1.0" encoding="UTF-8"?>
<svg width="28px" height="31px" viewBox="0 0 28 31" version="1.1" xmlns="http://www.w3.org/2000/svg" xmlns:xlink="http://www.w3.org/1999/xlink">
    <title>well_being</title>
    <g id="Page-1" stroke="none" stroke-width="1" fill="none" fill-rule="evenodd">
        <g id="well_being" transform="translate(0.906250, 0.333106)" fill-rule="nonzero">
            <g id="Group-3" transform="translate(0.000000, 0.677537)" fill="#2626BC">
                <path d="M1.36955418,12.1815822 C3.199091,11.0476632 4.87258885,11.202176 6.42267772,12.7172577 C6.81476878,9.26564714 7.58924834,5.99491489 9.94910496,3.3223592 C5.84291457,4.29841952 2.18051814,8.14685154 1.36955418,12.1815822 M24.9220661,12.3016993 C24.3421036,9.92619094 23.2197928,7.94824006 21.5336018,6.30307051 C20.05389,4.8594568 18.3143347,3.8614475 16.2460211,3.28160636 C18.6491407,5.99739084 19.3956422,9.25915613 19.805477,12.712105 C20.5038643,11.9655052 21.3063219,11.5391731 22.271464,11.458002 C23.238334,11.3767641 24.098542,11.6645098 24.9220661,12.3016993 M12.5537195,12.5217913 C12.6359256,12.3842088 12.5988432,12.2494367 12.598976,12.1227616 C12.6017672,9.3095451 12.5983114,6.49632858 12.6034286,3.68311206 C12.6050236,2.79344237 12.6034286,2.78554609 11.8007052,3.18932697 C10.8151611,3.68511958 10.1442201,4.50325434 9.58339694,5.42317079 C8.73435363,6.81559252 8.21612885,8.33850359 7.86829755,9.92679319 C7.69311925,10.7265256 7.5535614,11.5310092 7.47088999,12.3772493 C9.22214151,11.0779769 10.9088641,11.1159861 12.5537195,12.5217913 M18.74929,12.4038156 C18.6696756,11.361373 18.4493735,10.3907999 18.2143847,9.42631631 C17.8067429,7.75344289 17.1851789,6.16803076 16.1624857,4.76938569 C15.584384,3.978821 14.8905822,3.32329604 13.9381997,3.00028471 C13.6868626,2.91496476 13.5865803,2.93182799 13.5877101,3.25269796 C13.5980772,6.25455523 13.5900361,9.25634559 13.5904348,12.2582029 C13.5904348,12.3497462 13.5500959,12.4530001 13.6262546,12.5394576 C15.0098709,11.212749 17.0688807,11.0099886 18.74929,12.4038156 M15.634492,2.10305333 C16.8520344,2.37641179 18.0226588,2.78467616 19.1417798,3.34096229 C19.4068732,3.49279836 19.6720996,3.64456751 19.937193,3.79633666 C20.7359955,4.32271061 21.5022345,4.89130958 22.1904541,5.56075341 C22.30642,5.67350959 22.4179333,5.79088308 22.5314403,5.90618213 C22.7272865,6.11509893 22.9230662,6.32401572 23.1189124,6.53293252 C23.8141762,7.4005863 24.419525,8.32732835 24.9256548,9.31938199 C25.0561746,9.60906834 25.1866944,9.89868778 25.3172142,10.1883742 C25.6321497,11.1325817 25.9404397,12.0786629 26.0710924,13.0715865 C26.1143553,13.4008881 26.1515707,13.7309927 26.1915108,14.0607626 C26.2003495,14.4564465 26.2716569,14.8513274 26.2083242,15.2481488 C26.1550264,15.402327 26.0346079,15.4971492 25.9109331,15.5890941 C25.5746652,15.6406207 25.3305055,15.5344893 25.2279637,15.1853132 C25.1810457,13.7670612 24.3108028,12.6866094 23.0682064,12.5037906 C22.5935103,12.4258984 22.123865,12.4175337 21.6683748,12.6061745 C20.8944269,12.8872284 20.3543381,13.4048362 20.0835958,14.1948655 C19.9480919,14.4472118 19.9385221,14.7267267 19.9155948,15.0024274 C19.8952592,15.2466097 19.8420943,15.467304 19.582849,15.5658737 C19.3285215,15.6627035 19.133938,15.557442 18.9626141,15.3766306 C18.9071233,15.2073291 18.895427,15.0326072 18.8854585,14.8554762 C18.8265784,13.8036652 18.0239215,12.8200432 17.0317982,12.5755931 C16.6420331,12.4114442 16.2377805,12.4312518 15.8312684,12.4794325 C14.6722739,12.6851373 13.7864139,13.5717956 13.6502453,14.6623521 C13.5528207,15.0837992 13.5870455,15.5097298 13.6075805,15.935192 C13.6052545,17.5140461 13.6028621,19.0928334 13.6005361,20.6716877 L13.6057197,21.945799 C13.6036595,23.5249878 13.6015994,23.2290427 13.5995393,24.8081647 C13.6010678,25.2326231 13.6025963,25.6570146 13.6041248,26.0814061 C13.5980772,27.1348901 13.5887734,27.2508742 13.5881753,28.3042912 C13.5880423,28.5732331 13.5218521,28.7925221 13.2453947,28.8799165 C12.8996235,28.9893268 12.6099413,28.7503641 12.6015678,28.3389546 C12.5885424,27.696077 12.590669,27.9903649 12.5863493,27.3472867 C12.5844222,26.9243673 12.5825613,26.501448 12.5806342,26.0784617 C12.6156565,24.4977338 12.6054887,24.7920059 12.5874791,23.2112111 C12.5854854,22.7884256 12.5834918,22.3655732 12.5814981,21.9427208 C12.6189128,20.361926 12.6064856,18.7809974 12.5890741,17.2000687 L12.5828272,15.9320468 C12.6149255,15.4114278 12.6471567,14.8872622 12.5113869,14.3782867 C12.2849045,13.5296376 11.7701354,12.9368813 10.9249465,12.6606454 C10.5890773,12.4947566 10.2324074,12.4447023 9.86271204,12.4670527 C8.42068078,12.4247608 7.26022411,13.569119 7.29584459,14.9983453 C7.23849297,15.4386633 7.14545441,15.5419172 6.74525569,15.6091693 C6.38865218,15.5338201 6.30345544,15.2834813 6.27846794,14.9512354 C6.20563204,13.9819337 5.76030963,13.2406204 4.8920605,12.7796918 C4.58855543,12.5804781 4.25308496,12.4841837 3.89355738,12.4651121 C2.49166566,12.3389055 1.29445877,13.2354008 1.02298554,14.6147067 C1.01009306,14.6801521 0.996868294,14.7453967 0.983377698,14.8107083 C0.916323481,15.1351919 0.72479696,15.2965302 0.439700232,15.2688263 C0.166499148,15.24226 -0.0129988159,15.0299304 0.000757599698,14.7038409 C0.0293337287,14.0266347 0.0799068314,13.3502983 0.218002636,12.6850034 C0.312636142,12.2293613 0.421424801,11.7766637 0.523966584,11.3226277 C0.748787618,10.6185205 1.03833691,9.939909 1.32556023,9.26042757 C2.07977066,7.83963277 3.00231444,6.54839048 4.17546422,5.44237614 C5.1089068,4.5623426 6.16442925,3.86278585 7.27637295,3.2407197 C7.97303239,2.93999195 8.66975829,2.63926418 9.39472802,2.41194504 C10.3738259,2.14574677 11.3623607,1.93341718 12.3806012,1.90363884 C12.5500643,1.89868694 12.613264,1.83658739 12.6090109,1.66574673 C12.600438,1.32219169 12.6020995,0.978168234 12.6080805,0.634479364 C12.6151913,0.228891701 12.7851861,0.0214470955 13.100188,0.0180972837 C13.4209053,0.0151568397 13.587112,0.217716459 13.5909,0.624240968 C13.5939569,0.945847022 13.6027291,1.26798842 13.5874442,1.58892531 C13.5768778,1.80948576 13.6344952,1.91802613 13.8751993,1.90718548 C14.0832069,1.89781702 14.2928095,1.92404872 14.5016145,1.93448786 C14.8792847,1.99069866 15.2568883,2.04690946 15.634492,2.10305333 Z" id="Fill-1"></path>
            </g>
            <path d="M23.6364394,22.8338317 C24.3348266,23.3157725 24.7527691,23.980599 24.9102037,24.8151285 C24.9280139,25.1327196 24.9312039,25.4497752 24.8808301,25.7651579 C24.704655,26.4780312 24.3486495,27.0713898 23.746823,27.5033429 C23.4299603,27.730729 23.0774106,27.874468 22.702731,27.9690895 C22.3889252,28.0265718 22.0726606,28.0155304 21.7563294,28.0040874 C20.8947259,27.8552627 20.2310288,27.4016282 19.7421776,26.6785834 C19.658177,26.5003818 19.5741765,26.3221801 19.4901095,26.1439785 C19.2898773,25.4451578 19.2858899,24.7554381 19.5860721,24.0803731 C20.1480251,22.8168347 21.493429,22.1630497 22.8464756,22.4951617 C22.9072829,22.5100844 22.9686884,22.5222634 23.029828,22.5357138 C23.2320539,22.6350864 23.4342799,22.7344591 23.6364394,22.8338317" id="Fill-4" fill="#1FC283"></path>
            <path d="M23.2622316,19.0801021 C23.2620988,19.0248951 23.261833,18.969755 23.261833,18.914481 C23.2624311,18.3315617 23.4032515,18.2070949 24.0556512,18.2127829 C24.2154117,18.3976762 24.2695734,18.6088013 24.2616651,18.8557943 C24.2463802,19.3317792 24.2580765,19.8085003 24.2568803,20.2849538 C24.2560163,20.6370743 24.0725975,20.8670032 23.7840451,20.8822604 C23.5095813,20.8966477 23.2796432,20.6579526 23.2672158,20.3097802 C23.252662,19.9003782 23.2628297,19.4900394 23.2622316,19.0801021" id="Fill-6" fill="#DBE3FF"></path>
            <path d="M24.256528,21.9544211 C24.2551192,22.25013 24.0695737,22.4290677 23.7733789,22.4202346 C23.4962568,22.4120037 23.283398,22.2075704 23.2730973,21.9396992 C23.2651225,21.7325223 23.5589914,21.4279133 23.7669326,21.4279802 C24.0402001,21.4279802 24.2579104,21.662058 24.256528,21.9544211" id="Fill-8" fill="#DBE3FF"></path>
            <path d="M20.080519,22.2839769 C20.0249616,22.0927265 19.9549169,21.8971263 20.0464934,21.7029982 C20.1753518,21.4299074 20.4609802,21.3785147 20.8071501,21.552099 C20.9923632,21.7888536 21.0212052,22.0547842 20.8258243,22.2748762 C20.6051899,22.5234751 20.3317895,22.4368837 20.080519,22.2839769" id="Fill-10" fill="#DBE3FF"></path>
            <path d="M21.6699498,20.6158078 C21.6941399,20.4169956 21.6050887,20.2054021 21.7612605,20.0208433 C21.9432174,19.8058371 22.1811302,19.9042059 22.398176,19.8823908 C22.4477521,20.0022402 22.5912309,20.0619977 22.597943,20.211224 C22.6075126,20.4222821 22.6281805,20.6458538 22.4065494,20.7609521 C22.1329496,20.9030852 21.8851347,20.8213788 21.6699498,20.6158078" id="Fill-12" fill="#DBE3FF"></path>
            <path d="M1.45998766,26.1883382 C1.26573644,25.5275937 1.224002,24.8672507 1.48896252,24.2152723 C1.90411387,23.1936412 2.65759329,22.6059037 3.74109376,22.429375 C4.20661884,22.3534905 4.64376717,22.4556067 5.0837731,22.5736494 C5.27197681,22.672219 5.46024698,22.7707887 5.64851715,22.8692245 C5.82117013,23.0278862 6.01309539,23.1629259 6.17072929,23.3406592 C6.5697318,23.7906131 6.77900211,24.323612 6.87715778,24.9090072 C6.89643006,25.227602 6.86373365,25.5431855 6.82525555,25.8585682 C6.67008053,26.3066485 6.48500025,26.7343859 6.15916593,27.0931982 C5.77159387,27.5200657 5.29503708,27.7864647 4.75534698,27.9550971 C4.42638922,28.0134492 4.09444093,28.0122447 3.76222681,28.0057537 C2.93325325,27.8903877 2.28430929,27.4736248 1.78429349,26.8075938 C1.67616939,26.6012198 1.5680453,26.3947791 1.45998766,26.1883382" id="Fill-14" fill="#6583FE"></path>
            <path d="M5.22105149,19.2140043 C5.22098503,19.1046608 5.22045338,18.9953175 5.22085212,18.886041 C5.22271289,18.289872 5.51638246,18.0832973 6.08272146,18.2793659 C6.19290569,18.4542886 6.22314323,18.6443346 6.21902295,18.8509093 C6.20951973,19.3284334 6.21676344,19.8062251 6.21563369,20.283883 C6.21476975,20.6374088 6.0310186,20.8677393 5.74166869,20.8822604 C5.45324915,20.8967146 5.24085541,20.6766894 5.22610215,20.3136614 C5.21121598,19.947622 5.22164959,19.580579 5.22105149,19.2140043" id="Fill-16" fill="#DBE3FF"></path>
            <path d="M5.71571093,22.4204287 C5.46198148,22.4179527 5.21981541,22.1816666 5.22592937,21.94257 C5.23144522,21.7282328 5.51441536,21.432457 5.71836917,21.4277728 C5.98811454,21.4216163 6.21120771,21.6524152 6.21552736,21.9422354 C6.22011283,22.2517294 6.0404155,22.4236407 5.71571093,22.4204287" id="Fill-18" fill="#DBE3FF"></path>
            <path d="M2.10530975,22.3508276 C1.87670072,21.9024797 1.93730869,21.6327348 2.27404183,21.4615595 C2.49554005,21.3489371 2.64380364,21.5356373 2.83034595,21.5522998 C2.84503275,21.6044955 2.86158033,21.656089 2.87427345,21.7086863 C3.00951164,22.270125 2.70919646,22.5207315 2.10530975,22.3508276" id="Fill-20" fill="#DBE3FF"></path>
            <path d="M3.76294454,20.7485322 C3.59015864,20.5268342 3.54609824,20.2765623 3.70891571,20.0479717 C3.89751817,19.7832457 4.16872557,19.8567881 4.42557845,19.9492013 C4.59078835,20.1722377 4.64096271,20.421372 4.47721485,20.6502303 C4.28854594,20.9137518 4.01926577,20.8442914 3.76294454,20.7485322" id="Fill-22" fill="#DBE3FF"></path>
            <path d="M2.96414205,20.0840603 C2.96753131,20.7308191 2.82431838,20.8881425 2.23804255,20.8817183 C2.00199043,20.6764151 1.95115151,20.4145665 1.9646421,20.110359 C1.9847783,19.6570591 1.9669016,19.2021532 1.97088897,18.7480502 C1.97427823,18.3636755 2.10991516,18.2114378 2.43555012,18.2111021 C2.75081792,18.2107017 2.95450591,18.4114546 2.9614838,18.7548089 C2.97045538,19.1977366 2.96394268,19.6409989 2.96414205,20.0840603" id="Fill-24" fill="#DBE3FF"></path>
            <path d="M4.6215243,18.4153693 C4.61587553,18.5559632 4.62923321,18.6945496 4.58470762,18.8358796 C4.44986816,19.2647545 4.26266128,19.3637926 3.82763956,19.2147002 C3.66734742,19.1166659 3.62700856,18.9624208 3.62727438,18.7874312 C3.62793894,18.2106683 3.62866996,17.6339723 3.62706779,17.0573432 C3.62627754,16.7766238 3.75699672,16.6233156 4.0394352,16.6087275 C4.3612157,16.592065 4.51001095,16.7215507 4.55952074,17.0254235 C4.63481552,17.4871551 4.61806859,17.9512957 4.6215243,18.4153693" id="Fill-26" fill="#DBE3FF"></path>
            <path d="M18.7493165,13.0813662 C17.0688408,11.6875392 15.0098975,11.8902996 13.6262148,13.2169413 C13.550056,13.1304837 13.5904614,13.0272299 13.5903949,12.9356866 C13.5900626,9.93389621 13.5980374,6.93203893 13.5877367,3.93024857 C13.5865405,3.60937861 13.6868892,3.59251537 13.9381597,3.67783533 C14.8905424,4.00084665 15.5843441,4.65637161 16.1625124,5.44693631 C17.185139,6.84551446 17.8067031,8.4309935 18.2143449,10.103867 C18.4493337,11.0683506 18.6696357,12.0389236 18.7493165,13.0813662" id="Fill-28" fill="#DBE3FF"></path>
            <path d="M12.5537128,13.1993219 C10.9088575,11.7935167 9.22213487,11.7555074 7.47088335,13.0547798 C7.55355476,12.2085397 7.6931126,11.4040561 7.86829092,10.6043237 C8.21612221,9.01603413 8.73434698,7.49312305 9.58339033,6.10070133 C10.1442135,5.18078488 10.8151544,4.36265012 11.8006986,3.86685752 C12.603422,3.46307662 12.6050168,3.47097291 12.603422,4.36064259 C12.5983048,7.17385912 12.6017606,9.98707564 12.5989694,12.8002922 C12.5988365,12.9269672 12.635919,13.0617393 12.5537128,13.1993219" id="Fill-30" fill="#DBE3FF"></path>
            <path d="M24.9220462,12.9792299 C24.098522,12.3421073 23.2383806,12.0542946 22.2714441,12.1355995 C21.3063019,12.2167037 20.5038444,12.6431027 19.8054571,13.3896356 C19.3956222,9.93668667 18.6491207,6.67492138 16.2460676,3.95913691 C18.3143148,4.53897803 20.0539365,5.53698734 21.5335819,6.98060105 C23.2197728,8.6257706 24.3420837,10.6037214 24.9220462,12.9792299" id="Fill-32" fill="#DBE3FF"></path>
            <path d="M1.36955418,12.8591195 C2.18051814,8.82438878 5.84291457,4.97595675 9.94910496,3.99989643 C7.58924834,6.67245212 6.81476878,9.94318437 6.42267772,13.394795 C4.87258885,11.8797132 3.199091,11.7252005 1.36955418,12.8591195" id="Fill-34" fill="#DBE3FF"></path>
            <path d="M20.2104739,20.8172165 C20.0469918,20.6497886 19.9985453,20.4523816 20.0063871,20.2167647 C20.0226025,19.7306082 20.0088461,19.243448 20.0121688,18.7566892 C20.0146942,18.3781363 20.1513279,18.2220175 20.4777604,18.2111768 C20.7849869,18.2009385 20.9951212,18.4091192 21.0028301,18.7542802 C21.0121339,19.174389 21.0063523,19.5949662 21.0070169,20.0153427 C21.0068839,20.1039416 21.0079473,20.1925405 21.0062858,20.2810725 C20.996982,20.7789396 20.6950054,20.9822353 20.2104739,20.8172165" id="Fill-36" fill="#DBE3FF"></path>
            <path d="M21.8046431,19.2118428 C21.7014368,19.0486976 21.6616959,18.8735743 21.6652846,18.6774387 C21.6746549,18.1576897 21.6640884,17.6376728 21.6701359,17.1178568 C21.6743891,16.7484715 21.8235831,16.6005836 22.1603827,16.6085468 C22.4781757,16.6161085 22.5894898,16.7555648 22.6017842,17.1273592 C22.6145437,17.5122692 22.6418572,17.896644 22.6628573,18.2812195 C22.6630567,18.4235533 22.6722276,18.5664893 22.6619269,18.708087 C22.6261071,19.1995969 22.3408775,19.365151 21.8046431,19.2118428" id="Fill-38" fill="#DBE3FF"></path>
        </g>
    </g>
</svg>