<svg xmlns="http://www.w3.org/2000/svg" viewBox="0 0 16 16"><title>block</title><g id="Layer_2" data-name="Layer 2"><g id="Layer_1-2" data-name="Layer 1"><path d="M15.69,6.52h-2a.31.31,0,0,0-.31.31V8.41a.31.31,0,0,0,.63,0V7.15h1.38v8.23H14V10.76a.31.31,0,1,0-.62,0v4.62h-.62V8.91a.31.31,0,0,0-.31-.31h-2a.31.31,0,0,0-.31.31v6.47H9.5V11.09a.31.31,0,0,0-.31-.31h-2a.31.31,0,0,0-.31.31v4.28H6.25V12.89a.31.31,0,0,0-.31-.31h-2a.31.31,0,0,0-.31.31v2.49H.94a.31.31,0,0,1-.31-.31V.94A.31.31,0,0,1,.94.63H9V2.69a.94.94,0,0,0,.94.94H12V7.47a.31.31,0,0,0,.63,0V3.31a.31.31,0,0,0-.09-.22l-3-3A.31.31,0,0,0,9.31,0H.94A.94.94,0,0,0,0,.94V15.06A.94.94,0,0,0,.94,16H15.69a.31.31,0,0,0,.31-.31V6.84a.31.31,0,0,0-.31-.31M9.62,1.07,11.56,3H9.94a.31.31,0,0,1-.31-.31Zm-4,14.31H4.25V13.2H5.63Zm3.25,0H7.5v-4H8.88Zm3.25,0H10.75V9.22h1.38Z" /><path d="M13.91,9.31a.32.32,0,0,0-.22-.09.31.31,0,0,0-.22.09.32.32,0,0,0-.09.22.31.31,0,0,0,.31.31.32.32,0,0,0,.22-.09A.31.31,0,0,0,14,9.53.32.32,0,0,0,13.91,9.31Z" fill="none" stroke="#000" stroke-miterlimit="10" stroke-width="0.25"/><path d="M4.55,1.71A.31.31,0,0,0,4.24,2v.56A2.87,2.87,0,1,0,7.41,5.75H8a.31.31,0,0,0,.31-.31A3.74,3.74,0,0,0,4.55,1.71m0,6a2.25,2.25,0,0,1-.31-4.48V5.44a.31.31,0,0,0,.31.31H6.78A2.25,2.25,0,0,1,4.55,7.69m.31-2.56h0V2.35A3.11,3.11,0,0,1,7.64,5.13Z" fill="#000"/><path d="M8,9.2H2a.31.31,0,0,0,0,.63H8A.31.31,0,0,0,8,9.2" fill="#000"/><path d="M4,10.7H2a.31.31,0,1,0,0,.63H4a.31.31,0,0,0,0-.62" fill="#000"/><path d="M5.79,10.79a.31.31,0,0,0-.22-.09.31.31,0,0,0-.31.31.31.31,0,0,0,.09.22.31.31,0,0,0,.22.09A.31.31,0,0,0,5.88,11,.32.32,0,0,0,5.79,10.79Z" fill="none" stroke="#000" stroke-miterlimit="10" stroke-width="0.25"/></g></g></svg>