<svg xmlns="http://www.w3.org/2000/svg" viewBox="0 0 14.35 14.35"><title>entitlment</title><g id="Layer_2" data-name="Layer 2"><g id="Layer_1-2" data-name="Layer 1"><path d="M14,2.75,11.6.4a1.34,1.34,0,0,0-.95-.4H4.93A1.35,1.35,0,0,0,3.59,1.35v3.3a2.7,2.7,0,0,1-.68-.14l-.14,0a.54.54,0,0,0-.38.16,1.71,1.71,0,0,1-1.17.69.55.55,0,0,0-.39.4A1.75,1.75,0,0,1,.16,6.92.57.57,0,0,0,0,7.46,1.77,1.77,0,0,1,0,8.83a.57.57,0,0,0,.14.55,1.74,1.74,0,0,1,.67,1.19.56.56,0,0,0,.39.4l.13,0V13.9a.45.45,0,0,0,.65.4l1.59-.8,1.59.8a.46.46,0,0,0,.2,0H13A1.35,1.35,0,0,0,14.35,13V3.7a1.35,1.35,0,0,0-.4-1M10.76.91A.45.45,0,0,1,11,1l2.35,2.35a.45.45,0,0,1,.12.21H10.76Zm-9.83,8a2.3,2.3,0,0,0,0-1.47,2.29,2.29,0,0,0,.72-1.26,2.2,2.2,0,0,0,1.23-.72,2.62,2.62,0,0,0,.71.12,2.6,2.6,0,0,0,.71-.12,2.24,2.24,0,0,0,1.23.72,2.26,2.26,0,0,0,.72,1.26,2.29,2.29,0,0,0,0,1.47,2.3,2.3,0,0,0-.72,1.26,2.13,2.13,0,0,0-1,.54,2.15,2.15,0,0,0-1.78,0,2.18,2.18,0,0,0-1-.54A2.27,2.27,0,0,0,.93,8.88m2.86,3.73a.44.44,0,0,0-.4,0l-1.15.57V11.49h0a.53.53,0,0,0,.38.16.53.53,0,0,0,.28-.08,1.26,1.26,0,0,1,1.34,0,.52.52,0,0,0,.28.08.54.54,0,0,0,.38-.16h0v1.69Zm9.67.4a.45.45,0,0,1-.45.45H5.83V11L6,11a.55.55,0,0,0,.39-.39A1.75,1.75,0,0,1,7,9.37a.57.57,0,0,0,.14-.54,1.77,1.77,0,0,1,0-1.37A.57.57,0,0,0,7,6.91a1.75,1.75,0,0,1-.67-1.18A.55.55,0,0,0,6,5.33a1.71,1.71,0,0,1-1.17-.69.54.54,0,0,0-.3-.15V1.35A.45.45,0,0,1,4.93.9H9.87V3.82a.67.67,0,0,0,.67.67h2.91Z" fill="#fff"/></g></g></svg>