<svg xmlns="http://www.w3.org/2000/svg" viewBox="0 0 16 9.53"><title>exploration</title><g id="Layer_2" data-name="Layer 2"><g id="Layer_1-2" data-name="Layer 1"><path d="M11.1,3.56a.23.23,0,0,0,.22.41,2.09,2.09,0,1,1-.63.52.23.23,0,0,0-.36-.3,2.55,2.55,0,1,0,.77-.63Z" /><path d="M3.71,8.38A2.56,2.56,0,1,0,1.15,5.82,2.56,2.56,0,0,0,3.71,8.38Zm0-4.64A2.09,2.09,0,1,1,1.62,5.82,2.09,2.09,0,0,1,3.71,3.74Z" /><path d="M8,2.77A.8.8,0,1,0,7.2,2,.8.8,0,0,0,8,2.77ZM8,1.64A.33.33,0,1,1,7.67,2,.33.33,0,0,1,8,1.64Z" /><path d="M3.71,9.53A5.13,5.13,0,0,0,6.6,8.91,2.49,2.49,0,0,1,8,8.53a2.49,2.49,0,0,1,1.4.38,5.13,5.13,0,0,0,2.89.62,3.71,3.71,0,1,0,0-7.41,2,2,0,0,1-1.47-.82A3.57,3.57,0,0,0,8,0,3.57,3.57,0,0,0,5.18,1.29a2,2,0,0,1-1.47.82,3.69,3.69,0,0,0-2,.61.23.23,0,0,0,.26.39,3.24,3.24,0,1,1-.65.56.23.23,0,0,0-.35-.31A3.71,3.71,0,0,0,3.71,9.53ZM15.53,5.82a3.24,3.24,0,0,1-6.48,0,3.29,3.29,0,0,1,3.24-3.24A3.24,3.24,0,0,1,15.53,5.82ZM4.77,2.27a4.58,4.58,0,0,0,.74-.65A3.09,3.09,0,0,1,8,.47a3.09,3.09,0,0,1,2.49,1.16,4.58,4.58,0,0,0,.74.65h0A3.7,3.7,0,0,0,9.27,8a3.63,3.63,0,0,0,.52.59l.06.06-.23-.12A2.93,2.93,0,0,0,8,8.06a2.93,2.93,0,0,0-1.63.43l-.23.12a3.82,3.82,0,0,0,.47-.49,3.7,3.7,0,0,0,0-4.63h0a3.75,3.75,0,0,0-1.79-1.2Z" /></g></g></svg>