<svg xmlns="http://www.w3.org/2000/svg" viewBox="0 0 15.38 15.38"><title>fiscal</title><g id="Layer_2" data-name="Layer 2"><g id="Layer_1-2" data-name="Layer 1"><line x1="0.5" y1="14.88" x2="14.4" y2="14.88" fill="none" stroke="#000" stroke-linecap="round" stroke-linejoin="round"/><path d="M1.78,12H3.54a.32.32,0,0,1,.32.32v2.56H1.46V12.32A.32.32,0,0,1,1.78,12Z" fill="none" stroke="#000" stroke-linecap="round" stroke-linejoin="round"/><path d="M6.57,6.25H8.33a.32.32,0,0,1,.32.32v8.31H6.25V6.57A.32.32,0,0,1,6.57,6.25Z" fill="none" stroke="#000" stroke-linecap="round" stroke-linejoin="round"/><path d="M11.36,9.13h1.76a.32.32,0,0,1,.32.32v5.43H11V9.45A.32.32,0,0,1,11.36,9.13Z" fill="none" stroke="#000" stroke-linecap="round" stroke-linejoin="round"/><line x1="4.42" y1="3.29" x2="1.85" y2="5.86" fill="none" stroke="#000" stroke-linecap="round" stroke-linejoin="round"/><line x1="9.17" y1="4.06" x2="6.18" y2="3.26" fill="none" stroke="#000" stroke-linecap="round" stroke-linejoin="round"/><line x1="13.05" y1="1.87" x2="10.76" y2="3.66" fill="none" stroke="#000" stroke-linecap="round" stroke-linejoin="round"/><circle cx="5.29" cy="2.9" r="0.96" fill="none" stroke="#000" stroke-linecap="round" stroke-linejoin="round"/><circle cx="13.92" cy="1.46" r="0.96" fill="none" stroke="#000" stroke-linecap="round" stroke-linejoin="round"/><circle cx="10.09" cy="4.33" r="0.96" fill="none" stroke="#000" stroke-linecap="round" stroke-linejoin="round"/><circle cx="1.46" cy="6.73" r="0.96" fill="none" stroke="#000" stroke-linecap="round" stroke-linejoin="round"/></g></g></svg>