<svg xmlns="http://www.w3.org/2000/svg" viewBox="0 0 16.08 14.3"><title>provisions</title><g id="Layer_2" data-name="Layer 2"><g id="Layer_1-2" data-name="Layer 1"><path d="M15.66,3.8,15,3.11a1.44,1.44,0,0,0-2,0L10.72,5.3V3.69a1.35,1.35,0,0,0-.39-1L8,.4A1.34,1.34,0,0,0,7,0H1.34A1.35,1.35,0,0,0,0,1.34V13A1.34,1.34,0,0,0,1.34,14.3h8A1.34,1.34,0,0,0,10.72,13V10.71a4.44,4.44,0,0,0,.51-.42l4.43-4.45a1.45,1.45,0,0,0,0-2M7.15.91A.45.45,0,0,1,7.36,1L9.7,3.37a.43.43,0,0,1,.12.21H7.15ZM9.83,13a.45.45,0,0,1-.45.45h-8A.45.45,0,0,1,.89,13V1.34A.45.45,0,0,1,1.34.89H6.26V3.8a.67.67,0,0,0,.67.67h2.9V6.19L8.47,7.53a4.53,4.53,0,0,0-1.32,3.18.31.31,0,0,1-.26-.17A1.25,1.25,0,0,0,5,10.15L4.66,9A.67.67,0,0,0,3.38,9l-.51,1.53a.31.31,0,0,1-.3.21H2.23a.45.45,0,0,0,0,.89h.35a1.2,1.2,0,0,0,1.14-.82L4,9.9l.47,1.41a.45.45,0,0,0,.82.06l.21-.43a.31.31,0,0,1,.56,0,1.2,1.2,0,0,0,1.06.67H8a4.5,4.5,0,0,0,1.79-.38Zm.77-3.3A3.6,3.6,0,0,1,8,10.72H8A3.61,3.61,0,0,1,9.1,8.17l3.37-3.35,1.47,1.47ZM15,5.21l-.59.59L13,4.33l.59-.59a.56.56,0,0,1,.78,0l.69.69a.55.55,0,0,1,0,.78" fill="#fff"/></g></g></svg>