<svg xmlns="http://www.w3.org/2000/svg" viewBox="0 0 10.72 14.3"><title>relinquishments</title><g id="Layer_2" data-name="Layer 2"><g id="Layer_1-2" data-name="Layer 1"><path d="M10.33,2.73,8,.39A1.34,1.34,0,0,0,7,0H1.34A1.34,1.34,0,0,0,0,1.34V13A1.34,1.34,0,0,0,1.34,14.3h8A1.34,1.34,0,0,0,10.72,13V3.68a1.35,1.35,0,0,0-.39-1m-.63.63a.43.43,0,0,1,.12.21H7.15V.91A.45.45,0,0,1,7.35,1Zm-.31,10h-8A.45.45,0,0,1,.89,13V1.34A.45.45,0,0,1,1.34.9H6.25V3.8a.67.67,0,0,0,.67.67h2.9V13a.45.45,0,0,1-.45.45M8,6.59v.22a.34.34,0,0,1-.34.33H3a.34.34,0,0,1-.34-.33V6.59A.34.34,0,0,1,3,6.26H7.71A.34.34,0,0,1,8,6.59M8,8.38V8.6a.34.34,0,0,1-.34.33H3a.34.34,0,0,1-.34-.33V8.38A.34.34,0,0,1,3,8H7.71A.34.34,0,0,1,8,8.38m0,1.79v.22a.34.34,0,0,1-.34.33H3a.34.34,0,0,1-.34-.33v-.22A.34.34,0,0,1,3,9.83H7.71a.34.34,0,0,1,.34.33" /></g></g></svg>