<svg xmlns="http://www.w3.org/2000/svg" viewBox="0 0 10.72 14.3"><title>restrictions</title><g id="Layer_2" data-name="Layer 2"><g id="Layer_1-2" data-name="Layer 1"><path d="M10.33,2.74,8,.39A1.34,1.34,0,0,0,7,0H1.34A1.35,1.35,0,0,0,0,1.34V13A1.34,1.34,0,0,0,1.34,14.3h8A1.34,1.34,0,0,0,10.72,13V3.69a1.35,1.35,0,0,0-.39-1m-.63.63a.45.45,0,0,1,.12.21H7.15V.91A.43.43,0,0,1,7.35,1Zm-.32,10h-8A.45.45,0,0,1,.89,13V1.34A.45.45,0,0,1,1.34.9H6.25V3.8a.67.67,0,0,0,.67.67h2.9V13a.45.45,0,0,1-.45.45M5,5.36h.63A.33.33,0,0,1,6,5.72L5.82,9.07a.34.34,0,0,1-.33.32H5.23a.34.34,0,0,1-.33-.32L4.71,5.72A.34.34,0,0,1,5,5.36m1.1,5.36a.78.78,0,1,1-.78-.78.78.78,0,0,1,.78.78" fill="#fff"/></g></g></svg>