<svg xmlns="http://www.w3.org/2000/svg" width="35" height="42" viewBox="0 0 35 42">
    <defs>
        <linearGradient id="aa7j6qgsna" x1="0%" x2="100%" y1="50%" y2="50%">
            <stop offset="0%" stop-color="#D2DEFF" stop-opacity="0"/>
            <stop offset="100%" stop-color="#B7C5FF"/>
        </linearGradient>
    </defs>
    <g fill="none" fill-rule="evenodd">
        <g fill-rule="nonzero">
            <g>
                <path fill="url(#aa7j6qgsna)" d="M4.378 3.091c-10.942 9.666 3.14 19.035 1.799 29.597-.597 4.696 1.298 9.185 7.496 8.672 7.553-.625 4.811-7.86 6.393-12.677 2.722-8.288 19.465-6.352 12.525-19.12C28.16 1.418 11.91-3.56 4.378 3.092z" transform="translate(-291 -282) translate(291 282)"/>
                <g>
                    <g>
                        <g>
                            <g fill="#2626BC" opacity=".1">
                                <path d="M31.79 10.29c-.98 0-1.774.793-1.774 1.773v4.454l-2.67 2.67c.786-.786.786-2.06 0-2.845-.785-.785-2.059-.785-2.844 0l-5.572 5.572c-.658.658-1.028 1.551-1.028 2.482v5.611c0 .447.362.809.808.809h7.259c.513 0 .896-.471.791-.974l-.626-3.006c-.11-.533.054-1.087.44-1.473l6.505-6.505c.303-.303.473-.713.474-1.141l.009-5.652c.001-.98-.793-1.775-1.773-1.775z" transform="translate(-291 -282) translate(291 282) translate(0 2.668) translate(0 1.536) translate(.404 2.345)"/>
                                <g>
                                    <path d="M5.626 4.347C4.236 2.956 2.16 2.673.488 3.497c-.824 1.67-.542 3.749.848 5.14 1.39 1.39 3.468 1.671 5.139.847.824-1.67.541-3.748-.849-5.137zM23.645 4.347c1.39-1.391 3.467-1.674 5.138-.85.824 1.67.542 3.749-.848 5.14-1.39 1.39-3.468 1.671-5.139.847-.824-1.67-.54-3.748.849-5.137zM9.036 8.866c0-4.094 2.342-7.567 5.598-8.813 3.257 1.246 5.601 4.72 5.601 8.813 0 4.091-2.344 7.565-5.6 8.81-3.257-1.245-5.599-4.719-5.599-8.81z" transform="translate(-291 -282) translate(291 282) translate(0 2.668) translate(0 1.536) translate(.404 2.345) translate(2.183)"/>
                                </g>
                                <path d="M9.136 16.342c-.786-.785-2.06-.785-2.845 0-.786.786-.786 2.06 0 2.845l-2.67-2.67v-4.454c0-.98-.794-1.773-1.773-1.773-.98 0-1.774.795-1.772 1.775l.008 5.652c.001.428.171.838.474 1.14l6.505 6.506c.386.386.551.94.44 1.473l-.626 3.006c-.105.503.279.974.792.974h7.258c.446 0 .808-.362.808-.809v-5.61c0-.932-.37-1.825-1.028-2.483l-5.571-5.572z" transform="translate(-291 -282) translate(291 282) translate(0 2.668) translate(0 1.536) translate(.404 2.345)"/>
                            </g>
                            <g fill="#FFF">
                                <path d="M18.93 11.644l5.572-5.571c.785-.786 2.06-.786 2.845 0 .785.785.785 2.06 0 2.845l2.67-2.67V1.793c0-.979.793-1.772 1.772-1.772.98 0 1.774.795 1.773 1.775l-.009 5.652c0 .428-.17.838-.474 1.14l-6.505 6.506c-.385.386-.55.94-.44 1.473l.83 3.98h-9.062v-6.42c0-.931.37-1.824 1.028-2.483zM14.707 11.644L9.136 6.073c-.786-.786-2.06-.786-2.845 0-.786.785-.786 2.06 0 2.845l-2.67-2.67V1.793c0-.979-.794-1.772-1.773-1.772C.868.02.074.816.076 1.796l.008 5.652c.001.428.171.838.474 1.14l6.505 6.506c.386.386.551.94.44 1.473l-.829 3.98h9.061v-6.42c0-.931-.37-1.824-1.028-2.483z" transform="translate(-291 -282) translate(291 282) translate(0 2.668) translate(0 1.536) translate(.404 2.345) translate(0 8.329)"/>
                            </g>
                        </g>
                        <path fill="#6583FE" d="M11.624 9.27c0-4.093 2.341-7.567 5.598-8.813 3.256 1.246 5.6 4.72 5.6 8.813 0 4.092-2.344 7.565-5.6 8.811-3.257-1.246-5.598-4.72-5.598-8.81z" transform="translate(-291 -282) translate(291 282) translate(0 2.668) translate(0 1.536)"/>
                        <path fill="#FFF" d="M18.49 4.488h-.984V2.56c0-.09-.12-.119-.162-.04L15.88 5.355c-.03.057.012.125.076.125h.984v1.93c0 .089.12.118.162.038l1.464-2.834c.03-.057-.012-.125-.076-.125z" transform="translate(-291 -282) translate(291 282) translate(0 2.668) translate(0 1.536)"/>
                        <g>
                            <path fill="#FFF" d="M5.626 1.355C4.236-.035 2.16-.32.488.505c-.824 1.671-.542 3.749.848 5.14 1.39 1.39 3.468 1.671 5.139.847.824-1.67.541-3.748-.849-5.137z" transform="translate(-291 -282) translate(291 282) translate(0 2.668) translate(0 1.536) translate(2.587 3.396)"/>
                            <path fill="#2626BC" d="M6.76 6.206L4.766 4.211l.228-1.091C5.04 2.9 4.9 2.687 4.68 2.64c-.218-.046-.432.095-.478.313l-.12.574-1.68-1.68c-.158-.159-.414-.159-.572 0-.158.157-.158.413 0 .571l.694.695-.465.122c-.216.056-.346.277-.289.493.048.182.211.302.39.302.035 0 .07-.004.104-.013l.923-.242 3.002 3.002c.079.079.182.118.286.118.103 0 .207-.04.286-.118.157-.158.157-.414 0-.572z" transform="translate(-291 -282) translate(291 282) translate(0 2.668) translate(0 1.536) translate(2.587 3.396)"/>
                        </g>
                        <path fill="#FFF" d="M26.232 4.75c1.39-1.39 3.468-1.673 5.139-.849.824 1.671.542 3.749-.849 5.14-1.39 1.39-3.467 1.671-5.138.847-.824-1.67-.541-3.747.848-5.137z" transform="translate(-291 -282) translate(291 282) translate(0 2.668) translate(0 1.536)"/>
                        <g fill="#2626BC">
                            <path d="M29.8 6.632l-.466-.122.695-.695c.158-.158.158-.414 0-.572-.158-.157-.414-.157-.572 0l-1.68 1.68-.12-.573c-.046-.218-.26-.358-.479-.313-.218.046-.359.26-.313.479l.228 1.091-1.995 1.995c-.158.158-.158.414 0 .572.079.079.182.119.286.119.103 0 .207-.04.286-.119l3.002-3.002.923.242c.034.01.069.013.103.013.18 0 .343-.12.39-.301.057-.216-.072-.437-.288-.494zM33.734 10.929c-.411-.412-.958-.64-1.54-.64-1.201 0-2.178.977-2.178 2.178v4.287l-1.277 1.277c-.032-.572-.266-1.135-.702-1.57-.457-.457-1.063-.708-1.709-.708-.645 0-1.252.251-1.708.707l-5.571 5.572c-.74.74-1.147 1.723-1.147 2.769 0 .223.18.404.404.404.223 0 .404-.181.404-.404 0-.83.324-1.61.91-2.197l5.572-5.572c.303-.303.707-.47 1.136-.47.43 0 .833.167 1.137.47.627.627.627 1.647 0 2.273l-3.872 3.873c-.41.409-.635.952-.635 1.53 0 .224.182.405.405.405.223 0 .404-.18.404-.404 0-.363.141-.703.398-.96l6.541-6.541c.076-.076.119-.18.119-.286v-4.455c0-.755.614-1.369 1.368-1.369.366 0 .71.143.969.402.258.259.4.603.4.969l-.009 5.652c0 .323-.127.627-.355.855l-6.506 6.506c-.483.483-.689 1.172-.55 1.841l.83 3.98c.04.19.207.322.395.322.027 0 .055-.003.083-.01.218-.045.359-.259.313-.477l-.828-3.98c-.084-.402.04-.815.33-1.105l6.505-6.505c.38-.381.59-.888.592-1.426l.008-5.652c.001-.582-.225-1.13-.636-1.541zM18.306 27.064c-.223 0-.404.181-.404.404v3.752c0 .223.181.405.404.405.223 0 .405-.182.405-.405v-3.752c0-.223-.182-.404-.405-.404zM9.826 16.46c-.456-.456-1.063-.707-1.708-.707-.646 0-1.252.251-1.709.708-.436.436-.67.998-.702 1.57L4.43 16.754v-4.287c0-1.2-.977-2.177-2.177-2.177-.582 0-1.13.227-1.541.639-.411.412-.637.96-.636 1.541l.008 5.652c.001.539.212 1.045.592 1.426l6.506 6.505c.29.29.413.704.33 1.105l-.83 3.98c-.045.219.096.433.314.478.028.006.056.009.083.009.188 0 .356-.131.395-.322l.83-3.98c.139-.67-.067-1.358-.55-1.841l-6.506-6.506c-.228-.228-.354-.532-.355-.855l-.009-5.652c0-.366.142-.71.4-.969.259-.259.603-.401.969-.401.754 0 1.368.613 1.368 1.368v4.455c0 .107.043.21.119.286l6.541 6.542c.257.256.398.597.398.96 0 .222.18.403.404.403.223 0 .404-.18.404-.404 0-.578-.225-1.122-.634-1.531l-3.872-3.872c-.627-.627-.627-1.647 0-2.273.304-.304.707-.471 1.137-.471.429 0 .832.167 1.136.47l5.572 5.572c.586.587.91 1.367.91 2.197v6.42c0 .223.18.404.404.404.223 0 .404-.181.404-.405V24.8c0-1.045-.407-2.028-1.147-2.768l-5.571-5.571zM17.366.08c-.093-.036-.196-.036-.289 0-3.504 1.34-5.858 5.034-5.858 9.19 0 2.308.734 4.544 2.067 6.296.136.178.39.212.567.077.178-.135.212-.389.077-.566-1.227-1.613-1.902-3.675-1.902-5.807 0-3.765 2.08-7.11 5.194-8.378 3.115 1.268 5.196 4.613 5.196 8.378 0 3.599-1.903 6.812-4.792 8.196V14.74l1.947-1.138c.193-.112.258-.36.145-.553-.112-.193-.36-.258-.553-.145l-1.539.9V11.07l1.688-.987c.193-.113.258-.36.145-.553-.112-.193-.36-.258-.553-.145l-1.28.748V9.05c0-.224-.18-.405-.404-.405-.223 0-.404.181-.404.405v3.558l-1.724-1.127c-.187-.122-.437-.07-.56.117-.122.187-.07.437.117.56l2.167 1.417v3.891c-.366-.176-.722-.384-1.062-.622-.182-.128-.435-.084-.563.099-.128.183-.084.435.1.563.561.394 1.162.714 1.784.953.047.017.096.026.145.026.049 0 .098-.009.144-.026 3.506-1.342 5.86-5.034 5.86-9.189 0-4.156-2.354-7.85-5.86-9.19zM7.085 10.754c.731 0 1.47-.164 2.156-.503.08-.04.145-.104.184-.184.924-1.873.552-4.125-.925-5.602-1.478-1.478-3.73-1.85-5.603-.926-.08.04-.145.104-.184.184-.925 1.874-.553 4.126.925 5.604.936.935 2.182 1.427 3.447 1.427zM3.379 4.205c1.537-.695 3.349-.368 4.549.832 1.2 1.2 1.525 3.01.83 4.548-1.537.695-3.349.37-4.548-.83-1.2-1.2-1.526-3.012-.83-4.55z" transform="translate(-291 -282) translate(291 282) translate(0 2.668) translate(0 1.536)"/>
                            <path d="M25.205 10.25c.687.34 1.425.504 2.156.504 1.265 0 2.511-.492 3.447-1.427 1.478-1.478 1.85-3.73.925-5.604-.04-.08-.104-.145-.184-.184-1.873-.924-4.125-.552-5.603.926-1.477 1.477-1.849 3.729-.925 5.602.04.08.104.144.184.184zm1.313-5.213c1.2-1.2 3.012-1.526 4.549-.832.695 1.538.37 3.35-.83 4.55-1.2 1.2-3.012 1.525-4.55.83-.694-1.537-.368-3.349.831-4.548z" transform="translate(-291 -282) translate(291 282) translate(0 2.668) translate(0 1.536)"/>
                        </g>
                    </g>
                    <g fill="#6583FE">
                        <path d="M1.354 31.781c-.223 0-.404-.18-.404-.404 0-.267-.218-.485-.485-.485-.223 0-.405-.181-.405-.404 0-.224.182-.405.405-.405.267 0 .485-.217.485-.485 0-.223.181-.404.404-.404.223 0 .405.18.405.404 0 .268.217.485.485.485.223 0 .404.181.404.405 0 .223-.181.404-.404.404-.268 0-.485.218-.485.485 0 .223-.182.404-.405.404zM23.145 4.338c-.223 0-.405-.18-.405-.404 0-.268-.217-.485-.485-.485-.223 0-.404-.181-.404-.404 0-.224.181-.405.404-.405.268 0 .485-.217.485-.485 0-.223.182-.404.405-.404.223 0 .404.18.404.404 0 .268.218.485.485.485.223 0 .405.181.405.405 0 .223-.182.404-.405.404-.267 0-.485.217-.485.485 0 .223-.18.404-.404.404zM9.228 4.338c-.104 0-.207-.04-.286-.118-.158-.158-.158-.414 0-.572l.269-.269-.405-.256c-.103-.066-.171-.176-.185-.297-.013-.122.03-.244.116-.33l.626-.627c.158-.158.414-.158.572 0 .158.158.158.414 0 .572l-.27.269.405.256c.104.066.172.176.186.297.013.123-.03.244-.116.33l-.626.627c-.08.079-.183.118-.286.118zM29.087 30.306c-.103 0-.207-.04-.286-.119-.158-.157-.158-.413 0-.571l.27-.27-.405-.256c-.104-.066-.172-.175-.186-.297-.013-.122.03-.243.116-.33l.626-.626c.158-.158.414-.158.572 0 .158.158.158.414 0 .572l-.269.269.405.256c.103.066.171.175.185.297.013.122-.03.244-.116.33l-.626.627c-.079.078-.182.118-.286.118zM6.32 2.63c-.103 0-.207-.04-.286-.119-.157-.158-.157-.414 0-.572l.27-.269-.405-.256c-.104-.066-.172-.175-.185-.297-.014-.122.029-.244.116-.33L6.456.16c.158-.157.414-.157.571 0 .158.158.158.414 0 .572l-.269.27.405.256c.104.066.172.175.185.297.014.122-.029.243-.116.33l-.626.626c-.079.08-.182.119-.286.119z" transform="translate(-291 -282) translate(291 282) translate(0 2.668) translate(1.779)"/>
                    </g>
                </g>
            </g>
        </g>
    </g>
</svg>
