<svg xmlns="http://www.w3.org/2000/svg" width="36" height="42" viewBox="0 0 36 42">
    <defs>
        <linearGradient id="vfbvt6spta" x1="0%" x2="100%" y1="50%" y2="50%">
            <stop offset="0%" stop-color="#D2DEFF" stop-opacity="0"/>
            <stop offset="100%" stop-color="#B7C5FF"/>
        </linearGradient>
    </defs>
    <g fill="none" fill-rule="evenodd">
        <g fill-rule="nonzero">
            <g>
                <path fill="url(#vfbvt6spta)" d="M4.357 3.134C-6.737 12.934 7.54 22.432 6.18 33.14c-.604 4.76 1.316 9.311 7.6 8.791 7.657-.634 4.878-7.969 6.481-12.852 2.76-8.403 19.734-6.44 12.698-19.383-4.49-8.26-20.967-13.306-28.602-6.562z" transform="translate(-177 -282) translate(177 282)"/>
                <g transform="translate(-177 -282) translate(177 282) translate(0 3.935)">
                    <path fill="#2626BC" d="M27.453 24.289c.657.423 1.44.67 2.28.67 2.327 0 4.214-1.887 4.214-4.215 0-1.919-1.283-3.537-3.038-4.046.216-.464.337-.98.337-1.526 0-1.906-1.47-3.468-3.338-3.616.273-.468.43-1.011.43-1.592 0-1.748-1.417-3.165-3.164-3.165-1.214 0-2.268.684-2.799 1.687-.603-.48-1.348-.79-2.162-.855.3-.514.473-1.112.473-1.75 0-1.921-1.557-3.478-3.478-3.478-1.92 0-3.478 1.557-3.478 3.478 0 .638.173 1.236.473 1.75-.814.065-1.56.375-2.162.855-.531-1.003-1.585-1.687-2.799-1.687-1.748 0-3.164 1.417-3.164 3.165 0 .58.157 1.124.43 1.592-1.868.148-3.338 1.71-3.338 3.616 0 .545.121 1.062.337 1.526-1.755.51-3.038 2.127-3.038 4.046 0 2.328 1.887 4.215 4.215 4.215.84 0 1.622-.247 2.279-.67.349.224.733.399 1.142.513v4.81c-2.052.678-3.983 1.575-5.757 2.662-.224.138-.362.38-.362.642 0 .415.336.75.75.75H31.68c.414 0 .75-.335.75-.75v-.065c0-.264-.139-.507-.364-.644-1.774-1.075-3.705-1.962-5.754-2.63v-4.774c.409-.115.793-.29 1.142-.514zm-17.074.513c.41-.114.794-.289 1.143-.513.657.423 1.439.67 2.279.67.788 0 1.526-.217 2.157-.594v3.82c-1.921.084-3.788.35-5.579.78v-4.163zm8.08 3.379v-3.816c.63.377 1.368.594 2.156.594.84 0 1.622-.247 2.28-.67.348.224.732.399 1.142.513v4.138c-1.792-.423-3.658-.683-5.579-.76z" opacity=".1"/>
                    <g>
                        <path fill="#FFF" d="M23.627 20.056L25.901 20.056 25.901 28.789 23.627 28.789zM7.695 20.056L9.969 20.056 9.969 28.789 7.695 28.789z" transform="translate(.41 .41)"/>
                        <path fill="#6583FE" d="M30.5 14.32c.215-.464.336-.98.336-1.526 0-1.905-1.47-3.467-3.338-3.615.273-.468.43-1.012.43-1.593 0-1.748-1.416-3.165-3.164-3.165-1.748 0-3.165 1.417-3.165 3.165 0 .581.157 1.125.43 1.593-1.867.148-3.337 1.71-3.337 3.615 0 .546.12 1.062.336 1.526-.907.264-1.687.824-2.23 1.568-.543-.744-1.323-1.304-2.23-1.568.215-.464.336-.98.336-1.526 0-1.905-1.47-3.467-3.337-3.615.273-.468.43-1.012.43-1.593 0-1.748-1.417-3.165-3.165-3.165S5.668 5.838 5.668 7.586c0 .581.157 1.125.43 1.593-1.868.148-3.338 1.71-3.338 3.615 0 .546.121 1.062.337 1.526-1.755.51-3.038 2.128-3.038 4.047 0 2.328 1.887 4.214 4.215 4.214.84 0 1.622-.246 2.279-.67.657.424 1.44.67 2.28.67.84 0 1.621-.246 2.278-.67.658.424 1.44.67 2.28.67 1.4 0 2.64-.683 3.407-1.735.766 1.052 2.006 1.735 3.407 1.735.84 0 1.622-.246 2.28-.67.656.424 1.438.67 2.278.67.84 0 1.622-.246 2.28-.67.657.424 1.439.67 2.279.67 2.327 0 4.214-1.886 4.214-4.214 0-1.919-1.282-3.537-3.037-4.047z" transform="translate(.41 .41)"/>
                        <path fill="#2626BC" d="M8.161 12.91c-.133 0-.264-.065-.343-.185-.228-.347-.612-.554-1.026-.554-.414 0-.798.207-1.026.554-.125.19-.38.241-.568.117-.19-.125-.241-.379-.117-.568.381-.578 1.02-.923 1.711-.923.69 0 1.33.345 1.711.923.125.189.072.443-.117.568-.07.046-.148.067-.225.067z" transform="translate(.41 .41)"/>
                        <g>
                            <path fill="#FFF" d="M8.416 17.209L10.916 17.209 10.916 26.806 8.416 26.806z" transform="translate(.41 .41) translate(7.132)"/>
                            <path fill="#FFF" d="M15.97 10.905c.236-.51.37-1.078.37-1.677 0-2.095-1.616-3.811-3.669-3.974.3-.514.473-1.112.473-1.75 0-1.921-1.557-3.479-3.478-3.479-1.92 0-3.478 1.558-3.478 3.479 0 .638.173 1.236.473 1.75-2.053.163-3.668 1.88-3.668 3.974 0 .599.133 1.167.37 1.677-1.929.56-3.339 2.338-3.339 4.447 0 2.558 2.074 4.632 4.632 4.632.923 0 1.783-.271 2.505-.737.723.466 1.582.737 2.505.737.923 0 1.783-.271 2.505-.737.722.466 1.582.737 2.505.737 2.558 0 4.632-2.074 4.632-4.632 0-2.109-1.41-3.887-3.338-4.447z" transform="translate(.41 .41) translate(7.132)"/>
                            <g fill="#2626BC">
                                <path d="M2.702 1.585c-.077 0-.155-.022-.225-.067-.189-.125-.24-.38-.116-.568C2.74.372 3.38.027 4.07.027s1.33.345 1.711.923c.125.189.073.443-.116.568-.19.124-.443.072-.568-.117-.229-.347-.612-.554-1.026-.554-.414 0-.798.207-1.027.554-.079.12-.21.184-.343.184zM9.54 5.645c-.132 0-.263-.065-.342-.185-.229-.347-.612-.554-1.026-.554-.414 0-.798.207-1.027.554-.124.19-.379.242-.568.117-.189-.125-.24-.379-.116-.568.38-.578 1.02-.923 1.71-.923.691 0 1.33.345 1.712.923.124.19.072.444-.117.568-.07.046-.148.068-.225.068zM8.89 8.476c-.078 0-.156-.022-.226-.068-.189-.124-.241-.379-.116-.568.38-.577 1.02-.922 1.71-.922s1.33.345 1.711.922c.125.19.073.444-.116.568-.19.125-.443.073-.568-.116-.229-.347-.612-.555-1.026-.555-.414 0-.798.207-1.027.555-.079.12-.21.184-.343.184zM3.195 8.107c-.133 0-.264-.065-.343-.185-.228-.347-.612-.554-1.026-.554-.414 0-.798.207-1.026.554-.125.19-.38.242-.568.117-.19-.125-.241-.379-.117-.568.381-.578 1.02-.923 1.711-.923.69 0 1.33.345 1.711.923.125.19.072.443-.117.568-.07.046-.148.068-.225.068z" transform="translate(.41 .41) translate(7.132) translate(4.099 7.46)"/>
                            </g>
                        </g>
                        <g>
                            <path fill="#FFF" d="M30.462 4.799v-.066c0-.264-.139-.507-.365-.644C25.88 1.533 20.784.04 15.294.04 9.756.038 4.619 1.558.38 4.155c-.224.138-.362.38-.362.643 0 .414.336.75.75.75h28.943c.414 0 .75-.336.75-.75z" transform="translate(.41 .41) translate(1.558 25.74)"/>
                            <path fill="#2626BC" d="M10.072 3.203h-.616c-.227 0-.41-.183-.41-.41 0-.226.183-.41.41-.41h.616c.227 0 .41.184.41.41 0 .227-.183.41-.41.41zM18.184 2.63h-.617c-.226 0-.41-.184-.41-.41 0-.227.184-.41.41-.41h.617c.226 0 .41.183.41.41 0 .226-.184.41-.41.41zM19.276 4.156h-.617c-.226 0-.41-.184-.41-.41 0-.227.184-.41.41-.41h.617c.226 0 .41.183.41.41 0 .226-.184.41-.41.41zM8.002 4.238h-.616c-.227 0-.41-.184-.41-.41 0-.227.183-.41.41-.41h.616c.227 0 .41.183.41.41 0 .226-.183.41-.41.41zM21.982 3.695h-.617c-.226 0-.41-.183-.41-.41 0-.226.184-.41.41-.41h.617c.226 0 .41.184.41.41 0 .227-.184.41-.41.41z" transform="translate(.41 .41) translate(1.558 25.74)"/>
                        </g>
                        <path fill="#2626BC" d="M30.84 17.988c-.133 0-.264-.065-.343-.185-.228-.347-.612-.554-1.026-.554-.414 0-.798.207-1.027.554-.124.19-.378.242-.567.117-.19-.124-.242-.379-.117-.568.38-.578 1.02-.923 1.71-.923.691 0 1.33.345 1.712.923.124.19.072.444-.117.568-.07.046-.148.068-.225.068z" transform="translate(.41 .41)"/>
                    </g>
                    <circle cx="22.508" cy="4.673" r="3.893" fill="#FFF"/>
                    <path fill="#6583FE" d="M23.793 4.17h-.998V2.215c0-.091-.122-.121-.164-.04l-1.485 2.873c-.03.058.012.127.078.127h.997v1.956c0 .09.122.12.164.04l1.485-2.874c.03-.058-.012-.127-.077-.127z"/>
                    <path fill="#2626BC" d="M25.174 23.401c.802 0 1.585-.207 2.279-.6.694.393 1.476.6 2.28.6 2.549 0 4.623-2.074 4.623-4.624 0-1.894-1.175-3.6-2.908-4.294.138-.41.207-.839.207-1.279 0-1.895-1.34-3.524-3.14-3.936.153-.404.233-.836.233-1.272 0-1.334-.759-2.57-1.941-3.18.001-.048.004-.095.004-.143C26.81 2.3 24.88.37 22.508.37c-.942 0-1.814.306-2.524.822-.73-.744-1.73-1.167-2.776-1.167-2.144 0-3.888 1.745-3.888 3.888 0 .49.093.975.272 1.428-.517.112-1 .317-1.431.594-.666-.94-1.757-1.514-2.919-1.514-1.97 0-3.574 1.604-3.574 3.575 0 .436.08.867.234 1.272C4.1 9.68 2.76 11.309 2.76 13.204c0 .44.07.868.208 1.279-1.733.694-2.909 2.4-2.909 4.294 0 2.55 2.075 4.624 4.625 4.624.803 0 1.585-.207 2.279-.6.235.132.48.244.732.333v4.215c-1.949.666-3.814 1.538-5.561 2.608-.35.214-.558.585-.558.992 0 .64.521 1.16 1.16 1.16H31.68c.64 0 1.16-.52 1.16-1.16v-.065c0-.404-.215-.785-.562-.995-1.746-1.058-3.61-1.92-5.556-2.576V25.46c0-.226-.184-.41-.41-.41-.226 0-.41.184-.41.41v1.591c-.48-.146-.966-.28-1.455-.4v-3.306c.24.038.483.057.728.057zm2.754-15.405c0 .487-.13.967-.374 1.386-.071.122-.075.272-.01.397.066.125.191.207.332.218 1.66.132 2.96 1.54 2.96 3.207 0 .472-.1.927-.299 1.354-.05.108-.05.233-.001.342.05.109.144.19.259.224 1.614.469 2.742 1.97 2.742 3.653 0 2.098-1.707 3.804-3.805 3.804-.732 0-1.443-.209-2.057-.604-.135-.088-.309-.088-.444 0-.614.395-1.326.604-2.057.604-.732 0-1.443-.209-2.058-.604-.135-.088-.308-.088-.444 0-.614.395-1.325.604-2.057.604-.609 0-1.21-.148-1.747-.426v-1.633c.292-.101.575-.23.845-.385.762.437 1.622.667 2.505.667 2.78 0 5.042-2.262 5.042-5.042 0-2.078-1.298-3.948-3.207-4.696.158-.458.238-.937.238-1.429 0-.337-.039-.673-.115-.999 1.24-.524 2.185-1.613 2.51-2.943.765.505 1.242 1.373 1.242 2.301zM17.261 25.78c-.298 0-.596.005-.893.014v-5.06c.276.047.557.071.84.071.283 0 .564-.024.84-.07v5.056c-.262-.007-.524-.011-.787-.011zm-5.74-2.979c.694.394 1.477.601 2.28.601.6 0 1.195-.12 1.747-.344v2.77c-1.615.092-3.206.31-4.759.654v-3.347c.253-.09.498-.2.733-.334zm14.47-18.127c0 1.92-1.563 3.482-3.483 3.482-1.92 0-3.483-1.562-3.483-3.482 0-1.92 1.563-3.483 3.483-3.483 1.92 0 3.483 1.562 3.483 3.483zM6.74 21.977c-.614.395-1.325.604-2.057.604-2.098 0-3.805-1.706-3.805-3.804 0-1.682 1.128-3.184 2.742-3.653.115-.034.21-.115.259-.224.05-.109.049-.234-.001-.342-.198-.427-.299-.882-.299-1.354 0-1.666 1.3-3.075 2.96-3.207.141-.01.266-.093.331-.218.066-.125.062-.275-.009-.397-.245-.42-.374-.899-.374-1.386 0-1.519 1.235-2.755 2.754-2.755.91 0 1.762.455 2.273 1.2-.856.806-1.39 1.948-1.39 3.197 0 .491.08.97.238 1.428-1.909.748-3.207 2.619-3.207 4.696 0 .815.19 1.595.565 2.317.073.141.216.222.364.222.063 0 .128-.015.188-.046.201-.105.28-.352.175-.553-.313-.605-.472-1.257-.472-1.94 0-1.867 1.251-3.533 3.043-4.054.115-.033.21-.115.259-.224.05-.108.049-.233-.002-.342-.22-.474-.331-.98-.331-1.504 0-1.853 1.445-3.419 3.29-3.565.14-.012.266-.094.331-.22.066-.124.062-.274-.009-.396-.273-.467-.417-1-.417-1.543 0-1.692 1.376-3.069 3.068-3.069.811 0 1.587.323 2.16.89-.72.77-1.162 1.803-1.162 2.938 0 2.372 1.93 4.302 4.302 4.302.303 0 .598-.032.883-.091.053.246.08.499.08.754 0 .524-.111 1.03-.331 1.504-.05.108-.051.233-.002.342.05.109.144.19.26.224 1.79.52 3.042 2.187 3.042 4.054 0 2.328-1.894 4.222-4.222 4.222-.812 0-1.602-.232-2.283-.671-.135-.087-.309-.087-.444 0-.682.439-1.47.671-2.283.671-.812 0-1.601-.232-2.283-.671-.135-.087-.309-.087-.444 0-.682.439-1.47.671-2.283.671-.708 0-1.41-.179-2.027-.518-.198-.109-.447-.036-.556.163-.11.198-.037.447.162.556.738.405 1.575.619 2.421.619.883 0 1.744-.23 2.505-.667.27.155.553.283.845.385v1.635c-.543.281-1.13.424-1.747.424-.732 0-1.443-.209-2.057-.605-.136-.087-.31-.087-.444 0-.615.396-1.326.605-2.058.605-.731 0-1.443-.209-2.057-.605-.135-.087-.309-.087-.444 0zm1.774 1.367c.24.038.482.057.727.057s.488-.02.728-.057v3.332c-.49.123-.975.259-1.455.407v-3.74zm23.505 7.54v.065c0 .188-.153.34-.34.34H2.736c-.188 0-.34-.152-.34-.34 0-.12.061-.229.165-.293 4.333-2.654 9.415-4.057 14.7-4.057 5.237 0 10.282 1.38 14.59 3.991.105.064.168.173.168.294zm-8.393-4.426c-1.553-.338-3.145-.55-4.76-.636v-2.764c.553.225 1.148.343 1.748.343.803 0 1.586-.207 2.28-.6.234.132.48.244.732.333v3.324z"/>
                    <g fill="#6583FE">
                        <path d="M29.898 6.135c-.105 0-.21-.04-.29-.12-.16-.16-.16-.42 0-.58l.273-.272-.41-.26c-.105-.067-.175-.178-.188-.302-.014-.123.03-.246.117-.334l.635-.635c.16-.16.42-.16.58 0 .16.16.16.42 0 .58l-.273.272.41.26c.105.067.174.178.188.301.013.124-.03.247-.118.335l-.635.635c-.08.08-.184.12-.29.12zM.663 7.354c-.105 0-.21-.04-.29-.12-.16-.16-.16-.42 0-.58l.273-.272-.41-.26C.13 6.055.06 5.944.048 5.82c-.014-.123.03-.246.117-.334L.8 4.85c.16-.16.42-.16.58 0 .16.16.16.42 0 .58l-.273.272.41.26c.105.067.174.178.188.302.014.123-.03.247-.118.335l-.634.634c-.08.08-.185.12-.29.12zM.663 26.286c-.105 0-.21-.04-.29-.12-.16-.16-.16-.42 0-.58l.273-.272-.41-.26c-.105-.067-.174-.178-.188-.301-.014-.124.03-.247.117-.335l.635-.635c.16-.16.42-.16.58 0 .16.16.16.42 0 .58l-.273.273.41.26c.105.066.174.177.188.3.014.124-.03.248-.118.336l-.634.634c-.08.08-.185.12-.29.12zM3.85 2.701c-.227 0-.41-.183-.41-.41 0-.27-.221-.491-.492-.491-.227 0-.41-.184-.41-.41 0-.227.183-.41.41-.41.271 0 .492-.22.492-.492 0-.226.183-.41.41-.41.226 0 .41.184.41.41 0 .271.22.492.491.492.227 0 .41.183.41.41 0 .226-.183.41-.41.41-.271 0-.492.22-.492.492 0 .226-.183.41-.41.41zM32.321 9.873c-.226 0-.41-.184-.41-.41 0-.271-.22-.492-.492-.492-.226 0-.41-.183-.41-.41 0-.226.184-.41.41-.41.272 0 .492-.22.492-.492 0-.226.184-.41.41-.41.227 0 .41.184.41.41 0 .272.22.492.492.492.226 0 .41.184.41.41 0 .227-.184.41-.41.41-.271 0-.492.22-.492.492 0 .226-.183.41-.41.41z" transform="translate(1.066 1.64)"/>
                    </g>
                </g>
            </g>
        </g>
    </g>
</svg>
