<svg xmlns="http://www.w3.org/2000/svg" width="37" height="38" viewBox="0 0 37 38">
    <defs>
        <linearGradient id="huh10qwfta" x1="0%" x2="100%" y1="50%" y2="50%">
            <stop offset="0%" stop-color="#D2DEFF" stop-opacity="0"/>
            <stop offset="100%" stop-color="#B7C5FF"/>
        </linearGradient>
    </defs>
    <g fill="none" fill-rule="evenodd">
        <g fill-rule="nonzero">
            <g>
                <path fill="url(#huh10qwfta)" d="M33.18 1.99c-4.637-2.764-10.638-2.61-15.193.22-2.558 1.591-4.536 3.885-6.78 5.86-1.965 1.73-4.25 2.964-6.28 4.597-7.362 5.92-6.66 21.89 3.706 24.012 4.494.92 10.635 1.214 13.276-3.175 2.518-4.184 3.363-8.465 8.283-10.688 1.714-.774 4.58-.735 5.742-2.433 1.466-2.142-.353-4.367-1.323-6.234-1.25-2.405-1.513-4.777-.633-7.357.749-2.198 1.276-3.185-.798-4.803z" transform="translate(-403 -284) translate(403 284)"/>
                <g>
                    <g transform="translate(-403 -284) translate(403 284) translate(6.328 2.182) translate(2.473)">
                        <path fill="#2626BC" d="M16.325 17.506c1.907 0 3.453-1.546 3.453-3.454 0-1.621-1.118-2.982-2.625-3.353.002-.034.004-.07.004-.105 0-.867-.805-1.51-1.65-1.318l.597-.136c.616-.14 1.053-.687 1.053-1.318 0-.867-.805-1.51-1.65-1.318l.597-.136c.616-.14 1.053-.686 1.053-1.318 0-.867-.805-1.51-1.65-1.318l-1.141.258v-.438c0-.383-.155-.73-.406-.98-.25-.252-.597-.407-.98-.407-.766 0-1.386.621-1.386 1.387v1.067l-4.277.97v-.464c0-.383-.155-.73-.406-.98-.25-.252-.597-.406-.98-.406-.765 0-1.386.62-1.386 1.386v1.091l-1.738.394c-.616.14-1.053.687-1.053 1.319 0 .867.805 1.51 1.65 1.318l-.597.135c-.616.14-1.053.687-1.053 1.319 0 .867.805 1.51 1.65 1.318l-.597.135c-.616.14-1.053.687-1.053 1.319 0 .867.805 1.51 1.65 1.318l-.597.135c-.616.14-1.053.687-1.053 1.319 0 .867.805 1.51 1.65 1.318l1.141-.259v1.904c-1.576-.084-3.116.559-4.164 1.743-.15 2.157 1.066 4.265 3.17 5.147.182.076.365.14.549.194v3.76c0 1.807 1.465 3.272 3.272 3.272h4.167c1.807 0 3.272-1.465 3.272-3.272v-3.76c.184-.054.367-.118.548-.194 2.105-.882 3.321-2.99 3.17-5.147-1.046-1.184-2.587-1.827-4.163-1.743v-2.311c.557.384 1.231.61 1.959.61zm-4.731 2.685c-1.267.92-2.035 2.358-2.128 3.885h-.02c-.094-1.527-.862-2.966-2.129-3.885v-3.515l4.277-.97v4.485z" opacity=".1"/>
                        <g fill="#FFF">
                            <path d="M2.808 3.016V19.64H.036V3.016c0-.766.62-1.387 1.386-1.387.383 0 .729.155.98.406.25.251.406.598.406.98zM9.856 1.442V19.64H7.084V1.442c0-.765.62-1.386 1.386-1.386.383 0 .73.155.98.407.251.25.406.597.406.98z" transform="translate(4.51 .364)"/>
                        </g>
                        <g fill="#FFF">
                            <path d="M14.359 11.047l-12.7 2.88c-.846.19-1.65-.452-1.65-1.32 0-.63.436-1.178 1.052-1.317l12.7-2.879c.846-.192 1.65.451 1.65 1.318 0 .632-.436 1.179-1.052 1.318z" transform="translate(1.746 1.891)"/>
                            <path d="M14.359 8.276l-12.7 2.878c-.846.192-1.65-.451-1.65-1.318 0-.631.436-1.179 1.052-1.318l12.7-2.879c.846-.192 1.65.451 1.65 1.318 0 .632-.436 1.179-1.052 1.319z" transform="translate(1.746 1.891)"/>
                            <path d="M14.359 5.504l-12.7 2.878c-.846.192-1.65-.45-1.65-1.318 0-.631.436-1.179 1.052-1.318l12.7-2.879c.846-.191 1.65.451 1.65 1.318 0 .632-.436 1.18-1.052 1.319z" transform="translate(1.746 1.891)"/>
                            <path d="M14.359 2.732L1.659 5.61c-.846.192-1.65-.45-1.65-1.318 0-.631.436-1.179 1.052-1.318l12.7-2.879c.846-.191 1.65.451 1.65 1.319 0 .631-.436 1.178-1.052 1.318z" transform="translate(1.746 1.891)"/>
                        </g>
                        <g>
                            <path fill="#FFF" d="M14.447 4.947v5.976c0 1.807-1.464 3.271-3.272 3.271H7.01c-1.808 0-3.273-1.464-3.273-3.271V4.947h10.711z" transform="translate(.364 17.384)"/>
                            <path fill="#6583FE" d="M5.91.475C3.805-.407 1.45.202.018 1.822c-.151 2.157 1.065 4.264 3.17 5.147 2.104.881 4.46.27 5.891-1.349C9.23 3.463 8.013 1.357 5.91.475z" transform="translate(.364 17.384)"/>
                            <path fill="#2626BC" d="M9.22 5.284L6.147 3.997l-.245-1.329c-.036-.197-.226-.328-.423-.292-.198.037-.329.226-.292.424l.159.86-2.724-1.14c-.185-.078-.398.009-.476.194-.078.185.01.398.195.476l1.22.512-.593.446c-.16.121-.193.35-.072.51.071.095.18.145.29.145.077 0 .154-.024.22-.074l.933-.702 4.6 1.928c.046.02.093.029.14.029.142 0 .277-.084.336-.224.077-.185-.01-.398-.195-.476z" transform="translate(.364 17.384)"/>
                            <g>
                                <path fill="#6583FE" d="M3.546.475C5.65-.407 8.006.202 9.438 1.822c.15 2.157-1.066 4.264-3.17 5.147-2.104.881-4.46.27-5.892-1.349-.15-2.157 1.066-4.263 3.17-5.145z" transform="translate(.364 17.384) translate(8.728)"/>
                                <path fill="#2626BC" d="M7.31 2.714c-.078-.185-.291-.272-.476-.195L4.11 3.661l.159-.861c.036-.198-.094-.387-.292-.424-.197-.036-.387.094-.424.292l-.245 1.329L.236 5.284c-.186.078-.273.291-.195.476.058.14.193.224.335.224.047 0 .095-.01.14-.029l4.6-1.928.934.702c.066.05.142.073.218.073.11 0 .22-.05.291-.145.121-.16.089-.388-.072-.509l-.593-.446 1.22-.512c.186-.078.273-.29.196-.476z" transform="translate(.364 17.384) translate(8.728)"/>
                            </g>
                        </g>
                        <circle cx="16.326" cy="12.297" r="3.455" fill="#FFF" transform="rotate(-86.102 16.326 12.297)"/>
                        <path fill="#6583FE" d="M17.464 11.861h-.885v-1.735c0-.08-.108-.107-.145-.035l-1.318 2.549c-.026.051.011.113.069.113h.885v1.735c0 .08.108.107.146.035l1.317-2.55c.026-.05-.01-.112-.069-.112z"/>
                        <path fill="#2626BC" d="M16.324 16.124c2.105 0 3.818-1.712 3.818-3.817 0-1.69-1.105-3.127-2.63-3.627-.044-.46-.27-.88-.636-1.172l-.06-.045c.434-.314.705-.82.705-1.387 0-.524-.235-1.012-.645-1.34l-.06-.045c.434-.314.705-.82.705-1.386 0-.525-.235-1.013-.645-1.34-.41-.328-.938-.45-1.45-.333l-.697.158c-.009-.957-.79-1.733-1.75-1.733-.964 0-1.749.784-1.749 1.75v.776l-3.549.804V3.38c0-.964-.785-1.75-1.75-1.75-.964 0-1.75.786-1.75 1.75v.801l-1.455.33c-.786.179-1.336.867-1.336 1.673 0 .525.235 1.013.645 1.34l.06.045c-.433.314-.705.82-.705 1.387 0 .525.235 1.013.645 1.34l.06.045c-.433.314-.705.82-.705 1.387 0 .524.235 1.013.645 1.34l.06.045c-.433.314-.705.82-.705 1.387 0 .524.235 1.013.645 1.34.308.246.683.376 1.067.376.127 0 .256-.014.383-.043l.697-.158v1.079c-1.528.023-3.016.676-4.073 1.872-.053.06-.085.136-.09.215-.166 2.374 1.197 4.588 3.392 5.508.108.045.216.085.326.123v1.005c-.158.04-.275.182-.275.352 0 .17.117.312.275.352v1.255c-.158.04-.275.181-.275.351 0 .172.12.315.28.353.09 1.925 1.684 3.463 3.63 3.463h4.167c1.946 0 3.54-1.538 3.63-3.463.16-.038.28-.18.28-.353 0-.17-.117-.311-.275-.351V26.52c.158-.04.275-.182.275-.352 0-.17-.117-.312-.275-.352v-1.005c.11-.038.218-.078.326-.123 2.195-.92 3.558-3.134 3.393-5.508-.006-.08-.038-.155-.09-.215-1.058-1.196-2.546-1.849-4.074-1.872v-1.319c.486.224 1.026.35 1.595.35zm3.09-3.817c0 1.704-1.386 3.09-3.09 3.09-1.703 0-3.09-1.386-3.09-3.09s1.387-3.09 3.09-3.09c1.704 0 3.09 1.386 3.09 3.09zm-3.09-3.818c-1.454 0-2.72.818-3.365 2.017L3.324 12.69c-.295.067-.599-.003-.835-.191-.236-.189-.372-.47-.372-.772 0-.465.317-.861.77-.964l12.7-2.878c.295-.067.6.003.835.191.145.116.251.267.312.436-.134-.015-.271-.023-.41-.023zm-13 1.43c-.295.066-.599-.004-.835-.192-.236-.189-.371-.47-.371-.772 0-.465.316-.86.77-.964l12.7-2.878c.073-.017.146-.025.22-.025.22 0 .437.075.614.217.236.188.372.47.372.771 0 .465-.317.861-.77.964l-12.7 2.878zm8.633-8.113c0-.564.46-1.022 1.023-1.022s1.022.458 1.022 1.022v.148l-2.044.464v-.612zM4.91 3.379c0-.564.459-1.022 1.022-1.022.564 0 1.023.458 1.023 1.022v.173l-2.045.463V3.38zM2.887 5.22l12.7-2.878c.074-.017.147-.025.22-.025.222 0 .438.075.615.217.236.188.372.47.372.772 0 .464-.317.86-.77.963l-.597.135L3.323 7.147c-.295.066-.599-.003-.835-.192s-.372-.47-.372-.772c0-.465.317-.86.77-.963zm.437 10.243c-.295.067-.6-.003-.835-.191-.236-.189-.371-.47-.371-.772 0-.465.316-.861.77-.964l9.747-2.21c-.083.314-.128.643-.128.982 0 .36.051.71.145 1.041l-9.328 2.114zm3.63-.077v2.4c-.174-.095-.354-.183-.54-.262-.49-.205-.996-.335-1.505-.394v-1.28l2.045-.464zm-2.49 12.378v-1.231h9.983v1.23H4.464zm7.075 3.451H7.372c-1.541 0-2.806-1.206-2.901-2.724h9.97c-.096 1.518-1.36 2.724-2.902 2.724zm2.908-5.41H4.464v-.794c.25.05.503.084.76.1h.021c.191 0 .351-.149.363-.342.012-.2-.14-.373-.341-.385-.542-.032-1.072-.156-1.575-.366C1.823 23.233.648 21.37.737 19.355c1.374-1.477 3.526-1.944 5.396-1.16 1.868.783 3.043 2.645 2.954 4.66-.453.486-1.015.88-1.63 1.145-.185.079-.27.293-.192.477.08.185.293.27.478.191.636-.273 1.221-.668 1.712-1.151 1.056 1.043 2.463 1.603 3.9 1.603.364 0 .73-.036 1.092-.11v.794zm3.727-6.45c.09 2.017-1.086 3.88-2.955 4.663-1.869.783-4.02.315-5.395-1.162-.09-2.015 1.086-3.877 2.955-4.66 1.87-.784 4.021-.317 5.395 1.16zm-4.172-2.225c-.509.06-1.015.19-1.505.394-.186.078-.366.167-.54.263v-1.482c0-.201-.162-.364-.363-.364-.2 0-.364.163-.364.364v1.961c-.803.626-1.415 1.459-1.774 2.4-.36-.941-.971-1.774-1.775-2.4v-3.044l5.24-1.188c.26.51.63.954 1.081 1.3v1.796z"/>
                    </g>
                    <g fill="#6583FE">
                        <path d="M.599 14.397c-.093 0-.186-.036-.257-.107-.142-.142-.142-.372 0-.514l.242-.242-.364-.231c-.093-.06-.155-.158-.167-.267-.012-.11.026-.22.104-.297l.564-.564c.142-.142.372-.142.514 0 .142.143.142.373 0 .515l-.242.242.364.23c.093.06.154.158.166.268.012.11-.026.219-.104.297l-.563.563c-.071.071-.164.107-.257.107zM22.251 22.663c-.2 0-.363-.163-.363-.364 0-.24-.196-.436-.437-.436-.2 0-.363-.163-.363-.364 0-.2.162-.364.363-.364.24 0 .437-.195.437-.436 0-.2.162-.364.363-.364.201 0 .364.163.364.364 0 .24.196.436.436.436.201 0 .364.163.364.364 0 .2-.163.364-.364.364-.24 0-.436.195-.436.436 0 .201-.163.364-.364.364zM20.452 26.02c-.093 0-.186-.035-.257-.106-.142-.142-.142-.372 0-.514l.242-.242-.364-.231c-.093-.06-.154-.158-.166-.267-.012-.11.026-.22.104-.297l.563-.564c.142-.142.372-.142.514 0 .142.143.142.373 0 .515l-.242.242.364.23c.093.06.155.158.167.268.012.11-.026.219-.104.297l-.564.563c-.07.071-.164.106-.257.106zM1.997 2.368c-.093 0-.186-.036-.257-.107-.142-.142-.142-.372 0-.514l.242-.242-.364-.231c-.093-.06-.154-.157-.166-.267-.012-.11.026-.22.104-.297L2.12.147c.142-.142.372-.142.515 0 .142.142.142.372 0 .514L2.39.903l.364.23c.094.06.155.158.167.268.012.11-.026.219-.104.297l-.563.563c-.071.071-.165.107-.258.107zM23.051 4.713c-.2 0-.363-.163-.363-.364 0-.24-.196-.436-.437-.436-.2 0-.363-.163-.363-.364 0-.2.162-.364.363-.364.241 0 .437-.195.437-.436 0-.2.163-.364.363-.364.201 0 .364.163.364.364 0 .24.196.436.436.436.201 0 .364.163.364.364 0 .2-.163.364-.364.364-.24 0-.436.196-.436.436 0 .201-.163.364-.364.364z" transform="translate(-403 -284) translate(403 284) translate(6.328 2.182) translate(0 2.473)"/>
                    </g>
                </g>
            </g>
        </g>
    </g>
</svg>
