<svg xmlns="http://www.w3.org/2000/svg" width="37" height="38" viewBox="0 0 37 38">
    <defs>
        <linearGradient id="mubirrc8ka" x1=".008%" x2="100.005%" y1="49.996%" y2="49.996%">
            <stop offset="0%" stop-color="#D2DEFF" stop-opacity="0"/>
            <stop offset="100%" stop-color="#B7C5FF"/>
        </linearGradient>
    </defs>
    <g fill="none" fill-rule="evenodd">
        <g fill-rule="nonzero">
            <g>
                <path fill="url(#mubirrc8ka)" d="M33.624 2.02c-4.702-2.801-10.783-2.646-15.397.22-2.594 1.615-4.599 3.936-6.869 5.941-1.99 1.754-4.304 3.007-6.368 4.658-7.46 6-6.752 22.186 3.759 24.33 4.555.93 10.776 1.231 13.451-3.213 2.55-4.238 3.405-8.58 8.395-10.827 1.74-.782 4.643-.745 5.815-2.47 1.49-2.174-.36-4.422-1.341-6.316-1.268-2.44-1.533-4.842-.641-7.459.759-2.226 1.297-3.228-.804-4.864z" transform="translate(-346 -284) translate(346 284)"/>
                <g transform="translate(-346 -284) translate(346 284) translate(3.317 2.432)">
                    <path fill="#00C" d="M29.335 13.562h-2.528c-.347 0-.627.28-.627.626v.243h-1.71V2.558c0-.207-.162-.369-.368-.369h-13.82L5.896 6.575V9.61c-1.739.354-3.051 1.887-3.051 3.73 0 .073 0 .147.007.22h-1.82c-.347 0-.627.28-.627.627v11.528c0 .346.28.626.627.626H3.56c.346 0 .626-.28.626-.626v-.435H6.34c-.052.457.095.936.442 1.282.457.457 1.12.568 1.688.347l.177.177c-.229.56-.11 1.23.346 1.688.457.456 1.12.567 1.688.346l.177.177c-.229.56-.11 1.23.346 1.688.457.457 1.12.567 1.688.346l.177.177c-.229.56-.11 1.23.346 1.688.457.457 1.12.567 1.688.346l.221.221c.612.612 1.6.612 2.211 0 .612-.611.612-1.6 0-2.21.612.61 1.6.61 2.212 0 .302-.303.457-.708.457-1.106 0-.398-.155-.796-.457-1.106.611.612 1.599.612 2.21 0 .613-.612.613-1.6 0-2.211.605.604 1.578.612 2.19.022.516-.494.597-1.268.28-1.872h1.776v.435c0 .346.28.626.627.626h2.506c.346 0 .626-.28.626-.626V14.188c.008-.346-.28-.626-.626-.626z" opacity=".1"/>
                    <g>
                        <g>
                            <path fill="#FFF" d="M18.574 18.146V.42c0-.206-.162-.368-.369-.368H4.385L0 4.437v13.71h18.574z" transform="translate(.369 .369) translate(5.528)"/>
                            <path fill="#6583FE" d="M0 4.437h4.017c.206 0 .368-.162.368-.368V.052L0 4.437z" transform="translate(.369 .369) translate(5.528)"/>
                        </g>
                        <g>
                            <g fill="#FFF">
                                <path d="M13.363.612L5.196 8.778c-.619.62-.634 1.644 0 2.256.612.59 1.585.582 2.19-.022-.612.611-.612 1.599 0 2.21.611.612 1.599.612 2.21 0-.611.612-.611 1.6 0 2.212.612.612 1.6.612 2.212 0-.612.612-.612 1.6 0 2.211.611.612 1.599.612 2.21 0l6.723-6.722h3.994V.06H14.697c-.501 0-.98.199-1.334.553z" transform="translate(.369 .369) translate(0 11.424) translate(2.432 .81)"/>
                                <path d="M21.33 12.788c-.611.59-1.584.582-2.189-.022.612.611.612 1.6 0 2.21-.612.613-1.6.613-2.21 0 .301.303.456.708.456 1.106 0 .398-.155.796-.457 1.106-.612.612-1.6.612-2.211 0 .612.612.612 1.6 0 2.211-.612.612-1.6.612-2.211 0l-8.476-8.476H.044V.06h10.031c.502 0 .98.199 1.335.553l9.92 9.92c.62.62.634 1.651 0 2.256z" transform="translate(.369 .369) translate(0 11.424) translate(2.432 .81)"/>
                                <g>
                                    <g>
                                        <path d="M9.353 10.79l1.467-1.466c.612-.612.612-1.6 0-2.211-.612-.612-1.6-.612-2.211 0L7.142 8.579c-.612.612-.612 1.6 0 2.211.612.612 1.6.612 2.211 0z" transform="translate(.369 .369) translate(0 11.424) translate(2.432 .81) translate(3.464) translate(0 8.034)"/>
                                        <path d="M7.142 8.58l1.467-1.467c.612-.612.612-1.6 0-2.212-.612-.611-1.6-.611-2.211 0l-1.46 1.474c-.612.612-.612 1.6 0 2.212.605.604 1.592.604 2.204-.008z" transform="translate(.369 .369) translate(0 11.424) translate(2.432 .81) translate(3.464) translate(0 8.034)"/>
                                        <path d="M4.938 6.375L6.405 4.91c.612-.612.612-1.6 0-2.211-.612-.612-1.6-.612-2.211 0L2.727 4.164c-.612.612-.612 1.6 0 2.211.612.605 1.6.605 2.211 0z" transform="translate(.369 .369) translate(0 11.424) translate(2.432 .81) translate(3.464) translate(0 8.034)"/>
                                        <path d="M2.727 4.164l1.467-1.466c.612-.612.612-1.6 0-2.212-.612-.611-1.6-.611-2.211 0L.516 1.953c-.612.612-.612 1.6 0 2.211.612.612 1.6.612 2.211 0z" transform="translate(.369 .369) translate(0 11.424) translate(2.432 .81) translate(3.464) translate(0 8.034)"/>
                                    </g>
                                    <path d="M15.75.059h-4.525c-.5 0-.98.199-1.334.553L6.368 4.135c-.612.612-.612 1.614 0 2.226.612.612 1.614.612 2.226 0l2.137-2.138c.34-.339.796-.53 1.276-.53h3.744V.059z" transform="translate(.369 .369) translate(0 11.424) translate(2.432 .81) translate(3.464)"/>
                                </g>
                            </g>
                            <g fill="#6583FE">
                                <path d="M3.818.634V12.16c0 .347-.28.627-.627.627H.663c-.346 0-.626-.28-.626-.627V.634c0-.347.28-.627.626-.627h2.528c.34-.007.627.273.627.627zM28.966 12.788h-2.528c-.346 0-.626-.28-.626-.627V.626c0-.346.28-.626.626-.626h2.528c.347 0 .627.28.627.626v11.535c.007.347-.28.627-.627.627z" transform="translate(.369 .369) translate(0 11.424)"/>
                            </g>
                        </g>
                        <g>
                            <g>
                                <path fill="#00C" d="M1.776 8.565H.766c-.405 0-.737-.332-.737-.738V.803C.03.398.361.066.767.066h1.01c.405 0 .736.332.736.737v7.024c0 .406-.324.738-.737.738zM.774.803v7.024h1.01V.803H.774z" transform="translate(.369 .369) translate(7.665 1.99) translate(6.118)"/>
                                <path fill="#6583FE" d="M.405 4.702v3.125c0 .207.163.369.369.369h1.01c.206 0 .368-.162.368-.369V4.702H.405z" transform="translate(.369 .369) translate(7.665 1.99) translate(6.118)"/>
                                <g>
                                    <path fill="#00C" d="M1.747 6.353H.737C.332 6.353 0 6.022 0 5.616V.803C0 .398.332.066.737.066h1.01c.405 0 .737.332.737.737v4.813c0 .406-.332.737-.737.737zM.737.803v4.813h1.01V.803H.737z" transform="translate(.369 .369) translate(7.665 1.99) translate(6.118) translate(3.022 2.211)"/>
                                    <path fill="#6583FE" d="M.369 4.702v.914c0 .207.162.369.368.369h1.01c.206 0 .368-.162.368-.369v-.914H.37z" transform="translate(.369 .369) translate(7.665 1.99) translate(6.118) translate(3.022 2.211)"/>
                                </g>
                                <g>
                                    <path fill="#FFF" d="M7.754 8.196h-1.01c-.206 0-.369-.162-.369-.369V.803c0-.206.163-.368.369-.368h1.01c.206 0 .368.162.368.368v7.024c0 .2-.162.369-.368.369z" transform="translate(.369 .369) translate(7.665 1.99) translate(6.118)"/>
                                    <path fill="#6583FE" d="M6.383 2.491v5.336c0 .207.162.369.368.369h1.01c.207 0 .369-.162.369-.369V2.491H6.383z" transform="translate(.369 .369) translate(7.665 1.99) translate(6.118)"/>
                                    <path fill="#00C" d="M1.776 8.565H.766c-.405 0-.737-.332-.737-.738V.803C.03.398.361.066.767.066h1.01c.405 0 .736.332.736.737v7.024c0 .406-.324.738-.737.738zM.774.803v7.024h1.01V.803H.774zM4.769 8.565h-1.01c-.405 0-.737-.332-.737-.738V3.015c0-.406.332-.738.737-.738h1.01c.405 0 .737.332.737.738v4.812c0 .406-.332.738-.737.738zm-1.01-5.55v4.812h1.01V3.015h-1.01zM7.754 8.565h-1.01c-.405 0-.737-.332-.737-.738V.803c0-.405.332-.737.737-.737h1.01c.405 0 .737.332.737.737v7.024c0 .406-.332.738-.737.738zM6.75.803v7.024h1.01V.803h-1.01z" transform="translate(.369 .369) translate(7.665 1.99) translate(6.118)"/>
                                </g>
                            </g>
                            <g fill="#00C">
                                <path d="M4.533.789h-.774C3.553.789 3.39.626 3.39.42s.163-.368.369-.368h.774c.206 0 .368.162.368.368S4.74.79 4.533.79zM2.093.789h-.331c-.207 0-.369-.163-.369-.369s.162-.368.369-.368h.331c.207 0 .369.162.369.368S2.3.79 2.093.79zM4.533 2.285H.427c-.206 0-.368-.162-.368-.369 0-.206.162-.368.368-.368h4.106c.206 0 .368.162.368.368 0 .207-.162.369-.368.369zM4.533 3.56H.427c-.206 0-.368-.162-.368-.369 0-.206.162-.368.368-.368h4.106c.206 0 .368.162.368.368 0 .2-.162.369-.368.369z" transform="translate(.369 .369) translate(7.665 1.99) translate(0 4.643)"/>
                            </g>
                        </g>
                    </g>
                    <circle cx="6.648" cy="11.572" r="3.803" fill="#FFF"/>
                    <path fill="#00C" d="M29.335 11.424h-2.528c-.509 0-.93.384-.988.87h-.98V.789c0-.406-.332-.737-.737-.737h-3.354c-.206 0-.369.162-.369.368s.163.369.369.369h3.354v11.505H17.49c-.604 0-1.172.236-1.592.663l-.715.715-.715-.715c-.427-.427-.995-.663-1.592-.663h-2.115c.044-.236.066-.472.066-.722 0-2.3-1.872-4.172-4.171-4.172-.133 0-.258.007-.384.022v-2.24h3.649c.405 0 .737-.332.737-.738V.796h7.665c.206 0 .369-.162.369-.369 0-.206-.163-.368-.369-.368H10.29c-.096 0-.191.037-.258.11L5.646 4.556c-.067.066-.11.162-.11.258v2.75c-1.718.47-2.993 2.019-3.06 3.861H1.032c-.553 0-.995.45-.995.995v11.535c0 .553.45.995.995.995H3.56c.553 0 .995-.45.995-.995v-.066H5.97c.044.427.229.847.553 1.18.361.36.848.567 1.363.567.104 0 .207-.008.303-.022-.096.59.088 1.216.538 1.665.376.376.87.568 1.363.568.103 0 .207-.008.302-.022-.095.59.089 1.216.538 1.665.376.376.87.568 1.364.568.103 0 .206-.007.302-.022-.096.59.089 1.216.538 1.666.376.375.87.567 1.364.567.162 0 .324-.022.479-.059l.066.066c.361.362.848.568 1.364.568.516 0 1.002-.199 1.363-.568.457-.45.634-1.076.538-1.665.59.096 1.217-.089 1.666-.538.361-.361.568-.848.568-1.364 0-.103-.008-.206-.022-.302.095.015.199.022.302.022.516 0 1.002-.199 1.363-.567.457-.457.634-1.084.538-1.674.583.089 1.194-.08 1.644-.508.368-.354.575-.84.582-1.364 0-.14-.015-.272-.037-.412h.885v.066c0 .553.45.995.995.995h2.543c.552 0 .995-.45.995-.995v-11.55c.007-.545-.443-.995-.995-.995zM6.78 4.437l3.132-3.132v3.132H6.781zm-.133 3.7c1.894 0 3.435 1.54 3.435 3.435 0 1.894-1.54 3.434-3.435 3.434-1.894 0-3.434-1.54-3.434-3.434 0-1.895 1.54-3.435 3.434-3.435zM3.553 24.212H1.032c-.14 0-.258-.118-.258-.258V12.42c0-.14.118-.258.258-.258H2.52c.14.973.611 1.836 1.297 2.477v9.316c0 .14-.118.258-.265.258zm4.333.678c-.316 0-.619-.125-.84-.346-.464-.465-.464-1.224 0-1.688l1.467-1.467c.228-.228.523-.346.84-.346.317 0 .62.125.84.346.465.465.465 1.224 0 1.688l-1.459 1.467c-.228.22-.53.346-.848.346zm2.212 2.211c-.317 0-.62-.125-.84-.346-.465-.464-.465-1.224 0-1.688l1.466-1.467c.229-.228.523-.346.84-.346.317 0 .62.125.84.346.465.465.465 1.224 0 1.688l-1.466 1.467c-.221.221-.523.346-.84.346zm2.203 2.204c-.317 0-.619-.125-.84-.346-.464-.465-.464-1.224 0-1.688l1.467-1.467c.236-.236.538-.346.84-.346.302 0 .612.118.84.346.229.229.347.523.347.84 0 .317-.126.62-.347.84l-1.466 1.467c-.221.229-.516.354-.84.354zm1.364 1.858c-.464-.465-.464-1.224 0-1.688l1.467-1.467c.236-.236.538-.346.84-.346.302 0 .612.117.84.346.464.464.464 1.223 0 1.688l-1.467 1.467c-.457.471-1.208.471-1.68 0zm3.604.574c-.228.229-.523.347-.84.347-.265 0-.516-.089-.722-.243.059-.045.118-.096.176-.155l1.467-1.467.037-.037c.155.207.236.45.236.708-.007.317-.133.619-.354.847zm7.349-8.586c-.067-.096-.14-.192-.229-.273l-4.938-4.938c-.148-.148-.376-.148-.524 0-.147.147-.147.376 0 .523l4.939 4.938c.236.236.368.56.36.892 0 .325-.124.62-.353.833-.464.45-1.216.442-1.673-.015l-4.688-4.687c-.147-.148-.376-.148-.523 0-.147.147-.147.376 0 .523l4.688 4.688c.464.464.464 1.223 0 1.688-.465.464-1.224.464-1.688 0L15.3 22.635c-.147-.148-.376-.148-.523 0-.148.147-.148.376 0 .523l4.688 4.688c.228.228.346.523.346.84 0 .317-.125.62-.346.84-.465.465-1.224.465-1.688 0 .258-.685.11-1.489-.443-2.041-.45-.45-1.076-.634-1.665-.538.014-.096.022-.2.022-.303 0-.516-.2-1.002-.568-1.363-.457-.457-1.076-.634-1.665-.538.095-.59-.089-1.216-.538-1.666-.362-.361-.848-.567-1.364-.567-.103 0-.206.007-.302.022.096-.59-.089-1.216-.538-1.666-.361-.361-.848-.568-1.364-.568-.516 0-1.002.2-1.363.568l-1.467 1.467c-.236.236-.398.516-.487.818H4.555v-7.968c.62.361 1.334.568 2.093.568 1.791 0 3.317-1.135 3.914-2.72h2.314c.406 0 .789.155 1.076.442l.715.715-2.285 2.285c-.368.369-.567.855-.567 1.371s.199 1.01.567 1.37c.376.377.878.568 1.371.568.494 0 .995-.191 1.371-.567l2.138-2.138c.272-.272.634-.42 1.017-.42h3.744c.206 0 .369-.162.369-.368 0-.207-.163-.369-.369-.369H18.28c-.582 0-1.128.229-1.54.634L14.6 18.692c-.472.471-1.23.471-1.703 0-.228-.229-.353-.531-.353-.855 0-.325.125-.627.353-.855l3.524-3.523c.287-.288.67-.443 1.076-.443h8.32v10.12l-1.2.015zm4.982.803c0 .14-.118.258-.258.258h-2.528c-.14 0-.258-.118-.258-.258V12.42c0-.14.118-.258.258-.258h2.52c.14 0 .259.118.259.258v11.535h.007z"/>
                    <path fill="#00C" d="M7.076 11.203h-.06v-.59H7.6c.206 0 .369-.162.369-.368s-.163-.369-.369-.369h-.582v-.125c0-.206-.162-.368-.369-.368-.206 0-.368.162-.368.368v.125h-.06c-.567 0-1.031.465-1.031 1.032 0 .568.464 1.032 1.032 1.032h.059v.59h-.583c-.206 0-.368.162-.368.368 0 .207.162.369.368.369h.583v.125c0 .207.162.369.368.369.207 0 .369-.162.369-.369v-.125h.059c.567 0 1.032-.464 1.032-1.032 0-.567-.465-1.032-1.032-1.032zm-.855 0c-.162 0-.295-.132-.295-.295 0-.162.133-.294.295-.294h.059v.59h-.06zm.855 1.327h-.06v-.59h.06c.162 0 .295.133.295.295 0 .162-.133.295-.295.295z"/>
                    <path fill="#6583FE" d="M3.435 6.818c-.096 0-.192-.037-.258-.11l-.332-.333-.332.332c-.147.148-.376.148-.523 0-.147-.147-.147-.376 0-.523l.59-.59c.147-.147.376-.147.523 0l.59.59c.147.147.147.376 0 .523-.074.074-.163.11-.258.11zM9.338 31.06c-.095 0-.191-.037-.258-.111l-.331-.332-.332.332c-.147.147-.376.147-.523 0-.148-.148-.148-.376 0-.524l.59-.59c.147-.147.375-.147.523 0l.59.59c.147.148.147.376 0 .524-.067.074-.163.11-.259.11zM28.612 8.329h-.22v-.221c0-.207-.163-.369-.37-.369-.206 0-.368.162-.368.369v.22h-.22c-.207 0-.37.163-.37.37 0 .206.163.368.37.368h.22v.22c0 .207.162.37.369.37.206 0 .368-.163.368-.37v-.22h.221c.207 0 .369-.162.369-.369 0-.206-.162-.368-.369-.368zM6.147 28.627h-.221v-.221c0-.206-.162-.369-.369-.369-.206 0-.368.163-.368.369v.221h-.221c-.207 0-.369.162-.369.369 0 .206.162.368.369.368h.22v.221c0 .207.163.369.37.369.206 0 .368-.162.368-.369v-.22h.221c.206 0 .369-.163.369-.37 0-.206-.163-.368-.369-.368zM28.037 5.469c-.095 0-.191-.037-.258-.11l-.331-.332-.28.28c-.148.147-.376.147-.524 0-.147-.148-.147-.376 0-.524l.538-.538c.148-.147.376-.147.524 0l.59.59c.147.147.147.376 0 .523-.074.074-.163.11-.259.11z"/>
                </g>
            </g>
        </g>
    </g>
</svg>
