<svg xmlns="http://www.w3.org/2000/svg" width="38" height="39" viewBox="0 0 38 39">
    <defs>
        <linearGradient id="tn7phf594a" x1="0%" x2="100%" y1="50%" y2="50%">
            <stop offset="0%" stop-color="#D2DEFF" stop-opacity="0"/>
            <stop offset="100%" stop-color="#B7C5FF"/>
        </linearGradient>
    </defs>
    <g fill="none" fill-rule="evenodd">
        <g fill-rule="nonzero">
            <g>
                <path fill="url(#tn7phf594a)" d="M33.977 2.037c-4.749-2.83-10.894-2.672-15.558.227-2.62 1.628-4.645 3.977-6.942 6-2.013 1.771-4.353 3.035-6.432 4.707-7.538 6.063-6.819 22.416 3.796 24.588 4.601.942 10.89 1.244 13.594-3.25 2.579-4.285 3.444-8.669 8.482-10.945 1.756-.793 4.69-.753 5.88-2.491 1.5-2.194-.362-4.472-1.355-6.384-1.28-2.463-1.549-4.892-.648-7.534.767-2.25 1.307-3.261-.817-4.918z" transform="translate(-233 -284) translate(233 284)"/>
                <g>
                    <g fill="#2626BC" opacity=".1">
                        <path d="M24.452 22.44l.647-.647c.17-.169.17-.442 0-.61l-3.088-3.09c.537-.844.934-1.786 1.158-2.794H25c-.098.533-.236 1.057-.415 1.57-.067.194.035.407.23.474.04.014.082.021.122.021.154 0 .298-.096.352-.25.206-.592.362-1.198.467-1.815h.485c.954 0 1.728-.774 1.728-1.728v-1.665c0-.238-.193-.432-.432-.432H23.17c-.224-1.007-.62-1.95-1.158-2.794l1.787-1.787c.465.658.861 1.366 1.178 2.114.06.143.198.228.343.228.048 0 .097-.01.145-.03.19-.08.278-.298.198-.488-.356-.842-.807-1.636-1.339-2.37.53-.678.483-1.66-.14-2.283l-1.177-1.177c-.169-.169-.443-.169-.611 0l-.768.767-.05-.036c-.167-.12-.4-.081-.519.086-.108.15-.086.353.04.48l-1.792 1.791c-.844-.537-1.787-.934-2.794-1.158v-3.07c0-.955-.774-1.73-1.729-1.73H13.12c-.239 0-.432.194-.432.433v1.781c-.71.121-1.406.31-2.083.565-.192.072-.29.287-.217.48.056.149.198.24.349.24.043 0 .088-.007.131-.024.592-.223 1.2-.392 1.82-.505v1.83c-1.008.224-1.95.62-2.795 1.158L7.721 3.804c-.675-.675-1.77-.675-2.445 0L4.1 4.98c-.168.169-.168.443 0 .611L7.188 8.68c-.538.844-.934 1.787-1.158 2.794H3.5c.11-.64.274-1.269.494-1.882.07-.194-.032-.407-.225-.476-.194-.07-.407.031-.476.225-.25.699-.433 1.416-.55 2.147-.853.106-1.514.833-1.514 1.715v1.664c0 .239.194.432.433.432H6.03c.224 1.008.62 1.95 1.158 2.795l-1.293 1.292c-.28-.406-.534-.831-.755-1.272-.092-.184-.315-.259-.5-.167-.183.092-.258.316-.166.5.257.513.554 1.006.886 1.475l-.344.343c-.598.598-.665 1.524-.204 2.197-1.468-.479-2.237-1.27-4.777-1.27v8.88c0 .412.334.746.745.746h27.569c.409 0 .74-.33.744-.74l.023-3.178.046-5.708c-2.502 0-3.284.768-4.71 1.249zM26.746 7.821c.072.106.19.164.309.164.072 0 .144-.021.208-.065.17-.115.215-.347.1-.517l-.294-.433c-.115-.17-.347-.215-.517-.1-.17.116-.215.348-.1.518l.294.433zM1.805 9.84c.206 0 .372-.168.372-.373v-.402c0-.205-.166-.372-.372-.372s-.372.167-.372.372v.402c0 .205.166.372.372.372z" transform="translate(-233 -284) translate(233 284) translate(1.788 2.086) translate(2.309 3.352)"/>
                        <path d="M26.388 17.412v.868c0 .206.167.373.373.373.205 0 .372-.167.372-.373v-.868c0-.206-.167-.372-.372-.372-.206 0-.373.166-.373.372zM2.968 19.785c.066 0 .134-.018.195-.056.175-.108.229-.338.12-.513l-.365-.588c-.108-.175-.337-.23-.512-.12-.175.108-.229.337-.12.512l.365.589c.07.114.192.176.317.176zM9.795 1.229h.94c.206 0 .373-.167.373-.373 0-.205-.167-.372-.372-.372h-.94c-.207 0-.373.167-.373.372 0 .206.166.373.372.373z" transform="translate(-233 -284) translate(233 284) translate(1.788 2.086) translate(2.309 3.352)"/>
                    </g>
                    <g>
                        <g>
                            <g transform="translate(-233 -284) translate(233 284) translate(1.788 2.086) translate(1.937 1.192) translate(.372 .372) translate(1.192)">
                                <path fill="#FFF" d="M15.32 6.509h-3.825V.449c0-.238.194-.431.432-.431h1.664c.955 0 1.73.774 1.73 1.728V6.51z"/>
                                <g fill="#FFF">
                                    <path d="M20.285 3.829V.004h6.06c.238 0 .432.194.432.432V2.1c0 .955-.774 1.729-1.729 1.729h-4.763zM6.53.004v3.825H.47c-.238 0-.431-.194-.431-.432V1.733C.039.778.813.004 1.767.004H6.53z" transform="translate(0 11.47)"/>
                                </g>
                                <g fill="#FFF">
                                    <path d="M16.346 7.12l-2.705-2.705L17.926.131c.169-.169.442-.169.61 0l1.178 1.177c.675.675.675 1.77 0 2.444L16.346 7.12zM3.915 14.142l2.704 2.705-4.284 4.284c-.169.169-.442.169-.611 0L.547 19.954c-.675-.675-.675-1.77 0-2.444l3.368-3.368z" transform="translate(3.277 2.756)"/>
                                </g>
                                <g fill="#FFF">
                                    <path d="M14.163 16.325l2.704-2.705 4.285 4.285c.169.169.169.442 0 .611l-1.177 1.177c-.675.675-1.77.675-2.445 0l-3.367-3.368zM7.14 3.894L4.437 6.599.152 2.314c-.169-.169-.169-.442 0-.611L1.329.526c.675-.675 1.77-.675 2.444 0l3.368 3.368z" transform="translate(2.756 3.277)"/>
                                </g>
                                <circle cx="13.404" cy="13.387" r="8.778" fill="#6583FE" transform="rotate(-45 13.404 13.387)"/>
                                <g transform="translate(7.15 7.15)">
                                    <circle cx="6.257" cy="6.236" r="6.208" fill="#FFF"/>
                                    <path fill="#6583FE" d="M7.917 5.587H6.628V3.061c0-.118-.158-.157-.212-.052L4.498 6.722c-.039.074.015.164.1.164h1.288v2.526c0 .118.159.157.213.052L8.017 5.75c.039-.074-.016-.164-.1-.164z"/>
                                </g>
                            </g>
                            <path fill="#FFF" d="M29.162 21.192l-.046 5.708-.023 3.179c-.003.409-.335.739-.744.739H.779c-.41 0-.744-.334-.744-.745v-8.881c3.641 0 3.641 1.627 7.282 1.627 3.64 0 3.64-1.627 7.281-1.627 3.641 0 3.641 1.627 7.283 1.627 3.64 0 3.64-1.627 7.281-1.627z" transform="translate(-233 -284) translate(233 284) translate(1.788 2.086) translate(1.937 1.192) translate(.372 .372)"/>
                            <g fill="#6583FE">
                                <path d="M29.116 5.747l-.023 3.179c-.003.409-.335.739-.744.739H.779c-.41 0-.744-.334-.744-.745V5.746c3.641 0 3.641 1.628 7.282 1.628 3.64 0 3.64-1.628 7.281-1.628 3.641 0 3.641 1.628 7.283 1.628 3.625 0 3.64-1.614 7.235-1.627zM29.162.039l-.028 2.929c-3.613.008-3.622 1.628-7.253 1.628-3.642 0-3.642-1.628-7.283-1.628-3.64 0-3.64 1.628-7.281 1.628-3.64 0-3.64-1.628-7.282-1.628V.039c3.642 0 3.642 1.627 7.282 1.627 3.641 0 3.641-1.627 7.281-1.627 3.64 0 3.64 1.627 7.283 1.627 3.64 0 3.64-1.627 7.281-1.627z" transform="translate(-233 -284) translate(233 284) translate(1.788 2.086) translate(1.937 1.192) translate(.372 .372) translate(0 21.153)"/>
                            </g>
                        </g>
                        <g fill="#2626BC">
                            <path d="M29.534 21.192c-1.747 0-2.701.364-3.567.746.002-.026.004-.052.004-.078 0-.215-.084-.417-.236-.569l-2.885-2.885c.433-.733.764-1.528.98-2.362h1.466c-.09.405-.202.805-.339 1.197-.068.195.035.407.229.475.04.014.082.02.123.02.154 0 .298-.096.351-.25.165-.472.297-.953.397-1.442h.555c1.158 0 2.1-.942 2.1-2.1v-1.665c0-.444-.36-.805-.803-.805h-4.074c-.217-.84-.551-1.634-.983-2.364l1.532-1.532c.374.568.698 1.17.964 1.802.06.142.198.227.343.227.049 0 .098-.01.145-.03.19-.08.278-.298.198-.487-.305-.722-.68-1.409-1.116-2.053.717-.825.685-2.08-.1-2.864l-1.176-1.177c-.314-.314-.824-.314-1.138 0L19.62 5.879c-1.363-.807-2.952-1.271-4.648-1.271-.525 0-1.04.045-1.54.13V3.299c.507-.074 1.02-.112 1.54-.112.205 0 .372-.167.372-.372 0-.206-.167-.373-.372-.373-.519 0-1.033.035-1.54.104V.822c0-.033.026-.06.06-.06h1.664c.747 0 1.356.61 1.356 1.357v.625c0 .206.167.372.372.372.206 0 .373-.166.373-.372v-.625c0-1.159-.943-2.101-2.101-2.101h-1.664c-.444 0-.805.36-.805.804v1.85c-.581.12-1.153.285-1.71.496-.193.072-.29.287-.217.48.056.149.198.24.348.24.044 0 .088-.007.132-.023.473-.179.956-.322 1.447-.43v1.461c-.84.217-1.635.551-2.364.983L8.357 3.913c-.397-.397-.925-.616-1.486-.616-.562 0-1.089.219-1.486.616L4.21 5.089c-.152.152-.236.354-.236.569 0 .215.083.417.236.57l1.498 1.498c.073.072.168.109.263.109.096 0 .19-.037.264-.11.145-.145.145-.38 0-.526L4.735 5.7c-.014-.015-.017-.032-.017-.043 0-.011.003-.028.017-.042L5.912 4.44c.256-.257.597-.398.959-.398s.703.141.959.398l1.854 1.854c-1.738 1.234-3.028 3.06-3.575 5.18H3.944c.106-.512.247-1.016.423-1.51.07-.193-.031-.406-.225-.476-.193-.069-.407.032-.476.226-.206.576-.367 1.166-.483 1.766-1.09.076-1.953.987-1.953 2.095v1.665c0 .443.361.804.805.804h4.078c.217.834.548 1.629.98 2.362l-1.036 1.037c-.198-.31-.38-.629-.544-.957-.092-.184-.316-.258-.5-.166s-.258.316-.166.5c.2.4.425.788.671 1.161l-.393.393c-.487.488-.69 1.166-.59 1.812-.111-.048-.222-.098-.334-.148-.93-.416-1.893-.846-3.794-.846-.205 0-.372.167-.372.372 0 .206.167.373.372.373 1.742 0 2.591.38 3.49.781.93.416 1.893.846 3.793.846 1.9 0 2.862-.43 3.792-.846.899-.402 1.748-.781 3.489-.781 1.74 0 2.59.38 3.488.78.931.417 1.894.847 3.794.847 1.9 0 2.862-.43 3.793-.846.899-.402 1.747-.781 3.488-.781.206 0 .373-.167.373-.373s-.167-.372-.373-.372zm-1.626-8.973c.034 0 .06.026.06.06v1.664c0 .748-.608 1.356-1.356 1.356h-.428c.07-.508.105-1.022.105-1.54 0-.206-.167-.372-.373-.372s-.372.166-.372.372c0 .519-.038 1.033-.112 1.54h-1.441c.086-.503.132-1.018.132-1.54 0-.525-.045-1.04-.13-1.54h3.915zM23.03 3.523c.024-.024.061-.024.085 0l1.177 1.176c.464.464.52 1.183.17 1.71-.623-.804-1.348-1.53-2.16-2.157l.728-.73zm-1.26 1.26c.826.627 1.558 1.36 2.178 2.178l-1.51 1.51c-.6-.842-1.336-1.579-2.179-2.177l1.51-1.51zM2.034 15.3c-.033 0-.06-.026-.06-.06v-1.664c0-.655.468-1.204 1.087-1.33-.063.5-.095 1.005-.095 1.514 0 .206.167.373.373.373.205 0 .372-.167.372-.373 0-.518.036-1.032.105-1.54h2.134c-.086.5-.13 1.015-.13 1.54 0 .522.046 1.037.132 1.54H2.035zm3.392 7.222c-.294-.523-.208-1.187.225-1.62l.303-.303c.146.192.298.38.456.563.074.085.177.129.282.129.086 0 .173-.03.243-.09.156-.136.173-.37.038-.526-.17-.197-.332-.4-.487-.608l1.02-1.021c.595.839 1.328 1.579 2.175 2.181l-1.585 1.585c-.13.005-.266.008-.407.008-.982 0-1.68-.12-2.263-.298zm5.695-.458c-.553.247-1.095.483-1.847.623l1.046-1.045c.259.153.526.294.801.422zm.965-.405c-3.303-1.207-5.522-4.38-5.522-7.899 0-4.635 3.771-8.407 8.407-8.407 4.635 0 8.407 3.772 8.407 8.407 0 3.522-2.219 6.692-5.523 7.899-.715-.263-1.578-.466-2.885-.466-1.307 0-2.17.203-2.884.466zm7.535-.017l1.045 1.045c-.751-.14-1.293-.376-1.847-.623.276-.128.544-.269.802-.422zm2.224 1.17l-1.584-1.584c.847-.603 1.58-1.343 2.174-2.182l2.772 2.773c.015.014.018.03.018.042 0 .011-.003.028-.018.043l-.584.584c-.605.196-1.328.332-2.37.332-.143 0-.278-.003-.408-.008zM27.118 8.193c.073.107.19.164.31.164.071 0 .144-.02.208-.064.17-.116.214-.347.1-.517l-.295-.433c-.115-.17-.347-.215-.517-.1-.17.116-.214.347-.1.517l.294.433z" transform="translate(-233 -284) translate(233 284) translate(1.788 2.086) translate(1.937 1.192)"/>
                            <path d="M2.177 10.211c.206 0 .373-.166.373-.372v-.401c0-.206-.167-.373-.373-.373-.205 0-.372.167-.372.373v.401c0 .206.167.372.372.372zM26.76 17.784v.869c0 .206.168.372.373.372.206 0 .373-.166.373-.372v-.869c0-.205-.167-.372-.373-.372-.205 0-.372.167-.372.372zM3.34 20.158c.067 0 .135-.018.196-.056.175-.109.228-.338.12-.513L3.291 19c-.109-.175-.338-.229-.513-.12-.175.108-.229.338-.12.513l.365.588c.07.114.192.177.317.177zM10.167 1.601h.941c.206 0 .372-.166.372-.372s-.166-.373-.372-.373h-.94c-.206 0-.373.167-.373.373s.167.372.372.372z" transform="translate(-233 -284) translate(233 284) translate(1.788 2.086) translate(1.937 1.192)"/>
                        </g>
                    </g>
                    <g fill="#6583FE">
                        <path d="M3.345 7.363c-.095 0-.19-.036-.263-.109-.145-.145-.145-.38 0-.526l.248-.248-.373-.236c-.095-.061-.158-.162-.17-.274-.013-.112.026-.224.106-.304l.577-.577c.145-.145.381-.145.527 0 .145.145.145.381 0 .527l-.248.248.372.236c.096.06.159.161.171.273.013.113-.027.225-.107.305l-.576.576c-.073.073-.168.11-.264.11zM31.76 21.036c-.095 0-.19-.036-.263-.109-.145-.145-.145-.381 0-.526l.248-.248-.372-.237c-.096-.06-.159-.16-.171-.273-.013-.113.027-.224.107-.304l.576-.577c.146-.145.381-.145.527 0 .145.145.145.381 0 .527l-.248.247.373.237c.095.06.158.161.17.273.013.113-.027.225-.106.305l-.577.576c-.073.073-.168.11-.263.11zM21.37 4.113c-.095 0-.19-.036-.263-.109-.146-.145-.146-.381 0-.526l.248-.248-.373-.236c-.095-.061-.158-.162-.17-.274-.013-.112.026-.224.106-.304l.577-.577c.145-.145.38-.145.526 0 .146.145.146.381 0 .527l-.247.248.372.236c.096.06.158.16.17.273.013.113-.026.225-.106.305l-.577.576c-.072.073-.168.11-.263.11zM24.513 2.456c-.205 0-.372-.167-.372-.373 0-.246-.2-.446-.447-.446-.205 0-.372-.167-.372-.373s.167-.372.372-.372c.247 0 .447-.2.447-.447 0-.206.167-.373.372-.373.206 0 .373.167.373.373 0 .246.2.447.447.447.205 0 .372.166.372.372s-.167.373-.372.373c-.247 0-.447.2-.447.446 0 .206-.167.373-.373.373zM1.212 21.417c-.206 0-.372-.166-.372-.372 0-.246-.2-.447-.447-.447-.206 0-.373-.167-.373-.372 0-.206.167-.373.373-.373.246 0 .447-.2.447-.447 0-.205.166-.372.372-.372s.373.167.373.372c0 .247.2.447.446.447.206 0 .373.167.373.373 0 .205-.167.372-.373.372-.246 0-.446.2-.446.447 0 .206-.167.372-.373.372z" transform="translate(-233 -284) translate(233 284) translate(1.788 2.086)"/>
                    </g>
                </g>
            </g>
        </g>
    </g>
</svg>
