<?xml version="1.0" encoding="utf-8"?>
<!-- Generator: Adobe Illustrator 22.0.1, SVG Export Plug-In . SVG Version: 6.00 Build 0)  -->
<svg version="1.1" id="图层_1" xmlns="http://www.w3.org/2000/svg" xmlns:xlink="http://www.w3.org/1999/xlink" x="0px" y="0px"
	 viewBox="0 0 24 24" style="enable-background:new 0 0 24 24;" xml:space="preserve">
<g>
	<g>
		<g fill="rgba(0,0,0,0.54)">
			<path d="M3.645,21c-0.355,0-0.643-0.29-0.643-0.644c0-0.355,0.289-0.644,0.643-0.644H4.52V5.163C4.52,3.971,5.491,3,6.683,3
				h5.385c1.193,0,2.163,0.971,2.163,2.163v4.075l3.685,1.064c0.921,0.267,1.564,1.121,1.564,2.077v7.331h0.876
				c0.355,0,0.643,0.29,0.643,0.644c0,0.355-0.288,0.644-0.643,0.644H3.645z M14.231,19.711h3.962V12.38
				c0.016-0.399-0.244-0.758-0.631-0.87l-3.331-0.962v2.92h1.636c0.355,0,0.643,0.29,0.643,0.644c0,0.355-0.288,0.644-0.643,0.644
				h-1.636v1.515h1.636c0.355,0,0.643,0.29,0.643,0.644s-0.288,0.643-0.643,0.643h-1.636V19.711z M10.899,15.912
				c0.355,0,0.643,0.29,0.643,0.644v3.154h1.403V5.163c0-0.483-0.393-0.875-0.876-0.875H6.683c-0.483,0-0.876,0.392-0.876,0.875
				v14.548h1.41v-3.154c0-0.355,0.289-0.644,0.643-0.644H10.899z M8.504,19.711h1.752v-2.508H8.504V19.711z M7.86,13.784
				c-0.355,0-0.643-0.29-0.643-0.644c0-0.355,0.289-0.644,0.643-0.644h3.039c0.355,0,0.643,0.29,0.643,0.644
				c0,0.355-0.288,0.644-0.643,0.644H7.86z M7.86,10.746c-0.355,0-0.643-0.29-0.643-0.644c0-0.355,0.289-0.644,0.643-0.644h3.039
				c0.355,0,0.643,0.29,0.643,0.644c0,0.355-0.288,0.644-0.643,0.644H7.86z M7.86,7.707c-0.355,0-0.643-0.29-0.643-0.644
				S7.506,6.419,7.86,6.419h3.039c0.355,0,0.643,0.289,0.643,0.643s-0.288,0.644-0.643,0.644H7.86z"/>
		</g>
	</g>
</g>
</svg>
