<?xml version="1.0" encoding="utf-8"?>
<!-- Generator: Adobe Illustrator 22.0.1, SVG Export Plug-In . SVG Version: 6.00 Build 0)  -->
<svg version="1.1" id="图层_1" xmlns="http://www.w3.org/2000/svg" xmlns:xlink="http://www.w3.org/1999/xlink" x="0px" y="0px"
	 viewBox="0 0 24 24" style="enable-background:new 0 0 24 24;" xml:space="preserve">
<g fill="#999">
	<path d="M5.7,12.8c0.1,0.4,0.4,0.8,0.7,1.2c0.5,0.5,1.2,0.8,1.9,0.8s1.4-0.3,1.9-0.8c0.3-0.3,0.5-0.7,0.7-1.1h9.3
		c0.4,0,0.8-0.4,0.8-0.8c0-0.4-0.4-0.8-0.8-0.8h-9.3c-0.1-0.4-0.4-0.8-0.7-1.1C9.7,9.6,9,9.3,8.3,9.3c-0.7,0-1.4,0.3-1.9,0.8
		c-0.3,0.3-0.6,0.7-0.7,1.2c-0.1,0-0.2,0-0.3,0H3.8C3.4,11.2,3,11.6,3,12c0,0.4,0.4,0.8,0.8,0.8h1.6C5.5,12.8,5.6,12.8,5.7,12.8
		L5.7,12.8z M18.3,17.5c-0.1-0.4-0.4-0.8-0.7-1.2c-0.5-0.5-1.2-0.8-1.9-0.8c-0.7,0-1.4,0.3-1.9,0.8c-0.3,0.3-0.5,0.7-0.7,1.1H3.8
		c-0.4,0-0.8,0.4-0.8,0.8c0,0.4,0.4,0.8,0.8,0.8h9.3c0.1,0.4,0.4,0.8,0.7,1.1c0.5,0.5,1.2,0.8,1.9,0.8c0.7,0,1.4-0.3,1.9-0.8
		c0.3-0.3,0.6-0.7,0.7-1.2c0.1,0,0.2,0,0.3,0h1.6c0.4,0,0.8-0.4,0.8-0.8c0-0.4-0.4-0.8-0.8-0.8h-1.6C18.5,17.5,18.4,17.5,18.3,17.5
		L18.3,17.5z M18.3,5c-0.1-0.4-0.4-0.8-0.7-1.2C17.1,3.3,16.4,3,15.7,3c-0.7,0-1.4,0.3-1.9,0.8c-0.3,0.3-0.5,0.7-0.7,1.1H3.8
		C3.4,4.9,3,5.3,3,5.7c0,0.4,0.4,0.8,0.8,0.8h9.3c0.1,0.4,0.4,0.8,0.7,1.1c0.5,0.5,1.2,0.8,1.9,0.8c0.7,0,1.4-0.3,1.9-0.8
		c0.3-0.3,0.6-0.7,0.7-1.2c0.1,0,0.2,0,0.3,0h1.6c0.4,0,0.8-0.4,0.8-0.8c0-0.4-0.4-0.8-0.8-0.8h-1.6C18.5,4.9,18.4,4.9,18.3,5
		L18.3,5z M9.1,12.8c-0.2,0.2-0.5,0.3-0.8,0.3c-0.3,0-0.6-0.1-0.8-0.3c-0.2-0.2-0.3-0.5-0.3-0.8c0-0.3,0.1-0.6,0.3-0.8
		C7.7,11,8,10.9,8.3,10.9c0.3,0,0.6,0.1,0.8,0.3c0.2,0.2,0.3,0.5,0.3,0.8C9.4,12.3,9.3,12.6,9.1,12.8L9.1,12.8z M16.5,19.1
		c-0.2,0.2-0.5,0.3-0.8,0.3c-0.3,0-0.6-0.1-0.8-0.3c-0.2-0.2-0.3-0.5-0.3-0.8c0-0.3,0.1-0.6,0.3-0.8c0.2-0.2,0.5-0.3,0.8-0.3
		c0.3,0,0.6,0.1,0.8,0.3c0.2,0.2,0.3,0.5,0.3,0.8C16.8,18.6,16.7,18.9,16.5,19.1L16.5,19.1z M16.5,6.5c-0.2,0.2-0.5,0.3-0.8,0.3
		c-0.3,0-0.6-0.1-0.8-0.3c-0.2-0.2-0.3-0.5-0.3-0.8c0-0.3,0.1-0.6,0.3-0.8c0.2-0.2,0.5-0.3,0.8-0.3c0.3,0,0.6,0.1,0.8,0.3
		c0.2,0.2,0.3,0.5,0.3,0.8C16.8,6,16.7,6.3,16.5,6.5L16.5,6.5z M16.5,6.5"/>
</g>
</svg>
