<?xml version="1.0" encoding="utf-8"?>
<!-- Generator: Adobe Illustrator 22.0.1, SVG Export Plug-In . SVG Version: 6.00 Build 0)  -->
<svg version="1.1" id="图层_1" xmlns="http://www.w3.org/2000/svg" xmlns:xlink="http://www.w3.org/1999/xlink" x="0px" y="0px"
	 viewBox="0 0 24 24" style="enable-background:new 0 0 24 24;" xml:space="preserve">
<g fill="#999">
	<path d="M9.6,18.4H6.4c-0.5,0-0.8-0.3-0.8-0.8V6.4c0-0.5,0.3-0.8,0.8-0.8h3.2c0.5,0,0.8-0.3,0.8-0.8S10.1,4,9.6,4H6.4
		C5,4,4,5,4,6.4v11.2C4,19,5,20,6.4,20h3.2c0.5,0,0.8-0.3,0.8-0.8C10.4,18.7,10.1,18.4,9.6,18.4z"/>
	<path d="M20,12c0-0.3-0.1-0.6-0.4-0.7l-3.9-3.9c-0.3-0.3-0.8-0.3-1.1,0c-0.3,0.3-0.3,0.8,0,1.1l2.6,2.6H9.6c-0.5,0-0.8,0.3-0.8,0.8
		c0,0.5,0.3,0.8,0.8,0.8h7.7l-2.6,2.6c-0.3,0.3-0.3,0.8,0,1.1c0.2,0.2,0.3,0.2,0.6,0.2c0.2,0,0.4-0.1,0.6-0.2l3.9-3.9
		C19.9,12.6,20,12.3,20,12z"/>
</g>
</svg>
