<?xml version="1.0" encoding="utf-8"?>
<!-- Generator: Adobe Illustrator 22.0.1, SVG Export Plug-In . SVG Version: 6.00 Build 0)  -->
<svg version="1.1" id="图层_1" xmlns="http://www.w3.org/2000/svg" xmlns:xlink="http://www.w3.org/1999/xlink" x="0px" y="0px"
	 viewBox="0 0 24 24" style="enable-background:new 0 0 24 24;" xml:space="preserve">
<g fill="rgba(0,0,0,0.38)">
<path d="M15.374,21c-2.477,0-4.491-2.015-4.491-4.491s2.014-4.491,4.491-4.491s4.491,2.015,4.491,4.491S17.851,21,15.374,21z
	 M15.374,13.06c-1.902,0-3.45,1.548-3.45,3.449s1.548,3.449,3.45,3.449s3.45-1.548,3.45-3.449S17.276,13.06,15.374,13.06z
	 M9.031,18.572c-2.79-0.243-4.896-1.573-4.896-3.095c0-1.49,2.268-2.4,4.21-2.727l0.435-0.073l-0.342-0.279
	c-1.517-1.237-1.726-3.302-1.726-5.35c0-2.536,1.492-4.05,3.992-4.05c2.472,0,3.832,1.438,3.832,4.05
	c0,1.21-0.414,2.742-1.081,3.999c-0.097,0.182-0.285,0.294-0.492,0.294c-0.091,0-0.181-0.022-0.259-0.064
	c-0.133-0.07-0.229-0.188-0.272-0.331c-0.043-0.142-0.028-0.292,0.041-0.421c0.578-1.087,0.952-2.451,0.952-3.477
	c0-1.976-0.89-2.937-2.719-2.937c-1.911,0-2.88,0.988-2.88,2.937c0,1.907,0.193,3.795,1.596,4.688
	c0.162,0.104,0.258,0.279,0.258,0.47v0.999c0,0.286-0.214,0.523-0.498,0.553c-2.401,0.254-3.933,1.188-3.933,1.72
	c0,0.688,1.48,1.776,3.891,1.986c0.148,0.014,0.282,0.084,0.377,0.196c0.096,0.115,0.141,0.26,0.128,0.407
	c-0.025,0.288-0.26,0.505-0.547,0.508L9.031,18.572z M15.539,18.403c-0.107,0-0.207-0.041-0.28-0.115
	c-0.077-0.076-0.118-0.176-0.118-0.282s0.041-0.207,0.117-0.282l0.815-0.816h-2.36c-0.22,0-0.398-0.179-0.398-0.399
	c0-0.22,0.179-0.398,0.398-0.398h2.358l-0.814-0.815c-0.154-0.155-0.155-0.408-0.001-0.564c0.074-0.075,0.174-0.116,0.281-0.116
	c0.108,0,0.206,0.04,0.282,0.115l1.496,1.497c0.075,0.075,0.116,0.175,0.116,0.282s-0.042,0.208-0.115,0.278l-1.498,1.5
	C15.744,18.362,15.646,18.403,15.539,18.403z"/>
<path d="M12.465,13.52"/>
</g>
</svg>
