<svg id="Layer_1" data-name="Layer 1" xmlns="http://www.w3.org/2000/svg" viewBox="0 0 107.43 107.43"><defs><style>.cls-1{fill:#fc3e47;}.cls-2{fill:#00c8d6;}.cls-3{fill:#03d3e2;}.cls-4{fill:#008fde;}.cls-5{fill:#ffb100;}.cls-6{fill:#00b9c9;}.cls-7{fill:#ffa400;}.cls-8{fill:#0086d2;}.cls-9{fill:#dfdfdd;}.cls-10{fill:#d5d5d3;}.cls-11{fill:#ffc69c;}.cls-12{fill:#ffb37b;}.cls-13{fill:#0072b1;}.cls-14{fill:#ff7e00;}</style></defs><title>assets</title><path class="cls-1" d="M69.83,32.23H37.6L19.7,16.12H50.14Z"/><path class="cls-2" d="M37.6,32.23H69.83v34H37.6Z"/><path class="cls-3" d="M37.6,66.25H1.79v-34L19.7,16.12,37.6,32.23Z"/><path class="cls-4" d="M14.32,51.93H25.07V66.25H14.32Z"/><path class="cls-5" d="M16.12,35.81h7.16v8.95H16.12Z"/><path class="cls-6" d="M37.6,32.23H69.83v3.58H37.6Z"/><path class="cls-7" d="M16.12,35.81h7.16v3.58H16.12Z"/><path class="cls-8" d="M14.32,51.93H25.07v3.58H14.32Z"/><path class="cls-9" d="M55.51,80.58H16.12A14.33,14.33,0,0,1,1.79,66.25H105.64A14.33,14.33,0,0,1,91.32,80.58H82.37"/><path class="cls-10" d="M84.16,66.25A14.34,14.34,0,0,1,69.83,80.58H91.32a14.33,14.33,0,0,0,14.32-14.33Z"/><path class="cls-11" d="M57.16,80.33l-.46.25H43a5.37,5.37,0,1,0,0,10.74H39.39L19,82a5.86,5.86,0,0,0-8.29,5.32v.39A5.87,5.87,0,0,0,14,92.93l20.88,10.44a21.49,21.49,0,0,0,9.61,2.27h37.9V80.58A25.83,25.83,0,0,0,57.16,80.33Z"/><path class="cls-12" d="M62.67,93.11H43a1.79,1.79,0,1,1,0-3.58h19.7a1.79,1.79,0,0,1,0,3.58Z"/><path class="cls-4" d="M82.37,80.58h23.27v25.06H82.37Z"/><path class="cls-13" d="M94.9,96.69a3.58,3.58,0,1,1-3.58-3.58A3.58,3.58,0,0,1,94.9,96.69Z"/><path class="cls-5" d="M100.27,55.51V30.44a17.9,17.9,0,0,0-17.9-17.91L87.74,1.79H66.25l5.37,10.74a17.9,17.9,0,0,0-17.9,17.91V55.51l-3.3,2.19A4.67,4.67,0,0,0,53,66.25h48a4.67,4.67,0,0,0,2.59-8.55Z"/><path class="cls-7" d="M103.57,57.7l-3.3-2.19V30.44A17.76,17.76,0,0,0,96,18.87,77.81,77.81,0,0,1,54.56,66.25H101a4.67,4.67,0,0,0,2.59-8.55Z"/><path class="cls-14" d="M79.68,37.6H74.31a2.69,2.69,0,1,1,0-5.37h9.85V28.65H78.79V25.07H75.2v3.58h-.89a6.27,6.27,0,1,0,0,12.53h5.37a2.69,2.69,0,1,1,0,5.37H69.83v3.59H75.2v3.58h3.59V50.14h.89a6.27,6.27,0,0,0,0-12.54Z"/><path d="M94.9,96.69a3.58,3.58,0,1,1-3.58-3.58A3.58,3.58,0,0,1,94.9,96.69Z"/><path d="M104.57,56.22l-2.51-1.66V30.44a19.74,19.74,0,0,0-16.9-19.5l4.19-8.35A1.79,1.79,0,0,0,89.27.84,1.82,1.82,0,0,0,87.74,0H66.25a1.82,1.82,0,0,0-1.53.84,1.79,1.79,0,0,0-.08,1.75l4.18,8.35a19.73,19.73,0,0,0-16.89,19.5V54.55l-2.5,1.67a6.44,6.44,0,0,0-2.88,5.38,6.37,6.37,0,0,0,.71,2.86H39.39V34h9V30.44H38.29L24.36,17.91H49.5l1.69,1.38,2.27-2.77-2.19-1.79a1.8,1.8,0,0,0-1.13-.41H19.68a1.86,1.86,0,0,0-.57.11l-.16.08a1.72,1.72,0,0,0-.37.22l-.08,0L.59,30.9A1.81,1.81,0,0,0,0,32.23v34A16.14,16.14,0,0,0,11.46,81.67,7.59,7.59,0,0,0,9,87.31v.39a7.61,7.61,0,0,0,4.23,6.84L34.06,105a23.32,23.32,0,0,0,10.41,2.45h61.17a1.79,1.79,0,0,0,1.79-1.79V80.58a1.79,1.79,0,0,0-1.79-1.79h-4.21a16.12,16.12,0,0,0,6-12.54,1.75,1.75,0,0,0-.86-1.5,6.21,6.21,0,0,0,.86-3.15A6.45,6.45,0,0,0,104.57,56.22ZM50.14,61.6a2.86,2.86,0,0,1,1.28-2.4L54.71,57a1.82,1.82,0,0,0,.8-1.5V30.44A16.14,16.14,0,0,1,71.62,14.32a1.76,1.76,0,0,0,1.53-.84,1.79,1.79,0,0,0,.08-1.75L69.15,3.58H84.84l-4.08,8.15a1.84,1.84,0,0,0,.08,1.75,1.82,1.82,0,0,0,1.53.84A16.14,16.14,0,0,1,98.48,30.44V55.51a1.78,1.78,0,0,0,.8,1.49l3.29,2.19A2.88,2.88,0,0,1,101,64.46H53A2.87,2.87,0,0,1,50.14,61.6ZM3.58,33,19.7,18.52,35.81,33V64.46h-9V51.93a1.79,1.79,0,0,0-1.79-1.79H14.32a1.79,1.79,0,0,0-1.79,1.79V64.46H3.58Zm19.7,31.43H16.12V53.72h7.16ZM36.06,87.82,24.15,82.37H36.81A7,7,0,0,0,36.06,87.82Zm-.4,14L14.78,91.34a4.07,4.07,0,0,1-2.25-3.64v-.39a4.06,4.06,0,0,1,5.76-3.69L38.65,93a1.86,1.86,0,0,0,.74.16H57.3a1.79,1.79,0,1,0,0-3.58H43a3.58,3.58,0,0,1,0-7.16H56.7a1.83,1.83,0,0,0,.86-.22L58,81.9a23.89,23.89,0,0,1,22.56-.26v22.21H44.47A19.65,19.65,0,0,1,35.66,101.77Zm68.19-19.4v21.48H84.16V82.37ZM91.32,78.79H82.81a27.46,27.46,0,0,0-26.5,0L43,78.79H16.12A12.57,12.57,0,0,1,3.71,68h100A12.57,12.57,0,0,1,91.32,78.79Z"/><path d="M79.68,37.6H74.31a2.69,2.69,0,1,1,0-5.37h9.85V28.65H78.79V25.07H75.2v3.58h-.89a6.27,6.27,0,1,0,0,12.53h5.37a2.69,2.69,0,1,1,0,5.37H69.83v3.59H75.2v3.58h3.59V50.14h.89a6.27,6.27,0,0,0,0-12.54Z"/><path d="M16.12,46.55h7.16a1.79,1.79,0,0,0,1.79-1.79V35.81A1.79,1.79,0,0,0,23.28,34H16.12a1.8,1.8,0,0,0-1.8,1.79v8.95A1.8,1.8,0,0,0,16.12,46.55Zm1.79-8.95h3.58V43H17.91Z"/></svg>