<svg id="Layer_1" data-name="Layer 1" xmlns="http://www.w3.org/2000/svg" viewBox="0 0 92.07 92.07"><defs><style>.cls-1{fill:#ff9100;}.cls-2{fill:#ffd200;}.cls-3{fill:#36abec;}.cls-4{fill:#ff5332;}.cls-5{fill:#ffa200;}</style></defs><title>optimization</title><path class="cls-1" d="M80.18,55a35.38,35.38,0,0,1-3.67,8.83l6.41,8.24-9.27,9.27-1.58,1.58-8.24-6.41A35.38,35.38,0,0,1,55,80.18l-.14,1.15-1.15,9.2H38.36l-1.15-9.2-.14-1.15a35.45,35.45,0,0,1-8.84-3.67L20,82.92l-1.58-1.58L9.15,72.07l6.41-8.24A35.38,35.38,0,0,1,11.89,55L1.53,53.71V38.36l10.36-1.29a35.45,35.45,0,0,1,3.67-8.84L9.15,20,20,9.15l8.24,6.41a35.45,35.45,0,0,1,8.84-3.67L38.36,1.53H53.71L55,11.89a35.38,35.38,0,0,1,8.83,3.67l8.24-6.41L82.92,20l-6.41,8.24a35.45,35.45,0,0,1,3.67,8.84l10.35,1.29V53.71Z"/><path class="cls-2" d="M69.36,38.36A24.56,24.56,0,0,0,21.48,46c0,.53,0,1,.05,1.54a24.55,24.55,0,0,0,49,0c0-.51,0-1,0-1.54A24.72,24.72,0,0,0,69.36,38.36Z"/><path class="cls-3" d="M73.65,47.57V87.46a3.06,3.06,0,0,1-3.06,3.07H21.48a3.08,3.08,0,0,1-3.07-3.07V47.57Z"/><path class="cls-4" d="M70.59,38.36H21.48a3.09,3.09,0,0,0-3.07,3.07v6.14H73.65V41.43A3.07,3.07,0,0,0,70.59,38.36Z"/><path class="cls-5" d="M26.09,56.78H66V69.05H26.09Z"/><path d="M90.72,36.84l-9.34-1.17a36.31,36.31,0,0,0-3-7.29l5.79-7.45a1.53,1.53,0,0,0-.13-2L73.16,8.06a1.54,1.54,0,0,0-2-.13l-7.44,5.79a36.31,36.31,0,0,0-7.29-3L55.23,1.34A1.54,1.54,0,0,0,53.71,0H38.36a1.54,1.54,0,0,0-1.52,1.34l-1.17,9.35a36.31,36.31,0,0,0-7.29,3L20.93,7.93a1.53,1.53,0,0,0-2,.13L8.06,18.91a1.53,1.53,0,0,0-.13,2l5.79,7.45a36.31,36.31,0,0,0-3,7.29L1.34,36.84A1.54,1.54,0,0,0,0,38.36V53.71a1.54,1.54,0,0,0,1.34,1.52l9.35,1.17a36.86,36.86,0,0,0,1.45,4.05L15,59.24a32.81,32.81,0,0,1-1.58-4.63,1.54,1.54,0,0,0-1.3-1.13l-9-1.13V39.72l9-1.13a1.54,1.54,0,0,0,1.3-1.13A33.53,33.53,0,0,1,16.88,29a1.54,1.54,0,0,0-.11-1.72l-5.58-7.18,8.93-8.93,7.18,5.58a1.54,1.54,0,0,0,1.72.11,33.17,33.17,0,0,1,8.44-3.5,1.55,1.55,0,0,0,1.13-1.3l1.13-9H52.35l1.13,9a1.54,1.54,0,0,0,1.13,1.3,33.53,33.53,0,0,1,8.44,3.5,1.54,1.54,0,0,0,1.72-.11L72,11.19l8.93,8.93L75.3,27.3A1.53,1.53,0,0,0,75.19,29a33.17,33.17,0,0,1,3.5,8.44A1.55,1.55,0,0,0,80,38.59l9,1.13V52.35l-9,1.13a1.54,1.54,0,0,0-1.29,1.13,32.85,32.85,0,0,1-1.59,4.63l2.83,1.21a39.05,39.05,0,0,0,1.45-4.05l9.34-1.17a1.54,1.54,0,0,0,1.35-1.52V38.36A1.54,1.54,0,0,0,90.72,36.84Z"/><path d="M44.5,9.21h3.07v3.07H44.5Z"/><path d="M18.91,21.08l2.17-2.17,2.17,2.17-2.17,2.17Z"/><path d="M9.21,44.5h3.07v3.07H9.21Z"/><path d="M79.79,44.5h3.07v3.07H79.79Z"/><path d="M68.82,21.08,71,18.91l2.17,2.17L71,23.25Z"/><path d="M23.44,33l2.65,1.54a23,23,0,0,1,39.88,0L68.63,33a26.1,26.1,0,0,0-45.19,0Z"/><path d="M70.59,36.83H21.48a4.6,4.6,0,0,0-4.6,4.6v46a4.6,4.6,0,0,0,4.6,4.61H70.59a4.6,4.6,0,0,0,4.6-4.61v-46A4.6,4.6,0,0,0,70.59,36.83ZM21.48,39.9H70.59a1.53,1.53,0,0,1,1.53,1.53V46H20v-4.6A1.53,1.53,0,0,1,21.48,39.9ZM70.59,89H21.48A1.54,1.54,0,0,1,20,87.46V49.1H72.12V87.46A1.54,1.54,0,0,1,70.59,89Z"/><path d="M24.55,73.65H43v3.07H24.55Z"/><path d="M24.55,79.79H43v3.07H24.55Z"/><path d="M49.1,73.65H67.52v3.07H49.1Z"/><path d="M49.1,79.79H67.52v3.07H49.1Z"/><path d="M23,41.43h3.07V44.5H23Z"/><path d="M29.15,41.43h3.07V44.5H29.15Z"/><path d="M35.29,41.43h3.07V44.5H35.29Z"/><path d="M35.29,61.38h3.07v3.07H35.29Z"/><path d="M41.43,61.38H44.5v3.07H41.43Z"/><path d="M47.57,61.38h3.07v3.07H47.57Z"/><path d="M53.71,61.38h3.07v3.07H53.71Z"/><path d="M66,55.24H26.09a1.54,1.54,0,0,0-1.54,1.54V69.05a1.54,1.54,0,0,0,1.54,1.54H66a1.54,1.54,0,0,0,1.54-1.54V56.78A1.54,1.54,0,0,0,66,55.24ZM64.45,67.52H27.62V58.31H64.45Z"/></svg>