<svg id="Layer_1" data-name="Layer 1" xmlns="http://www.w3.org/2000/svg" viewBox="0 0 77.31 77.31"><defs><style>.cls-1{fill:#eaeaea;}.cls-2{fill:#00caee;}.cls-3{fill:#f8bb40;}.cls-4{fill:#ffb000;}.cls-5{fill:#48d7ea;}.cls-6{fill:#8b8b8b;}</style></defs><title>regulation &amp;amp; reporting</title><path class="cls-1" d="M0,0H77V47.77H0Z"/><path class="cls-2" d="M27.86,27.86h8V47.77h-8Z"/><path class="cls-2" d="M41.13,17.25h8V47.77h-8Z"/><path class="cls-2" d="M54.4,10.61h8V47.77h-8Z"/><path class="cls-3" d="M5.18,66.66,2.65,70.32l4,4,3.67-2.52a1.35,1.35,0,0,1,1.25-.14,1.34,1.34,0,0,1,.8,1L13.27,77h5.31l.91-4.37a1.35,1.35,0,0,1,.81-1,1.33,1.33,0,0,1,1.24.14l3.67,2.53,4-4-2.52-3.66a1.33,1.33,0,0,1,.82-2.06l4.35-.91V58.38l-4.36-.92a1.34,1.34,0,0,1-1-.8,1.35,1.35,0,0,1,.14-1.25l2.53-3.66-4-4-3.67,2.52a1.28,1.28,0,0,1-1.24.14,1.32,1.32,0,0,1-.81-1l-.91-4.36H13.27l-.92,4.36a1.32,1.32,0,0,1-2,.82L6.63,47.77l-4,4,2.53,3.66a1.33,1.33,0,0,1,.14,1.25,1.3,1.3,0,0,1-1,.8L0,58.38v5.31l4.36.91a1.33,1.33,0,0,1,.82,2.06ZM15.92,54.4A6.64,6.64,0,1,1,9.29,61,6.63,6.63,0,0,1,15.92,54.4Z"/><path class="cls-4" d="M71,61.93l5.16.74,1.13-7.88-5.17-.74a2.65,2.65,0,0,1-1.21-4.75l4.17-3.13L70.32,39.8l-4.17,3.13a2.66,2.66,0,0,1-4.22-2.5l.74-5.16-.31,0-7.57-1.08-.74,5.16a2.66,2.66,0,0,1-4.75,1.22l-3.13-4.18-5,3.79-1.33,1,3.13,4.17a2.65,2.65,0,0,1-2.5,4.22l-5.16-.74-1.12,7.88,5.16.74a2.66,2.66,0,0,1,1.22,4.75l-4.18,3.13,4.78,6.37,4.17-3.13A2.65,2.65,0,0,1,49.52,71l-.74,5.16,7.88,1.13.74-5.17a2.65,2.65,0,0,1,4.75-1.21l3.13,4.17,6.37-4.78-3.13-4.17A2.66,2.66,0,0,1,71,61.93ZM55.73,65A9.29,9.29,0,1,1,65,55.73,9.28,9.28,0,0,1,55.73,65Z"/><path class="cls-2" d="M19.13,47.77h3.43V33.17h-8V45.11h4Z"/><path class="cls-5" d="M52,4,45.38,2.68l-.53,2.6,3.21.65L12.6,26.72,13.94,29,49.86,8l-.74,3.73,2.6.52,1.33-6.64A1.33,1.33,0,0,0,52,4Z"/><path class="cls-6" d="M4,34.5H6.63v9.29H4Z"/><path class="cls-6" d="M4,29.19H6.63v2.65H4Z"/><path class="cls-6" d="M70.32,15.92H73v19.9H70.32Z"/><path class="cls-6" d="M70.32,10.61H73v2.66H70.32Z"/><path class="cls-3" d="M29.19,74.3h2.65V77H29.19Z"/><path class="cls-4" d="M34.5,74.3h2.65V77H34.5Z"/><path class="cls-4" d="M39.8,74.3h2.66V77H39.8Z"/></svg>