<svg id="Layer_1" data-name="Layer 1" xmlns="http://www.w3.org/2000/svg" viewBox="0 0 92.66 172.7"><defs><style>.cls-1{fill:#ffbe00;}.cls-2{fill:#28637f;}.cls-3{fill:#417795;}.cls-4{fill:#ff1680;}.cls-5{fill:#ff0050;}.cls-6{fill:#548bac;}</style></defs><title>road safety</title><rect class="cls-1" x="37.62" y="139.28" width="17.42" height="30.89"/><rect class="cls-2" x="37.62" y="150.98" width="17.42" height="12.46"/><rect class="cls-3" x="18.35" y="13.75" width="55.97" height="117.01"/><rect class="cls-2" x="18.35" y="13.75" width="55.97" height="6.07"/><rect class="cls-2" x="18.35" y="122.19" width="55.97" height="8.57"/><circle class="cls-4" cx="46.33" cy="37.84" r="12.77"/><path class="cls-5" d="M59.1,37.84a12.8,12.8,0,0,1-15.81,12.4,12.77,12.77,0,0,0,0-24.8A12.76,12.76,0,0,1,59.1,37.84Z"/><circle class="cls-4" cx="46.33" cy="71.01" r="12.77"/><path class="cls-5" d="M59.1,71A12.76,12.76,0,0,1,46.33,83.77a12.17,12.17,0,0,1-3-.37,12.77,12.77,0,0,0,0-24.79A12.76,12.76,0,0,1,59.1,71Z"/><circle class="cls-4" cx="46.33" cy="104.18" r="12.77"/><path class="cls-5" d="M59.1,104.18a12.76,12.76,0,0,1-12.77,12.76,12.17,12.17,0,0,1-3-.37,12.77,12.77,0,0,0,0-24.79,12.76,12.76,0,0,1,15.81,12.4Z"/><path class="cls-6" d="M77.83,15.82h-63a2.82,2.82,0,0,1-2.36-4.38l5-7.64a2.83,2.83,0,0,1,2.36-1.27H72.8A2.84,2.84,0,0,1,75.16,3.8l5,7.64A2.83,2.83,0,0,1,77.83,15.82Z"/><path class="cls-6" d="M14.84,126.19h63a2.83,2.83,0,0,1,2.36,4.38l-5,7.64a2.83,2.83,0,0,1-2.36,1.28H19.87a2.82,2.82,0,0,1-2.36-1.28l-5-7.64A2.82,2.82,0,0,1,14.84,126.19Z"/><path d="M46.33,22.54a15.3,15.3,0,1,0,15.3,15.3A15.32,15.32,0,0,0,46.33,22.54Zm0,25.53A10.24,10.24,0,1,1,56.57,37.84,10.24,10.24,0,0,1,46.33,48.07Z"/><path d="M46.33,55.71A15.3,15.3,0,1,0,61.63,71,15.31,15.31,0,0,0,46.33,55.71Zm0,25.53A10.24,10.24,0,1,1,56.57,71,10.24,10.24,0,0,1,46.33,81.24Z"/><path d="M46.33,88.88a15.3,15.3,0,1,0,15.3,15.3A15.31,15.31,0,0,0,46.33,88.88Zm0,25.53a10.24,10.24,0,1,1,10.24-10.23A10.24,10.24,0,0,1,46.33,114.41Z"/><path d="M14.84,18.35h1V43.42a2.53,2.53,0,0,0,5.06,0V18.35H71.79v76a2.53,2.53,0,0,0,5.06,0v-76h1a5.35,5.35,0,0,0,4.47-8.3l-5-7.64A5.34,5.34,0,0,0,72.8,0H19.87a5.36,5.36,0,0,0-4.48,2.41l-5,7.64a5.35,5.35,0,0,0,4.48,8.3Zm-.25-5.52,5-7.64a.31.31,0,0,1,.25-.13H72.8a.28.28,0,0,1,.24.13l5,7.64a.28.28,0,0,1,0,.31.28.28,0,0,1-.26.15h-63a.26.26,0,0,1-.26-.15A.27.27,0,0,1,14.59,12.83Z"/><path d="M77.83,123.66h-1V106a2.53,2.53,0,1,0-5.06,0v17.66H38.32a2.53,2.53,0,0,0,0,5.06H77.83a.27.27,0,0,1,.26.16.27.27,0,0,1,0,.3l-5,7.64a.27.27,0,0,1-.24.14H19.87a.3.3,0,0,1-.25-.14l-5-7.64a.25.25,0,0,1,0-.3.26.26,0,0,1,.26-.16H26.68a2.53,2.53,0,1,0,0-5.06H20.87V55.07a2.53,2.53,0,0,0-5.06,0v68.59h-1a5.36,5.36,0,0,0-4.48,8.3l5,7.64A5.36,5.36,0,0,0,19.87,142H35.09v28.15a2.53,2.53,0,0,0,5.06,0V166H52.51v4.2a2.53,2.53,0,1,0,5.06,0V142H72.8a5.35,5.35,0,0,0,4.47-2.42l5-7.64a5.36,5.36,0,0,0-4.47-8.3ZM40.15,160.91v-7.4H52.51v7.4Zm12.36-12.46H40.15V142H52.51Z"/><path d="M90.14,69.73H86.93a2.53,2.53,0,0,0,0,5.06h3.2a2.53,2.53,0,0,0,0-5.06Z"/><path d="M83.37,65.85a2.52,2.52,0,0,0,2.2,1.27,2.61,2.61,0,0,0,1.26-.33L89.6,65.2a2.53,2.53,0,1,0-2.51-4.39L84.31,62.4A2.53,2.53,0,0,0,83.37,65.85Z"/><path d="M89.56,79.33,86.8,77.72a2.53,2.53,0,0,0-2.55,4.37L87,83.7a2.53,2.53,0,1,0,2.54-4.37Z"/><path d="M5.72,74.79h0a2.53,2.53,0,0,0,0-5.06H2.53a2.53,2.53,0,0,0,0,5.06Z"/><path d="M9.29,78.66a2.52,2.52,0,0,0-3.45-.93L3.06,79.32A2.53,2.53,0,0,0,4.32,84a2.5,2.5,0,0,0,1.26-.33l2.77-1.59A2.54,2.54,0,0,0,9.29,78.66Z"/><path d="M3.1,65.19,5.87,66.8a2.53,2.53,0,1,0,2.54-4.38L5.64,60.81A2.53,2.53,0,0,0,3.1,65.19Z"/></svg>