<svg xmlns="http://www.w3.org/2000/svg" xmlns:xlink="http://www.w3.org/1999/xlink" viewBox="0 0 104.29 74.78"><defs><clipPath id="clip-path"><rect x="15.55" width="74.78" height="74.78" fill="none"/></clipPath></defs><title>disableImage</title><g id="Layer_2" data-name="Layer 2"><g id="Layer_1-2" data-name="Layer 1"><g opacity="0.1"><g clip-path="url(#clip-path)"><path d="M52.94,0A37.39,37.39,0,1,1,15.55,37.39,37.39,37.39,0,0,1,52.94,0" fill="#f96464"/></g></g><path d="M52.94,6.68A30.71,30.71,0,1,1,22.24,37.39,30.71,30.71,0,0,1,52.94,6.68" fill="#f96464"/><path d="M96.91,18.71h0a9,9,0,0,0-7.38-7.38A9,9,0,0,0,96.91,4a9,9,0,0,0,7.38,7.38,9,9,0,0,0-7.38,7.38" fill="#f96464"/><path d="M7.38,63.8h0A9,9,0,0,0,0,56.42,9,9,0,0,0,7.38,49a9,9,0,0,0,7.38,7.38A9,9,0,0,0,7.38,63.8" fill="#f96464"/><path d="M62.92,50a2.57,2.57,0,0,1-1.83-.76l-8.15-8.15L44.8,49.2a2.59,2.59,0,1,1-3.67-3.67l8.14-8.14-8.14-8.15a2.59,2.59,0,0,1,3.67-3.67l8.15,8.15,8.15-8.15a2.59,2.59,0,1,1,3.67,3.67l-8.14,8.15,8.14,8.14A2.59,2.59,0,0,1,62.92,50" fill="#fff"/></g></g></svg>