<svg id="Layer_1" data-name="Layer 1" xmlns="http://www.w3.org/2000/svg" viewBox="0 0 24.66 25.06"><defs><style>.cls-1{fill:#fff;}.cls-2{opacity:0.54;}</style></defs><title>Artboard 29</title><rect class="cls-1" width="24.66" height="25.06" rx="12.33" transform="translate(24.66 25.06) rotate(180)"/><g class="cls-2"><path d="M15,15a1.8,1.8,0,0,0-1.19.46L9.47,13a2,2,0,0,0,0-.42,1.86,1.86,0,0,0,0-.42l4.25-2.48a1.8,1.8,0,1,0-.58-1.32,2,2,0,0,0,0,.42L8.94,11.24a1.81,1.81,0,1,0,0,2.64l4.29,2.5A1.76,1.76,0,1,0,15,15Z"/></g></svg>