<svg id="Layer_1" data-name="Layer 1" xmlns="http://www.w3.org/2000/svg" xmlns:xlink="http://www.w3.org/1999/xlink" viewBox="0 0 72.77 86"><defs><style>.cls-1{fill:none;}.cls-2{fill:#c5bbaf;}.cls-3{clip-path:url(#clip-path);}.cls-4{fill:#fff;}.cls-5{fill:#f1d9bf;}.cls-6{fill:#dfc79f;}.cls-7{fill:#ff797d;}.cls-8{fill:#5d5142;}.cls-9{fill:#ffe27b;}</style><clipPath id="clip-path"><rect class="cls-1" x="0.01" width="72.76" height="86"/></clipPath></defs><title>file manager</title><path class="cls-2" d="M.22,4.06H.15v16.8H72.43v-4.1a1.36,1.36,0,0,0,0-.2V4.72a1.36,1.36,0,0,0,0-.2V4.06h0a4.63,4.63,0,0,0-4.57-4h-63a4.63,4.63,0,0,0-4.56,4Zm0,0"/><g class="cls-3"><rect class="cls-4" x="5.07" y="6.2" width="62.76" height="19.21"/><rect class="cls-5" y="19.01" width="72.58" height="66.88"/><rect class="cls-6" y="19.01" width="37.57" height="66.88"/></g><path class="cls-2" d="M.22,82.33H.15v3.56H72.72l0-2.9c0-.07,0-.13,0-.2v-.46h0a4.63,4.63,0,0,0-4.58-4H4.8a4.63,4.63,0,0,0-4.58,4Zm0,0"/><path class="cls-7" d="M35.89,53.79a.5.5,0,0,1-.5.51.51.51,0,0,1-.51-.51V34.31a.5.5,0,0,1,.51-.5.5.5,0,0,1,.5.5Zm0,0"/><path class="cls-8" d="M33.36,36.65a4.42,4.42,0,1,0,4.41-4.41,4.41,4.41,0,0,0-4.41,4.41Zm0,0"/><path class="cls-9" d="M35.5,36.65a2.28,2.28,0,1,0,3.41-2,2.25,2.25,0,0,0-2.27,0,2.27,2.27,0,0,0-1.14,2Zm0,0"/><path class="cls-2" d="M47,13a1.21,1.21,0,0,1-1.21,1.21H11.59a1.21,1.21,0,0,1,0-2.42H45.74a1.25,1.25,0,0,1,.86.35A1.21,1.21,0,0,1,47,13Zm0,0"/></svg>