<?xml version="1.0" encoding="utf-8"?>
<!-- Generator: Adobe Illustrator 22.1.0, SVG Export Plug-In . SVG Version: 6.00 Build 0)  -->
<svg version="1.1" id="图层_1" xmlns="http://www.w3.org/2000/svg" xmlns:xlink="http://www.w3.org/1999/xlink" x="0px" y="0px"
	 viewBox="0 0 24 24" style="enable-background:new 0 0 24 24;" xml:space="preserve">
<style type="text/css">
	.st0{fill:none;}
</style>
<path class="st0" d="M0,0h24v24H0V0z"/>
<path class="st0" d="M0,0h24v24H0V0z"/>
<g>
	<g>
		<path d="M11,8.6c0-0.2,0-0.4,0.1-0.5C10.7,8,10.3,7.9,9.9,7.9c-1.8,0-3.2,1.4-3.2,3.2s1.4,3.2,3.2,3.2c1.5,0,2.7-1,3.1-2.3
			C11.8,11.3,11,10.1,11,8.6z"/>
		<path d="M9.9,15.1c-2.2,0-6.5,1.1-6.5,3.2v1.6h12.9v-1.6C16.4,16.2,12.1,15.1,9.9,15.1z"/>
	</g>
	<path d="M18.7,10.2c0.4-0.6,0.6-1.3,0.6-2.1c0-2.2-1.7-3.9-3.9-3.9s-3.9,1.7-3.9,3.9s1.7,3.9,3.9,3.9c0.8,0,1.5-0.2,2.1-0.6
		l2.7,2.7l1.2-1.2L18.7,10.2z M15.4,10.3c-1.2,0-2.2-1-2.2-2.2s1-2.2,2.2-2.2s2.2,1,2.2,2.2S16.6,10.3,15.4,10.3z"/>
</g>
</svg>
