<?xml version="1.0" encoding="utf-8"?>
<!-- Generator: Adobe Illustrator 22.1.0, SVG Export Plug-In . SVG Version: 6.00 Build 0)  -->
<svg version="1.1" id="图层_1" xmlns="http://www.w3.org/2000/svg" xmlns:xlink="http://www.w3.org/1999/xlink" x="0px" y="0px"
	 viewBox="0 0 299.1 15" style="enable-background:new 0 0 299.1 15;" xml:space="preserve">
<style type="text/css">
	.st0{fill:#FFFFFF;}
</style>
<title>company name</title>
<g>
	<path class="st0" d="M12.1,2.9c0.6,0.6,0.9,1.4,0.9,2.2c0,0.8-0.3,1.6-0.9,2.2C11.5,8,10.6,8.3,9.7,8.3H7.8V12H5.9V2h3.9
		C10.6,2,11.5,2.3,12.1,2.9z M11.1,5.1c0-0.4-0.1-0.7-0.4-1c-0.3-0.3-0.7-0.4-1-0.4H7.8v2.7h1.8c0.4,0,0.8-0.1,1-0.4
		C11,5.9,11.1,5.5,11.1,5.1z M19.5,5.6c0.6,0.7,0.9,1.6,0.8,2.5v0.8h-4.6c0,0.4,0.1,0.9,0.4,1.2c0.3,0.3,0.7,0.5,1.2,0.4
		c0.3,0,0.6,0,0.9-0.2c0.3-0.1,0.5-0.3,0.7-0.5l1.1,1.1c-0.3,0.4-0.8,0.7-1.2,0.9c-0.5,0.2-1,0.3-1.6,0.3c-0.4,0-0.9-0.1-1.3-0.2
		c-0.4-0.1-0.7-0.3-1.1-0.6c-0.4-0.3-0.6-0.7-0.8-1.2C14.1,9.6,14,9,14,8.3c-0.1-1,0.2-2,0.9-2.7C16.1,4.3,18.2,4.3,19.5,5.6
		C19.5,5.6,19.5,5.6,19.5,5.6L19.5,5.6z M18.6,7.7c0-0.3-0.1-0.5-0.2-0.8c-0.3-0.7-1.1-0.9-1.8-0.6c-0.3,0.1-0.5,0.3-0.6,0.6
		c-0.1,0.2-0.2,0.5-0.2,0.8H18.6z M24,2.8h-1.8v2.2h-0.8v1.4h0.8v3.6c0,0.5,0.2,1.1,0.5,1.5c0.4,0.4,1,0.7,1.6,0.6h1v-1.5h-0.7
		c-0.4,0-0.6-0.2-0.6-0.7V6.3h1.3V4.9H24V2.8z M29.5,4.8C29.2,5,29,5.2,28.8,5.4V4.7H27V12h1.8V7.6c0-0.4,0.1-0.7,0.4-1
		c0.2-0.2,0.5-0.3,0.8-0.3c0.4,0,0.7,0.2,1,0.4l1.4-1.4c-0.5-0.5-1.1-0.7-1.7-0.7C30.2,4.6,29.9,4.7,29.5,4.8L29.5,4.8z M38.6,6.7
		c0.1,0.6,0.2,1.1,0.2,1.7c0,0.6,0,1.1-0.2,1.7c-0.1,0.4-0.3,0.8-0.7,1.1c-1.3,1.2-3.3,1.2-4.5,0c-0.3-0.3-0.5-0.7-0.7-1.1
		c-0.1-0.6-0.2-1.1-0.2-1.7c0-0.6,0-1.1,0.2-1.7c0.1-0.4,0.3-0.8,0.7-1.1c1.3-1.2,3.3-1.2,4.5,0C38.3,5.8,38.5,6.2,38.6,6.7z
		 M37,8.3c0.1-0.6-0.1-1.2-0.4-1.8c-0.2-0.2-0.5-0.3-0.9-0.3c-0.3,0-0.6,0.1-0.8,0.3c-0.3,0.5-0.5,1.1-0.4,1.8
		c-0.1,0.6,0.1,1.3,0.4,1.8c0.2,0.2,0.5,0.3,0.8,0.3c0.3,0,0.6-0.1,0.9-0.3C36.9,9.6,37,9,37,8.3z M42.3,9.8V2h-1.8v7.9
		c0,0.5,0.2,1.1,0.5,1.5c0.4,0.4,1,0.7,1.6,0.6h1v-1.5h-0.7c-0.3,0-0.6-0.2-0.6-0.5C42.3,9.9,42.3,9.9,42.3,9.8z M49.9,5.6
		c0.6,0.7,0.9,1.6,0.8,2.5v0.8h-4.6c0,0.4,0.1,0.9,0.4,1.2c0.3,0.3,0.7,0.5,1.2,0.4c0.3,0,0.6,0,0.9-0.2c0.3-0.1,0.5-0.3,0.7-0.5
		l1.1,1.1c-0.3,0.4-0.8,0.7-1.2,0.9c-0.5,0.2-1,0.3-1.6,0.3c-0.4,0-0.9-0.1-1.3-0.2c-0.4-0.1-0.7-0.3-1.1-0.6
		c-0.4-0.3-0.6-0.7-0.8-1.2c-0.2-0.6-0.3-1.2-0.3-1.8c-0.1-1,0.2-2,0.9-2.7C46.5,4.3,48.5,4.3,49.9,5.6C49.8,5.6,49.8,5.6,49.9,5.6z
		 M48.9,7.7c0-0.3-0.1-0.5-0.2-0.8c-0.3-0.7-1.1-0.9-1.8-0.6c-0.3,0.1-0.5,0.3-0.6,0.6c-0.1,0.2-0.2,0.5-0.2,0.8H48.9z M56.6,9.1
		c0,0.4-0.1,0.7-0.4,1c-0.2,0.2-0.5,0.3-0.9,0.3c-0.3,0-0.6-0.1-0.8-0.3c-0.3-0.3-0.4-0.6-0.4-1V4.7h-1.8v4.7c0,0.8,0.2,1.5,0.7,2.1
		c0.5,0.4,1.1,0.7,1.7,0.6c0.7,0,1.3-0.3,1.8-0.8V12h1.8V4.7h-1.8L56.6,9.1z M68.1,4.6c-0.8,0-1.6,0.3-2.2,0.9
		c-0.4-0.6-1.2-1-1.9-0.9c-0.7,0-1.3,0.3-1.8,0.8V4.7h-1.8V12h1.8V7.6c0-0.4,0.1-0.7,0.4-1c0.2-0.2,0.5-0.3,0.9-0.3
		c0.3,0,0.6,0.1,0.8,0.3c0.3,0.3,0.4,0.6,0.4,1V12h1.8V7.5c0-0.4,0.1-0.7,0.4-1c0.2-0.2,0.5-0.3,0.9-0.3c0.3,0,0.6,0.1,0.8,0.3
		c0.3,0.3,0.4,0.6,0.4,1V12h1.8V7.3c0-0.8-0.3-1.5-0.8-2.1C69.4,4.8,68.8,4.6,68.1,4.6L68.1,4.6z M76.1,12H78V2h-1.9L76.1,12z
		 M83.8,4.6c-0.7,0-1.3,0.3-1.8,0.8V4.7h-1.8V12H82V7.6c0-0.4,0.1-0.7,0.4-1c0.2-0.2,0.5-0.3,0.9-0.3c0.3,0,0.6,0.1,0.8,0.3
		c0.3,0.3,0.4,0.6,0.4,1V12h1.8V7.3c0-0.8-0.2-1.5-0.7-2.1C85.1,4.8,84.4,4.6,83.8,4.6z M90.2,2.8h-1.8v2.2h-0.8v1.4h0.8v3.6
		c0,0.5,0.2,1.1,0.5,1.5c0.4,0.4,1,0.7,1.6,0.6h1v-1.5h-0.7c-0.4,0-0.6-0.2-0.6-0.7V6.3h1.3V4.9h-1.3L90.2,2.8z M98.3,5.6
		c0.6,0.7,0.9,1.6,0.8,2.5v0.8h-4.6c0,0.4,0.1,0.9,0.4,1.2c0.3,0.3,0.7,0.5,1.2,0.4c0.3,0,0.6,0,0.9-0.2c0.3-0.1,0.5-0.3,0.7-0.5
		l1.1,1.1c-0.3,0.4-0.8,0.7-1.2,0.9c-0.5,0.2-1,0.3-1.6,0.3c-0.4,0-0.9-0.1-1.3-0.2c-0.4-0.1-0.7-0.3-1.1-0.6
		c-0.4-0.3-0.6-0.7-0.8-1.2c-0.2-0.6-0.3-1.2-0.3-1.8c-0.1-1,0.2-2,0.9-2.7C94.8,4.3,96.9,4.3,98.3,5.6C98.2,5.6,98.2,5.6,98.3,5.6
		L98.3,5.6z M97.3,7.7c0-0.3-0.1-0.5-0.2-0.8c-0.3-0.7-1.1-0.9-1.8-0.6c-0.3,0.1-0.5,0.3-0.6,0.6c-0.1,0.2-0.2,0.5-0.2,0.8H97.3z
		 M104.7,4.7h1.8v7c0,0.8-0.3,1.6-0.9,2.2c-0.6,0.6-1.5,0.9-2.3,0.8c-0.5,0-1-0.1-1.5-0.2c-0.4-0.2-0.8-0.4-1.2-0.7l1.1-1.1
		c0.4,0.4,0.9,0.6,1.4,0.6c0.4,0,0.8-0.1,1.1-0.4c0.2-0.3,0.4-0.7,0.4-1.1V11c-0.4,0.5-1.1,0.8-1.7,0.7c-0.6,0-1.3-0.2-1.7-0.6
		c-0.3-0.3-0.5-0.7-0.6-1.1c-0.1-0.6-0.1-1.2-0.1-1.8c0-0.6,0-1.2,0.1-1.8c0.1-0.4,0.3-0.8,0.6-1.1c0.5-0.4,1.1-0.7,1.8-0.6
		c0.7,0,1.3,0.3,1.8,0.8L104.7,4.7z M104.7,8.1c0-0.5-0.1-0.9-0.2-1.4c-0.2-0.4-0.6-0.5-1-0.5c-0.2,0-0.4,0-0.6,0.1
		c-0.2,0.1-0.3,0.3-0.4,0.4c-0.1,0.2-0.1,0.4-0.2,0.6c0,0.2,0,0.5,0,0.7c0,0.2,0,0.5,0,0.7c0,0.2,0.1,0.4,0.1,0.6
		c0.1,0.2,0.2,0.3,0.4,0.4c0.4,0.2,0.9,0.2,1.3,0c0.2-0.1,0.3-0.3,0.4-0.4c0.1-0.2,0.1-0.4,0.2-0.6C104.7,8.6,104.7,8.4,104.7,8.1z
		 M111.1,4.8c-0.3,0.1-0.6,0.3-0.8,0.6V4.7h-1.8V12h1.8V7.6c0-0.4,0.1-0.7,0.4-1c0.2-0.2,0.5-0.3,0.8-0.3c0.4,0,0.7,0.2,1,0.4
		l1.4-1.4c-0.5-0.5-1.1-0.7-1.7-0.7C111.8,4.6,111.4,4.7,111.1,4.8L111.1,4.8z M120.3,7.2V12h-1.8v-0.6c-0.2,0.2-0.5,0.4-0.8,0.5
		c-0.3,0.1-0.7,0.2-1,0.2c-0.7,0-1.4-0.2-1.9-0.6c-0.4-0.4-0.6-1-0.6-1.6c0-0.6,0.2-1.1,0.6-1.5c0.5-0.4,1.2-0.6,1.9-0.6h1.7V7.3
		c0-0.3-0.1-0.6-0.3-0.9c-0.3-0.2-0.7-0.3-1-0.3c-0.3,0-0.6,0-0.8,0.1c-0.2,0.1-0.4,0.3-0.6,0.5l-1.2-1.1c0.3-0.4,0.7-0.6,1.1-0.8
		c0.5-0.2,1-0.2,1.5-0.2C119.3,4.6,120.3,5.5,120.3,7.2z M118.5,8.9H117c-0.3,0-0.5,0.1-0.8,0.2c-0.2,0.1-0.3,0.4-0.3,0.6
		c0,0.6,0.4,0.8,1.1,0.8c0.4,0,0.8-0.1,1.1-0.4c0.2-0.3,0.3-0.6,0.3-0.9V8.9z M124.2,2.8h-1.8v2.2h-0.8v1.4h0.8v3.6
		c0,0.5,0.2,1.1,0.5,1.5c0.4,0.4,1,0.7,1.6,0.6h1v-1.5h-0.7c-0.4,0-0.6-0.2-0.6-0.7V6.3h1.3V4.9h-1.3L124.2,2.8z M132.3,5.6
		c0.6,0.7,0.9,1.6,0.8,2.5v0.8h-4.6c0,0.4,0.1,0.9,0.4,1.2c0.3,0.3,0.7,0.5,1.2,0.4c0.3,0,0.6,0,0.9-0.2c0.3-0.1,0.5-0.3,0.7-0.5
		l1.1,1.1c-0.3,0.4-0.8,0.7-1.2,0.9c-0.5,0.2-1,0.3-1.6,0.3c-0.4,0-0.9-0.1-1.3-0.2c-0.4-0.1-0.7-0.3-1.1-0.6
		c-0.4-0.3-0.6-0.7-0.8-1.2c-0.2-0.6-0.3-1.2-0.3-1.8c-0.1-1,0.2-2,0.9-2.7C128.9,4.3,130.9,4.3,132.3,5.6
		C132.2,5.6,132.3,5.6,132.3,5.6L132.3,5.6z M131.3,7.7c0-0.3-0.1-0.5-0.2-0.8c-0.3-0.7-1.1-0.9-1.8-0.6c-0.3,0.1-0.5,0.3-0.6,0.6
		c-0.1,0.2-0.2,0.5-0.2,0.8H131.3z M138.8,2h1.8v10h-1.8v-0.7c-0.5,0.5-1.1,0.8-1.8,0.8c-0.7,0-1.3-0.2-1.8-0.7
		c-0.2-0.3-0.4-0.6-0.5-0.9c-0.1-0.3-0.2-0.7-0.2-1c0-0.3,0-0.7,0-1.2s0-0.9,0-1.2c0-0.3,0.1-0.7,0.2-1c0.1-0.3,0.3-0.7,0.5-0.9
		c0.5-0.5,1.1-0.7,1.8-0.7c0.7,0,1.3,0.2,1.8,0.7L138.8,2z M138.8,8.4c0-0.5-0.1-1.1-0.2-1.6c-0.2-0.4-0.6-0.6-1-0.5
		c-0.4-0.1-0.8,0.2-1,0.5c-0.2,0.5-0.3,1-0.2,1.6c0,0.3,0,0.6,0,0.8c0,0.2,0.1,0.4,0.2,0.6c0.1,0.2,0.2,0.4,0.4,0.5
		c0.2,0.1,0.4,0.2,0.7,0.2c0.4,0.1,0.8-0.2,1-0.5C138.7,9.4,138.8,8.9,138.8,8.4L138.8,8.4z M152.3,2.9c0.6,0.6,0.9,1.4,0.9,2.2
		c0,0.8-0.3,1.6-0.9,2.2c-0.6,0.6-1.5,0.9-2.4,0.9H148V12h-1.9V2h3.9C150.8,2,151.7,2.3,152.3,2.9z M151.3,5.1c0-0.4-0.1-0.7-0.4-1
		c-0.3-0.3-0.7-0.4-1.1-0.4H148v2.7h1.8c0.4,0,0.8-0.1,1.1-0.4C151.1,5.9,151.3,5.5,151.3,5.1z M156.5,9.8V2h-1.8v7.9
		c0,0.5,0.2,1.1,0.5,1.5c0.4,0.4,1,0.7,1.6,0.6h1v-1.5h-0.7c-0.3,0-0.6-0.2-0.6-0.5C156.4,9.9,156.4,9.9,156.5,9.8z M164.8,7.2V12
		H163v-0.6c-0.2,0.2-0.5,0.4-0.8,0.5c-0.3,0.1-0.7,0.2-1,0.2c-0.7,0-1.4-0.2-1.9-0.6c-0.4-0.4-0.6-1-0.6-1.6c0-0.6,0.2-1.1,0.6-1.5
		c0.5-0.4,1.2-0.6,1.9-0.6h1.7V7.3c0-0.3-0.1-0.6-0.3-0.9c-0.3-0.2-0.7-0.3-1-0.3c-0.3,0-0.6,0-0.8,0.1c-0.2,0.1-0.4,0.3-0.6,0.5
		L159,5.6c0.3-0.4,0.7-0.6,1.1-0.8c0.5-0.2,1-0.2,1.5-0.2C163.7,4.6,164.8,5.5,164.8,7.2L164.8,7.2z M163,8.9h-1.4
		c-0.3,0-0.5,0.1-0.8,0.2c-0.2,0.1-0.3,0.4-0.3,0.6c0,0.6,0.4,0.8,1.1,0.8c0.4,0,0.8-0.1,1.1-0.4c0.2-0.3,0.3-0.6,0.3-0.9L163,8.9z
		 M170.3,4.6c-0.7,0-1.4,0.3-1.8,0.8V4.7h-1.8V12h1.8V7.6c0-0.4,0.1-0.7,0.4-1c0.2-0.2,0.5-0.3,0.9-0.3c0.3,0,0.6,0.1,0.8,0.3
		c0.3,0.3,0.4,0.6,0.4,1V12h1.8V7.3c0-0.8-0.2-1.5-0.7-2.1C171.6,4.8,171,4.6,170.3,4.6L170.3,4.6z M178.4,4.6
		c-0.7,0-1.4,0.3-1.8,0.8V4.7h-1.8V12h1.8V7.6c0-0.4,0.1-0.7,0.4-1c0.5-0.4,1.2-0.4,1.7,0c0.3,0.3,0.4,0.6,0.4,1V12h1.8V7.3
		c0-0.8-0.2-1.5-0.7-2.1C179.6,4.8,179,4.6,178.4,4.6z M182.8,3.5h1.9V2h-1.9V3.5z M182.8,12h1.8V4.7h-1.8V12z M190.2,4.6
		c-0.7,0-1.4,0.3-1.8,0.8V4.7h-1.8V12h1.8V7.6c0-0.4,0.1-0.7,0.4-1c0.5-0.4,1.2-0.4,1.7,0c0.3,0.3,0.4,0.6,0.4,1V12h1.8V7.3
		c0-0.8-0.2-1.5-0.7-2.1C191.5,4.8,190.9,4.6,190.2,4.6L190.2,4.6z M198.6,4.7h1.8v7c0,0.8-0.3,1.6-0.9,2.2
		c-0.6,0.6-1.5,0.9-2.3,0.8c-0.5,0-1-0.1-1.5-0.2c-0.4-0.2-0.8-0.4-1.2-0.7l1.1-1.1c0.4,0.4,0.9,0.6,1.4,0.6c0.4,0,0.8-0.1,1.1-0.4
		c0.2-0.3,0.4-0.7,0.4-1.1V11c-0.4,0.5-1.1,0.8-1.7,0.7c-0.6,0-1.3-0.2-1.7-0.6c-0.3-0.3-0.5-0.7-0.6-1.1c-0.1-0.6-0.1-1.2-0.1-1.8
		c0-0.6,0-1.2,0.1-1.8c0.1-0.4,0.3-0.8,0.6-1.1c0.5-0.4,1.1-0.7,1.8-0.6c0.7,0,1.3,0.3,1.8,0.8L198.6,4.7z M198.6,8.2
		c0-0.5-0.1-0.9-0.2-1.4c-0.2-0.4-0.6-0.5-1-0.5c-0.2,0-0.4,0-0.6,0.1c-0.2,0.1-0.3,0.3-0.4,0.4c-0.1,0.2-0.1,0.4-0.2,0.6
		c0,0.2,0,0.5,0,0.7c0,0.2,0,0.5,0,0.7c0,0.2,0.1,0.4,0.1,0.6c0.1,0.2,0.2,0.3,0.4,0.4c0.4,0.2,0.9,0.2,1.3,0
		c0.2-0.1,0.3-0.3,0.4-0.4c0.1-0.2,0.1-0.4,0.2-0.6C198.5,8.6,198.6,8.4,198.6,8.2L198.6,8.2z M209.6,6.2L208.4,6
		c-0.3,0-0.7-0.2-0.9-0.4c-0.2-0.2-0.3-0.4-0.3-0.7c0-0.3,0.1-0.7,0.4-0.9c0.3-0.3,0.7-0.4,1.1-0.4c0.7,0,1.5,0.2,2,0.7l1.2-1.2
		c-0.9-0.8-2-1.2-3.2-1.2c-0.9,0-1.8,0.2-2.5,0.8c-0.6,0.6-1,1.4-0.9,2.2c0,0.7,0.2,1.4,0.7,2c0.5,0.5,1.2,0.8,1.9,0.8l1.2,0.2
		c0.3,0,0.6,0.2,0.9,0.4c0.2,0.2,0.3,0.5,0.3,0.8c0,0.8-0.6,1.2-1.8,1.2c-0.9,0.1-1.8-0.2-2.4-0.8l-1.3,1.3c0.4,0.5,1,0.8,1.6,1
		c0.7,0.2,1.4,0.3,2.1,0.3c0.9,0,1.9-0.2,2.7-0.8c0.7-0.5,1.1-1.4,1-2.2c0.1-0.8-0.2-1.5-0.8-2.1C210.9,6.5,210.3,6.2,209.6,6.2
		L209.6,6.2z M216.4,9.2l-1.5-4.5H213l2.5,6.8l-0.3,0.9c-0.1,0.2-0.2,0.4-0.3,0.5c-0.2,0.1-0.4,0.1-0.6,0.1h-0.4v1.6h0.7
		c0.6,0,1.1-0.2,1.6-0.6c0.2-0.3,0.4-0.6,0.5-0.9l3.1-8.5h-1.9L216.4,9.2z M224.2,7.6L223,7.4c-0.5,0-0.8-0.3-0.8-0.6
		c0-0.2,0.1-0.4,0.3-0.5c0.2-0.2,0.5-0.2,0.8-0.2c0.6,0,1.2,0.1,1.7,0.5l1.1-1.1c-0.8-0.6-1.8-0.9-2.8-0.9c-0.7,0-1.4,0.2-2,0.6
		c-0.5,0.4-0.8,1-0.8,1.7c0,1.2,0.7,1.9,2.1,2l1.1,0.1c0.5,0,0.8,0.3,0.8,0.7c0,0.2-0.1,0.5-0.4,0.6c-0.3,0.1-0.6,0.2-0.9,0.2
		c-0.7,0-1.4-0.2-1.9-0.7l-1.2,1.2c0.4,0.4,0.8,0.7,1.4,0.8c0.6,0.1,1.2,0.2,1.7,0.2c0.8,0,1.6-0.2,2.2-0.6c0.6-0.4,0.9-1.1,0.9-1.8
		c0-0.6-0.2-1.1-0.6-1.5C225.3,7.8,224.8,7.6,224.2,7.6L224.2,7.6z M229.7,2.8h-1.8v2.2h-0.8v1.4h0.8v3.6c0,0.5,0.2,1.1,0.5,1.5
		c0.4,0.4,1,0.7,1.6,0.6h1v-1.5h-0.7c-0.4,0-0.6-0.2-0.6-0.7V6.3h1.3V4.9h-1.3L229.7,2.8z M237.8,5.6c0.6,0.7,0.9,1.6,0.8,2.5v0.8
		H234c0,0.4,0.1,0.9,0.4,1.2c0.3,0.3,0.7,0.5,1.2,0.4c0.3,0,0.6,0,0.9-0.2c0.3-0.1,0.5-0.3,0.7-0.5l1.1,1.1
		c-0.3,0.4-0.8,0.7-1.2,0.9c-0.5,0.2-1,0.3-1.6,0.3c-0.4,0-0.9-0.1-1.3-0.2c-0.4-0.1-0.7-0.3-1.1-0.6c-0.4-0.3-0.6-0.7-0.8-1.2
		c-0.2-0.6-0.3-1.2-0.3-1.8c-0.1-1,0.2-2,0.9-2.7C234.4,4.3,236.4,4.3,237.8,5.6C237.7,5.6,237.7,5.6,237.8,5.6L237.8,5.6z
		 M236.8,7.7c0-0.3-0.1-0.5-0.2-0.8c-0.3-0.7-1.1-0.9-1.8-0.6c-0.3,0.1-0.5,0.3-0.6,0.6c-0.1,0.2-0.2,0.5-0.2,0.8H236.8z M248,4.6
		c-0.8,0-1.6,0.3-2.2,0.9c-0.4-0.6-1.2-1-1.9-0.9c-0.7,0-1.3,0.3-1.8,0.8V4.7h-1.8V12h1.8V7.6c0-0.4,0.1-0.7,0.4-1
		c0.5-0.4,1.2-0.4,1.7,0c0.3,0.3,0.4,0.6,0.4,1V12h1.8V7.5c0-0.4,0.1-0.7,0.4-1c0.2-0.2,0.5-0.3,0.9-0.3c0.3,0,0.6,0.1,0.8,0.3
		c0.3,0.3,0.4,0.6,0.4,1V12h1.8V7.3c0-0.8-0.3-1.5-0.8-2.1C249.3,4.8,248.7,4.6,248,4.6z M257.9,2.9c0.2-0.3,0.5-0.7,0.8-0.9
		l-1.2-1.2c-0.5,0.4-0.9,0.9-1.2,1.4c-0.3,0.6-0.4,1.2-0.4,1.8v6.1c0,0.6,0.1,1.2,0.4,1.8c0.4,0.5,0.8,1,1.2,1.4l1.2-1.2
		c-0.3-0.3-0.6-0.6-0.8-0.9c-0.2-0.4-0.2-0.8-0.2-1.2V4C257.7,3.6,257.8,3.2,257.9,2.9z M266.9,2.9c0.6,0.6,0.9,1.4,0.9,2.2
		c0,0.8-0.3,1.6-0.9,2.2c-0.6,0.6-1.5,0.9-2.4,0.9h-1.9V12h-1.9V2h3.9C265.4,2,266.3,2.3,266.9,2.9z M265.9,5.1c0-0.4-0.1-0.7-0.4-1
		c-0.3-0.3-0.7-0.4-1-0.4h-1.8v2.7h1.8c0.4,0,0.8-0.1,1-0.4C265.7,5.9,265.9,5.5,265.9,5.1z M269.4,12h1.9V2h-1.9V12z M280,2.9
		c0.6,0.6,0.9,1.4,0.9,2.2c0,0.8-0.3,1.6-0.9,2.2c-0.6,0.6-1.5,0.9-2.4,0.9h-1.9V12h-1.9V2h3.9C278.5,2,279.3,2.3,280,2.9L280,2.9z
		 M278.9,5.1c0-0.4-0.1-0.7-0.4-1c-0.3-0.3-0.7-0.4-1-0.4h-1.8v2.7h1.8c0.4,0,0.8-0.1,1-0.4C278.8,5.9,278.9,5.5,278.9,5.1z
		 M286.3,6.2L285.1,6c-0.3,0-0.7-0.2-0.9-0.4c-0.2-0.2-0.3-0.4-0.3-0.7c0-0.3,0.1-0.7,0.4-0.9c0.3-0.3,0.7-0.4,1.1-0.4
		c0.7,0,1.5,0.2,2,0.7l1.2-1.2c-0.9-0.8-2-1.2-3.2-1.2c-0.9,0-1.8,0.2-2.5,0.8c-0.6,0.6-1,1.4-0.9,2.2c0,0.7,0.2,1.4,0.7,2
		c0.5,0.5,1.2,0.8,1.9,0.8l1.2,0.2c0.3,0,0.6,0.2,0.9,0.4c0.2,0.2,0.3,0.5,0.3,0.8c0,0.8-0.6,1.2-1.8,1.2c-0.9,0.1-1.8-0.2-2.4-0.8
		l-1.3,1.3c0.4,0.5,1,0.8,1.6,1c0.7,0.2,1.4,0.3,2.1,0.3c0.9,0,1.9-0.2,2.7-0.8c0.7-0.5,1.1-1.4,1-2.2c0.1-0.8-0.2-1.5-0.8-2.1
		C287.6,6.5,287,6.2,286.3,6.2L286.3,6.2z M292.8,2.2c-0.4-0.5-0.8-1-1.2-1.4l-1.2,1.2c0.3,0.3,0.6,0.6,0.8,0.9
		c0.2,0.4,0.2,0.8,0.2,1.2V10c0,0.4,0,0.8-0.2,1.2c-0.2,0.3-0.5,0.6-0.8,0.9l1.2,1.2c0.5-0.4,0.9-0.9,1.2-1.4
		c0.3-0.6,0.4-1.2,0.4-1.8V4C293.2,3.3,293.1,2.7,292.8,2.2L292.8,2.2z"/>
</g>
</svg>
