<?xml version="1.0" encoding="utf-8"?>
<!-- Generator: Adobe Illustrator 22.0.1, SVG Export Plug-In . SVG Version: 6.00 Build 0)  -->
<svg version="1.1" id="图层_1" xmlns="http://www.w3.org/2000/svg" xmlns:xlink="http://www.w3.org/1999/xlink" x="0px" y="0px"
	 viewBox="0 0 1007 171" style="enable-background:new 0 0 1007 171;" xml:space="preserve">
<style type="text/css">
	.st0{fill:#FFFFFF;}
</style>
<title>meera-logo-white</title>
<g>
	<path class="st0" d="M696.1,74.3v81.3h17.1V74.4c0-21.4,16.6-39.1,38-41.4c1.6-0.2,3.2-0.3,4.8-0.3c1.1,0,2.2,0,3.3,0.1l0,0V15.8
		c-1-0.1-2.1-0.1-3.1-0.1C723,15.7,696.1,42,696.1,74.3z"/>
	<path class="st0" d="M620.1,138.5c-17.3,0-33.3-9.5-41.6-24.7h-18c12,32.9,48.4,49.9,81.3,38c17.6-6.4,31.5-20.3,38-38h-18
		C653.4,129,637.5,138.5,620.1,138.5z"/>
	<path class="st0" d="M898.4,15.8v24.1c-25.2-29.3-69.4-32.6-98.7-7.3c-29.3,25.2-32.6,69.4-7.3,98.7s69.4,32.6,98.7,7.3
		c2.6-2.3,5.1-4.7,7.3-7.3v24.3h17.1V15.8H898.4z M845.4,138.6c-29.3,0-53-23.7-53-53s23.7-53,53-53s53,23.7,53,53
		S874.7,138.6,845.4,138.6C845.4,138.6,845.4,138.6,845.4,138.6L845.4,138.6z"/>
	<path class="st0" d="M394.2,55.8L394.2,55.8c16.4-24,49.2-30.1,73.2-13.7c13.1,9,21.4,23.4,22.7,39.2h-91L388,98.4h104.3
		c8.1-0.2,14.7-6.7,15-14.8v-0.2c-1-38.4-33-68.8-71.4-67.8c-22.7,0.6-43.7,12.2-56.2,31.2l0,0l-0.2,0.3v0l0,0l-50.1,77V46.9l0,0
		v-5.2c0-14.4-11.7-26-26.1-25.9c-7.2,0-14.2,3.1-19.1,8.4c-1,1.1-1.8,2.2-2.6,3.5l-0.8,1.2l-7.3,11.3l-51.2,78.7V41.7
		c0-14.4-11.7-26-26.1-25.9c-7.3,0-14.2,3.1-19.1,8.4c-1,1.1-1.8,2.2-2.6,3.5l-0.8,1.2l-7.3,11.3L91.5,155.6h20.3
		c0,0,75-115.2,76.8-118.2c1.6-2.9,4.6-4.7,7.9-4.8c4.9,0,8.9,4,8.9,8.9c0,0,0,0,0,0l0,0v114.1h13.4c0,0,75-115.2,76.8-118.2
		c1.6-2.9,4.6-4.7,7.9-4.8c4.9,0,8.9,4,8.9,8.9c0,0,0,0,0,0l0,0v114.1h17.1l0,0L394.2,55.8z"/>
	<path class="st0" d="M560.4,98.4h104.3c8.1-0.2,14.7-6.7,15-14.8v-0.2c-0.9-38.4-32.8-68.7-71.1-67.8
		c-22.8,0.5-43.9,12.2-56.4,31.3l0,0l-40.6,62.5c-18.9,29.3-57.9,37.8-87.3,19c-6.1-3.9-11.5-8.9-15.9-14.6H388
		c21.3,38.9,70.1,53.2,109,31.9c10.6-5.8,19.8-13.9,26.8-23.8c1.5-2,32.1-49.6,43-66c9.7-14.5,26-23.1,43.4-23
		c27.4,0,50.1,21,52.3,48.3h-91L560.4,98.4z"/>
</g>
</svg>
