<svg id="Layer_1" data-name="Layer 1" xmlns="http://www.w3.org/2000/svg" viewBox="0 0 24.66 25.06"><defs><style>.cls-1{fill:#fff;}.cls-2{opacity:0.54;}.cls-3{fill:none;stroke:#000;stroke-linecap:round;stroke-linejoin:round;stroke-width:0.5px;}</style></defs><title>search jobs</title><rect class="cls-1" width="24.66" height="25.06" rx="12.33" transform="translate(24.66 25.06) rotate(-180)"/><g class="cls-2"><path d="M17.21,16.71a14.88,14.88,0,0,0-1.52-1.56.26.26,0,0,0-.19-.08.47.47,0,0,0-.16,0h0l-.16.11-.33-.48,0,0a5.37,5.37,0,1,0-3.19,1,5.45,5.45,0,0,0,2.64-.69h0l.33.49-.16.1a.31.31,0,0,0-.12.33,16,16,0,0,0,.8,2c.45.89,1.14,2,1.94,2h.05a1.48,1.48,0,0,0,1.08-.74C18.53,18.53,17.84,17.47,17.21,16.71Zm-5.5-1.52a4.79,4.79,0,1,1,4.78-4.79A4.79,4.79,0,0,1,11.71,15.19Zm6,3.9a1.32,1.32,0,0,1-.53.33c-.34,0-.76-.46-1.2-1.22a12.42,12.42,0,0,1-.94-2.14v0l.44-.28,0,0C16.48,16.66,18,18.35,17.72,19.09Z"/></g><g class="cls-2"><rect class="cls-3" x="8.88" y="8.33" width="5.38" height="4.43" rx="0.51"/><path class="cls-3" d="M10.15,8.33V8a.63.63,0,0,1,.59-.65h1.65A.63.63,0,0,1,13,8v.3"/><line class="cls-3" x1="8.88" y1="10.13" x2="14.25" y2="10.13"/><rect class="cls-3" x="11" y="10.13" width="1.14" height="1.4"/><line class="cls-3" x1="9.64" y1="9.26" x2="10.47" y2="9.26"/><line class="cls-3" x1="12.66" y1="9.26" x2="13.49" y2="9.26"/></g></svg>