<svg id="Layer_1" data-name="Layer 1" xmlns="http://www.w3.org/2000/svg" viewBox="0 0 24.66 25.06"><defs><style>.cls-1{fill:#fff;}.cls-2{opacity:0.54;}</style></defs><title>view file storage</title><rect class="cls-1" width="24.66" height="25.06" rx="12.33" transform="translate(24.66 25.06) rotate(-180)"/><g class="cls-2"><path d="M17.83,11.93h-.7V10.68a.55.55,0,0,0-.55-.55h-.25V6.53h-8v.4h-.6v.4h-.6v1.4H6.88a.55.55,0,0,0-.55.55V18h0a.5.5,0,0,0,.51.52h9a.5.5,0,0,0,.49-.36l2-5.61v0A.53.53,0,0,0,17.83,11.93Zm-1.25-1.4a.15.15,0,0,1,.15.15v1.25h-.4v-1.4Zm-.65-3.6v5h-7l-.14,0h0v-5Zm-7.6.4v5.15L8.13,13V7.33Zm-.8.4h.2v6.36l-.2.55V7.73Zm-.8,1.55a.15.15,0,0,1,.15-.15h.25v6.59l-.4,1.09Zm9.17,8.77a.11.11,0,0,1-.11.08H6.84a.12.12,0,0,1-.09,0,.13.13,0,0,1,0-.09l.4-1.1h0l.6-1.64h0l.6-1.65h0l.39-1.06v0h0l0-.09v0a.1.1,0,0,1,.11-.08h8.95c.07,0,.09.11.1.16Z"/><path d="M9.93,9.93h4.8a.2.2,0,0,0,0-.4H9.93a.2.2,0,0,0,0,.4Z"/><path d="M9.93,8.53h2a.2.2,0,0,0,0-.4h-2a.2.2,0,0,0,0,.4Z"/><path d="M9.93,11.33h4.8a.2.2,0,0,0,0-.4H9.93a.2.2,0,0,0,0,.4Z"/></g></svg>