<?xml version="1.0" encoding="utf-8"?>
<!-- Generator: Adobe Illustrator 22.0.1, SVG Export Plug-In . SVG Version: 6.00 Build 0)  -->
<svg version="1.1" id="图层_1" xmlns="http://www.w3.org/2000/svg" xmlns:xlink="http://www.w3.org/1999/xlink" x="0px" y="0px"
	 viewBox="0 0 24 24" style="enable-background:new 0 0 24 24;" xml:space="preserve">
<style type="text/css">
	.st0{fill:#E7EBEF;}
	.st1{fill:#D7E0E6;}
	.st2{fill:#6288A8;}
	.st3{fill:#4E7691;}
	.st4{fill:#4A7088;}
	.st5{fill:#38627D;}
	.st6{fill:#81D7FD;}
	.st7{fill:#5A7F9B;}
	.st8{fill:#FFFFFF;}
	.st9{fill:#FD82A5;}
	.st10{fill:#305066;}
	.st11{fill:#A5C5D2;}
	.st12{fill:#68D796;}
	.st13{fill:#FBB459;}
	.st14{fill:#547793;}
</style>
<g>
	<path class="st0" d="M20.44,17.386H3.56c-0.767,0-1.388-0.621-1.388-1.388V4.388C2.172,3.621,2.793,3,3.56,3h16.88
		c0.767,0,1.388,0.621,1.388,1.388v11.61C21.828,16.765,21.207,17.386,20.44,17.386L20.44,17.386z M20.44,17.386"/>
	<path class="st1" d="M2.172,4.388C2.172,3.622,2.793,3,3.56,3h2.094C4.98,3,4.418,3.48,4.292,4.117H3.664
		c-0.102,0-0.201,0.041-0.273,0.113C3.318,4.302,3.277,4.401,3.277,4.503v9.536h0.988v1.959c0,0.767,0.622,1.388,1.388,1.388H3.56
		c-0.767,0-1.388-0.621-1.388-1.388V4.388L2.172,4.388z M2.172,4.388"/>
	<polygon class="st2" points="14.821,20.699 9.179,20.699 9.627,17.386 12.141,17.31 14.373,17.386 	"/>
	<path class="st2" d="M14.821,20.699"/>
	<path class="st3" d="M20.44,17.386H3.56c-0.767,0-1.388-0.621-1.388-1.388v-1.959h19.657v1.959
		C21.828,16.765,21.207,17.386,20.44,17.386L20.44,17.386z"/>
	<path class="st3" d="M20.44,17.386"/>
	<path class="st4" d="M4.265,14.039H2.172v1.959c0,0.094,0.009,0.188,0.028,0.28c0.009,0.045,0.021,0.089,0.034,0.133
		c0.074,0.236,0.209,0.448,0.392,0.615c0.082,0.075,0.174,0.14,0.272,0.193c0.161,0.087,0.337,0.142,0.52,0.16
		c0.047,0.005,0.094,0.007,0.142,0.007h2.094c-0.767,0-1.388-0.621-1.388-1.388V14.039z"/>
	<path class="st5" d="M13.817,20.699"/>
	<path class="st3" d="M15.398,21H8.602c-0.166,0-0.301-0.135-0.301-0.301s0.135-0.301,0.301-0.301h6.797
		c0.166,0,0.301,0.135,0.301,0.301S15.565,21,15.398,21L15.398,21z"/>
	<path class="st4" d="M8.451,21c-0.083,0-0.15-0.135-0.15-0.301s0.067-0.301,0.15-0.301H12v0.301L12,21H8.451z"/>
	<path class="st3" d="M15.398,21"/>
	<path class="st2" d="M9.372,4.503v9.536H3.277V4.503c0-0.213,0.173-0.386,0.386-0.386h5.322c0.102,0,0.201,0.041,0.273,0.113
		C9.331,4.302,9.372,4.4,9.372,4.503L9.372,4.503z M9.372,4.503"/>
	<path class="st6" d="M12.521,15.713c0,0.287-0.233,0.521-0.521,0.521c-0.287,0-0.521-0.233-0.521-0.521
		c0-0.287,0.233-0.521,0.521-0.521C12.288,15.192,12.521,15.425,12.521,15.713L12.521,15.713z M12.521,15.713"/>
	<path class="st7" d="M3.277,4.503c0-0.102,0.041-0.201,0.113-0.273c0.072-0.072,0.171-0.113,0.273-0.113h0.628
		C4.275,4.204,4.265,4.295,4.265,4.388v9.651H3.277V4.503L3.277,4.503z M3.277,4.503"/>
	<path class="st8" d="M20.723,14.039H8.969V4.117h11.367c0.214,0,0.387,0.173,0.387,0.387V14.039z"/>
	<path class="st9" d="M4.876,6.36c-0.31,0-0.561-0.251-0.561-0.561c0-0.31,0.251-0.561,0.561-0.561c0.31,0,0.561,0.251,0.561,0.561
		C5.437,6.109,5.186,6.36,4.876,6.36L4.876,6.36z M4.876,6.36"/>
	<path class="st10" d="M7.805,6.1H6.408c-0.08,0-0.156-0.032-0.213-0.088C6.139,5.956,6.107,5.879,6.107,5.799
		c0-0.08,0.032-0.156,0.088-0.213C6.251,5.53,6.328,5.498,6.408,5.498h1.397c0.08,0,0.156,0.032,0.213,0.088
		C8.074,5.643,8.106,5.72,8.106,5.799c0,0.08-0.032,0.156-0.088,0.213C7.962,6.069,7.885,6.1,7.805,6.1L7.805,6.1z M7.805,6.1"/>
	<path class="st11" d="M19.44,5.743h-9.186C10.09,5.74,9.959,5.606,9.959,5.442c0-0.164,0.132-0.298,0.296-0.301h9.186
		c0.08,0,0.156,0.032,0.213,0.088c0.056,0.056,0.088,0.133,0.088,0.213c0,0.08-0.032,0.156-0.088,0.213
		C19.597,5.711,19.52,5.743,19.44,5.743L19.44,5.743z M13.678,6.903h-3.423c-0.166,0-0.301-0.135-0.301-0.301
		c0-0.166,0.135-0.301,0.301-0.301h3.423c0.166,0,0.301,0.135,0.301,0.301C13.979,6.769,13.844,6.903,13.678,6.903L13.678,6.903z
		 M19.44,8.689h-9.186c-0.166,0-0.301-0.135-0.301-0.301c0-0.166,0.135-0.301,0.301-0.301h9.186c0.166,0,0.301,0.135,0.301,0.301
		C19.741,8.554,19.607,8.689,19.44,8.689L19.44,8.689z M15.731,9.85h-5.476c-0.109,0.002-0.21-0.055-0.265-0.149
		c-0.055-0.094-0.055-0.21,0-0.304c0.055-0.094,0.156-0.151,0.265-0.149h5.476c0.08,0,0.156,0.032,0.213,0.088
		C16,9.393,16.032,9.469,16.032,9.549C16.032,9.715,15.897,9.85,15.731,9.85L15.731,9.85z M19.44,11.854h-9.186
		c-0.166,0-0.301-0.135-0.301-0.301c0-0.166,0.135-0.301,0.301-0.301h9.186c0.164,0.003,0.296,0.137,0.296,0.301
		C19.737,11.718,19.605,11.851,19.44,11.854L19.44,11.854z M18.524,13.015h-8.269c-0.166,0-0.301-0.135-0.301-0.301
		c0-0.166,0.135-0.301,0.301-0.301h8.269c0.166,0,0.301,0.135,0.301,0.301C18.825,12.88,18.69,13.015,18.524,13.015L18.524,13.015z
		 M18.524,13.015"/>
	<path class="st6" d="M4.876,8.527c-0.31,0-0.561-0.251-0.561-0.561c0-0.31,0.251-0.561,0.561-0.561c0.31,0,0.561,0.251,0.561,0.561
		C5.437,8.276,5.186,8.527,4.876,8.527L4.876,8.527z M4.876,8.527"/>
	<path class="st10" d="M7.805,8.267H6.408C6.244,8.264,6.113,8.131,6.113,7.967c0-0.164,0.131-0.298,0.295-0.301h1.397
		C7.97,7.668,8.101,7.802,8.101,7.967C8.101,8.131,7.97,8.265,7.805,8.267L7.805,8.267z M7.805,8.267"/>
	<path class="st12" d="M4.876,10.734c-0.31,0-0.561-0.251-0.561-0.561c0-0.31,0.251-0.561,0.561-0.561
		c0.31,0,0.561,0.251,0.561,0.561C5.437,10.483,5.186,10.734,4.876,10.734L4.876,10.734z M4.876,10.734"/>
	<path class="st10" d="M7.805,10.474H6.408c-0.08,0-0.156-0.032-0.213-0.088c-0.056-0.056-0.088-0.133-0.088-0.213
		c0-0.08,0.032-0.156,0.088-0.213c0.056-0.057,0.133-0.088,0.213-0.088h1.397c0.08,0,0.156,0.032,0.213,0.088
		c0.056,0.056,0.088,0.133,0.088,0.213c0,0.08-0.032,0.156-0.088,0.213C7.962,10.442,7.885,10.474,7.805,10.474L7.805,10.474z
		 M7.805,10.474"/>
	<path class="st13" d="M4.876,12.96c-0.31,0-0.561-0.251-0.561-0.561c0-0.31,0.251-0.561,0.561-0.561
		c0.31,0,0.561,0.251,0.561,0.561C5.437,12.709,5.186,12.96,4.876,12.96L4.876,12.96z M4.876,12.96"/>
	<path class="st10" d="M7.805,12.7H6.408c-0.164-0.003-0.296-0.137-0.296-0.301c0-0.164,0.132-0.298,0.296-0.301h1.397
		c0.164,0.003,0.296,0.137,0.296,0.301C8.101,12.564,7.97,12.698,7.805,12.7L7.805,12.7z M7.805,12.7"/>
	<polyline class="st14" points="12,20.398 12,17.386 9.627,17.386 9.219,20.398 	"/>
</g>
</svg>
