<svg id="Layer_1" data-name="Layer 1" xmlns="http://www.w3.org/2000/svg" viewBox="0 0 24.66 25.06"><defs><style>.cls-1{fill:#fff;}.cls-2{fill:#00a6fb;}</style></defs><title>create a meeting</title><rect class="cls-1" width="24.66" height="25.06" rx="12.33" transform="translate(24.66 25.06) rotate(180)"/><path class="cls-2" d="M14.45,13.46c-1.24,0-3.72.62-3.72,1.86v1.23h7.43V15.32c0-1.24-2.47-1.86-3.71-1.86m4.1.1a2.28,2.28,0,0,1,.85,1.76v1.23h1.86V15.32c0-1-1.47-1.55-2.71-1.76m-4.1-1.34a1.86,1.86,0,1,0-1.86-1.86,1.86,1.86,0,0,0,1.86,1.86m3.09,0a1.86,1.86,0,1,0,0-3.71,2.18,2.18,0,0,0-.57.08,3,3,0,0,1,0,3.54,1.84,1.84,0,0,0,.57.09m-7.19,1.34c-1.24.21-2.71.8-2.71,1.76v1.23H9.5V15.32a2.28,2.28,0,0,1,.85-1.76m1-1.34a1.79,1.79,0,0,0,.57-.09,3,3,0,0,1,0-3.54,2.12,2.12,0,0,0-.57-.08,1.86,1.86,0,0,0,0,3.71m-3-.62H6.5V9.74H5.26V11.6H3.4v1.24H5.26V14.7H6.5V12.84H8.35Z"/></svg>