<svg id="Layer_1" data-name="Layer 1" xmlns="http://www.w3.org/2000/svg" viewBox="0 0 74.36 75.99"><defs><style>.cls-1{fill:#ff4461;}.cls-2{fill:#efeadc;}.cls-3{fill:#d5cfb8;}.cls-4{fill:#314960;}.cls-5{fill:#816d5b;}.cls-6{fill:#00bc96;}.cls-7{fill:#fff;}</style></defs><title>create event</title><polygon class="cls-1" points="60.01 5.24 60.01 10.48 50.88 10.48 50.88 5.24 19.57 5.24 19.57 10.48 10.44 10.48 10.44 5.24 0 5.24 0 19.65 70.45 19.65 70.45 5.24 60.01 5.24"/><polygon class="cls-2" points="10.44 19.65 0 19.65 0 75.99 70.45 75.99 70.45 19.65 60.01 19.65 50.88 19.65 19.57 19.65 10.44 19.65"/><path class="cls-3" d="M48.27,28.83H10.44v38H60v-38ZM36.53,31.45h9.13v9.17H36.53Zm9.13,21H36.53V43.24h9.13ZM24.79,43.24h9.13v9.17H24.79Zm0-11.79h9.13v9.17H24.79Zm-11.74,0h9.13v9.17H13.05Zm0,11.79h9.13v9.17H13.05Zm9.13,21H13.05V55h9.13Zm11.74,0H24.79V55h9.13Zm11.74,0H36.53V55h9.13Zm11.74,0H48.27V55H57.4Zm0-11.79H48.27V43.24H57.4ZM48.27,40.62V31.45H57.4v9.17Z"/><rect class="cls-4" x="10.44" width="9.13" height="10.48"/><rect class="cls-4" x="50.88" width="9.13" height="10.48"/><rect class="cls-5" x="24.79" y="43.24" width="9.13" height="9.17"/><ellipse class="cls-6" cx="58.71" cy="58.96" rx="15.66" ry="15.72"/><path class="cls-7" d="M67.28,51.33a1.31,1.31,0,0,0-1.82.33L58.16,62.2,53,58a1.3,1.3,0,0,0-1.65,2l6.24,5.15a1.34,1.34,0,0,0,.83.3h.18a1.31,1.31,0,0,0,.89-.55l8.11-11.7A1.32,1.32,0,0,0,67.28,51.33Z"/></svg>