<svg id="Layer_1" data-name="Layer 1" xmlns="http://www.w3.org/2000/svg" xmlns:xlink="http://www.w3.org/1999/xlink" viewBox="0 0 82.63 60.77"><defs><style>.cls-1{fill:none;}.cls-2{clip-path:url(#clip-path);}.cls-3{fill:#727070;}.cls-4{fill:#807e7e;}.cls-5{fill:#414040;}.cls-6{fill:#00fabe;}</style><clipPath id="clip-path"><rect class="cls-1" x="0.01" width="82.62" height="60.77"/></clipPath></defs><title>meetings</title><g class="cls-2"><path class="cls-3" d="M82.55,18.37V5.21c0-.07,0-.15,0-.22V4.47h0A5.18,5.18,0,0,0,77.36,0H5.19A5.18,5.18,0,0,0,.07,4.47H0V23.14H0v3.73c0,.07,0,.14,0,.22V55.48c0,.07,0,.14,0,.22v.51H.07a5.18,5.18,0,0,0,5.12,4.46H77.36a5.18,5.18,0,0,0,5.12-4.46h.07V22.31h0V18.59c0-.08,0-.15,0-.22Zm0,0"/></g><path class="cls-4" d="M75.74,20.34v-11c0-.07,0-.12,0-.19V8.74h0A4.31,4.31,0,0,0,71.41,5H11.14A4.31,4.31,0,0,0,6.87,8.74H6.81V24.33h0v3.11c0,.06,0,.12,0,.18V51.33c0,.06,0,.12,0,.19V52h0a4.32,4.32,0,0,0,4.27,3.71H71.41A4.31,4.31,0,0,0,75.68,52h.06V23.64h0V20.53c0-.06,0-.12,0-.19Zm0,0"/><path class="cls-5" d="M15,5H11.14A4.31,4.31,0,0,0,6.87,8.74H6.81V24.33h0v3.11c0,.06,0,.12,0,.18V51.33c0,.06,0,.12,0,.19V52h0a4.32,4.32,0,0,0,4.27,3.71H15Zm0,0"/><path class="cls-6" d="M21.73,27.26a.61.61,0,0,1-.61.62H16.87a.63.63,0,0,1,0-1.25h4.25a.62.62,0,0,1,.61.63Zm0,0"/><path class="cls-5" d="M21.42,13.68a1.15,1.15,0,0,1-1.15,1.15h-3a1.15,1.15,0,0,1-1.15-1.15V7.83a1.16,1.16,0,0,1,1.15-1.15h3a1.16,1.16,0,0,1,1.15,1.15Zm.16,9.54a1.15,1.15,0,0,1-1.15,1.15h-3a1.14,1.14,0,0,1-1.15-1.15V17.37a1.14,1.14,0,0,1,1.15-1.15h3a1.15,1.15,0,0,1,1.15,1.15ZM21.42,52.3a1.15,1.15,0,0,1-1.15,1.15h-3A1.15,1.15,0,0,1,16.1,52.3v-11a1.15,1.15,0,0,1,1.15-1.15h3a1.15,1.15,0,0,1,1.15,1.15Zm.16-15.16a1.16,1.16,0,0,1-1.15,1.15h-3a1.15,1.15,0,0,1-1.15-1.15V31.28a1.15,1.15,0,0,1,1.15-1.15h3a1.16,1.16,0,0,1,1.15,1.15Zm58.33,6.92A.92.92,0,0,1,80,45a.91.91,0,0,1-.74.58.92.92,0,0,1-.87-.36L62.68,25a.93.93,0,0,1,.16-1.31.94.94,0,0,1,1.32.16Zm0,0"/></svg>