<svg id="Layer_1" data-name="Layer 1" xmlns="http://www.w3.org/2000/svg" viewBox="0 0 62.65 62.65"><defs><style>.cls-1{fill:#f6c546;}.cls-2{fill:#e4b740;}.cls-3{fill:#ff6143;}.cls-4{fill:#f4efcf;}.cls-5{fill:#e8e3c4;}.cls-6{fill:#85a0ab;}.cls-7{fill:#294e5d;}</style></defs><title>upgrade account</title><path class="cls-1" d="M19.49,44.16a7.1,7.1,0,0,1,0,10c-2.74,2.74-10.82,6.32-13.57,3.57S6.76,46.9,9.5,44.16a7.1,7.1,0,0,1,10,0Zm0,0"/><path class="cls-2" d="M11.31,42.84v.29a9.28,9.28,0,0,0,9.25,9.26h.2a7.08,7.08,0,0,0-9.45-9.55Zm0,0"/><path class="cls-3" d="M33.88,28.79c8.38,8.37,10,20.27,2.11,28.2l-3.77,3.77c-7.93,7.93-2.45-11.11-10.82-19.49S-6.07,38.43,1.91,30.45l3.77-3.77c7.93-7.93,19.83-6.27,28.2,2.11Zm0,0"/><path class="cls-4" d="M61.6,1.07C64.14,3.62,63,19.78,47.4,35.45,37.21,45.58,30.8,49.16,30.8,49.16c-6.81,4.6-10.09,1.46-14.4-2.84s-7.49-7.59-2.84-14.4c0,0,3.63-6.46,13.76-16.65C42.94-.35,59.05-1.52,61.6,1.07Zm0,0"/><path class="cls-5" d="M33.49,47C26.39,51.7,23,48.47,18.51,44s-7.79-7.88-2.94-15l.73-1.17a48.16,48.16,0,0,0-2.74,4.06C8.91,38.73,12.09,42,16.4,46.32S24,53.71,30.8,49.16a64.77,64.77,0,0,0,8.27-6.08A51.47,51.47,0,0,1,33.49,47Zm0,0"/><path class="cls-6" d="M45.19,17.48a6.12,6.12,0,1,1-8.66,0,6.11,6.11,0,0,1,8.66,0Zm0,0"/><path class="cls-3" d="M31,32.65c1.23,1.23-1.12,5.59-7.1,11.56s-9.59,7.59-10.82,6.32.34-4.85,6.32-10.82S29.77,31.38,31,32.65Zm0,0"/><path class="cls-7" d="M40.88,17.13A4.68,4.68,0,1,1,37.6,18.5a4.67,4.67,0,0,1,3.28-1.37m0-1.47a5.9,5.9,0,0,0-4.3,1.82A6.14,6.14,0,0,0,40.88,28a5.89,5.89,0,0,0,4.31-1.81,6.11,6.11,0,0,0,0-8.66,5.9,5.9,0,0,0-4.31-1.82Zm0,0"/><path class="cls-3" d="M46.61,2.3a17.28,17.28,0,0,0,5.1,9.64,18.2,18.2,0,0,0,8.37,4.85c3.23-8,3-14.2,1.52-15.72s-7.3-1.71-15,1.23Zm0,0"/></svg>