<svg id="Layer_1" data-name="Layer 1" xmlns="http://www.w3.org/2000/svg" viewBox="0 0 19.27 18.07"><defs><style>.cls-1{fill:#fff;}</style></defs><title>upload files</title><path class="cls-1" d="M10.12,7.36a.1.1,0,0,1,0-.05l0,0a.62.62,0,0,0-.4-.15.6.6,0,0,0-.42.18h0a.1.1,0,0,1,0,.05L6.92,9.62a.59.59,0,0,0,0,.85.61.61,0,0,0,.85,0L9,9.2v8.27a.61.61,0,0,0,1.21,0V9.2l1.27,1.27a.61.61,0,0,0,.85,0,.59.59,0,0,0,0-.85Z"/><path class="cls-1" d="M15.56,5A6,6,0,0,0,3.71,5a4.81,4.81,0,0,0,1.11,9.5.6.6,0,1,0,0-1.2A3.62,3.62,0,0,1,1.2,9.64a3.86,3.86,0,0,1,.21-1.22,3.68,3.68,0,0,1,.59-1A3.59,3.59,0,0,1,4,6.12l.76-.18.14-.78A4.8,4.8,0,0,1,6.53,2.34,4.73,4.73,0,0,1,8,1.51a4.73,4.73,0,0,1,3.37,0,4.61,4.61,0,0,1,1.42.83,4.8,4.8,0,0,1,1.64,2.82l.14.78.77.18a3.6,3.6,0,0,1,2,1.26,3.46,3.46,0,0,1,.59,1,3.62,3.62,0,0,1-3.41,4.83h0a.6.6,0,1,0,0,1.2h0A4.81,4.81,0,0,0,15.56,5Z"/></svg>