<?xml version="1.0" encoding="utf-8"?>
<!-- Generator: Adobe Illustrator 24.1.0, SVG Export Plug-In . SVG Version: 6.00 Build 0)  -->
<svg version="1.1" id="图层_1" xmlns="http://www.w3.org/2000/svg" xmlns:xlink="http://www.w3.org/1999/xlink" fill="#DADADA" x="0px" y="0px"
	 viewBox="0 0 24 24" style="enable-background:new 0 0 24 24;" xml:space="preserve">
<path d="M14.18,14.36c-0.11-0.04-0.82-0.36-0.38-1.69h0c1.15-1.18,2.02-3.08,2.02-4.95c0-2.87-1.91-4.38-4.13-4.38
	S7.56,4.85,7.56,7.73c0,1.88,0.87,3.78,2.02,4.96c0.45,1.18-0.36,1.61-0.52,1.68c-2.33,0.84-5.06,2.37-5.06,3.89v0.57
	c0,2.06,4,2.53,7.7,2.53c3.71,0,7.65-0.47,7.65-2.53v-0.57C19.36,16.69,16.62,15.17,14.18,14.36z"/>
</svg>
